<svg width="140" height="52" viewBox="0 0 140 52" fill="none" xmlns="http://www.w3.org/2000/svg">
<g id="App Store Black Border">
<rect id="Body" x="1.16498" y="0.716981" width="137.954" height="50.566" rx="7.83019" fill="white" stroke="#090909" stroke-width="0.566038"/>
<g id="Logo">
<g id="Apple logo">
<path d="M32.9395 26.758C32.9667 24.6455 34.0967 22.6466 35.8895 21.5401C34.7585 19.9186 32.8642 18.8905 30.8934 18.8286C28.7913 18.6071 26.7534 20.0914 25.6822 20.0914C24.5903 20.0914 22.9411 18.8506 21.1651 18.8873C18.8502 18.9623 16.6921 20.2836 15.5659 22.3153C13.1449 26.5233 14.9508 32.7075 17.2699 36.1088C18.4301 37.7744 19.7862 39.6348 21.5606 39.5689C23.2969 39.4966 23.9454 38.4574 26.0413 38.4574C28.1177 38.4574 28.7261 39.5689 30.5365 39.5269C32.3996 39.4966 33.5735 37.854 34.6931 36.1727C35.5268 34.9859 36.1683 33.6743 36.5938 32.2863C34.4043 31.3566 32.9421 29.1446 32.9395 26.758Z" fill="#090909"/>
<path d="M29.52 16.5917C30.5359 15.3674 31.0364 13.7938 30.9152 12.2051C29.3632 12.3687 27.9295 13.1134 26.9 14.2907C25.8931 15.441 25.3692 16.9869 25.4683 18.5149C27.0208 18.5309 28.5472 17.8065 29.52 16.5917Z" fill="#090909"/>
</g>
</g>
<g id="Texto">
<g id="App Store">
<path d="M94.8692 24.5749V27.1347H93.2709V28.8135H94.8692V34.5176C94.8692 36.4653 95.7469 37.2444 97.955 37.2444C98.343 37.2444 98.7126 37.198 99.0359 37.1423V35.4821C98.7588 35.51 98.5832 35.5285 98.2783 35.5285C97.2898 35.5285 96.8556 35.0648 96.8556 34.0074V28.8135H99.0359V27.1347H96.8556V24.5749H94.8692Z" fill="#090909"/>
<path d="M104.661 37.3835C107.599 37.3835 109.4 35.4079 109.4 32.1339C109.4 28.8784 107.59 26.8936 104.661 26.8936C101.723 26.8936 99.9121 28.8784 99.9121 32.1339C99.9121 35.4079 101.714 37.3835 104.661 37.3835ZM104.661 35.612C102.933 35.612 101.963 34.3413 101.963 32.1339C101.963 29.945 102.933 28.6651 104.661 28.6651C106.379 28.6651 107.359 29.945 107.359 32.1339C107.359 34.3321 106.379 35.612 104.661 35.612Z" fill="#090909"/>
<path d="M110.942 37.1887H112.928V31.225C112.928 29.8059 113.991 28.8506 115.497 28.8506C115.848 28.8506 116.439 28.9155 116.605 28.9712V27.0049C116.393 26.9492 116.014 26.9214 115.718 26.9214C114.406 26.9214 113.288 27.6449 113.002 28.6373H112.854V27.0884H110.942V37.1887Z" fill="#090909"/>
<path d="M121.537 28.5909C123.006 28.5909 123.967 29.6204 124.013 31.2064H118.932C119.043 29.6297 120.068 28.5909 121.537 28.5909ZM124.004 34.4619C123.635 35.2503 122.812 35.6862 121.611 35.6862C120.022 35.6862 118.997 34.5639 118.932 32.7924V32.6811H126.037V31.9855C126.037 28.8135 124.346 26.8936 121.547 26.8936C118.71 26.8936 116.909 28.9433 116.909 32.171C116.909 35.3987 118.673 37.3835 121.556 37.3835C123.856 37.3835 125.464 36.2705 125.917 34.4619H124.004Z" fill="#090909"/>
<path d="M81.843 33.4588C81.9962 35.939 84.055 37.5252 87.1193 37.5252C90.3942 37.5252 92.4434 35.8621 92.4434 33.2089C92.4434 31.1228 91.2752 29.9692 88.4407 29.3059L86.9182 28.931C85.1179 28.508 84.3902 27.9409 84.3902 26.9507C84.3902 25.701 85.5201 24.8839 87.215 24.8839C88.8238 24.8839 89.9346 25.6818 90.1356 26.9603H92.2232C92.0987 24.6243 90.0495 22.9805 87.2438 22.9805C84.2274 22.9805 82.2165 24.6243 82.2165 27.0949C82.2165 29.1329 83.356 30.3442 85.8553 30.9306L87.6364 31.3631C89.4653 31.7957 90.2697 32.4302 90.2697 33.4877C90.2697 34.7181 89.0057 35.6122 87.2821 35.6122C85.4339 35.6122 84.1508 34.7758 83.9688 33.4588H81.843Z" fill="#090909"/>
<path d="M61.2665 26.9214C59.8991 26.9214 58.7165 27.6078 58.1068 28.7578H57.9589V27.0884H56.0465V40.5462H58.0329V35.6584H58.1899C58.7165 36.725 59.8529 37.3557 61.2849 37.3557C63.8256 37.3557 65.4424 35.343 65.4424 32.1339C65.4424 28.9248 63.8256 26.9214 61.2665 26.9214ZM60.7029 35.5656C59.0399 35.5656 57.9959 34.2486 57.9959 32.1432C57.9959 30.0285 59.0399 28.7115 60.7121 28.7115C62.3936 28.7115 63.4006 30.0007 63.4006 32.1339C63.4006 34.2764 62.3936 35.5656 60.7029 35.5656Z" fill="#090909"/>
<path d="M72.393 26.9214C71.0256 26.9214 69.8431 27.6078 69.2333 28.7578H69.0855V27.0884H67.173V40.5462H69.1594V35.6584H69.3164C69.8431 36.725 70.9794 37.3557 72.4115 37.3557C74.9521 37.3557 76.5689 35.343 76.5689 32.1339C76.5689 28.9248 74.9521 26.9214 72.393 26.9214ZM71.8294 35.5656C70.1664 35.5656 69.1224 34.2486 69.1224 32.1432C69.1224 30.0285 70.1664 28.7115 71.8386 28.7115C73.5201 28.7115 74.5271 30.0007 74.5271 32.1339C74.5271 34.2764 73.5201 35.5656 71.8294 35.5656Z" fill="#090909"/>
<path d="M52.4827 37.1887H54.7617L49.7727 23.3169H47.4649L42.476 37.1887H44.6784L45.952 33.5069H51.2186L52.4827 37.1887ZM48.5087 25.8356H48.6715L50.6728 31.6996H46.4978L48.5087 25.8356Z" fill="#090909"/>
</g>
<g id="Download on the">
<path d="M42.4209 13.5335V19.0166H44.3929C46.0205 19.0166 46.963 18.0097 46.963 16.2579C46.963 14.5328 46.0129 13.5335 44.3929 13.5335H42.4209ZM43.2688 14.3086H44.2983C45.43 14.3086 46.1 15.0306 46.1 16.2693C46.1 17.5271 45.4414 18.2415 44.2983 18.2415H43.2688V14.3086Z" fill="#090909"/>
<path d="M49.8495 19.0964C51.0531 19.0964 51.7912 18.2871 51.7912 16.9457C51.7912 15.612 51.0493 14.7988 49.8495 14.7988C48.6458 14.7988 47.9039 15.612 47.9039 16.9457C47.9039 18.2871 48.642 19.0964 49.8495 19.0964ZM49.8495 18.3707C49.1417 18.3707 48.7442 17.8501 48.7442 16.9457C48.7442 16.049 49.1417 15.5246 49.8495 15.5246C50.5535 15.5246 50.9547 16.049 50.9547 16.9457C50.9547 17.8463 50.5535 18.3707 49.8495 18.3707Z" fill="#090909"/>
<path d="M58.0767 14.8786H57.2629L56.5286 18.0363H56.4642L55.6164 14.8786H54.8367L53.9888 18.0363H53.9282L53.1902 14.8786H52.365L53.5005 19.0166H54.337L55.1849 15.9692H55.2492L56.1009 19.0166H56.9449L58.0767 14.8786Z" fill="#090909"/>
<path d="M59.0139 19.0166H59.8276V16.5961C59.8276 15.9502 60.2099 15.5474 60.8118 15.5474C61.4136 15.5474 61.7013 15.878 61.7013 16.5429V19.0166H62.515V16.3377C62.515 15.3536 62.0078 14.7988 61.0881 14.7988C60.4673 14.7988 60.0585 15.0762 59.8579 15.536H59.7974V14.8786H59.0139V19.0166Z" fill="#090909"/>
<path d="M63.7967 19.0166H64.6105V13.2637H63.7967V19.0166Z" fill="#090909"/>
<path d="M67.6711 19.0964C68.8747 19.0964 69.6128 18.2871 69.6128 16.9457C69.6128 15.612 68.8709 14.7988 67.6711 14.7988C66.4674 14.7988 65.7255 15.612 65.7255 16.9457C65.7255 18.2871 66.4636 19.0964 67.6711 19.0964ZM67.6711 18.3707C66.9632 18.3707 66.5658 17.8501 66.5658 16.9457C66.5658 16.049 66.9632 15.5246 67.6711 15.5246C68.3751 15.5246 68.7763 16.049 68.7763 16.9457C68.7763 17.8463 68.3751 18.3707 67.6711 18.3707Z" fill="#090909"/>
<path d="M72.0375 18.3973C71.5946 18.3973 71.2729 18.1807 71.2729 17.8083C71.2729 17.4435 71.5303 17.2497 72.0981 17.2117L73.1049 17.1471V17.4929C73.1049 18.0059 72.6507 18.3973 72.0375 18.3973ZM71.8293 19.085C72.3706 19.085 72.821 18.8494 73.067 18.4352H73.1314V19.0166H73.9149V16.1895C73.9149 15.3156 73.332 14.7988 72.2987 14.7988C71.3638 14.7988 70.6976 15.2548 70.6143 15.9654H71.4016C71.4925 15.6728 71.8066 15.5056 72.2608 15.5056C72.8172 15.5056 73.1049 15.7526 73.1049 16.1895V16.5467L71.9883 16.6113C71.008 16.6721 70.4553 17.1015 70.4553 17.8463C70.4553 18.6024 71.0345 19.085 71.8293 19.085Z" fill="#090909"/>
<path d="M76.6765 19.085C77.2442 19.085 77.7249 18.8152 77.971 18.3631H78.0353V19.0166H78.815V13.2637H78.0012V15.536H77.9407C77.7174 15.08 77.2405 14.8102 76.6765 14.8102C75.6356 14.8102 74.9656 15.6386 74.9656 16.9457C74.9656 18.2567 75.628 19.085 76.6765 19.085ZM76.9074 15.5436C77.5887 15.5436 78.0164 16.087 78.0164 16.9495C78.0164 17.8159 77.5925 18.3517 76.9074 18.3517C76.2185 18.3517 75.8059 17.8235 75.8059 16.9457C75.8059 16.0756 76.2223 15.5436 76.9074 15.5436Z" fill="#090909"/>
<path d="M84.0922 19.0964C85.2958 19.0964 86.0339 18.2871 86.0339 16.9457C86.0339 15.612 85.292 14.7988 84.0922 14.7988C82.8885 14.7988 82.1467 15.612 82.1467 16.9457C82.1467 18.2871 82.8847 19.0964 84.0922 19.0964ZM84.0922 18.3707C83.3844 18.3707 82.9869 17.8501 82.9869 16.9457C82.9869 16.049 83.3844 15.5246 84.0922 15.5246C84.7962 15.5246 85.1974 16.049 85.1974 16.9457C85.1974 17.8463 84.7962 18.3707 84.0922 18.3707Z" fill="#090909"/>
<path d="M87.1111 19.0166H87.9249V16.5961C87.9249 15.9502 88.3072 15.5474 88.909 15.5474C89.5109 15.5474 89.7985 15.878 89.7985 16.5429V19.0166H90.6123V16.3377C90.6123 15.3536 90.1051 14.7988 89.1854 14.7988C88.5646 14.7988 88.1558 15.0762 87.9552 15.536H87.8946V14.8786H87.1111V19.0166Z" fill="#090909"/>
<path d="M94.3603 13.8488V14.8976H93.7055V15.5854H94.3603V17.9223C94.3603 18.7202 94.7199 19.0394 95.6245 19.0394C95.7835 19.0394 95.9349 19.0204 96.0674 18.9976V18.3175C95.9538 18.3289 95.8819 18.3365 95.757 18.3365C95.352 18.3365 95.1741 18.1465 95.1741 17.7133V15.5854H96.0674V14.8976H95.1741V13.8488H94.3603Z" fill="#090909"/>
<path d="M97.1597 19.0166H97.9735V16.5999C97.9735 15.973 98.3444 15.5512 99.0106 15.5512C99.5859 15.5512 99.8925 15.8856 99.8925 16.5467V19.0166H100.706V16.3453C100.706 15.3612 100.165 14.8026 99.2869 14.8026C98.6662 14.8026 98.2309 15.08 98.0303 15.5436H97.9659V13.2637H97.1597V19.0166Z" fill="#090909"/>
<path d="M103.642 15.4942C104.244 15.4942 104.637 15.916 104.656 16.5657H102.575C102.62 15.9198 103.04 15.4942 103.642 15.4942ZM104.653 17.8995C104.501 18.2225 104.164 18.4011 103.672 18.4011C103.021 18.4011 102.601 17.9413 102.575 17.2155V17.1699H105.485V16.8849C105.485 15.5854 104.793 14.7988 103.646 14.7988C102.484 14.7988 101.746 15.6386 101.746 16.9609C101.746 18.2833 102.469 19.0964 103.65 19.0964C104.592 19.0964 105.251 18.6404 105.436 17.8995H104.653Z" fill="#090909"/>
</g>
</g>
</g>
</svg>
