<svg width="229" height="148" viewBox="0 0 229 148" fill="none" xmlns="http://www.w3.org/2000/svg">
<path d="M91.9506 54.8408C91.9506 54.8408 86.4459 55.0249 83.4287 53.9277V67.0525C83.4287 67.0525 88.2307 67.6161 89.8314 67.8454C89.8314 67.8454 94.7574 54.2922 91.9506 54.8408Z" fill="#00AB88"/>
<path d="M102.129 47.8066L101.633 53.3714L109.527 54.0741L110.016 48.5619L102.129 47.8066Z" fill="#00AB88"/>
<path d="M102.129 47.8066L101.866 50.7675C107.221 54.912 109.761 49.4674 109.982 48.9602L110.02 48.5581L102.133 47.8066H102.129Z" fill="#040000"/>
<path d="M106.612 40.0548C106.612 40.0548 103.177 39.7204 102.246 43.384C101.31 47.0475 101.731 50.8876 105.458 51.3235C109.464 51.7931 110.617 48.7646 110.978 44.4661C111.339 40.1676 107.42 40.0774 106.612 40.0548Z" fill="#00AB88"/>
<path d="M102.283 43.9654C102.283 43.9654 101.16 42.7292 100.461 43.9203C99.7617 45.1114 101.321 47.2832 102.058 46.0959L102.283 43.9654Z" fill="#00AB88"/>
<path d="M110.753 45.0725C110.753 45.0725 112.154 44.167 112.526 45.4971C112.898 46.8272 110.832 48.5256 110.426 47.1917L110.753 45.0725Z" fill="#00AB88"/>
<path d="M104.774 44.8597C104.733 45.1828 104.571 45.4271 104.414 45.4045C104.256 45.3857 104.162 45.1077 104.203 44.7846C104.244 44.4614 104.406 44.2172 104.564 44.2397C104.722 44.2623 104.816 44.5403 104.774 44.8597Z" fill="#040000"/>
<path d="M108.791 45.3812C108.75 45.7043 108.588 45.9486 108.43 45.926C108.272 45.9035 108.178 45.6292 108.22 45.306C108.261 44.9829 108.423 44.7387 108.58 44.7612C108.738 44.78 108.832 45.058 108.791 45.3812Z" fill="#040000"/>
<path d="M101.686 45.2457C101.625 45.2419 101.58 45.1931 101.577 45.1292C101.565 44.761 101.475 44.5092 101.321 44.404C101.171 44.3026 101.002 44.3627 100.994 44.3627C100.934 44.3852 100.863 44.3552 100.844 44.2913C100.821 44.2312 100.851 44.1636 100.915 44.141C100.927 44.1373 101.205 44.0358 101.456 44.2049C101.682 44.3552 101.802 44.6633 101.817 45.1217C101.817 45.1893 101.768 45.2419 101.701 45.2457C101.697 45.2457 101.689 45.2457 101.686 45.2457Z" fill="#040000"/>
<path d="M111.132 46.4774C111.132 46.4774 111.116 46.4774 111.109 46.4736C111.045 46.4548 111.011 46.3872 111.03 46.3271C111.162 45.8875 111.357 45.6207 111.616 45.5343C111.902 45.4366 112.146 45.6056 112.157 45.6094C112.21 45.647 112.225 45.7221 112.187 45.7747C112.15 45.8273 112.075 45.8386 112.022 45.8048C112.015 45.801 111.864 45.6996 111.695 45.7597C111.519 45.8236 111.368 46.0415 111.263 46.3985C111.248 46.4548 111.195 46.4886 111.139 46.4811L111.132 46.4774Z" fill="#040000"/>
<path d="M106.352 46.7756C106.296 46.7718 106.251 46.7267 106.243 46.6666C106.239 46.6027 106.288 46.5464 106.352 46.5389C106.484 46.5276 106.867 46.4524 106.874 46.257C106.874 46.2345 106.867 46.2195 106.852 46.2007C106.75 46.1067 106.412 46.0917 106.206 46.1143C106.142 46.1218 106.082 46.0729 106.074 46.0091C106.066 45.9452 106.115 45.8851 106.179 45.8775C106.239 45.87 106.792 45.8212 107.01 46.0278C107.077 46.0917 107.111 46.1744 107.107 46.2646C107.096 46.6215 106.638 46.753 106.367 46.7756C106.36 46.7756 106.352 46.7756 106.348 46.7756H106.352Z" fill="#040000"/>
<path d="M106.24 48.7708C106.165 48.7633 106.086 48.7558 106.007 48.7445C103.29 48.3913 103.493 46.4863 103.497 46.4675C103.504 46.4036 103.565 46.3585 103.628 46.3661C103.692 46.3736 103.741 46.4337 103.734 46.4976C103.726 46.5652 103.565 48.1884 106.041 48.5116C106.961 48.6318 107.664 48.5003 108.137 48.1208C108.641 47.715 108.693 47.1701 108.693 47.1664C108.701 47.1025 108.757 47.0537 108.821 47.0574C108.885 47.0612 108.934 47.1213 108.93 47.1852C108.93 47.2115 108.866 47.839 108.288 48.3049C107.803 48.6919 107.119 48.8497 106.244 48.7746L106.24 48.7708Z" fill="#040000"/>
<path d="M104.967 43.6789C104.914 43.6751 104.869 43.6338 104.861 43.5812C104.831 43.4234 104.782 43.3182 104.73 43.3069C104.643 43.2844 104.482 43.4271 104.392 43.5399C104.35 43.5925 104.275 43.6 104.223 43.5587C104.17 43.5173 104.162 43.4422 104.204 43.3933C104.253 43.3295 104.516 43.0101 104.786 43.0777C104.944 43.1153 105.045 43.2731 105.094 43.5399C105.106 43.6037 105.064 43.6676 105 43.6789C104.989 43.6789 104.978 43.6789 104.97 43.6789H104.967Z" fill="#040000"/>
<path d="M109.065 44.2021C109.024 44.2021 108.986 44.172 108.968 44.1307C108.911 44.0029 108.795 43.8263 108.708 43.8188H108.705C108.648 43.8188 108.573 43.9053 108.505 44.0518C108.479 44.1119 108.408 44.1382 108.348 44.1082C108.288 44.0819 108.261 44.0105 108.291 43.9503C108.408 43.7024 108.547 43.5784 108.708 43.5821C108.983 43.5859 109.156 43.9616 109.189 44.0368C109.216 44.0969 109.189 44.1683 109.125 44.1946C109.107 44.2021 109.088 44.2059 109.069 44.2021H109.065Z" fill="#040000"/>
<path d="M109.528 54.0718L114.45 55.4057C114.45 55.4057 111.215 58.4756 104.744 57.9044C98.274 57.3295 96.0195 55.4358 96.0195 55.4358L101.633 53.3729C101.633 53.3729 106.552 53.2752 109.528 54.0718Z" fill="#00AB88"/>
<path d="M102.118 43.8765C102.118 43.8765 99.9686 37.7255 107.262 38.7325C114.555 39.7395 110.899 44.9999 110.899 44.9999C110.899 44.9999 110.692 45.4809 110.249 44.3499C109.802 43.2189 107.506 42.1105 107.127 41.4116C107.127 41.4116 105.184 42.7492 104.109 42.7943C103.035 42.8394 102.347 44.658 102.122 43.8802L102.118 43.8765Z" fill="#00AB88"/>
<path d="M102.971 39.6811C102.971 39.6811 97.8794 38.9183 100.897 35.9311C103.914 32.944 104.282 39.0423 104.282 39.0423L102.971 39.6811Z" fill="#00AB88"/>
<path d="M111.407 40.8666C111.407 40.8666 116.498 40.1039 113.481 37.1167C110.463 34.1295 110.095 40.2279 110.095 40.2279L111.407 40.8666Z" fill="#00AB88"/>
<path d="M109.764 43.617C109.745 43.617 109.727 43.6132 109.708 43.6019C107.889 42.6287 107.157 41.8134 106.894 41.2159C105.736 42.1065 103.688 42.6964 103.576 42.7264C103.512 42.7452 103.448 42.7077 103.429 42.6438C103.41 42.5799 103.448 42.516 103.512 42.4972C103.538 42.4897 105.706 41.866 106.807 40.983C106.706 40.611 106.792 40.348 106.86 40.2165C107.006 39.9309 107.299 39.7731 107.502 39.8708C107.566 39.9008 107.762 40.0399 107.57 40.4494C107.468 40.6598 107.299 40.8627 107.085 41.0544C107.292 41.5917 107.953 42.3883 109.821 43.3878C109.881 43.4178 109.9 43.4892 109.869 43.5493C109.847 43.5907 109.806 43.6132 109.764 43.6132V43.617ZM107.371 40.0812C107.303 40.0812 107.164 40.1451 107.07 40.3254C107.036 40.3931 106.972 40.5546 107.014 40.8026C107.164 40.6561 107.281 40.5058 107.352 40.3517C107.435 40.1789 107.416 40.0962 107.397 40.085C107.39 40.085 107.382 40.0812 107.371 40.0812Z" fill="#263133"/>
<path d="M116.768 52.0545L116.182 60.7681L116.137 61.4444L114.115 91.4815L86.0322 88.6447L89.057 71.3566L89.1735 70.684L91.9465 54.8426L101.633 53.3734C104.091 59.9677 109.524 54.0723 109.524 54.0723L116.768 52.0508V52.0545Z" fill="#00AB88"/>
<path d="M106.127 57.0835C103.647 57.0835 101.618 53.5778 101.532 53.4275C101.498 53.3711 101.521 53.2997 101.577 53.2659C101.633 53.2321 101.709 53.2546 101.739 53.311C101.761 53.3486 103.82 56.8956 106.18 56.8467C107.379 56.8204 108.472 55.8698 109.423 54.0174C109.453 53.961 109.524 53.9347 109.584 53.9648C109.644 53.9948 109.667 54.0662 109.637 54.1263C108.641 56.0614 107.48 57.0572 106.187 57.0835C106.169 57.0835 106.15 57.0835 106.131 57.0835H106.127Z" fill="#040000"/>
<path d="M86.0321 88.6453L79.0508 140.686L92.0816 140.585C92.0816 140.585 99.9986 102.702 100.547 102.886C101.096 103.07 110.989 140.603 110.989 140.603L124.163 140.694L114.115 91.4822C114.115 91.4822 96.3088 87.7623 86.0321 88.6453Z" fill="#00AB88"/>
<path d="M114.116 91.5986C114.116 91.5986 114.108 91.5986 114.104 91.5986L86.021 88.7617C85.9571 88.7542 85.9083 88.6978 85.9158 88.6302C85.9233 88.5663 85.9797 88.5137 86.0473 88.525L114.131 91.3618C114.194 91.3694 114.243 91.4257 114.236 91.4934C114.228 91.5535 114.179 91.5986 114.119 91.5986H114.116Z" fill="#040000"/>
<path d="M100.547 103.004C100.547 103.004 100.524 103.004 100.513 103.001C100.449 102.982 100.415 102.918 100.434 102.854L101.67 98.6231C101.689 98.5593 101.753 98.5254 101.817 98.5442C101.881 98.563 101.914 98.6306 101.896 98.6908L100.659 102.922C100.644 102.974 100.595 103.008 100.547 103.008V103.004Z" fill="#040000"/>
<path d="M124.459 140.704C124.459 140.704 129.948 141.861 129.704 147.107H110.981C110.981 147.107 109.974 141.343 111.041 140.58C111.041 140.58 119.702 139.787 124.459 140.704Z" fill="#00AB88"/>
<path d="M129.584 146.073H110.8C110.737 146.073 110.68 146.02 110.68 145.952C110.68 145.885 110.733 145.832 110.8 145.832H129.584C129.648 145.832 129.704 145.885 129.704 145.952C129.704 146.02 129.652 146.073 129.584 146.073Z" fill="#040000"/>
<path d="M124.113 140.801L111.041 140.704C110.973 140.704 110.921 140.651 110.925 140.583C110.925 140.519 110.977 140.467 111.045 140.467L124.117 140.564C124.181 140.564 124.237 140.617 124.233 140.685C124.233 140.749 124.181 140.801 124.113 140.801Z" fill="#040000"/>
<path d="M78.6625 140.704C78.6625 140.704 73.1729 141.861 73.4171 147.107H92.1405C92.1405 147.107 93.1475 141.343 92.0804 140.58C92.0804 140.58 83.4194 139.787 78.6625 140.704Z" fill="#00AB88"/>
<path d="M73.5372 146.073H92.3208C92.3846 146.073 92.4372 146.02 92.4372 145.952C92.4372 145.885 92.3846 145.832 92.3208 145.832H73.5372C73.4734 145.832 73.417 145.885 73.417 145.952C73.417 146.02 73.4696 146.073 73.5372 146.073Z" fill="#040000"/>
<path d="M79.0086 140.801L92.0808 140.704C92.1447 140.704 92.201 140.651 92.1973 140.583C92.1973 140.519 92.1447 140.467 92.077 140.467L79.0048 140.564C78.941 140.564 78.8846 140.617 78.8884 140.685C78.8884 140.749 78.941 140.801 79.0086 140.801Z" fill="#040000"/>
<path d="M118.794 33.2383C118.794 33.2383 119.06 31.0252 118.711 28.7407C118.358 26.4524 116.381 25.2087 117.313 24.4196C118.245 23.6305 119.474 25.5205 119.474 25.5205C119.474 25.5205 116.678 16.9798 117.858 16.4763C117.858 16.4763 118.392 16.1645 118.906 16.5402C118.906 16.5402 118.474 15.3942 118.933 15.1161C119.391 14.8381 120.191 15.1988 120.624 16.202C120.624 16.202 121.608 14.7028 122.42 16.3411C123.227 17.9831 124.283 20.3691 124.283 20.3691C124.283 20.3691 123.926 18.6744 125.121 18.4452C126.316 18.216 126.466 21.6128 126.805 22.5183C127.143 23.4239 129.671 30.781 128.698 35.0532C128.698 35.0532 121.98 35.6581 118.797 33.2346L118.794 33.2383Z" fill="#00AB88"/>
<path d="M121.608 24.9466C121.608 24.9466 121.597 24.9504 121.593 24.9541C121.533 24.9767 121.461 24.9429 121.443 24.8827C120.605 22.5306 119.147 17.1687 119.132 17.1123C119.113 17.0484 119.151 16.9846 119.214 16.9658C119.278 16.947 119.342 16.9846 119.361 17.0484C119.376 17.1011 120.834 22.4554 121.668 24.8001C121.687 24.8564 121.664 24.9203 121.612 24.9466H121.608Z" fill="#040000"/>
<path d="M123.824 24.1878C123.824 24.1878 123.817 24.1878 123.813 24.1916C123.753 24.2179 123.682 24.1878 123.659 24.1239L120.781 16.8608C120.758 16.8006 120.785 16.7255 120.849 16.7067C120.909 16.6842 120.98 16.7142 121.003 16.7743L123.881 24.0375C123.903 24.0939 123.881 24.1577 123.824 24.1878Z" fill="#040000"/>
<path d="M125.359 23.6373C125.359 23.6373 125.347 23.6448 125.34 23.6448C125.276 23.6636 125.212 23.6298 125.193 23.5659L124.359 20.808C124.34 20.7441 124.374 20.6802 124.438 20.6614C124.502 20.6426 124.566 20.6764 124.588 20.7403L125.423 23.4983C125.441 23.5547 125.415 23.611 125.362 23.6373H125.359Z" fill="#040000"/>
<path d="M127.518 49.7655C127 51.2798 125.606 53.5455 123.945 55.9465C123.72 56.2697 123.49 56.5966 123.257 56.9235C119.744 61.8533 115.446 66.9634 115.446 66.9634C115.446 66.9634 114.397 65.2951 113.157 63.1609C113.067 63.003 112.977 62.8452 112.883 62.6799C112.834 62.601 112.789 62.5183 112.744 62.4394C112.583 62.1576 112.421 61.8721 112.259 61.579C112.098 61.2859 111.932 60.989 111.771 60.6922C111.624 60.4179 111.474 60.1399 111.331 59.8656C109.832 57.0099 108.686 54.3271 109.524 54.0716C109.524 54.0716 116.31 47.9807 117.133 45.467C117.956 42.9533 118.79 33.2402 118.79 33.2402L128.691 35.0588C128.691 35.0588 129.164 44.9635 127.515 49.7655H127.518Z" fill="#00AB88"/>
<path d="M128.754 36.7558C128.754 36.7558 128.747 36.7558 128.743 36.7558L118.545 35.8878C118.481 35.8803 118.432 35.824 118.436 35.7601C118.44 35.6962 118.5 35.6436 118.564 35.6511L128.762 36.5191C128.826 36.5228 128.874 36.583 128.871 36.6468C128.867 36.707 128.814 36.7558 128.754 36.7558Z" fill="#040000"/>
<path d="M115.765 66.5784C115.765 66.5784 115.762 66.5784 115.758 66.5784C115.694 66.5746 115.641 66.5182 115.645 66.4544L115.829 63.4371C115.833 63.3733 115.889 63.3207 115.957 63.3244C116.021 63.3282 116.074 63.3845 116.07 63.4484L115.886 66.4656C115.886 66.5295 115.829 66.5784 115.765 66.5784Z" fill="#040000"/>
<path d="M89.647 67.9071C89.647 67.9071 89.6357 67.9071 89.6282 67.9071C89.5644 67.8958 89.5193 67.8357 89.5305 67.7718L90.0115 64.7772C90.0228 64.7133 90.0829 64.6682 90.1468 64.6795C90.2106 64.6907 90.2557 64.7509 90.2445 64.8147L89.7635 67.8094C89.7522 67.8695 89.7034 67.9109 89.647 67.9109V67.9071Z" fill="#040000"/>
<path d="M119.357 58.6849C118.207 59.4703 117.151 60.1616 116.182 60.7666C114.946 61.5369 113.852 62.1681 112.883 62.6791C112.808 62.7205 112.732 62.758 112.657 62.7994C112.691 62.6754 112.721 62.5551 112.744 62.4386C112.883 61.7473 112.815 61.1799 112.541 60.7328C112.266 60.2931 111.834 60.0226 111.331 59.8685C110.016 59.4627 108.22 59.8498 107.555 60.0226C106.375 60.3232 105.154 61.8036 104.936 63.1864C104.808 63.9867 105.052 64.6255 105.62 64.9862C106.446 65.5085 108.145 65.5611 111.62 63.9341C111.019 65.0989 109.948 66.647 108.148 68.7061C106.097 71.0583 104.06 72.8543 102.283 74.2821C101.603 73.2038 100.769 72.0953 99.7767 70.9944C98.4127 69.4764 97.3306 67.9922 96.5039 66.6357C97.4696 65.7152 98.1647 64.742 98.3451 63.7801C98.5217 62.8294 98.1985 61.9577 97.3832 61.1912C95.5119 59.4289 94.6139 59.5529 94.1856 59.97C93.3477 60.7854 93.9714 63.4118 95.8088 66.5418C93.9451 68.1951 91.1758 69.7056 89.1731 70.69L89.0566 71.3626C91.0744 70.3969 94.0465 68.8113 96.0944 67.0152C96.9586 68.4168 98.0557 69.901 99.3671 71.3626C100.348 72.4523 101.174 73.557 101.847 74.6316C101.174 75.1652 100.543 75.6423 99.9645 76.0782C97.6612 77.8217 96.271 78.8738 96.3536 80.1025C96.41 80.9817 97.2254 81.8046 99.0703 82.8529C100.415 83.6194 101.43 83.8825 102.189 83.8825C103.158 83.8825 103.714 83.4541 104.011 83.0821C105.139 81.6806 104.752 78.4341 102.568 74.7631C104.38 73.3165 106.457 71.4866 108.558 69.0781C110.489 66.8649 111.767 65.0238 112.383 63.5696C112.631 63.4456 112.89 63.3104 113.153 63.1714C114.047 62.6979 115.039 62.1268 116.133 61.4542C117.204 60.7929 118.38 60.0301 119.665 59.1509C120.957 58.2679 122.152 57.5277 123.249 56.934C123.482 56.6071 123.712 56.2802 123.937 55.957C122.573 56.6296 121.044 57.5427 119.353 58.6962L119.357 58.6849ZM94.5688 60.357C94.6365 60.2894 94.7342 60.2518 94.8657 60.2518C95.264 60.2518 95.9628 60.6012 97.0074 61.5819C97.6875 62.2207 97.9505 62.9083 97.8078 63.6748C97.6575 64.4977 97.0638 65.3394 96.2221 66.1548C94.4937 63.1676 94.039 60.8755 94.5688 60.357ZM103.587 82.7252C102.858 83.6345 101.351 83.5029 99.3408 82.3682C97.7213 81.4476 96.9435 80.7112 96.8985 80.0574C96.8346 79.118 98.2136 78.0809 100.295 76.5028C100.859 76.0782 101.475 75.6085 102.133 75.0938C104.12 78.4604 104.59 81.4739 103.587 82.7214V82.7252ZM111.977 63.145C107.934 65.144 106.435 64.8509 105.913 64.5203C105.435 64.2234 105.413 63.6786 105.477 63.2728C105.661 62.1005 106.717 60.8042 107.69 60.5524C108.404 60.3683 109.215 60.2405 109.956 60.2405C110.696 60.2405 111.35 60.3683 111.774 60.6914C111.894 60.7816 111.996 60.8906 112.075 61.0183C112.165 61.1649 112.233 61.3527 112.259 61.5782C112.308 61.9614 112.24 62.4687 111.977 63.145Z" fill="white"/>
<path d="M58.9685 52.8108C58.9685 52.8108 56.1842 53.4834 51.9157 56.6848C51.9157 56.6848 46.2157 60.6789 45.2387 60.8029C44.2618 60.9269 39.4447 57.5715 39.4447 57.5715L32.8579 65.62C32.8579 65.62 41.1206 72.5863 44.5962 72.7254C48.0719 72.8644 57.4016 66.0033 57.4016 66.0033C57.4016 66.0033 61.0351 52.3862 58.9647 52.8146L58.9685 52.8108Z" fill="#F5C700"/>
<path d="M106.662 37.473C106.662 37.473 104.333 44.9165 98.4784 52.5103C96.8439 54.6295 95.0291 56.4143 93.2631 57.891C93.1128 58.0188 92.9587 58.1428 92.8084 58.263C88.4197 61.8138 84.4518 63.4257 84.4518 63.4257C84.4518 63.4257 82.9038 58.7026 82.5205 54.746C82.5017 54.5581 82.4867 54.3778 82.4754 54.1937C82.3176 51.8753 82.6219 49.9214 83.9709 49.5119C83.9709 49.5119 87.2248 47.8436 90.5201 44.3679C93.8117 40.8923 97.6029 33.0918 97.6029 33.0918L106.666 37.473H106.662Z" fill="#F5C700"/>
<path d="M75.3849 46.6621L75.5315 52.2833L67.5544 52.4899L67.4116 46.9214L75.3849 46.6621Z" fill="#F5C700"/>
<path d="M75.3849 46.6621L75.4638 49.653C69.8239 53.4781 67.6145 47.8457 67.4229 47.3272L67.4116 46.9214L75.3849 46.6621Z" fill="#040000"/>
<path d="M67.5314 51.3163L63.1577 52.3984C63.1577 52.3984 65.5813 56.8059 72.1155 56.6368C78.6497 56.4678 80.9305 50.8691 80.9305 50.8691L75.4747 51.3313C75.4747 51.3313 70.5674 50.7001 67.5314 51.3163Z" fill="#F5C700"/>
<path d="M85.5678 87.0864L54.5049 88.5594L55.1775 83.1712L55.2451 82.6226L58.9687 52.8147L67.532 51.3192C71.6727 57.5416 75.479 51.3342 75.479 51.3342L83.9746 49.5156L84.1662 54.0058L84.1888 54.5544L85.5715 87.0864H85.5678Z" fill="#F5C700"/>
<path d="M71.8266 54.3704C69.4368 54.3704 67.513 51.5073 67.4303 51.3833C67.3928 51.3269 67.4078 51.2555 67.4642 51.2179C67.5205 51.1804 67.5919 51.1954 67.6295 51.2518C67.6483 51.2818 69.6285 54.2239 71.943 54.13C73.2131 54.0736 74.3666 53.1155 75.3698 51.2743C75.3999 51.2179 75.4751 51.1954 75.5314 51.2255C75.5878 51.2555 75.6103 51.3307 75.5803 51.387C74.5357 53.3033 73.3145 54.3066 71.9543 54.3667C71.913 54.3667 71.8679 54.3667 71.8266 54.3667V54.3704Z" fill="#040000"/>
<path d="M54.5054 88.5573L43.4697 140.692L56.8087 140.56C56.8087 140.56 69.4262 100.709 70.715 100.709C72.0038 100.709 77.8054 140.568 77.8054 140.568L90.9903 140.643L85.572 87.0806C85.572 87.0806 63.2565 85.882 54.5091 88.5535L54.5054 88.5573Z" fill="#F5C700"/>
<path d="M91.2825 140.653C91.2825 140.653 96.806 141.818 96.5618 147.101H77.7144C77.7144 147.101 76.6998 141.299 77.7745 140.533C77.7745 140.533 86.4918 139.736 91.2788 140.657L91.2825 140.653Z" fill="#F5C700"/>
<path d="M96.4452 146.055H77.5377C77.4701 146.055 77.4175 146.002 77.4175 145.935C77.4175 145.867 77.4701 145.814 77.5377 145.814H96.4452C96.5129 145.814 96.5655 145.867 96.5655 145.935C96.5655 146.002 96.5129 146.055 96.4452 146.055Z" fill="#040000"/>
<path d="M90.9371 140.756L77.7784 140.655C77.7108 140.655 77.6582 140.602 77.6582 140.534C77.6582 140.467 77.7108 140.414 77.7784 140.414L90.9371 140.516C91.0047 140.516 91.0573 140.568 91.0573 140.636C91.0573 140.703 91.0047 140.756 90.9371 140.756Z" fill="#040000"/>
<path d="M43.2822 140.653C43.2822 140.653 37.7587 141.818 38.003 147.101H56.8504C56.8504 147.101 57.8649 141.299 56.7903 140.533C56.7903 140.533 48.073 139.736 43.286 140.657L43.2822 140.653Z" fill="#F5C700"/>
<path d="M38.1198 146.055H57.0273C57.0912 146.055 57.1475 146.002 57.1475 145.935C57.1475 145.867 57.0949 145.814 57.0273 145.814H38.1198C38.0521 145.814 37.9995 145.867 37.9995 145.935C37.9995 146.002 38.0521 146.055 38.1198 146.055Z" fill="#040000"/>
<path d="M43.6271 140.756L56.7857 140.655C56.8533 140.655 56.9059 140.602 56.9059 140.534C56.9059 140.467 56.8533 140.414 56.7857 140.414L43.6271 140.516C43.5594 140.516 43.5068 140.568 43.5068 140.636C43.5068 140.703 43.5594 140.756 43.6271 140.756Z" fill="#040000"/>
<path d="M54.505 88.6764C54.4411 88.6764 54.3885 88.6276 54.3848 88.5637C54.3848 88.4961 54.4336 88.4397 54.4975 88.4397L85.5604 86.9668C85.6243 86.9668 85.6844 87.0156 85.6844 87.0795C85.6844 87.1472 85.6355 87.1998 85.5717 87.2035L54.5088 88.6764C54.5088 88.6764 54.505 88.6764 54.5012 88.6764H54.505Z" fill="#040000"/>
<path d="M70.7107 100.832C70.7107 100.832 70.6881 100.832 70.6769 100.828C70.613 100.809 70.5792 100.742 70.5979 100.678L72.0107 96.1349C72.0295 96.071 72.0972 96.0372 72.161 96.0559C72.2249 96.0747 72.2587 96.1424 72.2399 96.2063L70.8271 100.749C70.8121 100.802 70.7633 100.832 70.7144 100.832H70.7107Z" fill="#040000"/>
<path d="M97.5991 33.0924C97.5991 33.0924 98.4445 31.0295 98.7113 28.7337C98.9781 26.4342 97.4037 24.7095 98.5084 24.1947C99.6169 23.6837 100.297 25.8292 100.297 25.8292C100.297 25.8292 99.8686 16.8526 101.142 16.6798C101.142 16.6798 101.74 16.5182 102.138 17.0217C102.138 17.0217 102.025 15.8043 102.54 15.6578C103.055 15.5112 103.731 16.0711 103.882 17.1532C103.882 17.1532 105.231 15.9696 105.576 17.7657C105.922 19.5618 106.305 22.1469 106.305 22.1469C106.305 22.1469 106.41 20.4185 107.624 20.5162C108.838 20.6139 108.079 23.9242 108.165 24.8898C108.252 25.8518 109.213 33.8927 106.662 37.4773C106.662 37.4773 100.026 36.2787 97.5991 33.0961V33.0924Z" fill="#F5C700"/>
<path d="M102.518 25.842C102.518 25.842 102.507 25.842 102.503 25.842C102.439 25.8458 102.379 25.7969 102.375 25.733C102.195 23.2418 102.206 17.6846 102.206 17.6282C102.206 17.5643 102.259 17.5117 102.326 17.5117C102.394 17.5117 102.447 17.5643 102.447 17.632C102.447 17.6883 102.432 23.2343 102.612 25.718C102.616 25.7781 102.574 25.8307 102.518 25.842Z" fill="#040000"/>
<path d="M104.855 25.6975C104.855 25.6975 104.847 25.6975 104.843 25.6975C104.78 25.705 104.719 25.6562 104.712 25.5923L103.866 17.8256C103.859 17.7618 103.908 17.6979 103.972 17.6941C104.036 17.6866 104.096 17.7355 104.103 17.7993L104.949 25.566C104.956 25.6261 104.915 25.6825 104.855 25.6937V25.6975Z" fill="#040000"/>
<path d="M106.478 25.5777C106.478 25.5777 106.463 25.5777 106.456 25.5777C106.392 25.5777 106.336 25.5288 106.336 25.4612L106.264 22.5792C106.264 22.5116 106.313 22.459 106.381 22.459C106.448 22.459 106.501 22.5078 106.501 22.5755L106.572 25.4574C106.572 25.5138 106.535 25.5664 106.478 25.5777Z" fill="#040000"/>
<path d="M71.1252 39.0599C71.1252 39.0599 67.6534 39.0599 67.0747 42.8248C66.4998 46.5861 67.2926 50.3924 71.0726 50.4638C75.1307 50.5427 75.9912 47.3939 75.931 43.0503C75.8709 38.7104 71.9331 38.9998 71.1252 39.0599Z" fill="#F5C700"/>
<path d="M67.2697 43.0879C67.2697 43.0879 66.1124 41.8705 65.436 43.0879C64.7597 44.3054 66.3867 46.4509 67.0968 45.241L67.2734 43.0879H67.2697Z" fill="#F5C700"/>
<path d="M70.678 44.1071C70.6667 44.434 70.5277 44.6933 70.3699 44.6895C70.2083 44.6857 70.0881 44.4152 70.0994 44.0883C70.1106 43.7614 70.2497 43.5021 70.4075 43.5059C70.569 43.5134 70.6893 43.7802 70.678 44.1071Z" fill="#040000"/>
<path d="M74.7513 44.238C74.74 44.5649 74.601 44.8241 74.4431 44.8204C74.2816 44.8166 74.1613 44.5461 74.1726 44.2192C74.1839 43.8923 74.3229 43.633 74.4807 43.6368C74.6385 43.6405 74.7625 43.9111 74.7513 44.238Z" fill="#040000"/>
<path d="M66.5974 44.3803C66.6612 44.3765 66.7138 44.3202 66.7101 44.2563C66.6838 43.7979 66.556 43.486 66.3231 43.3432C66.0638 43.1779 65.7895 43.2869 65.7782 43.2906C65.7181 43.3169 65.6881 43.3846 65.7106 43.4447C65.7369 43.5048 65.8045 43.5349 65.8647 43.5123C65.8722 43.5123 66.045 43.4447 66.1953 43.5424C66.3531 43.6438 66.4471 43.8956 66.4696 44.2676C66.4734 44.3315 66.5297 44.3841 66.5974 44.3803Z" fill="#040000"/>
<path d="M72.2931 45.8679C72.2931 45.8679 72.3006 45.8679 72.3044 45.8679C72.5711 45.819 73.0183 45.6462 72.9957 45.2855C72.9882 45.1915 72.9469 45.1126 72.8717 45.0563C72.6313 44.8722 72.0864 44.9736 72.0225 44.9886C71.9587 45.0037 71.9173 45.0638 71.9286 45.1314C71.9399 45.1953 72.0038 45.2404 72.0676 45.2254C72.2743 45.184 72.6125 45.1652 72.7214 45.2517C72.7402 45.2667 72.7477 45.2817 72.7515 45.3043C72.7628 45.4997 72.3908 45.6124 72.2593 45.6349C72.1954 45.6462 72.1503 45.7063 72.1616 45.774C72.1728 45.8341 72.2292 45.8754 72.2893 45.8716L72.2931 45.8679Z" fill="#040000"/>
<path d="M72.4401 47.8527C73.1765 47.8001 73.7477 47.5822 74.1422 47.1951C74.6795 46.6691 74.6758 46.0378 74.6758 46.0115C74.6758 45.9439 74.6194 45.8913 74.5555 45.8951C74.4879 45.8951 74.4353 45.9514 74.4353 46.0153C74.4353 46.0228 74.4353 46.5789 73.9694 47.0298C73.5335 47.4544 72.8421 47.6535 71.9103 47.6272C69.389 47.5483 69.4003 45.8537 69.4041 45.8349C69.4041 45.7673 69.3552 45.7147 69.2876 45.7109C69.2237 45.7109 69.1673 45.7598 69.1636 45.8274C69.1636 45.8462 69.1485 47.7738 71.9028 47.864C72.0906 47.8715 72.271 47.864 72.4401 47.8564V47.8527Z" fill="#040000"/>
<path d="M70.7605 42.9022C70.7605 42.9022 70.7755 42.9022 70.783 42.8985C70.8469 42.8797 70.8845 42.8158 70.8657 42.7519C70.7905 42.4889 70.6703 42.3424 70.5087 42.3198C70.2344 42.2785 70.0014 42.6242 69.9564 42.6918C69.9225 42.7482 69.9376 42.8196 69.9939 42.8571C70.0503 42.8947 70.1254 42.8759 70.1593 42.8196C70.2344 42.6993 70.3847 42.5415 70.4749 42.5528C70.5313 42.5603 70.5914 42.658 70.6327 42.8158C70.6477 42.8722 70.7003 42.906 70.7567 42.9022H70.7605Z" fill="#040000"/>
<path d="M74.916 43.0302C74.916 43.0302 74.9498 43.0227 74.9648 43.0152C75.0212 42.9851 75.0437 42.91 75.0136 42.8536C74.9723 42.7822 74.7657 42.4253 74.4914 42.4441C74.3298 42.4553 74.202 42.5944 74.1081 42.8536C74.0856 42.9138 74.1194 42.9851 74.1795 43.0077C74.2434 43.0302 74.311 42.9964 74.3335 42.9363C74.3862 42.7822 74.4538 42.6883 74.5102 42.6846C74.5966 42.677 74.7394 42.8499 74.807 42.9701C74.8295 43.0114 74.8746 43.034 74.9197 43.0302H74.916Z" fill="#040000"/>
<path d="M67.037 42.9448C67.037 42.9448 68.7879 43.0125 69.6146 40.619C69.6146 40.619 71.6624 42.9899 73.1128 41.517C73.1128 41.517 77.5315 43.5873 76.9341 40.6415C76.3367 37.6957 72.5153 36.0837 69.3816 37.5792C69.3816 37.5792 63.2119 37.0945 67.0332 42.9448H67.037Z" fill="#F5C700"/>
<path d="M75.5702 42.0898C73.2819 41.8982 72.3801 40.7221 72.3726 40.7108C72.3313 40.6582 72.2599 40.647 72.2035 40.6845C72.1509 40.7221 72.1396 40.7973 72.1772 40.8536C72.196 40.8799 72.4289 41.188 72.9475 41.5149C72.7258 41.7329 72.4552 41.8493 72.1471 41.8606C71.1251 41.8944 69.949 40.8198 69.7424 40.6207C69.8025 40.4553 69.8325 40.3426 69.8363 40.3276C69.8551 40.2637 69.8175 40.1961 69.7536 40.181C69.6898 40.166 69.6259 40.2036 69.6071 40.2675C69.6033 40.2825 69.1412 41.9508 67.9726 42.552C67.9125 42.5821 67.8899 42.6534 67.92 42.7136C67.9425 42.7549 67.9839 42.7774 68.0252 42.7774C68.044 42.7774 68.0628 42.7737 68.0816 42.7624C68.9195 42.3341 69.408 41.4398 69.6484 40.8611C69.9904 41.1768 71.08 42.1011 72.102 42.1011C72.1208 42.1011 72.1396 42.1011 72.1584 42.1011C72.5529 42.0861 72.8911 41.932 73.1617 41.6427C73.699 41.947 74.4768 42.2401 75.5514 42.3303C75.5514 42.3303 75.5589 42.3303 75.5627 42.3303C75.6228 42.3303 75.6754 42.2815 75.6829 42.2213C75.6867 42.1575 75.6378 42.0973 75.5739 42.0936L75.5702 42.0898Z" fill="#040000"/>
<path d="M84.5724 63.2986C84.5086 63.2986 84.456 63.246 84.4522 63.1821L84.3921 58.9738C84.3921 58.9099 84.4447 58.8535 84.5086 58.8535C84.58 58.8535 84.6288 58.9061 84.6288 58.97L84.6889 63.1783C84.6889 63.2422 84.6363 63.2986 84.5724 63.2986Z" fill="#040000"/>
<path d="M105.429 40.6907C105.411 40.6907 105.392 40.6869 105.373 40.6757L96.2724 35.6444C96.216 35.6144 96.1935 35.5392 96.2273 35.4829C96.2574 35.4265 96.3325 35.4039 96.3889 35.4378L105.489 40.469C105.546 40.4991 105.568 40.5742 105.535 40.6306C105.512 40.6681 105.471 40.6907 105.429 40.6907Z" fill="#040000"/>
<path d="M84.162 54.0022C83.8501 54.0022 83.5345 54.0247 83.2264 54.0623C82.9709 54.0923 82.7229 54.1374 82.4749 54.1938C79.5779 54.8476 77.1881 57.1922 75.3582 61.1751C73.363 65.5188 72.9084 67.9799 73.9717 68.7088C74.5805 69.1259 75.5461 68.8479 76.5531 68.273C76.8612 69.7647 77.6578 71.433 78.4356 73.0788C79.7094 75.7616 81.0282 78.5308 79.9348 80.1353C79.0067 81.4955 76.4329 82.0027 72.0592 81.6946C69.568 81.518 67.8433 81.1348 66.6522 80.6538C67.8095 79.6656 68.8654 78.3467 69.7221 76.5995C70.6577 74.6945 70.8005 73.4132 70.1467 72.8007C69.5605 72.2484 68.407 72.3836 67.0655 73.1539C65.0365 74.3225 63.2217 76.5319 63.6726 78.5083C63.8416 79.241 64.3639 80.0714 65.6415 80.7703C63.7928 82.1192 61.5158 82.8369 58.8254 82.9045C57.5178 82.9383 56.2816 82.8068 55.2371 82.6227L55.1694 83.1713C56.1201 83.3366 57.2248 83.4569 58.4046 83.4569C58.5436 83.4569 58.6827 83.4569 58.8217 83.4531C61.0499 83.4005 63.7853 82.8632 66.175 81.0333C67.4413 81.5969 69.305 82.0478 72.0141 82.2394C76.5982 82.5626 79.3336 81.9727 80.382 80.4396C81.652 78.5759 80.2655 75.6601 78.9241 72.8383C78.0974 71.0986 77.2933 69.4115 77.0416 67.9611C77.9096 67.39 78.77 66.6422 79.4125 65.9847C80.5473 64.8161 80.9681 64.0158 80.6675 63.5987C80.3857 63.2154 79.7131 63.3244 78.4093 63.9707C76.7109 64.8086 76.26 66.1312 76.4517 67.6868C76.3915 67.7206 76.3352 67.7544 76.2788 67.7883C75.2981 68.3519 74.5504 68.5059 74.2273 68.2091C73.9079 67.9198 73.4344 66.6798 75.8542 61.4043C77.5902 57.6206 79.8296 55.3849 82.5162 54.7461C82.768 54.6823 83.0272 54.6372 83.2865 54.6071C83.5833 54.5695 83.8802 54.5507 84.1807 54.5507C87.2205 54.5432 90.3204 56.3167 92.8041 58.2631C92.9544 58.1391 93.1047 58.0151 93.2588 57.8911C90.6887 55.8583 87.4234 53.9796 84.1582 54.0022H84.162ZM66.1149 80.4058C64.8599 79.7783 64.3639 79.0343 64.2136 78.3805C63.8229 76.6859 65.5363 74.6644 67.3436 73.6273C68.05 73.2215 68.7 73.0074 69.1772 73.0074C69.4327 73.0074 69.6394 73.0712 69.7784 73.199C69.9851 73.3944 70.3458 74.0895 69.2336 76.3553C68.4145 78.0236 67.3737 79.3725 66.1149 80.4058ZM78.6573 64.4629C79.6042 63.997 80.01 63.9256 80.164 63.9256C80.1941 63.9256 80.2129 63.9256 80.2279 63.9331C80.2429 64.3727 78.7362 66.135 76.9815 67.3486C76.9138 66.1237 77.3422 65.113 78.6573 64.4629Z" fill="white"/>
<path d="M59.3365 51.7962C59.3365 51.7962 57.9274 50.9695 57.7508 52.7243C57.5742 54.479 58.3783 57.624 59.6408 57.4361C60.9033 57.2482 60.877 56.3577 60.877 56.3577C60.877 56.3577 61.0724 57.639 62.2297 57.2933C63.3832 56.9476 63.124 55.7528 63.124 55.7528C63.124 55.7528 63.6275 56.8011 64.6533 56.4141C65.679 56.0271 65.2845 55.1403 65.2845 55.1403L64.7547 53.2541C64.7547 53.2541 65.014 54.5391 66.0736 54.1821C67.1332 53.8252 67.4713 53.2052 65.6001 49.8648C65.6001 49.8648 65.0328 48.7714 64.2888 49.2223C63.7214 49.568 63.6726 50.1016 63.6726 50.1016C63.6726 50.1016 62.8985 49.0645 61.9704 49.5379C61.0386 50.0076 61.4707 51.1724 61.4707 51.1724C61.4707 51.1724 60.8695 49.7747 60.118 50.0753C60.118 50.0753 58.9757 50.4397 59.3402 51.7962H59.3365Z" fill="#00AB88"/>
<path d="M60.7152 56.0005C60.7152 56.0005 60.7039 56.0081 60.6964 56.0081C60.6325 56.0269 60.5686 55.993 60.5498 55.9292L59.5203 52.5287C59.5015 52.4648 59.5353 52.3972 59.5992 52.3821C59.6631 52.3633 59.727 52.3971 59.7457 52.461L60.7753 55.8615C60.7903 55.9179 60.764 55.978 60.7152 56.0005Z" fill="#040000"/>
<path d="M62.9932 55.131C62.9932 55.131 62.9857 55.131 62.9819 55.1347C62.9218 55.1573 62.8504 55.1272 62.8278 55.0671L61.6067 51.8432C61.5841 51.7831 61.6179 51.7154 61.6743 51.6891C61.7344 51.6666 61.8058 51.6966 61.8284 51.7568L63.0495 54.9844C63.0721 55.0408 63.0458 55.1047 62.9932 55.131Z" fill="#040000"/>
<path d="M64.5741 52.6926C64.5741 52.6926 64.5628 52.6964 64.5591 52.7001C64.499 52.7227 64.4276 52.6888 64.4088 52.6287L63.7775 50.8214C63.755 50.7613 63.7888 50.6899 63.8489 50.6711C63.909 50.6485 63.9804 50.6824 63.9992 50.7425L64.6305 52.5498C64.6493 52.6062 64.623 52.6701 64.5704 52.6964L64.5741 52.6926Z" fill="#040000"/>
<path d="M32.0544 88.7652L27.662 105.415L12.82 100.361L8.43506 111.772C8.43506 111.772 31.9605 124.807 36.8978 119.776C41.8388 114.744 45.3746 102.059 45.7391 102.792C46.1036 103.525 53.0624 140.584 53.0624 140.584L66.1346 140.682L60.3744 93.4621C60.3744 93.4621 43.1164 88.3407 32.0469 88.7652H32.0544Z" fill="#ED86AC"/>
<path d="M45.7429 102.91C45.7429 102.91 45.7129 102.91 45.6979 102.898C45.6377 102.872 45.6114 102.804 45.634 102.74L47.1595 99.2047C47.1858 99.1446 47.2534 99.1183 47.3173 99.1408C47.3812 99.1634 47.4037 99.2348 47.3812 99.2986L45.8557 102.834C45.8369 102.879 45.7918 102.906 45.7467 102.906L45.7429 102.91Z" fill="#2C1D23"/>
<path d="M7.86436 112.829C7.86436 112.829 4.80203 117.529 0 115.406L6.75966 97.9492C6.75966 97.9492 12.4973 99.0915 12.8242 100.362C12.8242 100.362 10.4382 108.722 7.86436 112.829Z" fill="#ED86AC"/>
<path d="M1.01041 115.672L7.79262 98.1552C7.81517 98.0951 7.88656 98.065 7.94668 98.0876C8.0068 98.1101 8.03686 98.1815 8.01431 98.2416L1.2321 115.759C1.20956 115.819 1.13817 115.849 1.07805 115.827C1.01793 115.804 0.98787 115.733 1.01041 115.672Z" fill="#040000"/>
<path d="M8.43872 111.894C8.43872 111.894 8.40866 111.894 8.39739 111.886C8.33727 111.864 8.30721 111.792 8.32975 111.732L12.7147 100.321C12.7372 100.261 12.8086 100.227 12.8688 100.253C12.9289 100.276 12.9589 100.347 12.9364 100.407L8.55144 111.819C8.53265 111.867 8.48756 111.894 8.43872 111.894Z" fill="#040000"/>
<path d="M66.4835 140.706C66.4835 140.706 71.9731 141.863 71.7289 147.109H53.0055C53.0055 147.109 51.9985 141.345 53.0656 140.582C53.0656 140.582 61.7265 139.789 66.4835 140.706Z" fill="#ED86AC"/>
<path d="M71.6123 146.074H52.8287C52.7649 146.074 52.7085 146.022 52.7085 145.954C52.7085 145.887 52.7611 145.834 52.8287 145.834H71.6123C71.6799 145.834 71.7325 145.887 71.7325 145.954C71.7325 146.022 71.6799 146.074 71.6123 146.074Z" fill="#040000"/>
<path d="M66.1376 140.803L53.0654 140.705C52.9978 140.705 52.9452 140.653 52.9489 140.585C52.9489 140.521 53.0015 140.469 53.0692 140.469L66.1413 140.566C66.2052 140.566 66.2616 140.619 66.2578 140.687C66.2578 140.751 66.2052 140.803 66.1376 140.803Z" fill="#040000"/>
<path d="M48.5754 52.9395L48.2598 58.5193L56.1692 58.9627L56.4811 53.4392L48.5754 52.9395Z" fill="#ED86AC"/>
<path d="M48.5748 52.9395L48.4058 55.9078C53.8879 59.8795 56.2551 54.356 56.458 53.8412L56.4805 53.4392L48.5711 52.9395H48.5748Z" fill="#040000"/>
<path d="M56.1729 58.8443L60.5278 59.8099C60.5278 59.8099 57.999 63.3081 51.5136 62.9437C45.0283 62.5792 43.8184 57.6795 43.8184 57.6795L48.3386 57.082C48.3386 57.082 53.1744 58.1379 56.1691 58.8443H56.1729Z" fill="#ED86AC"/>
<path d="M52.6365 45.1473C52.6365 45.1473 49.1871 45.0909 48.5484 48.8183C47.9096 52.5457 48.6348 56.337 52.3885 56.4722C56.4165 56.6188 57.3258 53.5076 57.3408 49.194C57.3559 44.8805 53.4406 45.1022 52.6365 45.1473Z" fill="#ED86AC"/>
<path d="M48.7402 49.0824C48.7402 49.0824 47.6092 47.8538 46.9178 49.0524C46.2264 50.2473 47.8046 52.4115 48.5297 51.2167L48.7402 49.0824Z" fill="#ED86AC"/>
<path d="M52.1035 50.1539C52.0885 50.4771 51.9457 50.7363 51.7879 50.7251C51.6301 50.7176 51.5136 50.447 51.5286 50.1239C51.5437 49.8007 51.6865 49.5415 51.8443 49.549C52.0021 49.5565 52.1186 49.827 52.1035 50.1502V50.1539Z" fill="#040000"/>
<path d="M56.1499 50.3513C56.1349 50.6745 55.9921 50.9338 55.8343 50.9262C55.6765 50.9187 55.56 50.6482 55.575 50.325C55.5901 50.0019 55.7328 49.7426 55.8907 49.7502C56.0485 49.7577 56.165 50.0282 56.1499 50.3513Z" fill="#040000"/>
<path d="M48.0485 50.3515C48.1124 50.3515 48.165 50.2914 48.1612 50.2276C48.1425 49.7691 48.0185 49.461 47.793 49.3107C47.5413 49.1417 47.2632 49.2469 47.2519 49.2506C47.1918 49.2732 47.158 49.3446 47.1843 49.4047C47.2069 49.4648 47.2745 49.4948 47.3384 49.4723C47.3459 49.4723 47.5187 49.4084 47.6653 49.5099C47.8193 49.6151 47.9095 49.8631 47.9245 50.2351C47.9245 50.2989 47.9809 50.3515 48.0485 50.3478V50.3515Z" fill="#040000"/>
<path d="M53.6772 51.9322C53.6772 51.9322 53.6847 51.9322 53.6885 51.9322C53.9553 51.8908 54.4024 51.7218 54.3836 51.3648C54.3798 51.2746 54.3385 51.1957 54.2671 51.1356C54.0304 50.9477 53.4893 51.0417 53.4255 51.0529C53.3616 51.0642 53.3165 51.1281 53.3315 51.192C53.3428 51.2558 53.4029 51.3009 53.4705 51.2859C53.6734 51.2483 54.0116 51.2371 54.1206 51.3235C54.1394 51.3385 54.1469 51.3535 54.1469 51.3761C54.1544 51.5715 53.7824 51.6767 53.6509 51.6992C53.587 51.7105 53.5419 51.7706 53.5532 51.8345C53.5645 51.8946 53.6171 51.9359 53.6772 51.9359V51.9322Z" fill="#040000"/>
<path d="M53.7907 53.9036C54.5234 53.8661 55.0945 53.6556 55.4928 53.2799C56.0339 52.7689 56.0451 52.1376 56.0451 52.1113C56.0451 52.0437 55.9925 51.9911 55.9287 51.9911C55.8648 51.9911 55.8084 52.0437 55.8084 52.1076C55.8084 52.1151 55.7971 52.6674 55.3275 53.1071C54.8878 53.5204 54.1965 53.7082 53.2721 53.6632C50.7697 53.5392 50.811 51.8596 50.811 51.8408C50.811 51.7769 50.7621 51.7206 50.6983 51.7168C50.6344 51.7168 50.578 51.7656 50.5743 51.8295C50.5743 51.8483 50.5254 53.7646 53.2609 53.8999C53.4487 53.9074 53.6253 53.9074 53.7944 53.8999L53.7907 53.9036Z" fill="#040000"/>
<path d="M52.2085 48.9594C52.2085 48.9594 52.2235 48.9594 52.2311 48.9557C52.2949 48.9406 52.3325 48.873 52.3137 48.8091C52.2423 48.5461 52.1259 48.3996 51.968 48.3733C51.6975 48.3282 51.4608 48.6663 51.4157 48.734C51.3781 48.7903 51.3931 48.8617 51.4495 48.8993C51.5059 48.9369 51.5773 48.9219 51.6148 48.8655C51.6937 48.749 51.844 48.595 51.9305 48.6062C51.9868 48.6137 52.0432 48.7152 52.0845 48.8692C52.0996 48.9256 52.1522 48.9594 52.2048 48.9557L52.2085 48.9594Z" fill="#040000"/>
<path d="M56.3341 49.1587C56.3341 49.1587 56.368 49.155 56.383 49.1437C56.4394 49.1136 56.4619 49.0423 56.4318 48.9821C56.3943 48.9107 56.1914 48.5538 55.9208 48.5688C55.7593 48.5801 55.6315 48.7154 55.5338 48.9709C55.5113 49.031 55.5413 49.1024 55.6052 49.1249C55.6653 49.1475 55.7367 49.1174 55.7593 49.0535C55.8156 48.9032 55.8833 48.8093 55.9396 48.8055C56.026 48.8018 56.1651 48.9746 56.2289 49.0949C56.2515 49.1362 56.2966 49.1625 56.3417 49.1587H56.3341Z" fill="#040000"/>
<path d="M48.548 48.9259C48.548 48.9259 48.8712 49.8578 49.4573 49.0048C50.0397 48.1481 50.066 46.4385 51.6216 46.8706C53.1772 47.3027 53.7859 47.4906 54.9582 47.2012C56.1343 46.9082 57.1075 47.7498 57.3254 48.6216C57.3254 48.6216 60.121 43.5264 53.5116 43.2371C46.9023 42.9478 47.7176 47.0735 48.548 48.9297V48.9259Z" fill="#ED86AC"/>
<path d="M52.6667 43.6085C52.6667 43.6085 54.1208 38.2166 49.067 40.1967C44.0133 42.1769 48.9956 44.5667 48.9956 44.5667L52.6704 43.6085H52.6667Z" fill="#ED86AC"/>
<path d="M48.7515 44.5889C48.7815 44.5889 48.8078 44.5739 48.8304 44.5513C50.0816 43.24 52.7081 43.3189 52.7344 43.3226C52.7983 43.3226 52.8546 43.2738 52.8584 43.2062C52.8584 43.1423 52.8095 43.0859 52.7456 43.0822C52.6329 43.0784 49.9839 42.9957 48.6613 44.386C48.6162 44.4348 48.6162 44.51 48.6651 44.5551C48.6914 44.5776 48.7214 44.5889 48.7515 44.5889Z" fill="#040000"/>
<path d="M50.0628 47.4362C50.2995 47.4249 50.6339 47.1882 51.1186 46.8425C51.6785 46.4442 52.3774 45.952 53.1288 45.6777C53.4257 45.5687 53.5422 45.5612 53.5835 45.5612C53.5685 45.6401 53.4595 45.8205 53.3881 45.9445C53.1927 46.2751 52.9673 46.6471 53.1326 46.9026C53.2528 47.083 53.5271 47.1393 54.0006 47.0792C56.1987 46.7974 56.503 45.4485 56.5143 45.3921C56.5293 45.3282 56.488 45.2644 56.4204 45.2531C56.3565 45.2381 56.2926 45.2794 56.2813 45.347C56.2701 45.3996 55.9883 46.5907 53.9705 46.8462C53.4783 46.9101 53.3618 46.8162 53.3317 46.7748C53.2491 46.6471 53.4557 46.3014 53.591 46.0722C53.7676 45.7754 53.8991 45.5574 53.7751 45.4109C53.6737 45.2907 53.4708 45.3057 53.0462 45.4597C52.2684 45.7415 51.5545 46.2488 50.9796 46.6509C50.5963 46.9214 50.1229 47.2596 50.0177 47.1957C50.0177 47.1957 49.9576 47.1544 49.9951 46.8538C50.0026 46.7899 49.9576 46.7298 49.8937 46.7222C49.8298 46.7147 49.7697 46.7598 49.7622 46.8237C49.7359 47.0379 49.7246 47.2971 49.8974 47.3986C49.9463 47.4286 50.0026 47.4399 50.0628 47.4362Z" fill="#040000"/>
<path d="M63.4285 56.2051L62.9287 62.3335L62.8799 62.9347L60.3812 93.4678L32.0537 88.771L33.6243 83.0822L33.7671 82.5524L40.3427 57.2722L48.3385 57.0881C51.2994 63.7651 56.2592 57.3962 56.2592 57.3962L63.4285 56.2088V56.2051Z" fill="#ED86AC"/>
<path d="M60.3807 93.5858C60.3807 93.5858 60.3695 93.5858 60.3619 93.5858L32.0345 88.889C31.9706 88.8777 31.9255 88.8176 31.9368 88.7537C31.9481 88.6898 32.0082 88.6448 32.0721 88.656L60.3995 93.3528C60.4634 93.3641 60.5085 93.4242 60.4972 93.4881C60.4859 93.5445 60.4371 93.5858 60.3807 93.5858Z" fill="#2C1D23"/>
<path d="M40.0604 88.4019C40.0604 88.4019 39.959 89.0031 38.9895 89.0218C38.9895 89.0218 39.4742 89.3901 39.6133 89.8973C39.6771 90.1378 39.6659 90.4121 39.4818 90.6864C38.9294 91.5243 38.0389 91.0058 37.9825 90.972C38.0051 91.002 38.4973 91.6446 38.0426 92.2758C37.5767 92.9221 36.5735 92.6778 36.5735 92.6778C36.5735 92.6778 36.8816 94.0193 35.7318 94.147C34.5783 94.2748 31.0237 93.9291 28.3484 89.8522C28.3484 89.8522 19.9918 80.887 17.8238 77.0393C15.7609 73.3833 19.1727 70.1895 23.8395 66.5598C24.0386 66.4057 24.2415 66.2479 24.4482 66.0901C25.4965 65.286 26.5974 64.4518 27.7059 63.5876C27.8412 63.4824 27.9764 63.3772 28.1117 63.272C28.123 63.2607 28.138 63.2532 28.1493 63.2419C28.2808 63.1405 28.4123 63.0353 28.54 62.9338C28.6265 62.8662 28.7091 62.7986 28.7955 62.7272C35.5176 57.354 40.3497 57.2676 40.3497 57.2676C40.5489 57.2638 39.6433 61.1528 38.7641 64.7186C38.704 64.9553 38.6476 65.1921 38.5912 65.425C37.9187 68.1529 37.3137 70.5126 37.3137 70.5126C37.3137 70.5126 37.231 70.5577 37.0807 70.6441C36.9492 70.7193 36.7651 70.8282 36.5359 70.9598C36.3781 71.0462 36.2015 71.1514 36.0099 71.2603C34.9352 71.8878 33.3533 72.8122 31.9142 73.6914C31.7527 73.7891 31.5949 73.8906 31.437 73.9845C29.78 75.0103 28.416 75.9158 28.4085 76.1338C28.386 76.6861 33.8381 82.8183 33.8381 82.8183C33.8381 82.8183 33.8869 82.8483 33.9733 82.901C34.9315 83.5134 40.6654 87.222 40.0642 88.4056L40.0604 88.4019Z" fill="#ED86AC"/>
<path d="M34.0336 82.8007L33.9133 82.7255C33.8908 82.703 33.8682 82.6767 33.8495 82.6504C33.8269 82.7368 33.8006 82.827 33.7781 82.9134L33.9096 82.9998C37.2049 85.1003 40.3536 87.5689 39.9591 88.3467L39.9478 88.3805C39.9478 88.3993 39.8426 88.884 38.9934 88.9028L38.6515 88.9103L38.922 89.117C38.922 89.117 39.3767 89.4702 39.5007 89.9323C39.5683 90.1728 39.527 90.4095 39.3842 90.6275C39.2001 90.9055 38.9558 91.0483 38.6552 91.0483C38.3546 91.0483 38.0916 90.9055 38.0428 90.8755L37.4904 90.5486L37.8925 91.0521C37.8925 91.0521 38.3546 91.6457 37.9488 92.2094C37.528 92.7918 36.6037 92.5663 36.5999 92.5663L36.412 92.5212L36.4534 92.7091C36.4534 92.7091 36.5924 93.3253 36.3143 93.7161C36.1866 93.8965 35.9837 94.0054 35.7132 94.0355C35.5929 94.0468 35.4539 94.0543 35.3073 94.0543C34.6761 94.0543 33.0115 93.919 31.208 92.6828C31.1817 92.7617 31.1591 92.8406 31.1328 92.9195C32.9702 94.1557 34.6648 94.291 35.3073 94.291C35.4652 94.291 35.6079 94.2835 35.7395 94.2684C36.0814 94.2309 36.3406 94.0881 36.5097 93.8514C36.7502 93.5132 36.7427 93.0661 36.7126 92.8256C37.0358 92.8669 37.7459 92.8895 38.1367 92.3446C38.4223 91.9501 38.3772 91.5255 38.2569 91.2174C38.3734 91.2512 38.5087 91.2775 38.6552 91.2775C39.0347 91.2775 39.3541 91.0934 39.5833 90.7477C39.7637 90.4697 39.8163 90.1728 39.7299 89.8609C39.6435 89.5416 39.4368 89.2785 39.2752 89.1132C40.0042 89.0043 40.1545 88.5421 40.177 88.4369C40.7369 87.2345 36.0739 84.0933 34.0373 82.7969L34.0336 82.8007Z" fill="#040000"/>
<path d="M38.2121 88.7995C38.2121 88.7995 38.1745 88.7882 38.1595 88.7769L34.1578 85.8349C34.1052 85.7973 34.0939 85.7221 34.1315 85.6695C34.1691 85.6169 34.2442 85.6056 34.2968 85.6432L38.2948 88.5853C38.3474 88.6229 38.3586 88.698 38.3211 88.7506C38.2948 88.7882 38.2497 88.8032 38.2083 88.7995H38.2121Z" fill="#040000"/>
<path d="M36.9002 90.5481C36.9002 90.5481 36.8626 90.5368 36.8476 90.5256L33.4283 88.0419C33.3757 88.0043 33.3644 87.9292 33.402 87.8766C33.4396 87.8239 33.5147 87.8127 33.5673 87.8503L36.9866 90.3339C37.0392 90.3715 37.0505 90.4467 37.0129 90.4993C36.9866 90.5368 36.9415 90.5519 36.9002 90.5481Z" fill="#040000"/>
<path d="M35.8255 92.5773C35.8255 92.5773 35.7917 92.5698 35.7766 92.5585L32.3235 90.2853C32.2672 90.2477 32.2521 90.1763 32.2897 90.1199C32.3273 90.0673 32.3987 90.0486 32.455 90.0861L35.9081 92.3594C35.9645 92.397 35.9795 92.4684 35.942 92.5247C35.9157 92.566 35.8706 92.5848 35.8255 92.5773Z" fill="#040000"/>
<path d="M25.4589 86.861C25.4401 86.861 25.4176 86.8498 25.4025 86.8347C25.3499 86.7934 25.3424 86.7183 25.3875 86.6694L31.0462 79.7482C31.0876 79.6956 31.1627 79.6918 31.2153 79.7331C31.2679 79.7745 31.2754 79.8496 31.2341 79.9022L25.5754 86.8235C25.5491 86.8573 25.504 86.8723 25.4664 86.8648L25.4589 86.861Z" fill="#040000"/>
<path d="M89.6029 50.4402C89.6029 50.4402 83.9329 59.5858 77.7707 63.3658C76.0648 64.4141 74.1034 65.3948 72.1571 66.2703C71.9654 66.353 71.7738 66.4394 71.5822 66.5258C66.7163 68.6601 62.1284 70.0766 62.1284 70.0766C62.1284 70.0766 61.9405 65.703 62.1284 61.8628C62.1359 61.675 62.1472 61.4946 62.1585 61.3105C62.3163 58.684 62.677 56.4333 63.421 56.2041C63.421 56.2041 66.2691 55.2572 70.7518 53.153C75.2344 51.0489 81.6221 44.293 81.6221 44.293L89.5954 50.4364L89.6029 50.4402Z" fill="#ED86AC"/>
<path d="M81.6299 44.2973C81.6299 44.2973 82.8811 42.4524 83.6101 40.258C84.3428 38.0637 83.1517 36.0497 84.3428 35.7754C85.5301 35.5011 85.7593 37.7406 85.7593 37.7406C85.7593 37.7406 87.1759 28.8692 88.4572 28.9594C88.4572 28.9594 89.0734 28.9256 89.359 29.4967C89.359 29.4967 89.5018 28.2793 90.0353 28.2417C90.5689 28.2041 91.1175 28.8917 91.0423 29.9814C91.0423 29.9814 92.6054 29.0984 92.5754 30.9283C92.5453 32.7582 92.3912 35.3658 92.3912 35.3658C92.3912 35.3658 92.8496 33.6975 94.0145 34.0395C95.1793 34.3814 93.7627 37.47 93.65 38.4319C93.5373 39.3938 92.8346 47.4573 89.6032 50.4445C89.6032 50.4445 83.3508 47.912 81.6299 44.3011V44.2973Z" fill="#ED86AC"/>
<path d="M87.9269 38.208C87.9269 38.208 87.9156 38.208 87.9118 38.208C87.848 38.2005 87.8029 38.1404 87.8104 38.0728C88.141 35.5966 89.2946 30.1595 89.3059 30.1069C89.3209 30.0431 89.381 30.0017 89.4449 30.0168C89.5088 30.0318 89.5501 30.0919 89.5351 30.1595C89.5238 30.2121 88.374 35.6417 88.0434 38.1103C88.0358 38.1704 87.9832 38.2118 87.9269 38.2118V38.208Z" fill="#040000"/>
<path d="M90.2452 38.5456C90.2452 38.5456 90.2377 38.5456 90.2339 38.5456C90.17 38.5381 90.1212 38.4818 90.1287 38.4141L90.8915 30.6399C90.899 30.5761 90.9553 30.5235 91.023 30.5347C91.0868 30.5422 91.1357 30.5986 91.1282 30.6662L90.3654 38.4404C90.3579 38.5005 90.3091 38.5494 90.2489 38.5494L90.2452 38.5456Z" fill="#040000"/>
<path d="M91.8606 38.7602C91.8606 38.7602 91.8456 38.7602 91.8381 38.7602C91.7742 38.749 91.7291 38.6851 91.7441 38.6212L92.2626 35.7843C92.2739 35.7205 92.3378 35.6754 92.4017 35.6904C92.4655 35.7017 92.5106 35.7656 92.4956 35.8294L91.9771 38.6663C91.9658 38.7227 91.917 38.764 91.8606 38.764V38.7602Z" fill="#040000"/>
<path d="M53.5385 59.8469C51.1526 59.8469 48.3908 57.2918 48.2593 57.1716C48.2105 57.1265 48.2105 57.0513 48.2518 57.0025C48.2969 56.9536 48.372 56.9536 48.4209 56.995C48.4547 57.025 51.8176 60.1362 54.2036 59.5237C55.0941 59.2945 55.7479 58.5656 56.1462 57.3519C56.165 57.288 56.2326 57.2542 56.2965 57.2768C56.3604 57.2956 56.3942 57.3632 56.3717 57.4271C55.9471 58.7234 55.2369 59.5087 54.26 59.7567C54.0233 59.8168 53.7828 59.8431 53.5348 59.8431L53.5385 59.8469Z" fill="#040000"/>
<path d="M62.2518 70.1322C62.2518 70.1322 62.2443 70.1322 62.2405 70.1322C62.1766 70.1246 62.1278 70.0683 62.1316 70.0044L62.4359 66.6189C62.4434 66.5551 62.4998 66.5062 62.5637 66.51C62.6275 66.5175 62.6764 66.5738 62.6726 66.6377L62.3683 70.0232C62.3608 70.0833 62.3119 70.1322 62.2518 70.1322Z" fill="#040000"/>
<path d="M36.7624 70.8934C36.7624 70.8934 36.7436 70.8934 36.7323 70.8934C36.6684 70.8783 36.6309 70.8145 36.6459 70.7506L37.4988 67.3651C37.5139 67.3012 37.5777 67.2637 37.6416 67.2787C37.7055 67.2937 37.7431 67.3614 37.728 67.4215L36.8751 70.8069C36.8601 70.8595 36.815 70.8971 36.7586 70.8971L36.7624 70.8934Z" fill="#040000"/>
<path d="M88.6597 52.0206C88.6333 52.0206 88.6033 52.0094 88.5807 51.9906L80.7765 45.0994C80.7277 45.0543 80.7239 44.9792 80.7652 44.9303C80.8103 44.8815 80.8855 44.8777 80.9343 44.919L88.7386 51.8102C88.7874 51.8553 88.7912 51.9305 88.7498 51.9793C88.7273 52.0056 88.6935 52.0206 88.6597 52.0206Z" fill="#040000"/>
<path d="M62.1654 61.3084C61.4703 61.3084 60.8465 61.4437 60.3055 61.718C56.8223 63.4727 57.3258 70.3827 57.7278 75.9362C57.9495 78.9985 58.1825 82.1623 57.4348 82.4967C57.2469 82.5794 56.7622 82.538 55.5898 81.3169C54.1244 79.7876 52.7154 78.634 51.404 77.7698C51.6858 77.5481 51.9075 77.2814 52.0503 76.9733C52.907 75.1246 50.6375 72.4155 45.2982 68.9285C42.4312 67.0536 41.2364 65.4228 40.8606 64.1152C41.0598 63.9875 41.2589 63.8522 41.4618 63.7132C43.5397 62.2891 45.9407 60.3615 45.5912 59.2606C45.5274 59.0577 45.317 58.712 44.6143 58.727C43.2616 58.7421 40.9095 60.0685 40.312 62.1125C40.1692 62.6085 40.1091 63.1984 40.2331 63.8635C39.7296 64.1791 39.2412 64.4647 38.7602 64.7164C35.7505 66.3096 33.1766 66.6741 31.0912 65.7986C29.7874 65.25 28.833 64.2768 28.1416 63.2435C28.1303 63.2548 28.1153 63.2623 28.104 63.2736C27.9688 63.3788 27.8335 63.4877 27.6982 63.5892C28.4385 64.6788 29.4642 65.7084 30.8771 66.3021C33.0188 67.2039 35.6039 66.9033 38.5874 65.4228C39.1698 65.1335 39.7672 64.7991 40.3797 64.4196C40.8381 65.8174 42.1194 67.5082 44.9976 69.3869C51.652 73.7343 51.9601 75.861 51.5506 76.7403C51.4228 77.0146 51.1974 77.2475 50.893 77.4429C47.1882 75.1734 44.2987 75.2561 43.0287 75.8122C42.3523 76.109 41.9841 76.5712 42.0142 77.0709C42.0329 77.4016 42.2584 78.0066 43.5134 78.3823C45.3696 78.9346 48.9617 79.1375 50.9081 78.0892C52.2382 78.9422 53.6811 80.1145 55.1953 81.6926C56.0858 82.6169 56.7697 83.0641 57.3032 83.0641C57.431 83.0641 57.5475 83.0415 57.6564 82.9927C58.7085 82.523 58.5845 80.1145 58.2764 75.8873C57.8819 70.4991 57.3934 63.7921 60.5497 62.2027C61.0043 61.9735 61.5341 61.857 62.1316 61.8532C64.341 61.8495 67.5047 63.4088 71.5816 66.5162C71.7732 66.4336 71.9648 66.3472 72.1565 66.2607C67.8579 62.9504 64.5551 61.3047 62.1616 61.2971L62.1654 61.3084ZM40.8418 62.2703C41.4017 60.3578 43.6336 59.2907 44.6218 59.2794C44.6218 59.2794 44.6293 59.2794 44.6331 59.2794C44.7383 59.2794 45.0201 59.2944 45.0652 59.4334C45.0765 59.471 45.317 60.4066 41.1462 63.266C41.0072 63.36 40.8719 63.4539 40.7366 63.5403C40.6803 63.0631 40.7329 62.6386 40.8381 62.2703H40.8418ZM43.6712 77.8638C43.0061 77.6646 42.5815 77.3527 42.5627 77.0446C42.5477 76.7929 42.8107 76.5148 43.2504 76.3232C43.6486 76.1466 44.2198 76.0264 44.9375 76.0264C46.2789 76.0264 48.1388 76.451 50.3294 77.7435C48.5972 78.465 45.5762 78.4311 43.6674 77.8638H43.6712Z" fill="white"/>
<path d="M34.438 56.8294C34.438 56.8294 33.029 56.0027 32.8524 57.7575C32.6758 59.5122 33.4799 62.6572 34.7424 62.4693C36.0049 62.2814 35.9786 61.3909 35.9786 61.3909C35.9786 61.3909 36.174 62.6722 37.3313 62.3265C38.4848 61.9808 38.2255 60.786 38.2255 60.786C38.2255 60.786 38.729 61.8343 39.7548 61.4473C40.7806 61.0603 40.3861 60.1735 40.3861 60.1735L39.8563 58.2873C39.8563 58.2873 40.1155 59.5723 41.1751 59.2154C42.2347 58.8584 42.5729 58.2384 40.7017 54.898C40.7017 54.898 40.1343 53.8046 39.3903 54.2555C38.823 54.6012 38.7741 55.1348 38.7741 55.1348C38.7741 55.1348 38.0038 54.0977 37.072 54.5711C36.1401 55.0408 36.5723 56.2056 36.5723 56.2056C36.5723 56.2056 35.9711 54.8079 35.2196 55.1085C35.2196 55.1085 34.0773 55.4729 34.4418 56.8294H34.438Z" fill="#F5C700"/>
<path d="M35.8167 61.0338C35.8167 61.0338 35.8055 61.0413 35.798 61.0413C35.7341 61.0601 35.6702 61.0262 35.6514 60.9624L34.6219 57.5619C34.6031 57.498 34.6369 57.4304 34.7008 57.4153C34.7647 57.3965 34.8285 57.4304 34.8473 57.4942L35.8769 60.8947C35.8919 60.9511 35.8656 61.0112 35.8167 61.0338Z" fill="#040000"/>
<path d="M38.0942 60.1642C38.0942 60.1642 38.0867 60.1642 38.0829 60.1679C38.0228 60.1905 37.9514 60.1604 37.9289 60.1003L36.7077 56.8764C36.6851 56.8163 36.7152 56.7486 36.7753 56.7223C36.8354 56.6998 36.9068 56.7298 36.9294 56.79L38.1505 60.0176C38.1731 60.074 38.1468 60.1379 38.0942 60.1642Z" fill="#040000"/>
<path d="M39.6757 57.7258C39.6757 57.7258 39.6682 57.7296 39.6606 57.7333C39.6005 57.7559 39.5291 57.722 39.5103 57.6619L38.8791 55.8546C38.8566 55.7945 38.8904 55.7231 38.9505 55.7043C39.0106 55.6817 39.082 55.7156 39.1008 55.7757L39.732 57.583C39.7508 57.6394 39.7245 57.7033 39.6719 57.7296L39.6757 57.7258Z" fill="#040000"/>
<path d="M161.2 47.209L160.779 52.7776L152.877 52.1839L153.295 46.668L161.2 47.209Z" fill="#0092FB"/>
<path d="M161.2 47.209L160.979 50.1737C155.023 53.3938 153.4 47.6073 153.265 47.07L153.295 46.668L161.2 47.209Z" fill="#040000"/>
<path d="M157.473 39.0611C157.473 39.0611 160.922 38.9446 161.621 42.6607C162.324 46.3768 161.663 50.1794 157.913 50.3785C153.885 50.5927 152.927 47.4965 152.836 43.1867C152.75 38.8769 156.665 39.031 157.473 39.0611Z" fill="#0092FB"/>
<path d="M161.546 43.2377C161.546 43.2377 162.745 42.0766 163.369 43.3091C163.992 44.5415 162.298 46.6119 161.637 45.3794L161.546 43.2377Z" fill="#0092FB"/>
<path d="M153.02 43.8046C153.02 43.8046 151.678 42.8126 151.224 44.1164C150.769 45.4203 152.723 47.2464 153.212 45.9388L153.016 43.8046H153.02Z" fill="#0092FB"/>
<path d="M159.001 43.9705C159.024 44.2937 159.17 44.5492 159.328 44.5379C159.486 44.5266 159.599 44.2561 159.576 43.933C159.554 43.6098 159.407 43.3543 159.249 43.3656C159.092 43.3769 158.979 43.6474 159.001 43.9705Z" fill="#040000"/>
<path d="M154.959 44.2381C154.982 44.5613 155.128 44.8168 155.286 44.8055C155.444 44.7942 155.557 44.5237 155.534 44.2005C155.512 43.8774 155.365 43.6219 155.207 43.6332C155.05 43.6444 154.937 43.915 154.959 44.2381Z" fill="#040000"/>
<path d="M162.061 44.5513C162.121 44.5513 162.17 44.5062 162.177 44.4424C162.211 44.0741 162.316 43.8299 162.478 43.7322C162.632 43.6383 162.801 43.7096 162.809 43.7134C162.869 43.7397 162.94 43.7134 162.966 43.6533C162.993 43.5932 162.966 43.5218 162.906 43.4955C162.895 43.4917 162.625 43.3715 162.362 43.5255C162.129 43.6608 161.986 43.9614 161.941 44.4198C161.933 44.4837 161.982 44.5438 162.05 44.5513C162.053 44.5513 162.061 44.5513 162.065 44.5513H162.061Z" fill="#040000"/>
<path d="M157.304 45.7875C157.36 45.7875 157.409 45.7424 157.42 45.686C157.428 45.6221 157.382 45.562 157.319 45.5507C157.187 45.5319 156.811 45.4343 156.815 45.2389C156.815 45.2163 156.823 45.2013 156.841 45.1863C156.95 45.0998 157.285 45.1074 157.491 45.1412C157.555 45.1524 157.615 45.1074 157.627 45.0435C157.638 44.9796 157.593 44.9157 157.529 44.9082C157.469 44.8969 156.924 44.8143 156.691 45.0059C156.62 45.066 156.578 45.1449 156.578 45.2351C156.567 45.5958 157.018 45.7536 157.285 45.7912C157.292 45.7912 157.3 45.7912 157.304 45.7912V45.7875Z" fill="#040000"/>
<path d="M157.292 47.7844C157.367 47.7844 157.446 47.7769 157.525 47.7731C160.256 47.5927 160.178 45.6764 160.174 45.6576C160.17 45.5938 160.114 45.5449 160.05 45.5449C159.986 45.5449 159.933 45.605 159.937 45.6689C159.937 45.7403 159.997 47.3673 157.51 47.5326C156.585 47.5927 155.89 47.4161 155.443 47.0103C154.966 46.5745 154.951 46.0259 154.947 46.0221C154.947 45.9545 154.891 45.9019 154.827 45.9056C154.763 45.9056 154.71 45.962 154.71 46.0259C154.71 46.0522 154.733 46.6834 155.282 47.1832C155.74 47.6003 156.416 47.8032 157.292 47.7806V47.7844Z" fill="#040000"/>
<path d="M158.886 42.7802C158.938 42.7802 158.983 42.7426 158.998 42.69C159.036 42.5322 159.092 42.4345 159.149 42.4232C159.235 42.4082 159.389 42.5585 159.468 42.675C159.506 42.7276 159.581 42.7426 159.633 42.705C159.686 42.6674 159.701 42.5923 159.664 42.5397C159.618 42.4721 159.374 42.1376 159.104 42.1865C158.946 42.2166 158.833 42.3631 158.766 42.6299C158.75 42.6938 158.788 42.7576 158.852 42.7727C158.863 42.7727 158.874 42.7727 158.882 42.7727L158.886 42.7802Z" fill="#040000"/>
<path d="M154.763 43.0471C154.805 43.0471 154.846 43.0208 154.865 42.9832C154.929 42.8592 155.056 42.6939 155.147 42.6901C155.147 42.6901 155.147 42.6901 155.15 42.6901C155.207 42.6901 155.274 42.784 155.334 42.9343C155.357 42.9945 155.428 43.0245 155.489 43.002C155.549 42.9794 155.579 42.908 155.556 42.8479C155.455 42.5924 155.323 42.4609 155.162 42.4534C154.887 42.4421 154.688 42.8028 154.654 42.878C154.624 42.9381 154.647 43.0095 154.707 43.0395C154.726 43.0471 154.745 43.0546 154.763 43.0546V43.0471Z" fill="#040000"/>
<path d="M152.877 52.1801L147.82 52.7964C147.82 52.7964 150.495 56.2532 156.973 56.7379C163.451 57.2226 165.563 54.7239 165.563 54.7239L160.779 52.7738C160.779 52.7738 155.94 51.8758 152.877 52.1801Z" fill="#0092FB"/>
<path d="M161.703 43.1717C161.703 43.1717 164.619 41.8153 162.571 40.4062C162.571 40.4062 162.673 36.2881 159.866 37.3852C159.866 37.3852 155.921 35.1759 154.301 38.0503C154.301 38.0503 151.074 37.994 151.878 40.812C151.878 40.812 150.157 42.4353 152.888 43.7617C152.888 43.7617 153.632 44.2802 153.554 42.8636C153.471 41.4471 155.601 42.4353 156.124 41.0037C156.65 39.5721 158.235 42.1272 159.227 41.5297C160.219 40.9323 160.783 43.7541 161.703 43.1717Z" fill="#0092FB"/>
<path d="M160.633 42.1686C160.49 41.9619 160.054 41.4171 159.731 41.3795C159.66 41.372 159.604 41.387 159.555 41.4321C159.198 41.744 158.841 41.5298 158.243 41.1766C157.905 40.9737 157.481 40.722 156.906 40.459C156.184 40.1321 155.576 40.2748 155.316 40.5454C155.309 40.5529 155.301 40.5604 155.294 40.5679C155.512 40.5191 155.711 40.5228 155.865 40.5566C156.117 40.613 156.135 40.7445 156.132 40.7971C156.12 41.0038 155.771 41.0489 155.654 41.0639C155.271 41.1165 155.106 41 155.038 40.9061C154.771 41.0338 154.467 41.2818 154.26 41.7628C154.234 41.8229 154.167 41.8492 154.103 41.8229C154.043 41.7966 154.016 41.7252 154.039 41.6651C154.268 41.1353 154.625 40.8234 154.982 40.6656C154.997 40.5679 155.05 40.4665 155.14 40.3763C155.467 40.0344 156.169 39.8615 157 40.2373C157.586 40.504 158.018 40.7595 158.36 40.9662C158.961 41.3232 159.179 41.4396 159.393 41.248C159.495 41.1578 159.619 41.1203 159.758 41.1353C160.242 41.1954 160.768 41.9431 160.828 42.0258C160.866 42.0784 160.851 42.1536 160.798 42.1911C160.78 42.2062 160.757 42.2099 160.735 42.2137C160.697 42.2137 160.656 42.1949 160.633 42.1611V42.1686ZM155.384 40.7934C155.358 40.8009 155.328 40.8046 155.294 40.8122C155.358 40.8385 155.463 40.8497 155.621 40.8309C155.711 40.8197 155.771 40.8046 155.816 40.7934C155.726 40.7708 155.572 40.7595 155.384 40.7934Z" fill="#131E27"/>
<path d="M152.554 45.1846C152.554 45.1846 152.569 45.1846 152.577 45.1846C152.64 45.1696 152.682 45.1057 152.667 45.0418C152.562 44.5947 152.385 44.3166 152.133 44.2114C151.855 44.095 151.6 44.249 151.588 44.2528C151.532 44.2866 151.513 44.3617 151.551 44.4181C151.585 44.4745 151.66 44.4895 151.712 44.4557C151.72 44.4519 151.878 44.3617 152.043 44.4294C152.216 44.5045 152.351 44.73 152.434 45.0907C152.445 45.147 152.498 45.1846 152.554 45.1846Z" fill="#040000"/>
<path d="M136.841 88.2164L167.577 91.6319L167.708 81.1374L167.716 80.5662L168.058 55.4401L160.779 52.7798C157.871 56.6275 152.877 52.1862 152.877 52.1862L145.554 50.623L140.805 70.5601L140.677 71.1312L136.837 88.2202L136.841 88.2164Z" fill="#0092FB"/>
<path d="M167.577 91.6305L177.151 140.752L163.846 140.583C163.846 140.583 152.333 101.265 151.236 101.024C150.139 100.78 145.07 140.583 145.07 140.583L131.949 140.861C131.949 140.861 135.136 96.7557 136.841 88.2188C136.841 88.2188 158.428 88.8275 167.577 91.6343V91.6305Z" fill="#0092FB"/>
<path d="M157.199 55.3327C157.263 55.3327 157.327 55.3327 157.395 55.3252C158.721 55.2313 159.89 54.8067 160.84 52.8152C160.87 52.7551 160.84 52.6837 160.784 52.6574C160.724 52.6273 160.652 52.6574 160.626 52.7138C159.717 54.6225 158.612 55.0021 157.38 55.0885C155.088 55.25 153.002 52.1501 152.98 52.1163C152.942 52.0637 152.871 52.0487 152.814 52.0825C152.758 52.1201 152.743 52.1915 152.78 52.2478C152.867 52.3756 154.851 55.3327 157.199 55.3327Z" fill="#040000"/>
<path d="M167.577 91.7507C167.637 91.7507 167.69 91.7056 167.694 91.6455C167.701 91.5816 167.652 91.5215 167.588 91.5139L136.852 88.0984C136.789 88.0909 136.728 88.1398 136.721 88.2036C136.713 88.2675 136.762 88.3276 136.826 88.3351L167.562 91.7507C167.562 91.7507 167.57 91.7507 167.577 91.7507Z" fill="#040000"/>
<path d="M151.232 101.14C151.284 101.14 151.333 101.107 151.348 101.05L152.569 96.4135C152.584 96.3496 152.547 96.2858 152.483 96.267C152.419 96.2519 152.355 96.2895 152.336 96.3534L151.115 100.986C151.1 101.05 151.138 101.114 151.202 101.133C151.213 101.133 151.22 101.137 151.232 101.137V101.14Z" fill="#040000"/>
<path d="M177.261 140.706C177.261 140.706 182.75 141.863 182.506 147.109H163.783C163.783 147.109 162.776 141.345 163.843 140.582C163.843 140.582 172.504 139.789 177.261 140.706Z" fill="#0092FB"/>
<path d="M182.39 146.074H163.606C163.542 146.074 163.486 146.022 163.486 145.954C163.486 145.887 163.538 145.834 163.606 145.834H182.39C182.457 145.834 182.51 145.887 182.51 145.954C182.51 146.022 182.457 146.074 182.39 146.074Z" fill="#040000"/>
<path d="M176.919 140.801L163.847 140.704C163.783 140.704 163.726 140.651 163.73 140.583C163.73 140.519 163.783 140.467 163.85 140.467L176.923 140.564C176.986 140.564 177.039 140.617 177.039 140.685C177.039 140.749 176.986 140.801 176.919 140.801Z" fill="#040000"/>
<path d="M131.652 140.706C131.652 140.706 126.163 141.863 126.407 147.109H145.13C145.13 147.109 146.137 141.345 145.07 140.582C145.07 140.582 136.409 139.789 131.652 140.706Z" fill="#0092FB"/>
<path d="M126.524 146.074H145.307C145.371 146.074 145.427 146.022 145.427 145.954C145.427 145.887 145.375 145.834 145.307 145.834H126.524C126.456 145.834 126.403 145.887 126.403 145.954C126.403 146.022 126.456 146.074 126.524 146.074Z" fill="#040000"/>
<path d="M131.993 140.801L145.066 140.704C145.13 140.704 145.186 140.651 145.182 140.583C145.182 140.519 145.13 140.467 145.062 140.467L131.99 140.564C131.922 140.564 131.869 140.617 131.873 140.685C131.873 140.749 131.926 140.801 131.993 140.801Z" fill="#040000"/>
<path d="M132.84 34.1379C132.84 34.1379 132.077 32.045 131.904 29.738C131.731 27.4309 133.373 25.7701 132.287 25.214C131.201 24.6579 130.431 26.7771 130.431 26.7771C130.431 26.7771 131.22 17.8268 129.954 17.6014C129.954 17.6014 129.364 17.4173 128.947 17.902C128.947 17.902 129.105 16.6883 128.597 16.523C128.09 16.3539 127.391 16.8875 127.2 17.9621C127.2 17.9621 125.9 16.7221 125.482 18.5069C125.065 20.288 124.577 22.8543 124.577 22.8543C124.577 22.8543 124.539 21.1221 123.326 21.171C122.112 21.2198 122.732 24.5602 122.608 25.5183C122.484 26.4765 121.687 34.2131 123.604 38.1547C123.604 38.1547 130.284 37.2228 132.836 34.1417L132.84 34.1379Z" fill="#0092FB"/>
<path d="M128.219 26.7018C128.219 26.7018 128.23 26.7018 128.234 26.7018C128.298 26.7093 128.358 26.6605 128.366 26.5966C128.647 24.1129 128.854 18.5632 128.858 18.5068C128.858 18.4429 128.809 18.3866 128.745 18.3828C128.681 18.3828 128.625 18.4317 128.621 18.4955C128.621 18.5519 128.411 24.0941 128.129 26.5703C128.121 26.6304 128.163 26.683 128.219 26.6981V26.7018Z" fill="#040000"/>
<path d="M125.889 26.4599C125.889 26.4599 125.896 26.4599 125.9 26.4599C125.964 26.4711 126.024 26.4261 126.035 26.3584L127.192 18.6331C127.204 18.5692 127.159 18.5016 127.091 18.4978C127.027 18.4865 126.967 18.5316 126.956 18.5993L125.798 26.3246C125.791 26.3847 125.828 26.4411 125.889 26.4561V26.4599Z" fill="#040000"/>
<path d="M124.269 26.2732C124.269 26.2732 124.284 26.2732 124.291 26.2732C124.355 26.2769 124.415 26.2281 124.419 26.1605L124.607 23.2823C124.611 23.2184 124.562 23.162 124.494 23.1545C124.43 23.1507 124.37 23.1996 124.366 23.2672L124.178 26.1417C124.175 26.198 124.212 26.2506 124.269 26.2657V26.2732Z" fill="#040000"/>
<path d="M145.555 50.6189C145.555 50.6189 145.443 53.0838 144.999 55.9282C144.973 56.1086 144.943 56.2889 144.913 56.473C144.481 59.0319 143.782 61.7823 142.658 63.259C142.658 63.259 138.311 61.1473 134.324 58.1939C134.151 58.0624 133.975 57.9347 133.806 57.7994C131.803 56.2664 129.947 54.5267 128.846 52.7531C125.573 47.4589 123.612 38.1517 123.612 38.1517C123.612 38.1517 130.086 34.0335 132.844 34.1387C132.844 34.1387 135.068 42.9499 136.759 44.8249C138.45 46.6999 145.555 50.6189 145.555 50.6189Z" fill="#0092FB"/>
<path d="M185.095 80.3346C182.014 83.4946 171.632 90.0138 171.632 90.0138C168.002 93.2678 164.474 92.6891 163.392 92.2683C162.314 91.8475 162.956 90.6301 162.956 90.6301C162.956 90.6301 161.923 90.6075 161.637 89.8598C161.359 89.1346 161.998 88.6386 162.028 88.6161C161.968 88.6311 160.972 88.9054 160.653 87.9547C160.548 87.6391 160.604 87.3723 160.728 87.1582C160.991 86.7035 161.555 86.4706 161.555 86.4706C160.619 86.2038 160.679 85.5988 160.679 85.5988C160.401 84.3025 166.894 82.187 167.976 81.8451C168.078 81.8151 168.13 81.7963 168.13 81.7963C168.13 81.7963 174.973 77.2685 175.093 76.7275C175.142 76.517 174.052 75.2921 172.718 73.8756C172.707 73.8605 172.688 73.8455 172.677 73.8305C172.564 73.714 172.451 73.59 172.335 73.4697C172.275 73.4096 172.215 73.3458 172.147 73.2819C170.847 72.0006 167.822 69.6484 167.822 69.6484C167.822 69.6484 167.334 66.1878 167.093 62.6783C167.082 62.4754 167.067 62.2725 167.056 62.0734C166.845 58.5489 166.928 55.1747 168.055 55.434C168.078 55.4415 173.041 56.7566 178.159 63.6778C178.226 63.7642 178.287 63.8544 178.354 63.9408C178.463 64.0874 178.572 64.2339 178.681 64.3805C178.985 64.7863 179.294 65.1846 179.594 65.5791C179.722 65.7444 179.853 65.9135 179.981 66.0788C180.496 66.7477 181.003 67.4015 181.495 68.0402C181.653 68.2469 181.811 68.4498 181.965 68.6489C182.266 69.0472 182.559 69.438 182.844 69.825C182.953 69.9753 183.062 70.1219 183.168 70.2722C186.05 74.2738 187.676 77.6743 185.088 80.3271L185.095 80.3346Z" fill="#0092FB"/>
<path d="M167.363 92.2361C166.645 92.4165 165.995 92.4766 165.451 92.4766C164.346 92.4766 163.628 92.2286 163.437 92.1535C163.185 92.0558 163.016 91.898 162.937 91.6913C162.768 91.2442 163.057 90.6881 163.061 90.6805L163.151 90.5115H162.959C162.959 90.5115 162.001 90.4776 161.749 89.8163C161.501 89.1663 162.076 88.7304 162.099 88.7116L162.617 88.3284L161.997 88.505C161.971 88.5125 161.832 88.5501 161.652 88.5501C161.205 88.5501 160.908 88.3396 160.769 87.9226C160.686 87.6746 160.709 87.4379 160.836 87.2199C161.073 86.8066 161.599 86.5849 161.607 86.5812L161.922 86.4496L161.595 86.3557C160.776 86.1227 160.803 85.6268 160.806 85.608V85.5892V85.5704C160.63 84.7475 164.053 83.2445 167.645 82.076C167.645 81.9933 167.645 81.9069 167.645 81.8242C165.214 82.6133 160.348 84.353 160.57 85.6005C160.57 85.7057 160.592 86.1941 161.269 86.4872C161.069 86.6075 160.803 86.8104 160.637 87.0959C160.476 87.374 160.446 87.6746 160.551 87.9902C160.724 88.5012 161.114 88.783 161.659 88.783C161.678 88.783 161.693 88.783 161.712 88.783C161.532 89.0235 161.351 89.4143 161.535 89.9028C161.772 90.5265 162.463 90.6881 162.79 90.7331C162.7 90.9586 162.58 91.3907 162.723 91.7777C162.824 92.052 163.038 92.2549 163.358 92.3789C163.617 92.4804 164.346 92.7171 165.458 92.7171C166.007 92.7171 166.66 92.657 167.386 92.4804C167.378 92.4015 167.374 92.3188 167.371 92.2399L167.363 92.2361Z" fill="#040000"/>
<path d="M162.362 86.4597C162.362 86.4597 162.399 86.4597 162.418 86.4522L167.04 84.6374C167.1 84.6148 167.13 84.5434 167.107 84.4833C167.085 84.4232 167.013 84.3931 166.953 84.4157L162.331 86.2305C162.271 86.2531 162.241 86.3245 162.264 86.3846C162.279 86.4259 162.32 86.456 162.362 86.4597Z" fill="#040000"/>
<path d="M163.181 88.4827C163.2 88.4827 163.218 88.4827 163.237 88.4751L167.183 86.9534C167.243 86.9308 167.276 86.8594 167.25 86.7993C167.228 86.7392 167.156 86.7054 167.096 86.7317L163.151 88.2534C163.091 88.276 163.061 88.3474 163.083 88.4075C163.098 88.4488 163.14 88.4789 163.181 88.4827Z" fill="#040000"/>
<path d="M163.696 90.7175C163.696 90.7175 163.729 90.7175 163.748 90.71L167.667 89.3986C167.731 89.3761 167.761 89.3122 167.742 89.2483C167.724 89.1882 167.656 89.1544 167.592 89.1732L163.673 90.4845C163.609 90.5071 163.579 90.5709 163.598 90.6348C163.613 90.6799 163.654 90.71 163.696 90.7137V90.7175Z" fill="#040000"/>
<path d="M175.186 87.8603C175.205 87.8603 175.228 87.8603 175.246 87.849C175.306 87.8227 175.333 87.7513 175.306 87.6912L171.613 79.5488C171.587 79.4887 171.515 79.4624 171.455 79.4887C171.395 79.515 171.369 79.5864 171.395 79.6465L175.089 87.7889C175.107 87.8302 175.145 87.8528 175.182 87.8565L175.186 87.8603Z" fill="#040000"/>
<path d="M123.905 39.8246C123.852 39.8246 123.803 39.7908 123.788 39.7382C123.769 39.6743 123.811 39.6105 123.871 39.5917L133.614 36.984C133.678 36.969 133.742 37.0028 133.761 37.0667C133.776 37.1306 133.738 37.1944 133.678 37.2132L123.935 39.8209C123.935 39.8209 123.916 39.8246 123.905 39.8246Z" fill="#040000"/>
<path d="M142.553 63.316C142.553 63.316 142.53 63.316 142.519 63.3122C142.455 63.2934 142.421 63.2258 142.44 63.1657L143.263 60.3927C143.282 60.3288 143.35 60.295 143.41 60.3138C143.474 60.3325 143.507 60.4002 143.489 60.4603L142.666 63.2333C142.651 63.2859 142.602 63.3197 142.553 63.3197V63.316Z" fill="#040000"/>
<path d="M167.934 69.796C167.87 69.796 167.818 69.7434 167.818 69.6758L167.848 66.2903C167.848 66.2264 167.901 66.1738 167.968 66.1738C168.036 66.1738 168.088 66.2264 168.085 66.2941L168.055 69.6795C168.055 69.7434 168.002 69.796 167.934 69.796Z" fill="#040000"/>
<path d="M179.601 65.5844C176.602 65.9075 171.676 63.9273 168.238 62.5483C167.829 62.3868 167.434 62.2252 167.059 62.0749C166.645 61.9133 166.254 61.7593 165.897 61.6278C165.319 61.4136 164.819 61.4399 164.406 61.7104C163.211 62.4882 163.038 65.2049 162.843 68.3574C162.538 73.212 162.189 78.7129 158.285 78.9496C156.47 79.0586 155.253 78.356 154.659 76.8605C154.373 76.1391 154.253 75.2974 154.249 74.4257C155.643 72.4868 156.643 70.5217 157.007 69.2028C157.282 68.2183 157.21 67.5908 156.801 67.3316C156.647 67.2339 156.32 67.1212 155.899 67.4744C154.933 68.2747 153.75 71.4159 153.712 74.2716C151.536 77.2776 148.418 80.1671 145.352 80.2309C144.675 80.2497 144.255 80.1032 144.063 79.7951C143.473 78.8519 144.829 76.2217 146.265 73.4412C148.515 69.0826 151.315 63.6568 149.774 59.6776C149.169 58.1145 148.08 57.0061 146.532 56.3786C146.047 56.1832 145.532 56.0367 144.998 55.939C140.997 55.1912 135.898 56.9723 133.801 57.8102C133.974 57.9455 134.147 58.0732 134.32 58.2047C136.537 57.3555 141.267 55.8075 144.912 56.4838C145.404 56.574 145.881 56.7055 146.325 56.8896C147.726 57.457 148.715 58.464 149.259 59.8805C150.714 63.6305 147.974 68.936 145.773 73.197C144.134 76.3758 142.834 78.8858 143.593 80.0957C143.886 80.5653 144.431 80.7908 145.258 80.7908C145.292 80.7908 145.325 80.7908 145.359 80.7908C148.403 80.7232 151.484 78.0516 153.731 75.1321C153.783 75.8272 153.911 76.4885 154.144 77.0747C154.824 78.7956 156.267 79.6373 158.315 79.5133C162.704 79.2465 163.083 73.2383 163.387 68.41C163.568 65.5318 163.741 62.8151 164.706 62.1876C164.969 62.0185 165.293 62.011 165.706 62.1651C166.127 62.3191 166.596 62.5033 167.096 62.7024C167.4 62.8226 167.716 62.9504 168.035 63.0781C171.846 64.6074 176.877 66.6289 179.988 66.1029C179.86 65.9376 179.729 65.7685 179.601 65.6032V65.5844ZM156.248 67.8914C156.305 67.8464 156.395 67.7787 156.462 67.7787C156.478 67.7787 156.493 67.7787 156.508 67.79C156.609 67.8539 156.718 68.192 156.481 69.0487C156.169 70.1722 155.388 71.7729 154.298 73.4224C154.524 70.9538 155.527 68.4926 156.252 67.8914H156.248Z" fill="white"/>
<path d="M224.995 83.7619C224.995 83.7619 225.754 81.6577 222.722 82.2664C222.722 82.2664 222.666 80.7183 221.008 80.9964C219.351 81.2745 214.519 81.8719 213.914 81.188C213.914 81.188 213.546 80.7146 212.862 79.8203L205.588 86.3583L207.128 87.959C207.128 87.959 208.06 89.1877 211.412 89.4995C212.115 89.9241 216.646 92.3251 217.383 91.3519C218.179 90.2999 216.511 89.2891 215.763 88.7217C218.074 88.1807 220.141 87.8988 221.144 87.6208C222.384 87.2751 224.661 87.6584 224.15 86.0088C224.15 86.0088 226.062 85.7984 226.25 85.2686C226.438 84.7388 225.968 83.9385 224.988 83.7619H224.995Z" fill="#F06125"/>
<path d="M175.333 45.377L177.377 50.5773L170.005 53.4743L167.979 48.3266L175.333 45.377Z" fill="#F06125"/>
<path d="M175.333 45.3768L176.419 48.1423C172.454 53.6282 168.479 49.123 168.122 48.6984L167.976 48.3226L175.329 45.373L175.333 45.3768Z" fill="#040000"/>
<path d="M170.005 53.4713L165.717 56.2218C165.717 56.2218 169.629 58.1719 175.675 55.7972C181.72 53.4225 182.502 51.0027 182.502 51.0027L177.14 49.9355C177.14 49.9355 172.631 51.8631 170.005 53.4713Z" fill="#F06125"/>
<path d="M169.844 38.7133C169.844 38.7133 166.432 39.2281 166.42 43.0081C166.409 46.7881 167.754 50.4103 171.478 49.9218C175.476 49.3995 175.855 46.1794 175.157 41.9222C174.454 37.6687 170.633 38.5367 169.844 38.7133Z" fill="#F06125"/>
<path d="M175.085 42.5612C175.085 42.5612 176.22 41.34 176.908 42.5387C177.592 43.7373 176.006 45.8903 175.285 44.6954L175.085 42.5612Z" fill="#F06125"/>
<path d="M169.05 43.8326C169.088 44.1558 168.99 44.4301 168.832 44.4489C168.675 44.4677 168.517 44.2197 168.479 43.9003C168.442 43.5771 168.539 43.3028 168.697 43.2803C168.855 43.2615 169.013 43.5095 169.05 43.8326Z" fill="#040000"/>
<path d="M173.075 43.3543C173.112 43.6774 173.015 43.9517 172.857 43.9743C172.699 43.993 172.541 43.7451 172.504 43.4257C172.466 43.1025 172.564 42.8245 172.722 42.8057C172.879 42.7869 173.037 43.0349 173.075 43.3543Z" fill="#040000"/>
<path d="M175.784 43.8362C175.784 43.8362 175.772 43.8362 175.769 43.8362C175.705 43.8362 175.652 43.776 175.656 43.7122C175.675 43.2537 175.802 42.9494 176.028 42.7991C176.283 42.6338 176.558 42.7352 176.569 42.7427C176.629 42.7653 176.659 42.8367 176.637 42.8968C176.614 42.9569 176.546 42.987 176.483 42.9644C176.475 42.9644 176.302 42.9005 176.152 43.002C175.994 43.1034 175.904 43.3552 175.889 43.7234C175.889 43.7835 175.84 43.8324 175.78 43.8362H175.784Z" fill="#040000"/>
<path d="M171.046 45.231C171.098 45.2273 171.144 45.1859 171.155 45.1296C171.166 45.0657 171.121 45.0056 171.057 44.9943C170.926 44.9717 170.554 44.8665 170.561 44.6711C170.561 44.6486 170.569 44.6336 170.591 44.6185C170.7 44.5321 171.038 44.5472 171.241 44.5847C171.305 44.596 171.369 44.5547 171.38 44.4908C171.392 44.4269 171.35 44.363 171.286 44.3518C171.226 44.3405 170.681 44.2466 170.445 44.4344C170.373 44.4908 170.332 44.5697 170.328 44.6636C170.309 45.0206 170.757 45.1897 171.023 45.231C171.035 45.231 171.042 45.231 171.053 45.231H171.046Z" fill="#040000"/>
<path d="M171.184 47.3063C168.644 47.5167 168.389 45.7094 168.385 45.6906C168.378 45.6267 168.423 45.5666 168.487 45.5591C168.554 45.5516 168.611 45.5967 168.618 45.6606C168.626 45.7282 168.866 47.3401 171.346 47.0508C172.263 46.9418 172.917 46.645 173.281 46.1603C173.668 45.6493 173.589 45.1007 173.589 45.0932C173.578 45.0293 173.623 44.9692 173.687 44.9579C173.751 44.9504 173.811 44.9917 173.822 45.0556C173.826 45.0819 173.92 45.7056 173.473 46.2993C173.067 46.8366 172.36 47.1673 171.372 47.2838C171.308 47.2913 171.241 47.2988 171.177 47.3026L171.184 47.3063Z" fill="#040000"/>
<path d="M168.258 42.7178C168.239 42.7178 168.22 42.7178 168.201 42.7065C168.141 42.6802 168.115 42.6088 168.141 42.5487C168.175 42.4736 168.355 42.1016 168.626 42.1016C168.787 42.1016 168.926 42.2256 169.039 42.4773C169.065 42.5374 169.039 42.6088 168.979 42.6351C168.919 42.6614 168.847 42.6351 168.821 42.575C168.754 42.4285 168.682 42.342 168.626 42.342C168.543 42.3345 168.412 42.5224 168.355 42.6502C168.336 42.6915 168.299 42.7178 168.258 42.7215V42.7178Z" fill="#040000"/>
<path d="M172.361 42.2377C172.361 42.2377 172.339 42.2377 172.327 42.2377C172.263 42.2265 172.222 42.1626 172.233 42.0987C172.286 41.8319 172.391 41.6779 172.549 41.6403C172.816 41.5802 173.075 41.8996 173.128 41.9634C173.169 42.0161 173.158 42.0912 173.105 42.1288C173.052 42.1701 172.977 42.1588 172.94 42.1062C172.853 41.9935 172.692 41.8507 172.605 41.8695C172.553 41.8808 172.5 41.986 172.47 42.1438C172.459 42.1964 172.414 42.234 172.365 42.2415L172.361 42.2377Z" fill="#040000"/>
<path d="M166.424 43.46C166.424 43.46 163.723 40.8185 166.214 39.511C166.214 39.511 165.695 34.7202 169.723 36.4674C173.755 38.2146 177.516 37.001 175.232 42.4192C175.232 42.4192 174.649 43.43 174.416 42.0059C174.183 40.5781 173.965 39.8754 172.564 40.0032C171.162 40.1309 170.621 40.6457 169.276 40.3677C167.935 40.0896 167.397 40.3977 167.104 42.1412C166.811 43.8846 166.627 43.6479 166.417 43.46H166.424Z" fill="#F06125"/>
<path d="M174.451 42.3518C174.451 42.3518 174.425 42.3518 174.413 42.3518C174.349 42.3368 174.312 42.2729 174.327 42.209C174.327 42.1978 174.601 41.0668 174.143 40.3566C173.955 40.0673 173.669 39.8832 173.29 39.8118C172.805 39.7178 172.279 39.5224 171.809 39.2895C171.727 39.6089 171.377 40.0259 170.152 40.0973C169.397 40.1462 168.792 39.9508 168.349 39.5149C167.507 38.6845 167.571 37.298 167.575 37.2379C167.575 37.174 167.635 37.1214 167.699 37.1252C167.763 37.1252 167.815 37.1853 167.811 37.2492C167.811 37.2642 167.755 38.5906 168.518 39.3458C168.909 39.7329 169.453 39.9057 170.137 39.8606C171.032 39.8043 171.543 39.56 171.591 39.1768C170.874 38.7897 170.34 38.3388 170.378 38.0984C170.389 38.0232 170.449 37.9067 170.712 37.9368C171.189 37.9932 171.776 38.5042 171.828 39.0377C172.275 39.2707 172.801 39.4811 173.335 39.5826C173.782 39.669 174.12 39.8869 174.342 40.2364C174.853 41.0367 174.567 42.2241 174.556 42.2767C174.545 42.3255 174.5 42.3631 174.451 42.3668V42.3518ZM170.63 38.1622C170.708 38.3013 171.058 38.5906 171.55 38.8724C171.411 38.523 171.009 38.1998 170.686 38.1622C170.663 38.1622 170.645 38.1622 170.63 38.1622Z" fill="#040000"/>
<path d="M195.909 86.2514L168.062 93.4619L162.55 56.6576L170.001 53.4713C173.473 59.5847 177.137 49.9355 177.137 49.9355L184.017 49.9468L185.227 53.693L185.403 54.2416L195.905 86.2514H195.909Z" fill="#F06125"/>
<path d="M195.909 86.2573L200.782 105.42L215.624 100.367L220.009 111.778C220.009 111.778 196.484 124.813 191.546 119.781C186.605 114.75 183.07 102.065 182.705 102.798C182.341 103.53 175.382 140.59 175.382 140.59L162.31 140.688L168.07 93.4679C168.07 93.4679 184.847 85.8327 195.913 86.2573H195.909Z" fill="#F06125"/>
<path d="M182.701 102.919C182.701 102.919 182.731 102.919 182.75 102.908C182.81 102.882 182.836 102.814 182.81 102.75L181.284 99.2145C181.258 99.1543 181.187 99.128 181.127 99.1506C181.066 99.1769 181.04 99.2445 181.063 99.3084L182.588 102.844C182.607 102.889 182.652 102.916 182.697 102.916L182.701 102.919Z" fill="#2C1D23"/>
<path d="M220.579 112.837C220.579 112.837 223.642 117.537 228.444 115.414L221.684 97.957C221.684 97.957 215.947 99.0993 215.62 100.369C215.62 100.369 218.006 108.73 220.579 112.837Z" fill="#F06125"/>
<path d="M227.433 115.68L220.651 98.163C220.628 98.1029 220.557 98.0728 220.497 98.0954C220.436 98.1179 220.406 98.1893 220.429 98.2494L227.211 115.767C227.234 115.827 227.305 115.857 227.365 115.834C227.425 115.812 227.455 115.74 227.433 115.68Z" fill="#040000"/>
<path d="M220.009 111.9C220.009 111.9 220.039 111.9 220.05 111.892C220.11 111.87 220.14 111.798 220.118 111.738L215.733 100.327C215.71 100.267 215.639 100.233 215.579 100.259C215.518 100.282 215.488 100.353 215.511 100.413L219.896 111.824C219.915 111.873 219.96 111.9 220.005 111.9H220.009Z" fill="#040000"/>
<path d="M161.964 140.712C161.964 140.712 156.474 141.869 156.718 147.115H175.442C175.442 147.115 176.449 141.351 175.382 140.588C175.382 140.588 166.721 139.795 161.964 140.712Z" fill="#F06125"/>
<path d="M156.835 146.08H175.619C175.682 146.08 175.739 146.028 175.739 145.96C175.739 145.892 175.686 145.84 175.619 145.84H156.835C156.767 145.84 156.715 145.892 156.715 145.96C156.715 146.028 156.767 146.08 156.835 146.08Z" fill="#040000"/>
<path d="M162.306 140.807L175.378 140.709C175.442 140.709 175.498 140.657 175.495 140.589C175.495 140.525 175.442 140.473 175.374 140.473L162.302 140.57C162.238 140.57 162.182 140.623 162.186 140.691C162.186 140.754 162.238 140.807 162.306 140.807Z" fill="#040000"/>
<path d="M168.066 93.5814C168.013 93.5814 167.965 93.5476 167.95 93.4913C167.935 93.4274 167.972 93.3635 168.036 93.3447L195.879 86.1342C195.943 86.1191 196.007 86.1567 196.025 86.2206C196.04 86.2845 196.003 86.3483 195.939 86.3671L168.096 93.5777C168.096 93.5777 168.077 93.5814 168.066 93.5814Z" fill="#040000"/>
<path d="M172.102 54.9035C171.29 54.9035 170.554 54.4451 169.907 53.5395C169.87 53.4869 169.881 53.4118 169.934 53.3742C169.986 53.3366 170.061 53.3479 170.099 53.4005C170.734 54.2948 171.459 54.7194 172.241 54.6593C174.657 54.4827 177.009 49.9286 177.032 49.8835C177.062 49.8272 177.133 49.8009 177.193 49.8309C177.253 49.861 177.276 49.9324 177.246 49.9925C177.148 50.1841 174.811 54.7119 172.263 54.8997C172.211 54.9035 172.154 54.9073 172.102 54.9073V54.9035Z" fill="#040000"/>
<path d="M164.688 68.6716C164.688 68.6716 161.716 69.2014 157.771 69.1112C157.583 69.1112 157.391 69.1037 157.196 69.0962C154.036 68.9797 150.335 68.4536 147.051 66.9657C138.773 63.2195 135.958 55.1598 135.958 55.1598L144.785 50.3164C144.785 50.3164 149.08 55.9864 152.435 56.9032C155.787 57.8163 162.558 56.659 162.558 56.659C163.373 56.4148 163.903 57.1587 164.245 58.3837C164.293 58.5528 164.335 58.7331 164.38 58.921C165.135 62.4192 164.692 68.6716 164.692 68.6716H164.688Z" fill="#F06125"/>
<path d="M144.781 50.3182C144.781 50.3182 143.831 48.3042 143.447 46.0197C143.064 43.7389 144.548 41.9316 143.414 41.4769C142.283 41.0223 141.712 43.2016 141.712 43.2016C141.712 43.2016 141.678 34.2175 140.4 34.1085C140.4 34.1085 139.795 33.9808 139.423 34.4993C139.423 34.4993 139.472 33.2781 138.95 33.1579C138.427 33.0377 137.781 33.6313 137.687 34.721C137.687 34.721 136.278 33.605 136.026 35.4199C135.775 37.231 135.523 39.8311 135.523 39.8311C135.523 39.8311 135.328 38.1102 134.121 38.2718C132.915 38.4296 133.84 41.6986 133.806 42.668C133.772 43.6337 133.682 51.4116 135.955 55.1616C135.955 55.1616 142.519 53.6248 144.781 50.3182Z" fill="#F06125"/>
<path d="M139.498 43.3363C139.498 43.3363 139.51 43.3363 139.513 43.3363C139.581 43.3363 139.634 43.2837 139.634 43.2199C139.686 40.7211 139.386 35.1751 139.382 35.1188C139.382 35.0549 139.322 35.0023 139.258 35.006C139.194 35.006 139.141 35.0662 139.145 35.13C139.145 35.1864 139.45 40.7249 139.397 43.2161C139.397 43.2762 139.438 43.3251 139.498 43.3363Z" fill="#040000"/>
<path d="M137.154 43.3108C137.154 43.3108 137.161 43.3108 137.165 43.3108C137.229 43.3146 137.285 43.2658 137.289 43.1981L137.732 35.3976C137.732 35.3338 137.687 35.2736 137.62 35.2736C137.556 35.2699 137.499 35.3187 137.496 35.3864L137.052 43.1868C137.052 43.247 137.094 43.3033 137.154 43.3108Z" fill="#040000"/>
<path d="M135.527 43.2748C135.527 43.2748 135.542 43.2748 135.549 43.2748C135.613 43.2748 135.666 43.2184 135.666 43.1508L135.591 40.2688C135.591 40.2049 135.534 40.1523 135.47 40.1523C135.403 40.1523 135.354 40.2087 135.354 40.2763L135.429 43.1583C135.429 43.2147 135.474 43.2635 135.531 43.2748H135.527Z" fill="#040000"/>
<path d="M218.848 86.8118C218.795 86.8306 218.761 86.887 218.773 86.9433C218.784 87.0072 218.848 87.0486 218.912 87.0373L223.654 86.1656C223.717 86.1543 223.763 86.0904 223.748 86.0265C223.736 85.9627 223.672 85.9176 223.609 85.9326L218.867 86.8043C218.867 86.8043 218.852 86.8043 218.844 86.8118H218.848Z" fill="#040000"/>
<path d="M218.648 84.9921C218.595 85.0109 218.562 85.0672 218.573 85.1274C218.584 85.1912 218.648 85.2326 218.712 85.2213L224.604 84.0415C224.668 84.0302 224.709 83.9663 224.698 83.9024C224.686 83.8386 224.622 83.7972 224.559 83.8085L218.667 84.9883C218.667 84.9883 218.652 84.9883 218.648 84.9921Z" fill="#040000"/>
<path d="M218.371 83.187C218.318 83.2058 218.284 83.2659 218.296 83.3223C218.311 83.3861 218.371 83.4275 218.435 83.4162L222.2 82.6346C222.264 82.6234 222.305 82.5595 222.294 82.4956C222.279 82.4317 222.218 82.3904 222.155 82.4054L218.39 83.187C218.39 83.187 218.378 83.187 218.371 83.1907V83.187Z" fill="#040000"/>
<path d="M212.133 89.0838C212.088 89.1025 212.058 89.1439 212.058 89.1965C212.058 89.2604 212.114 89.313 212.178 89.313C212.911 89.3017 215.049 88.8846 215.139 88.8696C215.203 88.8545 215.244 88.7944 215.233 88.7306C215.221 88.6667 215.158 88.6253 215.094 88.6366C215.071 88.6404 212.884 89.065 212.174 89.0762C212.159 89.0762 212.144 89.0762 212.133 89.0838Z" fill="#040000"/>
<path d="M212.866 79.8213C212.866 79.8213 210.42 84.6684 205.592 86.3593C205.592 86.3593 196.476 74.3467 195.011 72.3966C193.546 70.4427 188.304 64.9568 188.304 64.9568C188.304 64.9568 186.418 60.4516 185.054 56.3785C184.915 55.9652 184.783 55.5594 184.659 55.1611C184.419 54.3908 184.204 53.6544 184.039 52.9931C183.99 52.7939 183.945 52.6023 183.904 52.4219C183.596 51.0166 183.562 50.0472 184.02 49.957C184.02 49.957 192.956 50.7724 198.092 57.7011C198.122 57.7425 198.156 57.7838 198.182 57.8251C198.291 57.9717 198.404 58.1333 198.532 58.3099C202.278 63.5703 212.866 79.8288 212.866 79.8288V79.8213Z" fill="#F06125"/>
<path d="M164.274 68.7334C164.218 68.7334 164.165 68.6921 164.158 68.6319L163.549 64.7279C163.538 64.6641 163.583 64.6039 163.647 64.5927C163.711 64.5852 163.771 64.6265 163.782 64.6904L164.391 68.5944C164.402 68.6582 164.357 68.7184 164.293 68.7296C164.286 68.7296 164.282 68.7296 164.274 68.7296V68.7334Z" fill="#040000"/>
<path d="M189.34 65.9268C189.291 65.9268 189.243 65.893 189.228 65.8441L187.642 60.843C187.623 60.7791 187.657 60.7152 187.721 60.6927C187.785 60.6739 187.849 60.7077 187.871 60.7716L189.457 65.7727C189.476 65.8366 189.442 65.9005 189.378 65.923C189.367 65.9268 189.355 65.9306 189.34 65.9306V65.9268Z" fill="#040000"/>
<path d="M203.946 84.2373C203.912 84.2373 203.878 84.2222 203.855 84.1959C203.814 84.1471 203.822 84.0719 203.87 84.0269L211.464 77.7143C211.513 77.673 211.588 77.6805 211.633 77.7294C211.675 77.782 211.667 77.8534 211.618 77.8984L204.025 84.211C204.002 84.2298 203.976 84.2373 203.949 84.2373H203.946Z" fill="#040000"/>
<path d="M137.033 57.5711C136.996 57.5711 136.958 57.5523 136.936 57.5185C136.898 57.4621 136.913 57.3907 136.97 57.3531L145.751 51.5441C145.807 51.5065 145.878 51.5216 145.916 51.5779C145.954 51.6343 145.939 51.7057 145.882 51.7433L137.101 57.5523C137.082 57.5673 137.06 57.5711 137.037 57.5711H137.033Z" fill="#040000"/>
<path d="M198.182 57.8177C198.152 57.7764 198.122 57.735 198.091 57.6937C192.53 57.0286 188.13 56.3899 184.955 55.7962C185.545 54.6652 185.688 53.816 185.391 53.2336C185.109 52.685 184.52 52.4746 183.907 52.4182C183.295 52.3619 182.663 52.4521 182.284 52.5084L182.134 52.531C179.556 52.8917 178.459 53.3275 178.47 53.9888C178.478 54.4923 179.06 55.1349 183.336 56.0367C183.58 56.0893 183.836 56.1419 184.102 56.1945C183.302 57.4833 181.856 59.3207 179.33 61.9321C176.978 64.3707 175.235 66.9107 173.991 69.3681C172.973 66.8544 171.489 64.1791 169.407 61.4963C167.641 59.223 165.909 58.1822 164.244 58.3888C164.12 58.4039 164 58.4264 163.88 58.4527C160.393 59.2756 158.195 65.4867 157.195 69.1013C157.391 69.1089 157.582 69.1126 157.77 69.1164C158.762 65.5919 160.863 59.7302 164.004 58.9863C164.128 58.9562 164.252 58.9374 164.376 58.9261C165.819 58.7834 167.363 59.7565 168.971 61.8344C171.151 64.645 172.665 67.433 173.664 70.0294C170.94 75.7859 170.933 80.9599 172.169 83.0378C172.593 83.7554 173.074 83.9283 173.431 83.9283C173.552 83.9283 173.653 83.9095 173.739 83.8869C174.438 83.6915 175.009 82.9776 175.396 81.8203C176.167 79.502 176.167 75.1358 174.243 70.0294C175.453 67.542 177.219 64.908 179.721 62.3154C182.107 59.843 183.753 57.8478 184.674 56.311C184.801 56.3335 184.925 56.3598 185.057 56.3861C188.33 56.9911 192.842 57.6373 198.535 58.3137C198.411 58.1408 198.294 57.9793 198.185 57.829L198.182 57.8177ZM174.874 81.64C174.555 82.6019 174.1 83.2106 173.593 83.3496C173.168 83.4699 172.838 83.0904 172.638 82.7522C171.677 81.1365 171.376 76.357 173.916 70.717C175.607 75.4627 175.592 79.4794 174.874 81.64ZM184.659 55.1612C184.583 55.3227 184.497 55.5031 184.392 55.691C184.065 55.6271 183.757 55.5632 183.46 55.4993C179.083 54.575 179.019 54.0039 179.015 53.9776C179.015 53.9588 179.105 53.5041 182.205 53.072L182.359 53.0495C182.615 53.0119 183.05 52.9518 183.498 52.9518C183.682 52.9518 183.866 52.9631 184.039 52.9894C184.422 53.0495 184.753 53.1923 184.899 53.4816C185.038 53.7521 185.068 54.2481 184.655 55.1574L184.659 55.1612Z" fill="white"/>
<path d="M92.7256 20.497C92.6655 20.5158 92.5941 20.4895 92.5641 20.4294C92.5265 20.3617 92.5528 20.2791 92.6204 20.2453C93.3193 19.8695 93.7477 19.3585 93.8942 18.7197C94.2136 17.337 93.1277 15.8077 93.1164 15.7927L92.9436 15.5522L93.2404 15.5785C94.4916 15.68 95.4085 15.3718 95.9758 14.6542C97.4262 12.813 96.1562 8.87896 96.1449 8.83763L96.3967 8.73242C98.2416 12.4899 101.729 11.5392 101.762 11.528C101.834 11.5054 101.913 11.5505 101.931 11.6219C101.954 11.6933 101.905 11.7684 101.837 11.791C101.804 11.8023 98.685 12.6514 96.6672 9.73942C96.9641 11.0771 97.2759 13.4443 96.19 14.8195C95.6076 15.5597 94.7021 15.9092 93.4922 15.8641C93.8003 16.3676 94.4353 17.6 94.161 18.7799C93.9957 19.4975 93.5185 20.0724 92.7482 20.4857C92.7407 20.4895 92.7332 20.4933 92.7256 20.497Z" fill="black"/>
<path d="M137.492 21.5602C137.455 21.5677 137.414 21.5602 137.38 21.5302C135.711 20.1286 136.298 16.9686 136.688 15.4844C136.159 16.0706 135.185 16.7582 133.75 16.3373C132.093 15.8564 132.555 12.377 132.991 10.3066C131.27 13.3314 128.121 13.8462 128.088 13.8537C128.012 13.8649 127.941 13.8123 127.93 13.7372C127.918 13.662 127.971 13.5982 128.046 13.5794C128.088 13.5794 132.022 12.9256 133.367 8.77734L133.63 8.85625C133.104 10.6936 132.112 15.5708 133.833 16.0706C135.918 16.6793 136.895 14.7592 136.936 14.6766L137.188 14.7818C137.173 14.8306 135.535 19.6138 137.56 21.3122C137.616 21.3611 137.628 21.4475 137.575 21.5076C137.553 21.5339 137.526 21.5489 137.496 21.5527L137.492 21.5602Z" fill="black"/>
<path d="M111.833 7.12618C111.762 7.14121 111.69 7.10364 111.672 7.03224L110.559 3.47393C110.537 3.40254 110.578 3.32363 110.65 3.30109C110.725 3.27855 110.8 3.31988 110.822 3.39127L111.935 6.94958C111.957 7.02097 111.916 7.09988 111.844 7.12242H111.837L111.833 7.12618Z" fill="black"/>
<path d="M108.192 8.94678C108.132 8.98435 108.061 8.98435 108.027 8.93926L106.396 6.79375C106.362 6.74866 106.385 6.68103 106.449 6.63594C106.516 6.59085 106.588 6.59461 106.621 6.63594L108.252 8.78145C108.286 8.82654 108.263 8.89417 108.2 8.93926C108.2 8.93926 108.196 8.94302 108.192 8.94302V8.94678Z" fill="black"/>
<path d="M122.407 9.96496C122.373 9.90108 122.377 9.82969 122.422 9.79963L124.65 8.28914C124.696 8.25908 124.763 8.28914 124.805 8.34926C124.846 8.41689 124.838 8.49204 124.793 8.5221L122.565 10.0326C122.52 10.0627 122.452 10.0326 122.411 9.97248C122.411 9.97248 122.411 9.96872 122.407 9.96496Z" fill="black"/>
<path d="M118.837 7.46466C118.781 7.41957 118.773 7.33691 118.815 7.27679L121.013 4.26331C121.058 4.20319 121.144 4.18816 121.205 4.23325C121.268 4.2821 121.28 4.36476 121.235 4.42488L119.036 7.43836C118.991 7.49848 118.905 7.51351 118.845 7.46842C118.845 7.46842 118.841 7.46842 118.837 7.4609V7.46466Z" fill="black"/>
<path d="M115.373 6.79539C115.373 6.79539 115.347 6.79539 115.335 6.79539C115.26 6.78412 115.208 6.71648 115.219 6.64133L116.049 1.06527C116.06 0.990119 116.132 0.937515 116.203 0.948787C116.278 0.96006 116.331 1.02769 116.32 1.1066L115.489 6.68267C115.482 6.74654 115.429 6.79163 115.373 6.79915V6.79539Z" fill="black"/>
</svg>
