<svg width="121" height="121" viewBox="0 0 121 121" fill="none" xmlns="http://www.w3.org/2000/svg">
<g id="_&#235;&#160;&#136;&#236;&#157;&#180;&#236;&#150;&#180;_1" clip-path="url(#clip0_4252_51567)">
<path id="Vector" d="M120.5 71.49C120.5 74.3047 120.26 77.0704 119.792 79.7523C118.634 86.4389 116.092 92.6545 112.473 98.0879C112.358 98.2633 112.243 98.4403 112.118 98.611C111.637 99.319 111.135 100.01 110.616 100.688C110.496 100.846 110.371 101.005 110.248 101.16C108.57 103.302 106.707 105.298 104.695 107.126C104.417 107.379 104.132 107.632 103.844 107.877C103.664 108.035 103.479 108.194 103.291 108.349C103.223 108.414 103.149 108.474 103.076 108.534C102.029 109.402 100.943 110.22 99.8271 110.998C99.7371 111.063 99.6422 111.123 99.5522 111.188C99.4921 111.226 99.4352 111.268 99.3767 111.308C99.342 111.333 99.304 111.355 99.2693 111.38C99.1144 111.483 98.9611 111.586 98.8015 111.689C97.4913 112.552 96.1354 113.35 94.7415 114.08L94.4191 114.247C94.3164 114.299 94.2136 114.355 94.1062 114.405C93.4582 114.731 92.8055 115.045 92.1402 115.341C92.028 115.396 91.9173 115.444 91.8004 115.496C91.5981 115.586 91.3926 115.676 91.1872 115.761C89.3935 116.525 87.5397 117.177 85.6385 117.723C85.5357 117.753 85.4283 117.783 85.3208 117.813C85.2213 117.838 85.1185 117.868 85.0158 117.898C81.0032 118.981 76.7836 119.559 72.4312 119.559C60.5989 119.559 49.7654 115.284 41.3925 108.193C30.9762 99.3775 24.3623 86.205 24.3623 71.4885C24.3623 44.938 45.8824 23.418 72.4328 23.418C98.9832 23.418 120.503 44.938 120.503 71.4885L120.5 71.49Z" fill="#ED6890"/>
<g id="Group">
<path id="Vector_2" d="M79.1998 39.2239C79.1998 39.2239 79.1887 39.2239 79.1729 39.2239L78.4507 27.5859L59.6662 28.8803L60.3901 39.1591L47.9951 43.1717C47.9951 43.1717 56.1957 52.3616 71.5981 51.4039C87.0005 50.4462 90.7871 42.3104 90.7871 42.3104L79.1998 39.2255V39.2239Z" fill="#0092FB"/>
<path id="Vector_3" d="M104.693 107.127C104.165 107.607 103.625 108.075 103.075 108.535C94.7525 115.419 84.0738 119.561 72.4296 119.561C60.7853 119.561 49.7637 115.286 41.3909 108.195L42.0388 91.2027L42.0989 89.567L42.3217 83.7686L42.4197 81.1467L45.1237 39.0596L60.3902 39.1576C60.3902 39.1576 63.7375 42.745 69.6481 42.3894C72.3221 42.2314 75.6741 42.9299 79.2015 39.2223L97.7473 41.9169C97.7947 41.9216 97.85 41.9295 97.9069 41.9469H97.9148L101.151 73.0899L101.444 75.8793L103.435 95.0557L103.65 97.0817L104.693 107.125V107.127Z" fill="#0092FB"/>
<path id="Vector_4" d="M78.4507 27.5859L78.8884 34.6376C65.9119 44.1468 60.2194 31.0486 59.7263 29.8348L59.6663 28.8803L78.4507 27.5859Z" fill="#060101"/>
<path id="Vector_5" d="M68.9905 45.6288C68.6413 45.6288 68.2952 45.6051 67.9506 45.5593C62.8981 44.8813 60.2305 39.5159 60.1198 39.2883C60.0471 39.1398 60.1088 38.9596 60.2589 38.8869C60.4075 38.8142 60.5876 38.8759 60.6603 39.026C60.6856 39.0782 63.3027 44.3329 68.0344 44.9651C71.4417 45.4171 75.1224 43.421 78.9754 39.0244C79.0844 38.8996 79.2741 38.8869 79.3989 38.996C79.5238 39.105 79.5364 39.2947 79.4274 39.4195C75.8115 43.5443 72.3077 45.6288 68.9905 45.6288Z" fill="#060101"/>
<g id="Group_2">
<path id="Vector_6" d="M70.408 7.47729C70.408 7.47729 77.4896 -0.999879 83.8207 5.86846C90.1517 12.7352 96.0528 18.5305 101.739 18.3156C107.425 18.1006 94.4424 38.9174 81.1372 18.2081L70.408 7.47887V7.47729Z" fill="#0092FB"/>
<path id="Vector_7" d="M69.0537 9.68873C69.0537 9.68873 60.9637 9.43903 59.3454 18.1627C57.7271 26.8864 59.3028 35.8045 68.1007 36.2455C77.5498 36.7227 79.7813 29.453 79.9583 19.3354C80.1338 9.22093 70.9454 9.61129 69.0537 9.68873Z" fill="#0092FB"/>
<path id="Vector_8" d="M59.5224 19.5119C59.5224 19.5119 56.7061 16.7937 55.2538 19.6921C53.7998 22.5889 57.7919 27.4312 59.328 24.5375L59.5224 19.5135V19.5119Z" fill="#0092FB"/>
<path id="Vector_9" d="M79.527 20.7828C79.527 20.7828 82.6656 18.4406 83.7403 21.5003C84.8165 24.5567 80.2429 28.8554 79.0845 25.791L79.527 20.7828Z" fill="#0092FB"/>
<path id="Vector_10" d="M73.354 21.8826C73.2702 22.6381 73.5026 23.286 73.8739 23.3271C74.2438 23.3666 74.612 22.7866 74.6957 22.0296C74.7779 21.2726 74.5456 20.6246 74.1758 20.582C73.806 20.5425 73.4362 21.124 73.354 21.8811V21.8826Z" fill="#060101"/>
<path id="Vector_11" d="M63.9062 20.8409C63.8225 21.5964 64.0548 22.2443 64.4262 22.2854C64.796 22.3265 65.1642 21.7465 65.248 20.9895C65.3333 20.2325 65.0994 19.5861 64.7296 19.545C64.3598 19.5039 63.99 20.0855 63.9078 20.8425L63.9062 20.8409Z" fill="#060101"/>
<path id="Vector_12" d="M58.3339 22.6033C58.19 22.6049 58.0668 22.4958 58.0526 22.352C57.9656 21.4844 57.7207 20.9075 57.3382 20.6879C56.9731 20.4761 56.5749 20.6468 56.5702 20.6468C56.4279 20.71 56.2636 20.6468 56.2003 20.5077C56.1371 20.367 56.2003 20.2027 56.3394 20.1395C56.3663 20.1268 57.0016 19.8487 57.6164 20.2058C58.1679 20.5251 58.5014 21.2284 58.6057 22.2983C58.6199 22.4516 58.5077 22.5891 58.356 22.6033C58.3481 22.6033 58.3402 22.6033 58.3323 22.6033H58.3339Z" fill="#060101"/>
<path id="Vector_13" d="M80.6395 24.0192C80.6173 24.0192 80.5952 24.0161 80.5731 24.0113C80.423 23.9781 80.3281 23.828 80.3629 23.6779C80.6031 22.6301 81.0219 21.9742 81.6082 21.7261C82.2657 21.4527 82.8583 21.8083 82.8836 21.8225C83.0148 21.9031 83.0559 22.0753 82.9753 22.2065C82.8947 22.3377 82.724 22.3772 82.5944 22.2982C82.5754 22.2871 82.2088 22.0785 81.82 22.2429C81.417 22.4167 81.1009 22.954 80.9081 23.8011C80.8781 23.9291 80.7659 24.0161 80.641 24.0176L80.6395 24.0192Z" fill="#060101"/>
<path id="Vector_14" d="M68.6776 25.3783C68.8135 25.4052 68.9494 25.3261 68.9937 25.1902C69.0411 25.0433 68.9621 24.8868 68.8151 24.8394C68.518 24.7414 67.6899 24.3605 67.7847 23.9101C67.7958 23.8564 67.8195 23.8232 67.87 23.7948C68.1545 23.6351 68.9305 23.79 69.3888 23.9544C69.5342 24.0049 69.6922 23.9291 69.7444 23.7837C69.795 23.6399 69.7207 23.4787 69.5753 23.4281C69.4378 23.3791 68.213 22.9619 67.5966 23.308C67.407 23.4155 67.2837 23.5846 67.2379 23.7948C67.0656 24.6181 68.0391 25.1729 68.6413 25.3688C68.6523 25.372 68.6634 25.3751 68.676 25.3767L68.6776 25.3783Z" fill="#060101"/>
<path id="Vector_15" d="M67.4369 29.9247C67.7372 29.9815 68.0532 30.0274 68.3788 30.0637C74.7667 30.7702 75.3657 26.3151 75.372 26.2692C75.3894 26.1175 75.2772 25.9784 75.1286 25.9595C74.9753 25.9421 74.8378 26.0496 74.8173 26.2029C74.7983 26.3641 74.2626 30.1522 68.4404 29.509C66.2864 29.272 64.7534 28.5813 63.8874 27.4577C62.9676 26.2629 63.1446 24.9749 63.1462 24.9623C63.1683 24.8105 63.0466 24.6778 62.9123 24.6446C62.7605 24.6225 62.6183 24.7252 62.5946 24.8769C62.5851 24.9385 62.3733 26.4004 63.4354 27.788C64.2619 28.8658 65.6036 29.5817 67.4353 29.9247H67.4369Z" fill="#060101"/>
<path id="Vector_16" d="M73.564 19.087C73.6889 19.1107 73.8169 19.0475 73.8706 18.9258C74.0255 18.5797 74.1946 18.3727 74.3258 18.3727C74.5296 18.3759 74.8267 18.7883 74.9627 19.0902C75.0259 19.2293 75.1918 19.2909 75.3325 19.2293C75.4715 19.1645 75.5348 19.0001 75.4715 18.8595C75.3925 18.6856 74.9706 17.8148 74.3242 17.8164C73.9465 17.818 73.6225 18.1151 73.3617 18.6998C73.3001 18.8405 73.3633 19.0064 73.504 19.0681C73.5245 19.0776 73.545 19.0839 73.5656 19.087H73.564Z" fill="#060101"/>
<path id="Vector_17" d="M63.9315 18.0077C64.0327 18.0266 64.1402 17.9887 64.205 17.9018C64.4025 17.641 64.7771 17.3044 64.9778 17.3423C64.9793 17.3423 64.9825 17.3423 64.9841 17.3423C65.1121 17.3708 65.2322 17.6078 65.3081 17.9792C65.3381 18.1309 65.4851 18.2273 65.6368 18.1973C65.7869 18.1673 65.8849 18.0203 65.8549 17.8686C65.7269 17.2396 65.4756 16.8793 65.1074 16.7955C64.4926 16.6422 63.8747 17.4103 63.7593 17.5636C63.6676 17.6884 63.6929 17.8623 63.8146 17.9539C63.851 17.9808 63.8905 17.9966 63.9315 18.0045V18.0077Z" fill="#060101"/>
<path id="Vector_18" d="M59.1952 19.3334C59.1952 19.3334 59.9458 21.802 61.1264 18.9842C62.3069 16.1679 64.8545 11.6607 64.6949 13.6456C64.5337 15.6306 66.1963 16.7305 70.4348 16.5425C74.6734 16.3544 77.2747 16.3813 77.7315 17.8842C78.1882 19.3872 78.4553 22.8735 79.9582 20.6199L82.3999 20.1094C82.3999 20.1094 85.6444 -0.302817 65.847 7.58487C65.847 7.58487 55.5461 2.16574 59.1952 19.3334Z" fill="#0092FB"/>
<path id="Vector_19" d="M78.5281 20.1879C78.5281 20.1879 78.5155 20.1879 78.5091 20.1879C78.3432 20.1768 78.2183 20.0346 78.2278 19.8687C78.2974 18.7766 78.0809 17.9564 77.5878 17.4333C77.0204 16.8312 76.2555 16.8248 76.2413 16.8248C66.9502 16.5388 64.8151 14.5349 64.3853 13.318C63.8132 13.7858 62.3529 16.6273 61.2419 19.1843C61.1755 19.3361 61.0001 19.4072 60.8468 19.3392C60.6951 19.2728 60.6255 19.0958 60.6919 18.9441C61.9404 16.0726 63.6046 12.6621 64.4659 12.6621C64.4722 12.6621 64.4769 12.6621 64.4832 12.6621C64.5844 12.6669 64.8278 12.719 64.9384 13.0746C65.1438 13.7383 66.5662 15.9256 76.2492 16.2259C76.2761 16.2132 77.2622 16.2195 78.0176 17.0129C78.6356 17.6624 78.909 18.636 78.8284 19.9066C78.8189 20.0662 78.6861 20.1879 78.5281 20.1879Z" fill="#060101"/>
<path id="Vector_20" d="M82.5342 19.5257C82.5342 19.5257 82.5184 19.5257 82.5105 19.5257C82.3446 19.5131 82.2213 19.3692 82.2339 19.2033C82.629 13.9312 81.646 10.1509 79.3134 7.96679C76.7279 5.54723 73.3285 5.99605 73.2953 6.00396C73.1309 6.02292 72.9792 5.91229 72.9555 5.74793C72.9318 5.58357 73.0456 5.43186 73.21 5.40815C73.3601 5.38445 76.9191 4.90717 79.718 7.52112C82.196 9.8348 83.2438 13.7794 82.8345 19.2476C82.8218 19.4056 82.6907 19.5257 82.5358 19.5257H82.5342Z" fill="#060101"/>
</g>
<g id="Group_3">
<g id="Group_4">
<path id="Vector_21" d="M44.1391 28.1722C44.1391 28.1722 46.4844 27.9905 49.5298 24.5927C53.947 19.6635 59.6822 15.515 63.0974 13.7829C66.5142 12.0508 69.3399 12.0571 69.8124 8.95479C69.8124 8.95479 72.9732 7.65097 72.5812 4.95484C72.5812 4.95484 75.7531 2.51947 72.1861 0.169442C70.2976 -1.07432 62.8698 4.81419 57.3622 6.14171C51.8545 7.47239 45.1964 8.20411 45.1964 8.20411C45.1964 8.20411 41.9724 24.1407 44.1407 28.1691L44.1391 28.1722Z" fill="#0092FB"/>
<path id="Vector_22" d="M55.2618 13.6031C55.2618 13.6031 55.2697 13.5968 55.2744 13.592C57.0824 12.3151 60.123 10.6999 62.5647 9.39927C63.995 8.63752 65.2308 7.98166 66.0289 7.50123C66.8539 7.00341 67.5966 6.86275 68.2367 7.08401C69.0885 7.37638 69.4125 8.19818 69.4267 8.23294C69.4852 8.38782 69.4093 8.56166 69.2529 8.62014C69.0996 8.67861 68.9257 8.60275 68.8657 8.44946C68.8657 8.44946 68.6223 7.84733 68.036 7.6482C67.5729 7.49174 67.0008 7.61501 66.3387 8.01327C65.5279 8.50161 64.2857 9.16221 62.8492 9.92711C60.4217 11.2183 57.4 12.824 55.6221 14.0788C55.4878 14.1752 55.2997 14.1436 55.2033 14.0077C55.1101 13.8765 55.1385 13.6947 55.2633 13.5983L55.2618 13.6031Z" fill="#060101"/>
<path id="Vector_23" d="M58.2866 8.53777C58.2866 8.53777 58.3008 8.52828 58.3087 8.52354C58.3483 8.49668 62.2518 5.94436 66.6532 4.0637C68.5939 3.234 70.111 3.05858 71.1573 3.5406C71.968 3.91357 72.1798 4.5552 72.1877 4.58207C72.2367 4.74011 72.1482 4.90921 71.9917 4.95978C71.8352 5.00877 71.6677 4.92185 71.6156 4.76539C71.6061 4.74169 71.4559 4.32921 70.8838 4.07477C70.2738 3.80294 69.0854 3.67809 66.8886 4.61526C62.5363 6.47221 58.6754 8.99924 58.6359 9.02294C58.4968 9.11461 58.3103 9.0751 58.2202 8.93602C58.1333 8.80485 58.1634 8.63101 58.285 8.53461L58.2866 8.53777Z" fill="#060101"/>
<path id="Vector_24" d="M59.151 16.5307C59.0594 16.5307 58.9693 16.488 58.9092 16.4106C58.8097 16.2779 58.8365 16.0898 58.9693 15.9902C58.9946 15.9713 61.5975 14.0432 65.7966 12.3316C69.6827 10.7481 69.5152 9.016 69.512 9.0002L69.4852 8.78368L69.6811 8.6857C72.1276 7.53676 72.284 5.77147 72.2888 5.6972C72.3014 5.53284 72.4421 5.40483 72.608 5.41905C72.7724 5.43011 72.8988 5.57077 72.8877 5.73671C72.883 5.82363 72.7281 7.83387 70.1094 9.14717C70.0667 9.7572 69.6053 11.4308 66.021 12.8911C61.893 14.5742 59.3518 16.4564 59.328 16.4754C59.2743 16.5149 59.2111 16.5355 59.1495 16.5355L59.151 16.5307Z" fill="#060101"/>
</g>
<path id="Vector_25" d="M44.139 28.1724C44.139 28.1724 42.565 29.5125 40.0174 31.5054C39.8262 31.6508 39.6286 31.8073 39.4232 31.9637C28.6371 40.3129 2.9211 58.2502 0.627962 41.4507C-1.61302 25.0021 26.1543 14.1386 38.9427 10.0422C39.1466 9.97585 39.3442 9.91264 39.5433 9.851C42.9822 8.7637 45.1947 8.20898 45.1947 8.20898L44.139 28.174V28.1724Z" fill="#0092FB"/>
<path id="Vector_26" d="M45.1221 39.0581L31.3632 35.5986C31.3632 35.5986 -3.88243 40.275 2.62716 46.3231C2.62716 46.3231 6.97795 53.1962 43.7961 71.5476C43.7961 71.5476 48.8533 39.5211 45.1221 39.0581Z" fill="#0092FB"/>
<path id="Vector_27" d="M40.0159 31.5066C39.8247 31.652 39.6272 31.8084 39.4217 31.9649L38.9429 10.0418C39.1467 9.97544 39.3443 9.91222 39.5434 9.85059L40.0159 31.5066Z" fill="#060101"/>
<path id="Vector_28" d="M20.8537 44.3589C20.7588 44.3526 20.6688 44.3004 20.6166 44.2103C20.5328 44.0665 20.5818 43.8832 20.7256 43.7994C24.6102 41.5474 31.7267 36.6308 31.7994 36.5818C31.9353 36.487 32.1218 36.5218 32.2166 36.6577C32.3114 36.7936 32.2767 36.9817 32.1407 37.0749C32.0696 37.1255 24.9326 42.0547 21.0275 44.3178C20.9738 44.3494 20.9121 44.3621 20.8537 44.3573V44.3589Z" fill="#060101"/>
<path id="Vector_29" d="M42.5097 69.5574C42.5097 69.5574 42.5049 69.5574 42.5018 69.5574C42.3358 69.5416 42.2157 69.3946 42.2331 69.2302L44.0948 50.3241C44.1106 50.1582 44.2607 50.0491 44.4235 50.0539C44.5879 50.0712 44.7096 50.2182 44.6922 50.3826L42.8305 69.2871C42.8147 69.4499 42.6709 69.57 42.5097 69.5574Z" fill="#060101"/>
</g>
<path id="Vector_30" d="M119.792 79.7516C117.924 90.533 112.465 100.083 104.693 107.125C104.165 107.606 103.625 108.074 103.075 108.534C102.204 102.64 100.658 91.8257 99.2849 80.6018C99.1869 79.8069 99.0921 79.0088 98.9925 78.2107C96.8511 60.1928 95.3181 41.9473 97.9068 41.9473H97.9147C97.9147 41.9473 102.778 42.4625 107.723 46.3549C108.113 46.66 108.503 46.9855 108.894 47.3427C111.98 50.1194 114.954 54.3138 116.636 60.6179C118.425 67.3219 119.34 74.048 119.79 79.7516H119.792Z" fill="#0092FB"/>
<path id="Vector_31" d="M107.723 46.3564C107.302 49.8807 105.679 61.3132 101.151 73.0918C100.494 74.8002 99.778 76.5117 98.9925 78.2122C95.5204 85.7491 90.7398 92.9714 84.2033 97.8737C80.6411 100.548 77.7221 101.243 75.5412 99.9425C74.8759 99.5442 74.2753 98.9516 73.7475 98.1867C84.3993 82.4002 90.5375 64.6668 86.8552 59.0864C86.0476 57.8632 84.3787 56.5847 81.0014 57.4175C75.1382 58.8683 71.5934 69.2119 70.3449 77.6322C69.2339 85.1043 69.5342 93.474 72.2082 98.1614C71.2805 99.5142 70.3291 100.843 69.3414 102.149C65.7444 106.914 62.59 108.772 59.9681 107.672C57.4364 106.612 55.4878 102.972 54.1476 97.8943C56.0014 98.34 57.8046 98.4221 59.4656 97.9717C63.1747 96.9713 65.6812 93.4945 66.9076 87.6455C70.2296 71.8559 65.5216 56.3571 60.6888 52.1975C59.0104 50.7562 57.6118 50.8463 56.7315 51.1719C54.3578 52.0553 52.6842 55.687 51.766 61.9532C50.2377 72.349 50.2646 86.0304 52.406 96.0057C48.8644 94.6529 45.1916 92.0959 42.1003 89.5672L42.0403 91.203C45.2674 93.7648 49.0619 96.2681 52.7442 97.4913C54.1697 103.26 56.3664 107.56 59.4735 108.861C60.1262 109.136 60.7994 109.268 61.4869 109.268C64.2036 109.268 67.1826 107.144 70.3718 102.925C71.2647 101.741 72.1355 100.538 72.9778 99.3198C73.531 100.037 74.1663 100.62 74.8838 101.05C77.5625 102.643 80.9572 101.921 84.9793 98.9042C91.2376 94.2088 95.8855 87.4701 99.288 80.6033C100.073 79.0277 100.791 77.4489 101.447 75.8827C102.858 72.5181 103.988 69.2262 104.881 66.2376C107.35 58.0054 108.473 50.7136 108.898 47.3442C108.508 46.9886 108.118 46.6615 107.727 46.3564H107.723ZM53.0382 62.1413C54.1492 54.5744 56.1073 52.776 57.1788 52.3777C57.9816 52.0774 58.8793 52.3429 59.8449 53.1758C64.33 57.0351 68.823 72.2747 65.648 87.3784C64.5228 92.7185 62.3308 95.8635 59.129 96.7311C57.4933 97.1689 55.6774 97.0235 53.7983 96.4783C51.6348 87.105 51.3519 73.6022 53.0382 62.1429V62.1413ZM73.0253 96.9445C71.0261 92.8924 70.4287 85.8028 71.614 77.8203C72.902 69.1598 76.3994 59.8798 81.3096 58.666C81.9449 58.5112 82.5202 58.4306 83.0354 58.4306C84.276 58.4306 85.1816 58.8857 85.7821 59.7944C89.1167 64.8501 83.0654 81.8676 73.0268 96.9461L73.0253 96.9445Z" fill="white"/>
<path id="Vector_32" d="M103.843 107.877C103.663 108.036 103.478 108.195 103.29 108.35L97.1688 54.0702C97.1482 53.9074 97.2684 53.7573 97.4311 53.7399C97.5987 53.7178 97.7488 53.8395 97.7662 54.0054L103.844 107.879L103.843 107.877Z" fill="#060101"/>
<g id="Group_5">
<path id="Vector_33" d="M92.1383 115.341C92.0261 115.397 91.9155 115.444 91.7985 115.496C91.5962 115.586 91.3908 115.676 91.1853 115.762C89.3916 116.525 87.5378 117.178 85.6366 117.723C85.5339 117.753 85.4264 117.783 85.319 117.813C84.8859 117.255 84.6188 116.482 84.9634 115.569C85.6682 113.723 89.9036 114.295 90.9688 114.471C91.1237 114.496 91.2138 114.513 91.2138 114.513L92.1399 115.341H92.1383Z" fill="#0092FB"/>
<path id="Vector_34" d="M91.2801 115.442C91.2801 115.442 87.2675 110.396 91.1284 108.825C91.1284 108.825 91.642 108.701 93.322 108.534C93.322 108.534 94.3982 105.713 97.9272 105.413C97.9272 105.413 100.677 101.759 102.893 102.272C102.893 102.272 105.23 98.4478 107.86 99.355C110.49 100.261 111.207 102.089 111.207 102.089C111.207 102.089 115.27 109.193 113.499 110.543C113.499 110.543 111.825 112.074 110.825 111.258C110.825 111.258 110.754 114.242 108.988 114.941C107.221 115.639 105.749 114.2 105.749 114.2C105.749 114.2 107.285 117.789 105.385 119.024C103.487 120.262 101.47 118.242 100.857 117.412C100.857 117.412 101.73 119.785 100.304 120.602C98.8786 121.417 96.2678 119.791 96.2157 119.713C96.1635 119.636 91.2801 115.44 91.2801 115.44V115.442Z" fill="#0092FB"/>
<path id="Vector_35" d="M110.615 100.688C110.494 100.846 110.37 101.005 110.246 101.16C109.616 100.735 108.246 99.8043 107.762 99.6415L107.71 99.6241C105.358 98.8766 103.169 102.396 103.147 102.431L103.035 102.616L102.82 102.565C101.159 102.183 98.8976 104.621 98.1627 105.595L98.0853 105.702L97.9526 105.715C94.6654 105.993 93.6444 108.534 93.6002 108.642L93.5306 108.814L93.3505 108.836C91.895 108.982 91.3244 109.094 91.2138 109.116C90.4505 109.434 89.9906 109.906 89.8231 110.554C89.4833 111.842 90.3557 113.506 90.9641 114.472C91.2217 114.88 91.4366 115.159 91.4967 115.235C91.5994 115.325 91.699 115.411 91.797 115.497C91.5947 115.588 91.3892 115.678 91.1838 115.763C91.149 115.728 91.1158 115.698 91.081 115.673L91.0431 115.633C91.0131 115.591 90.7302 115.226 90.3952 114.685C88.6615 114.458 85.7425 114.355 85.24 115.678C85.0424 116.201 85.0598 116.708 85.2874 117.196C85.3775 117.394 85.4976 117.569 85.6351 117.724C85.5323 117.754 85.4249 117.784 85.3174 117.814C85.2178 117.84 85.1151 117.87 85.0124 117.9C84.9097 117.762 84.8196 117.612 84.7421 117.449C84.4419 116.814 84.4197 116.144 84.6773 115.463C85.3206 113.776 88.2743 113.836 90.0175 114.034C89.4548 112.983 88.9317 111.592 89.2446 110.402C89.4627 109.557 90.0554 108.934 91.0131 108.549L91.0558 108.531C91.0763 108.531 91.571 108.416 93.1166 108.256C93.4216 107.613 94.6654 105.454 97.7692 105.127C98.2449 104.522 100.614 101.672 102.747 101.943C103.258 101.179 105.401 98.2603 107.89 99.0504L107.955 99.071C108.5 99.2638 109.971 100.256 110.616 100.689L110.615 100.688Z" fill="#060101"/>
<path id="Vector_36" d="M100.108 116.607C99.9486 116.714 99.7274 116.692 99.593 116.543C99.4018 116.33 94.8866 111.295 94.2371 110.108C94.1312 109.918 94.1992 109.678 94.392 109.574C94.5832 109.47 94.8234 109.539 94.9277 109.73C95.435 110.648 98.8913 114.58 100.183 116.015C100.326 116.178 100.314 116.428 100.152 116.573C100.138 116.586 100.124 116.597 100.11 116.608L100.108 116.607Z" fill="#060101"/>
<path id="Vector_37" d="M105.159 113.482C104.998 113.591 104.774 113.568 104.642 113.413C104.459 113.207 100.189 108.318 99.3291 107.05C99.2058 106.868 99.2532 106.623 99.435 106.5C99.6151 106.378 99.8633 106.426 99.9849 106.606C100.816 107.834 105.192 112.844 105.237 112.893C105.382 113.059 105.365 113.307 105.2 113.452C105.186 113.462 105.173 113.473 105.161 113.482H105.159Z" fill="#060101"/>
<path id="Vector_38" d="M110.132 110.613C109.97 110.722 109.744 110.697 109.612 110.542L103.893 103.866C103.751 103.7 103.77 103.451 103.937 103.308C104.102 103.168 104.351 103.185 104.494 103.353L110.213 110.03C110.355 110.196 110.336 110.444 110.169 110.588C110.158 110.597 110.148 110.605 110.134 110.616L110.132 110.613Z" fill="#060101"/>
</g>
</g>
</g>
<defs>
<clipPath id="clip0_4252_51567">
<rect width="120" height="120.831" fill="white" transform="translate(0.5)"/>
</clipPath>
</defs>
</svg>
