<svg width="137" height="52" viewBox="0 0 137 52" fill="none" xmlns="http://www.w3.org/2000/svg">
<g id="Google Play Black Border">
<rect id="Body" x="1.01398" y="0.716981" width="134.717" height="50.566" rx="7.83019" fill="white" stroke="#090909" stroke-width="0.566038"/>
<g id="Google Play logo" filter="url(#filter0_ii_5712_27424)">
<path id="Vector" d="M14.6862 13.6609C14.3963 13.9689 14.225 14.4469 14.225 15.0659V37.1819C14.225 37.8019 14.3963 38.2789 14.6862 38.5869L14.7599 38.6589L27.1007 26.2699V26.1239V25.9779L14.7599 13.5879L14.6862 13.6609Z" fill="url(#paint0_linear_5712_27424)"/>
<path id="Vector_2" d="M31.2134 30.4007L27.1005 26.2697V26.1237V25.9777L31.2144 21.8477L31.307 21.9007L36.181 24.6807C37.5726 25.4747 37.5726 26.7737 36.181 27.5687L31.307 30.3487L31.2134 30.4007Z" fill="url(#paint1_linear_5712_27424)"/>
<g id="Vector_3" filter="url(#filter1_i_5712_27424)">
<path d="M31.3073 30.347L27.0997 26.123L14.6862 38.5861C15.1444 39.074 15.9024 39.1341 16.7561 38.6481L31.3073 30.347Z" fill="url(#paint2_linear_5712_27424)"/>
</g>
<path id="Vector_4" d="M31.3073 21.8997L16.7561 13.5997C15.9024 13.1127 15.1444 13.1737 14.6862 13.6617L27.1007 26.1248L31.3073 21.8997Z" fill="url(#paint3_linear_5712_27424)"/>
</g>
<g id="Group 147">
<path id="Google Play" d="M68.5246 27.3334C66.3118 27.3334 64.5083 29.0156 64.5083 31.3326C64.5083 33.6354 66.3118 35.3318 68.5246 35.3318C70.7383 35.3318 72.5418 33.6354 72.5418 31.3326C72.5408 29.0156 70.7373 27.3334 68.5246 27.3334ZM68.5246 33.7577C67.3119 33.7577 66.2667 32.7581 66.2667 31.3335C66.2667 29.8939 67.3128 28.9094 68.5246 28.9094C69.7373 28.9094 70.7825 29.8939 70.7825 31.3335C70.7825 32.7572 69.7373 33.7577 68.5246 33.7577ZM59.762 27.3334C57.5493 27.3334 55.7458 29.0156 55.7458 31.3326C55.7458 33.6354 57.5493 35.3318 59.762 35.3318C61.9757 35.3318 63.7792 33.6354 63.7792 31.3326C63.7792 29.0156 61.9757 27.3334 59.762 27.3334ZM59.762 33.7577C58.5493 33.7577 57.5041 32.7581 57.5041 31.3335C57.5041 29.8939 58.5503 28.9094 59.762 28.9094C60.9747 28.9094 62.0199 29.8939 62.0199 31.3335C62.0209 32.7572 60.9747 33.7577 59.762 33.7577ZM49.3399 28.5615V30.2578H53.4022C53.2809 31.2122 52.9629 31.909 52.4774 32.3933C51.8866 32.9838 50.9618 33.6354 49.3399 33.6354C46.8392 33.6354 44.8843 31.6203 44.8843 29.121C44.8843 26.6216 46.8392 24.6065 49.3399 24.6065C50.689 24.6065 51.674 25.1368 52.4012 25.8186L53.5989 24.6215C52.5828 23.6521 51.2346 22.9102 49.3399 22.9102C45.9144 22.9102 43.0347 25.6973 43.0347 29.121C43.0347 32.5447 45.9144 35.3318 49.3399 35.3318C51.1885 35.3318 52.5837 34.7253 53.6741 33.5894C54.7956 32.4685 55.1446 30.8925 55.1446 29.6203C55.1446 29.2272 55.1145 28.8633 55.0533 28.5605L49.3399 28.5615ZM91.9654 29.8789C91.6324 28.9856 90.6163 27.3334 88.54 27.3334C86.4787 27.3334 84.7655 28.9545 84.7655 31.3326C84.7655 33.5743 86.4637 35.3318 88.7366 35.3318C90.5702 35.3318 91.6314 34.2109 92.0717 33.5593L90.7076 32.65C90.2532 33.3167 89.6313 33.7558 88.7366 33.7558C87.8429 33.7558 87.2059 33.3468 86.7967 32.5437L92.147 30.3321L91.9654 29.8789ZM86.5088 31.2122C86.4637 29.6663 87.7064 28.8793 88.6011 28.8793C89.2983 28.8793 89.8891 29.2282 90.0867 29.7275L86.5088 31.2122ZM82.1595 35.0901H83.9169V23.3352H82.1595V35.0901ZM79.2788 28.2277H79.2186C78.8244 27.7575 78.0661 27.3334 77.1122 27.3334C75.1111 27.3334 73.2775 29.0909 73.2775 31.3486C73.2775 33.5903 75.1111 35.3327 77.1122 35.3327C78.0671 35.3327 78.8244 34.9086 79.2186 34.4244H79.2788V34.9998C79.2788 36.5297 78.4603 37.3478 77.1423 37.3478C76.066 37.3478 75.399 36.5758 75.1261 35.9242L73.5955 36.5608C74.0348 37.6205 75.2014 38.9238 77.1423 38.9238C79.2035 38.9238 80.9468 37.7117 80.9468 34.7572V27.577H79.2797L79.2788 28.2277ZM77.2636 33.7577C76.0509 33.7577 75.0358 32.7421 75.0358 31.3486C75.0358 29.939 76.0509 28.9094 77.2636 28.9094C78.4603 28.9094 79.4002 29.939 79.4002 31.3486C79.4002 32.7421 78.4603 33.7577 77.2636 33.7577ZM100.201 23.3352H95.9949V35.0901H97.7494V30.6368H100.2C102.146 30.6368 104.059 29.2291 104.059 26.9864C104.059 24.7438 102.147 23.3352 100.201 23.3352ZM100.246 29.0006H97.7494V24.9713H100.246C101.559 24.9713 102.304 26.0574 102.304 26.9864C102.304 27.8967 101.559 29.0006 100.246 29.0006ZM111.096 27.3127C109.825 27.3127 108.508 27.8722 107.964 29.1125L109.522 29.7623C109.855 29.1125 110.476 28.9 111.126 28.9C112.034 28.9 112.956 29.4444 112.971 30.412V30.5333C112.654 30.3518 111.972 30.0801 111.141 30.0801C109.461 30.0801 107.751 31.0025 107.751 32.7261C107.751 34.2993 109.128 35.312 110.671 35.312C111.851 35.312 112.502 34.7826 112.91 34.162H112.971V35.0694H114.666V30.5625C114.667 28.4768 113.107 27.3127 111.096 27.3127ZM110.883 33.7549C110.309 33.7549 109.507 33.4671 109.507 32.7562C109.507 31.8488 110.506 31.5009 111.368 31.5009C112.139 31.5009 112.503 31.6673 112.971 31.894C112.835 32.9838 111.897 33.7549 110.883 33.7549ZM120.839 27.5694L118.827 32.666H118.767L116.678 27.5694H114.787L117.919 34.6924L116.134 38.6549H117.964L122.792 27.5694H120.839ZM105.028 35.0901H106.783V23.3352H105.028V35.0901Z" fill="#090909"/>
<g id="Get it on">
<path d="M49.1208 16.3825C49.1208 17.1562 48.8877 17.772 48.4206 18.2318C47.8904 18.7784 47.1986 19.0517 46.3489 19.0517C45.5349 19.0517 44.8422 18.7747 44.2735 18.2207C43.7039 17.6658 43.4191 16.9789 43.4191 16.159C43.4191 15.3382 43.7039 14.6513 44.2735 14.0974C44.8422 13.5425 45.5349 13.2655 46.3489 13.2655C46.7531 13.2655 47.1394 13.343 47.506 13.4972C47.8735 13.6523 48.1677 13.8582 48.3877 14.1158L47.8923 14.6033C47.5191 14.1648 47.005 13.9459 46.348 13.9459C45.7539 13.9459 45.2407 14.1509 44.8074 14.5608C44.3741 14.9708 44.1579 15.5035 44.1579 16.1581C44.1579 16.8127 44.3741 17.3455 44.8074 17.7554C45.2407 18.1653 45.7539 18.3703 46.348 18.3703C46.9777 18.3703 47.5032 18.1644 47.9233 17.7517C48.1959 17.483 48.3538 17.1091 48.3961 16.6299H46.348V15.9642H49.0804C49.1086 16.1092 49.1208 16.2486 49.1208 16.3825Z" fill="#090909"/>
<path d="M53.4541 14.0688H50.8861V15.8249H53.2022V16.4906H50.8861V18.2466H53.4541V18.928H50.1614V13.3883H53.4541V14.0688Z" fill="#090909"/>
<path d="M56.5098 18.928H55.7851V14.0688H54.2097V13.3883H58.0851V14.0688H56.5098V18.928Z" fill="#090909"/>
<path d="M60.889 18.928V13.3883H61.6137V18.928H60.889Z" fill="#090909"/>
<path d="M64.8275 18.928H64.1028V14.0688H62.5275V13.3883H66.4029V14.0688H64.8275V18.928Z" fill="#090909"/>
<path d="M73.739 18.2125C73.1844 18.772 72.4954 19.0517 71.6711 19.0517C70.8468 19.0517 70.1578 18.772 69.6042 18.2125C69.0496 17.653 68.7732 16.9679 68.7732 16.1582C68.7732 15.3484 69.0496 14.6634 69.6042 14.1039C70.1578 13.5443 70.8468 13.2637 71.6711 13.2637C72.4907 13.2637 73.1788 13.5453 73.7353 14.1076C74.2917 14.6698 74.5699 15.3531 74.5699 16.1582C74.5699 16.9679 74.2926 17.653 73.739 18.2125ZM70.139 17.7481C70.5563 18.1635 71.0667 18.3703 71.6711 18.3703C72.2755 18.3703 72.7868 18.1626 73.2032 17.7481C73.6206 17.3326 73.8302 16.8026 73.8302 16.1582C73.8302 15.5137 73.6206 14.9837 73.2032 14.5683C72.7868 14.1528 72.2755 13.946 71.6711 13.946C71.0667 13.946 70.5563 14.1537 70.139 14.5683C69.7226 14.9837 69.513 15.5137 69.513 16.1582C69.513 16.8026 69.7226 17.3326 70.139 17.7481Z" fill="#090909"/>
<path d="M75.587 18.928V13.3883H76.4687L79.2096 17.6973H79.2406L79.2096 16.63V13.3883H79.9343V18.928H79.1776L76.3098 14.4095H76.2788L76.3098 15.4768V18.928H75.587Z" fill="#090909"/>
<path d="M49.1208 16.3825C49.1208 17.1562 48.8877 17.772 48.4206 18.2318C47.8904 18.7784 47.1986 19.0517 46.3489 19.0517C45.5349 19.0517 44.8422 18.7747 44.2735 18.2207C43.7039 17.6658 43.4191 16.9789 43.4191 16.159C43.4191 15.3382 43.7039 14.6513 44.2735 14.0974C44.8422 13.5425 45.5349 13.2655 46.3489 13.2655C46.7531 13.2655 47.1394 13.343 47.506 13.4972C47.8735 13.6523 48.1677 13.8582 48.3877 14.1158L47.8923 14.6033C47.5191 14.1648 47.005 13.9459 46.348 13.9459C45.7539 13.9459 45.2407 14.1509 44.8074 14.5608C44.3741 14.9708 44.1579 15.5035 44.1579 16.1581C44.1579 16.8127 44.3741 17.3455 44.8074 17.7554C45.2407 18.1653 45.7539 18.3703 46.348 18.3703C46.9777 18.3703 47.5032 18.1644 47.9233 17.7517C48.1959 17.483 48.3538 17.1091 48.3961 16.6299H46.348V15.9642H49.0804C49.1086 16.1092 49.1208 16.2486 49.1208 16.3825Z" stroke="white" stroke-width="0.0385871" stroke-miterlimit="10"/>
<path d="M53.4541 14.0688H50.8861V15.8249H53.2022V16.4906H50.8861V18.2466H53.4541V18.928H50.1614V13.3883H53.4541V14.0688Z" stroke="white" stroke-width="0.0385871" stroke-miterlimit="10"/>
<path d="M56.5098 18.928H55.7851V14.0688H54.2097V13.3883H58.0851V14.0688H56.5098V18.928Z" stroke="white" stroke-width="0.0385871" stroke-miterlimit="10"/>
<path d="M60.889 18.928V13.3883H61.6137V18.928H60.889Z" stroke="white" stroke-width="0.0385871" stroke-miterlimit="10"/>
<path d="M64.8275 18.928H64.1028V14.0688H62.5275V13.3883H66.4029V14.0688H64.8275V18.928Z" stroke="white" stroke-width="0.0385871" stroke-miterlimit="10"/>
<path d="M73.739 18.2125C73.1844 18.772 72.4954 19.0517 71.6711 19.0517C70.8468 19.0517 70.1578 18.772 69.6042 18.2125C69.0496 17.653 68.7732 16.9679 68.7732 16.1582C68.7732 15.3484 69.0496 14.6634 69.6042 14.1039C70.1578 13.5443 70.8468 13.2637 71.6711 13.2637C72.4907 13.2637 73.1788 13.5453 73.7353 14.1076C74.2917 14.6698 74.5699 15.3531 74.5699 16.1582C74.5699 16.9679 74.2926 17.653 73.739 18.2125ZM70.139 17.7481C70.5563 18.1635 71.0667 18.3703 71.6711 18.3703C72.2755 18.3703 72.7868 18.1626 73.2032 17.7481C73.6206 17.3326 73.8302 16.8026 73.8302 16.1582C73.8302 15.5137 73.6206 14.9837 73.2032 14.5683C72.7868 14.1528 72.2755 13.946 71.6711 13.946C71.0667 13.946 70.5563 14.1537 70.139 14.5683C69.7226 14.9837 69.513 15.5137 69.513 16.1582C69.513 16.8026 69.7226 17.3326 70.139 17.7481Z" stroke="white" stroke-width="0.0385871" stroke-miterlimit="10"/>
<path d="M75.587 18.928V13.3883H76.4687L79.2096 17.6973H79.2406L79.2096 16.63V13.3883H79.9343V18.928H79.1776L76.3098 14.4095H76.2788L76.3098 15.4768V18.928H75.587Z" stroke="white" stroke-width="0.0385871" stroke-miterlimit="10"/>
</g>
</g>
</g>
<defs>
<filter id="filter0_ii_5712_27424" x="14.225" y="13.2637" width="22.9997" height="25.7207" filterUnits="userSpaceOnUse" color-interpolation-filters="sRGB">
<feFlood flood-opacity="0" result="BackgroundImageFix"/>
<feBlend mode="normal" in="SourceGraphic" in2="BackgroundImageFix" result="shape"/>
<feColorMatrix in="SourceAlpha" type="matrix" values="0 0 0 0 0 0 0 0 0 0 0 0 0 0 0 0 0 0 127 0" result="hardAlpha"/>
<feOffset dy="-0.15"/>
<feComposite in2="hardAlpha" operator="arithmetic" k2="-1" k3="1"/>
<feColorMatrix type="matrix" values="0 0 0 0 0 0 0 0 0 0 0 0 0 0 0 0 0 0 0.12 0"/>
<feBlend mode="normal" in2="shape" result="effect1_innerShadow_5712_27424"/>
<feColorMatrix in="SourceAlpha" type="matrix" values="0 0 0 0 0 0 0 0 0 0 0 0 0 0 0 0 0 0 127 0" result="hardAlpha"/>
<feOffset dy="0.15"/>
<feComposite in2="hardAlpha" operator="arithmetic" k2="-1" k3="1"/>
<feColorMatrix type="matrix" values="0 0 0 0 1 0 0 0 0 1 0 0 0 0 1 0 0 0 0.25 0"/>
<feBlend mode="normal" in2="effect1_innerShadow_5712_27424" result="effect2_innerShadow_5712_27424"/>
</filter>
<filter id="filter1_i_5712_27424" x="14.6862" y="26.123" width="16.6212" height="12.8613" filterUnits="userSpaceOnUse" color-interpolation-filters="sRGB">
<feFlood flood-opacity="0" result="BackgroundImageFix"/>
<feBlend mode="normal" in="SourceGraphic" in2="BackgroundImageFix" result="shape"/>
<feColorMatrix in="SourceAlpha" type="matrix" values="0 0 0 0 0 0 0 0 0 0 0 0 0 0 0 0 0 0 127 0" result="hardAlpha"/>
<feOffset dy="-0.15"/>
<feComposite in2="hardAlpha" operator="arithmetic" k2="-1" k3="1"/>
<feColorMatrix type="matrix" values="0 0 0 0 0 0 0 0 0 0 0 0 0 0 0 0 0 0 0.08 0"/>
<feBlend mode="normal" in2="shape" result="effect1_innerShadow_5712_27424"/>
</filter>
<linearGradient id="paint0_linear_5712_27424" x1="26.0068" y1="14.8319" x2="9.22492" y2="31.5485" gradientUnits="userSpaceOnUse">
<stop stop-color="#00A0FF"/>
<stop offset="0.0066" stop-color="#00A1FF"/>
<stop offset="0.2601" stop-color="#00BEFF"/>
<stop offset="0.5122" stop-color="#00D2FF"/>
<stop offset="0.7604" stop-color="#00DFFF"/>
<stop offset="1" stop-color="#00E3FF"/>
</linearGradient>
<linearGradient id="paint1_linear_5712_27424" x1="37.9925" y1="26.1237" x2="13.8906" y2="26.1237" gradientUnits="userSpaceOnUse">
<stop stop-color="#FFE000"/>
<stop offset="0.4087" stop-color="#FFBD00"/>
<stop offset="0.7754" stop-color="#FFA500"/>
<stop offset="1" stop-color="#FF9C00"/>
</linearGradient>
<linearGradient id="paint2_linear_5712_27424" x1="29.0223" y1="28.4169" x2="6.26397" y2="51.0868" gradientUnits="userSpaceOnUse">
<stop stop-color="#FF3A44"/>
<stop offset="1" stop-color="#C31162"/>
</linearGradient>
<linearGradient id="paint3_linear_5712_27424" x1="11.5598" y1="6.29955" x2="21.722" y2="16.4223" gradientUnits="userSpaceOnUse">
<stop stop-color="#32A071"/>
<stop offset="0.0685" stop-color="#2DA771"/>
<stop offset="0.4762" stop-color="#15CF74"/>
<stop offset="0.8009" stop-color="#06E775"/>
<stop offset="1" stop-color="#00F076"/>
</linearGradient>
</defs>
</svg>
