<svg width="24" height="24" viewBox="0 0 24 24" fill="none" xmlns="http://www.w3.org/2000/svg">
<path d="M15.2081 5.1012C15.8441 4.30581 16.2756 3.23783 16.1618 2.14648C15.2309 2.19277 14.0949 2.76063 13.4372 3.55664C12.8467 4.23831 12.3241 5.35101 12.4603 6.3966C13.5053 6.48725 14.5493 5.87428 15.2081 5.1012Z" fill="white"/>
<path d="M16.15 6.60078C14.6325 6.51039 13.3422 7.46207 12.6175 7.46207C11.8924 7.46207 10.7826 6.64633 9.58231 6.66832C8.02004 6.69127 6.57043 7.57459 5.77764 8.97948C4.14702 11.79 5.34732 15.9589 6.93302 18.2479C7.70307 19.3803 8.63111 20.6272 9.85395 20.5824C11.0093 20.5371 11.4622 19.8343 12.8666 19.8343C14.27 19.8343 14.6779 20.5824 15.9009 20.5597C17.1693 20.5371 17.9622 19.4267 18.7322 18.2932C19.6156 17.0023 19.9773 15.7558 20 15.6874C19.9773 15.6647 17.5543 14.7352 17.5319 11.9481C17.509 9.61441 19.4341 8.50437 19.5247 8.43553C18.4376 6.82763 16.7389 6.64633 16.15 6.60078Z" fill="white"/>
</svg>
