<svg xmlns="http://www.w3.org/2000/svg" width="14" height="14" viewBox="0 0 14 14" fill="none">
    <path fill-rule="evenodd" clip-rule="evenodd" d="M7.00033 1.16602C3.78033 1.16602 1.16699 3.77935 1.16699 6.99935C1.16699 10.2193 3.78033 12.8327 7.00033 12.8327C10.2203 12.8327 12.8337 10.2193 12.8337 6.99935C12.8337 3.77935 10.2203 1.16602 7.00033 1.16602ZM7.00033 7.58268C6.67949 7.58268 6.41699 7.32018 6.41699 6.99935V4.66602C6.41699 4.34518 6.67949 4.08268 7.00033 4.08268C7.32116 4.08268 7.58366 4.34518 7.58366 4.66602V6.99935C7.58366 7.32018 7.32116 7.58268 7.00033 7.58268ZM7.58366 9.91602H6.41699V8.74935H7.58366V9.91602Z" fill="#696969"/>
</svg>