<svg width="40" height="40" viewBox="0 0 40 40" fill="none" xmlns="http://www.w3.org/2000/svg">
<rect width="40" height="40" rx="20" fill="#0092FB"/>
<path d="M26.2731 15.017L13.6669 19.5627L17.8612 21.9996L21.5634 18.2974C21.7664 18.0943 22.0047 17.9928 22.278 17.9928C22.5514 17.9928 22.7896 18.0943 22.9927 18.2974C23.1801 18.4848 23.2739 18.7191 23.2739 19.0003C23.2739 19.2815 23.1801 19.5158 22.9927 19.7033L19.2905 23.4055L21.704 27.5997L26.2731 15.017ZM26.5777 12.7675C27.1869 12.5488 27.7141 12.666 28.1593 13.119C28.6045 13.572 28.7178 14.0953 28.4991 14.6889L23.227 29.2868C23.0083 29.8804 22.5826 30.2084 21.95 30.2709C21.3173 30.3334 20.837 30.0834 20.5089 29.5211L17.2988 23.9678L11.7455 20.7577C11.1988 20.4453 10.9528 19.9688 11.0075 19.3284C11.0621 18.6879 11.3863 18.2583 11.9799 18.0396L26.5777 12.7675Z" fill="white"/>
</svg>
