<svg width="20" height="20" viewBox="0 0 20 20" fill="none" xmlns="http://www.w3.org/2000/svg">
<path fill-rule="evenodd" clip-rule="evenodd" d="M9.99935 3.33366C6.31745 3.33366 3.33268 6.31843 3.33268 10.0003C3.33268 13.6822 6.31745 16.667 9.99935 16.667C13.6812 16.667 16.666 13.6822 16.666 10.0003C16.666 6.31843 13.6812 3.33366 9.99935 3.33366ZM1.66602 10.0003C1.66602 5.39795 5.39698 1.66699 9.99935 1.66699C14.6017 1.66699 18.3327 5.39795 18.3327 10.0003C18.3327 14.6027 14.6017 18.3337 9.99935 18.3337C5.39698 18.3337 1.66602 14.6027 1.66602 10.0003Z" fill="#9D9D9D"/>
<path fill-rule="evenodd" clip-rule="evenodd" d="M13.0886 7.74408C13.414 8.06951 13.414 8.59715 13.0886 8.92259L9.75527 12.2559C9.42983 12.5814 8.9022 12.5814 8.57676 12.2559L6.91009 10.5893C6.58466 10.2638 6.58466 9.73618 6.91009 9.41074C7.23553 9.08531 7.76317 9.08531 8.0886 9.41074L9.16602 10.4882L11.9101 7.74408C12.2355 7.41864 12.7632 7.41864 13.0886 7.74408Z" fill="#9D9D9D"/>
</svg>
