<svg width="16" height="16" viewBox="0 0 16 16" fill="none" xmlns="http://www.w3.org/2000/svg">
<path fill-rule="evenodd" clip-rule="evenodd" d="M1.33301 7.99968C1.33301 4.31778 4.31778 1.33301 7.99968 1.33301C11.6816 1.33301 14.6663 4.31778 14.6663 7.99968C14.6663 11.6816 11.6816 14.6663 7.99968 14.6663C4.31778 14.6663 1.33301 11.6816 1.33301 7.99968ZM10.4711 7.13775C10.7314 6.8774 10.7314 6.45529 10.4711 6.19494C10.2107 5.93459 9.78862 5.93459 9.52827 6.19494L7.33301 8.3902L6.47108 7.52827C6.21073 7.26792 5.78862 7.26792 5.52827 7.52827C5.26792 7.78862 5.26792 8.21073 5.52827 8.47108L6.8616 9.80441C7.12195 10.0648 7.54406 10.0648 7.80441 9.80441L10.4711 7.13775Z" fill="#0092FB"/>
</svg>
