<svg xmlns="http://www.w3.org/2000/svg" width="14" height="13" viewBox="0 0 14 13" fill="none">
<path d="M1 6.5C1 9.81371 3.68629 12.5 7 12.5C7.7981 12.5 8.5598 12.3442 9.25634 12.0613C9.38965 12.0072 9.45631 11.9801 9.51019 11.968C9.56289 11.9562 9.6019 11.9519 9.65591 11.9519C9.71113 11.9519 9.77128 11.9619 9.89157 11.9819L12.2635 12.3772C12.5119 12.4186 12.6361 12.4393 12.7259 12.4008C12.8045 12.3671 12.8671 12.3045 12.9008 12.2259C12.9393 12.1361 12.9186 12.0119 12.8772 11.7635L12.4819 9.39157C12.4619 9.27128 12.4519 9.21113 12.4519 9.15591C12.4519 9.1019 12.4562 9.06289 12.468 9.01019C12.4801 8.95631 12.5072 8.88965 12.5613 8.75634C12.8442 8.0598 13 7.2981 13 6.5C13 3.18629 10.3137 0.5 7 0.5C3.68629 0.5 1 3.18629 1 6.5Z" stroke="#9D9D9D" stroke-linecap="round" stroke-linejoin="round"/>
</svg>