<svg width="20" height="20" viewBox="0 0 20 20" fill="none" xmlns="http://www.w3.org/2000/svg">
<g id="interface-favorite-like-1--Streamline-Flex">
<path id="Vector" d="M5.87504 16.175H5V8.00155L9.31294 1.86286C9.66157 1.36663 10.23 1.07129 10.8365 1.07129C11.9674 1.07129 12.8372 2.0712 12.6805 3.19122L12.3555 5.51516H15.199C16.4421 5.51516 18.9286 6.75835 18.9286 9.24473C18.9286 11.7311 16.4286 17.4181 13.784 17.4181C10.3031 17.4181 7.32544 16.5894 5.87504 16.175Z" fill="white"/>
<path id="Vector_2" d="M1.07129 7.67815C1.07129 6.59331 1.95073 5.71387 3.03557 5.71387C4.12042 5.71387 4.99986 6.59331 4.99986 7.67815V15.8924C4.99986 16.9773 4.12042 17.8567 3.03557 17.8567C1.95073 17.8567 1.07129 16.9773 1.07129 15.8924V7.67815Z" fill="#BADDFD"/>
<path id="Vector_3" d="M5.87504 16.175H5V8.00155L9.31294 1.86286C9.66157 1.36663 10.23 1.07129 10.8365 1.07129C11.9674 1.07129 12.8372 2.0712 12.6805 3.19122L12.3555 5.51516H15.199C16.4421 5.51516 18.9286 6.75835 18.9286 9.24473C18.9286 11.7311 16.4286 17.4181 13.784 17.4181C10.3031 17.4181 7.32544 16.5894 5.87504 16.175Z" stroke="black" stroke-width="1.71455" stroke-linecap="round" stroke-linejoin="round"/>
<path id="Vector_4" d="M1.07129 7.67815C1.07129 6.59331 1.95073 5.71387 3.03557 5.71387C4.12042 5.71387 4.99986 6.59331 4.99986 7.67815V15.8924C4.99986 16.9773 4.12042 17.8567 3.03557 17.8567C1.95073 17.8567 1.07129 16.9773 1.07129 15.8924V7.67815Z" stroke="black" stroke-width="1.71455" stroke-linejoin="round"/>
</g>
</svg>
