<svg width="20" height="20" viewBox="0 0 20 20" fill="none" xmlns="http://www.w3.org/2000/svg">
<g id="interface-login-finger-password--Streamline-Flex" clip-path="url(#clip0_3904_99749)">
<path id="Vector" d="M18.9276 14.9098C18.9276 16.5615 18.5001 17.6525 17.8265 18.7637H9.56835L8.35959 17.555C7.02745 16.2228 7.32665 13.9887 8.96236 13.054L9.56835 12.7077V6.92693C9.56835 5.86271 10.4311 5 11.4953 5C12.5595 5 13.4222 5.86271 13.4222 6.92693V10.5357C15.7321 10.7757 18.9276 11.6066 18.9276 14.9098Z" fill="#BADDFD"/>
<path id="Vector_2" d="M17.8265 18.7637C18.5001 17.6525 18.9276 16.5615 18.9276 14.9098C18.9276 11.6066 15.7321 10.7757 13.4222 10.5357V6.92693C13.4222 5.86271 12.5595 5 11.4953 5C10.4311 5 9.56835 5.86271 9.56835 6.92693V12.7077L8.96236 13.054C7.32665 13.9887 7.02745 16.2228 8.35959 17.555L9.56835 18.7637" stroke="black" stroke-width="1.71455" stroke-linecap="round" stroke-linejoin="round"/>
<path id="Vector_3" d="M4.64272 1.07129H3.21415C2.03068 1.07129 1.07129 2.03068 1.07129 3.21415C1.07129 4.39761 2.03068 5.357 3.21415 5.357H4.64272C5.82619 5.357 6.78557 4.39761 6.78557 3.21415C6.78557 2.03068 5.82619 1.07129 4.64272 1.07129Z" stroke="black" stroke-width="1.71455" stroke-linejoin="round"/>
<path id="Vector_4" d="M15.7843 4.28557C15.9668 3.97039 16.071 3.60446 16.071 3.21415C16.071 2.03067 15.1116 1.07129 13.9282 1.07129H12.4996C11.8954 1.07129 11.3495 1.3214 10.96 1.72375" stroke="black" stroke-width="1.71455" stroke-linecap="round" stroke-linejoin="round"/>
<path id="Vector_5" d="M6.78557 11.0716C6.78557 9.8881 5.82619 8.92871 4.64272 8.92871H3.21415C2.03067 8.92871 1.07129 9.8881 1.07129 11.0716C1.07129 12.255 2.03067 13.2144 3.21415 13.2144H4.64272" stroke="black" stroke-width="1.71455" stroke-linecap="round" stroke-linejoin="round"/>
</g>
<defs>
<clipPath id="clip0_3904_99749">
<rect width="20" height="20" fill="white"/>
</clipPath>
</defs>
</svg>
