<svg width="80" height="44" viewBox="0 0 80 44" fill="none" xmlns="http://www.w3.org/2000/svg">
<g clip-path="url(#clip0_4094_48389)">
<path d="M45.8816 12.4971L46.05 19.0719L36.7241 19.3112L36.5557 12.7985L45.8816 12.4971Z" fill="#2E9DF0"/>
<path d="M45.8816 12.4971L45.9702 15.9958C39.3747 20.4725 36.7921 13.883 36.5675 13.2742L36.5557 12.7985L45.8786 12.4971H45.8816Z" fill="#060101"/>
<path d="M36.6948 17.9428L31.6182 19.4735C31.6182 19.4735 34.4165 24.364 42.061 24.169C49.7056 23.971 52.0163 20.9392 52.0163 20.9392L45.9882 17.9635C45.9882 17.9635 40.2496 17.2248 36.6978 17.9458L36.6948 17.9428Z" fill="#2E9DF0"/>
<path d="M54.8415 39.908L54.0289 25.6177L53.9846 24.8553L53.7925 20.2899L45.9855 17.2256C45.9855 17.2256 41.5382 25.2217 36.695 17.9407L26.4945 20.5765L25.0879 39.905H54.8386L54.8415 39.908Z" fill="#2E9DF0"/>
<path d="M41.7215 21.5157C38.9261 21.5157 36.6773 18.1648 36.5798 18.02C36.5384 17.955 36.5532 17.8693 36.6182 17.8249C36.6832 17.7836 36.7689 17.7983 36.8133 17.8663C36.8369 17.9018 39.1506 21.3443 41.8574 21.232C43.3437 21.167 44.8005 19.3881 45.9737 17.2398C46.0121 17.1719 46.0948 17.1453 46.1657 17.1837C46.2337 17.2192 46.2573 17.3049 46.2219 17.3728C44.9985 19.6156 43.4649 21.4448 41.8722 21.5127C41.8219 21.5127 41.7717 21.5157 41.7244 21.5157H41.7215Z" fill="#060101"/>
<path d="M29.677 27.996C29.677 28.3594 29.6711 28.7258 29.6652 29.107C29.6474 29.961 29.6061 30.8564 29.547 31.7842C29.547 31.7961 29.547 31.8049 29.547 31.8167C29.5322 32.0413 29.5174 32.2659 29.5027 32.4934C29.4938 32.6087 29.4849 32.7269 29.4731 32.8451C29.4554 33.0756 29.4376 33.306 29.414 33.5424C29.4051 33.6665 29.3933 33.7877 29.3845 33.9118C29.3845 33.9118 29.3845 33.9118 29.3845 33.9148C29.3697 34.1009 29.349 34.29 29.3313 34.4792C29.3135 34.689 29.2928 34.8988 29.2722 35.1115C29.2397 35.4277 29.2042 35.7498 29.1717 36.0749C29.1451 36.3319 29.1126 36.589 29.083 36.8461C29.0771 36.8963 29.0712 36.9436 29.0653 36.9968C29.0417 37.2096 29.0151 37.4253 28.9885 37.641C28.8969 38.3886 28.8023 39.1362 28.6989 39.8868C28.6989 39.8956 28.6989 39.9015 28.6989 39.9104H14.4707C14.8342 37.7503 15.2094 35.6818 15.5759 33.8586C15.635 33.5661 15.6941 33.2794 15.7532 32.9987C15.7827 32.8539 15.8123 32.715 15.8418 32.5762C15.8655 32.4609 15.892 32.3486 15.9186 32.2393C15.9541 32.0886 15.9925 31.9379 16.0309 31.7901C16.5628 29.7837 17.405 28.1082 18.389 26.7135C18.5131 26.5362 18.6402 26.3648 18.7702 26.1964C18.9534 25.9541 19.1425 25.7206 19.3346 25.499C19.6567 25.1237 19.9847 24.775 20.3215 24.45C23.2854 21.56 26.5004 20.576 26.5004 20.576C27.7799 20.2539 28.6043 21.0577 29.0978 22.6415C29.1599 22.8366 29.2131 23.0434 29.2603 23.2591C29.4495 24.0747 29.5677 25.0469 29.6327 26.1402C29.6445 26.3589 29.6534 26.5835 29.6593 26.8081C29.674 27.1892 29.68 27.5852 29.68 27.993L29.677 27.996Z" fill="#2E9DF0"/>
<path d="M65.5327 39.9105H51.47C51.3311 38.8261 51.2011 37.7416 51.0829 36.6689C51.0592 36.4414 51.0356 36.2139 51.0149 35.9893C51.0061 35.9213 51.0001 35.8593 50.9942 35.7913C50.9736 35.6022 50.9558 35.4131 50.9381 35.2269C50.9292 35.1353 50.9204 35.0408 50.9115 34.9491C50.8967 34.7896 50.8819 34.63 50.8672 34.4704C50.7608 33.2766 50.6781 32.1124 50.6219 30.9954C50.6101 30.759 50.6012 30.5226 50.5924 30.2921C50.5894 30.171 50.5835 30.0498 50.5805 29.9286C50.5687 29.5622 50.5599 29.2017 50.5539 28.8471C50.5539 28.7053 50.548 28.5635 50.548 28.4246C50.5451 28.0936 50.548 27.7715 50.5539 27.4553C50.5628 26.885 50.5835 26.3354 50.619 25.8153C50.6367 25.5405 50.6574 25.2775 50.684 25.0204C50.7519 24.3112 50.8524 23.6641 50.9824 23.0908C51.0386 22.8397 51.1036 22.6003 51.1745 22.3757C51.1804 22.3551 51.1863 22.3373 51.1922 22.3196C51.6975 20.7594 52.5279 19.9645 53.7926 20.2866C53.7926 20.2866 55.2317 20.7919 57.0608 22.0536C57.3888 22.2812 57.7257 22.5294 58.0714 22.8042C59.2297 23.7262 60.459 24.9347 61.5346 26.4832C61.7474 26.7905 61.9542 27.1096 62.1493 27.4406C62.1729 27.476 62.1936 27.5144 62.2172 27.5499C62.5157 28.0552 62.7964 28.596 63.0505 29.1663C63.5085 30.1916 63.8927 31.3234 64.1586 32.5674C64.2177 32.8334 64.2739 33.1052 64.33 33.386C64.3744 33.6046 64.4187 33.8233 64.463 34.0479C64.8176 35.8209 65.1781 37.8184 65.5268 39.9017L65.5327 39.9105Z" fill="#2E9DF0"/>
<path d="M55.1372 39.9072L54.5137 29.9076C54.5078 29.8248 54.4398 29.7628 54.3541 29.7657C54.2714 29.7716 54.2064 29.8426 54.2123 29.9253L54.8358 39.9072H55.1372Z" fill="#060101"/>
<path d="M39.9632 3.20126C39.9632 3.20126 35.7996 3.7302 35.6785 8.32814C35.5573 12.929 37.0909 17.3674 41.6327 16.8798C46.5114 16.3568 47.064 12.4533 46.3311 7.25549C45.6013 2.06064 40.9265 3.00624 39.9632 3.20126Z" fill="#2E9DF0"/>
<path d="M35.8798 9.00476C35.8798 9.00476 34.2162 7.8405 33.7079 9.44505C33.1997 11.0466 35.6375 13.2008 36.1871 11.5963L35.8798 9.00772V9.00476Z" fill="#2E9DF0"/>
<path d="M46.2275 8.02897C46.2275 8.02897 47.6459 6.57512 48.4438 8.05557C49.2446 9.53305 47.25 12.1068 46.4078 10.6323L46.2275 8.03193V8.02897Z" fill="#2E9DF0"/>
<path d="M39.0773 9.38839C39.1157 9.7814 38.9886 10.1153 38.7965 10.133C38.6045 10.1508 38.4183 9.84641 38.3799 9.4534C38.3415 9.06039 38.4685 8.72647 38.6606 8.70874C38.8527 8.69101 39.0389 8.99538 39.0743 9.38839H39.0773Z" fill="#060101"/>
<path d="M43.9855 8.92746C44.0209 9.32047 43.8968 9.65438 43.7047 9.67211C43.5127 9.68984 43.3265 9.38548 43.291 8.99247C43.2526 8.59946 43.3797 8.26554 43.5718 8.24781C43.7638 8.23008 43.95 8.53149 43.9884 8.9245L43.9855 8.92746Z" fill="#060101"/>
<path d="M35.5158 10.6833C35.4449 10.6921 35.3769 10.6478 35.3562 10.5769C35.241 10.1395 35.0696 9.86769 34.8568 9.78199C34.6529 9.70221 34.4638 9.81745 34.4579 9.82336C34.3899 9.86473 34.3013 9.847 34.257 9.77904C34.2126 9.71107 34.2333 9.62243 34.2983 9.58106C34.3101 9.57219 34.6145 9.37716 34.9573 9.51014C35.2646 9.62833 35.4921 9.96225 35.634 10.5001C35.6547 10.5769 35.6074 10.6567 35.5306 10.6774C35.5246 10.6774 35.5187 10.6774 35.5128 10.6803L35.5158 10.6833Z" fill="#060101"/>
<path d="M41.4676 11.2414C41.3967 11.2503 41.3317 11.2089 41.311 11.1409C41.2873 11.0641 41.3287 10.9843 41.4055 10.9607C41.5592 10.9105 41.9936 10.7213 41.9463 10.4849C41.9404 10.4554 41.9286 10.4406 41.902 10.4258C41.7572 10.3401 41.3523 10.417 41.113 10.4968C41.0362 10.5233 40.9564 10.482 40.9298 10.4052C40.9061 10.3283 40.9446 10.2456 41.0214 10.2219C41.0923 10.1983 41.7306 9.99145 42.0497 10.1747C42.1472 10.2308 42.2093 10.3195 42.23 10.4288C42.3127 10.8573 41.8045 11.138 41.4883 11.2355C41.4794 11.2355 41.4735 11.2385 41.4646 11.2414H41.4676Z" fill="#060101"/>
<path d="M41.869 13.6406C41.7774 13.6524 41.6828 13.6642 41.5883 13.6731C38.2728 13.9863 37.998 11.6696 37.995 11.6489C37.9862 11.5692 38.0453 11.5041 38.125 11.4894C38.2048 11.4805 38.2757 11.5396 38.2817 11.6164C38.2905 11.7021 38.5387 13.6672 41.5617 13.3835C42.6846 13.2771 43.4854 12.9314 43.9434 12.3522C44.431 11.7376 44.3453 11.0757 44.3453 11.0698C44.3334 10.99 44.3896 10.9161 44.4694 10.9043C44.5492 10.8954 44.6201 10.9486 44.6319 11.0284C44.6378 11.0609 44.7353 11.8203 44.1709 12.5325C43.704 13.1235 42.9298 13.4958 41.8719 13.6376L41.869 13.6406Z" fill="#060101"/>
<path d="M38.9887 7.93739C38.9266 7.94625 38.8616 7.91079 38.835 7.85169C38.7582 7.67144 38.6725 7.56211 38.6045 7.56211C38.4981 7.56211 38.3415 7.77191 38.2677 7.92852C38.2322 7.99944 38.1465 8.02899 38.0756 7.99649C38.0047 7.96103 37.9722 7.87533 38.0076 7.80441C38.0519 7.71577 38.2765 7.26661 38.6104 7.27252C38.8084 7.27547 38.9709 7.43209 39.1039 7.73941C39.1335 7.81328 39.101 7.89602 39.0271 7.92852C39.0153 7.93443 39.0034 7.93739 38.9887 7.94034V7.93739Z" fill="#060101"/>
<path d="M43.9915 7.4586C43.9413 7.46451 43.8881 7.44383 43.8556 7.3995C43.7581 7.26358 43.569 7.08923 43.4626 7.10105C43.4626 7.10105 43.4596 7.10105 43.4567 7.10105C43.3887 7.11583 43.3267 7.23698 43.2853 7.42905C43.2676 7.50588 43.1907 7.55612 43.1109 7.53839C43.0341 7.52066 42.9839 7.44383 43.0016 7.367C43.0725 7.04195 43.2055 6.85874 43.3976 6.81738C43.7226 6.74941 44.0299 7.14538 44.089 7.22812C44.1363 7.29313 44.1215 7.38178 44.0565 7.42905C44.0359 7.44383 44.0152 7.45269 43.9915 7.45565V7.4586Z" fill="#060101"/>
<path d="M35.6787 8.95716C35.6787 8.95716 31.9141 7.89633 34.1008 5.8042C34.1008 5.8042 33.1788 0.875308 36.7632 1.65247C36.7632 1.65247 41.0716 -1.76939 43.5744 1.37174C43.5744 1.37174 47.4395 0.68028 47.0199 4.21738C47.0199 4.21738 49.4016 5.8308 46.3758 7.95247C46.3758 7.95247 45.5809 8.72076 45.4036 7.00392C45.2263 5.28708 42.8593 6.88572 41.9522 5.26935C41.045 3.65298 39.6384 7.03052 38.3294 6.50453C37.0233 5.9815 36.8962 9.47724 35.6728 8.95716H35.6787Z" fill="#2E9DF0"/>
<path d="M36.5771 7.60982C36.6037 7.6246 36.6332 7.62755 36.6598 7.6246C36.7071 7.61573 36.7485 7.58914 36.7691 7.54186C36.8992 7.26705 37.3217 6.5283 37.7029 6.41897C37.7857 6.39237 37.8566 6.40419 37.9275 6.44556C37.9393 6.45147 37.9482 6.46034 37.96 6.46329C38.1373 6.56672 38.2998 6.58445 38.4712 6.54308H38.4742C38.7578 6.46625 39.0533 6.21803 39.4523 5.88412C39.8216 5.57385 40.2797 5.1897 40.9209 4.76418C41.7217 4.23229 42.4811 4.28252 42.8446 4.56029C42.8564 4.5662 42.8653 4.57507 42.8741 4.58393C42.6052 4.56916 42.3629 4.61053 42.1856 4.6844C41.896 4.8026 41.899 4.96217 41.9108 5.02422C41.964 5.26948 42.3954 5.25766 42.5343 5.25175C43.0071 5.23698 43.1814 5.06855 43.2435 4.94148C43.5863 5.04195 44.0029 5.2813 44.3457 5.81911C44.3871 5.88707 44.4787 5.90776 44.5466 5.86343C44.6146 5.81911 44.6323 5.72751 44.591 5.6625C44.2127 5.0715 43.7222 4.77009 43.2642 4.64598C43.2287 4.5337 43.143 4.42141 43.0189 4.3298C42.5579 3.98407 41.6833 3.9102 40.7584 4.52188C40.1053 4.95921 39.6384 5.34927 39.2631 5.6625C38.6131 6.20917 38.3707 6.38942 38.0782 6.20326C37.9393 6.11756 37.7827 6.09392 37.6202 6.1412C37.0469 6.30668 36.5593 7.30546 36.5062 7.41775C36.4707 7.49162 36.5062 7.57732 36.5741 7.60982H36.5771ZM42.9185 4.87943C42.8475 4.9208 42.7205 4.95626 42.5284 4.96217C42.4191 4.96217 42.3422 4.96217 42.289 4.9533C42.3954 4.90898 42.5757 4.86465 42.8121 4.87056C42.8446 4.87056 42.88 4.87352 42.9214 4.87943H42.9185Z" fill="#060101"/>
<path d="M47.0555 9.59519C47.0555 9.59519 47.0348 9.59519 47.026 9.59519C46.9462 9.58928 46.8871 9.52131 46.893 9.44153C46.9314 8.88599 47.091 8.51662 47.3717 8.34228C47.6849 8.14725 48.0188 8.28318 48.0306 8.28613C48.1045 8.31864 48.14 8.40138 48.1104 8.47525C48.0779 8.54913 47.9952 8.58458 47.9213 8.55503C47.9095 8.54912 47.7056 8.4723 47.5194 8.59049C47.3274 8.71165 47.2092 9.01306 47.1796 9.46221C47.1737 9.53018 47.1205 9.58632 47.0555 9.59519Z" fill="#060101"/>
<path d="M47.7996 24.4884C48.7038 23.8235 49.8001 23.3803 50.9821 23.0966C53.284 22.541 55.9051 22.5942 58.0711 22.8129C57.7253 22.5381 57.3885 22.2899 57.0605 22.0623C55.1929 21.9353 53.1037 21.9648 51.1742 22.3844C49.7883 22.6829 48.4881 23.1852 47.4184 23.9683C46.8894 24.3554 46.4403 24.7986 46.065 25.2951C41.9871 23.0434 37.0553 22.1214 34.1092 22.5795C32.614 22.8129 31.6772 23.3832 31.4024 24.2342C31.0981 25.168 31.6211 26.3145 32.9538 27.6384C35.5305 30.2033 36.7923 32.9012 35.8851 33.9118C35.5158 34.3284 34.1476 35.0554 29.4699 32.845C29.4521 32.8391 29.4344 32.8303 29.4167 32.8214C26.4883 31.4326 22.9217 29.2163 18.764 26.1993C18.634 26.3677 18.504 26.5391 18.3828 26.7164C22.7325 29.8664 26.4617 32.1684 29.4108 33.5424C31.5206 34.5235 33.2316 35.0317 34.4845 35.0317C35.3207 35.0317 35.956 34.8042 36.3668 34.3432C37.5429 33.0282 36.3225 30.0851 33.4089 27.1833C32.2801 26.0604 31.7984 25.1089 32.0171 24.4352C32.2121 23.8412 32.9892 23.4098 34.2097 23.2207C37.0464 22.7774 41.7862 23.6639 45.7104 25.827C45.1194 26.808 44.7885 27.9693 44.7175 29.302C44.49 33.6695 46.4698 35.9744 48.3994 36.6806C48.8604 36.849 49.3273 36.9318 49.7765 36.9318C50.2256 36.9318 50.6866 36.8461 51.0826 36.6747C51.5406 36.4856 51.9336 36.1871 52.235 35.7941C52.7521 35.1115 53.68 33.1435 51.1269 29.5827C50.9466 29.3316 50.7575 29.0893 50.5566 28.8529C49.4898 27.5881 48.1335 26.5125 46.6353 25.6231C46.9633 25.2005 47.3504 24.8223 47.8025 24.4913L47.7996 24.4884ZM50.5802 29.9314C50.5802 29.9314 50.592 29.9492 50.6009 29.958C52.2232 32.2186 52.631 34.2014 51.7208 35.4011C51.5347 35.6493 51.2924 35.8473 51.0146 35.9921C50.3497 36.3408 49.478 36.3821 48.6211 36.0689C46.9101 35.4425 45.1578 33.3444 45.3647 29.3316C45.4267 28.1082 45.7311 27.0415 46.2748 26.1461C47.9739 27.1567 49.4898 28.4214 50.5802 29.9314Z" fill="white"/>
<path d="M25.3688 39.9071L25.9421 30.2709C25.948 30.1882 25.883 30.1172 25.8002 30.1113C25.7175 30.1113 25.6466 30.1704 25.6407 30.2532L25.0645 39.9071H25.3659H25.3688Z" fill="#060101"/>
<path d="M29.5168 38.4866C29.4843 38.5339 29.1858 39.0717 28.914 39.5504C28.8401 39.6775 28.7721 39.8016 28.7101 39.908H26.1599L25.959 39.8755L26.0624 39.5504L26.5057 38.1438C26.5057 38.1438 28.3111 36.1729 29.2301 36.7639C30.0014 37.2574 29.7118 38.2059 29.5138 38.4866H29.5168Z" fill="#2E9DF0"/>
<path d="M53.9759 39.8755L53.775 39.908H51.2219C51.1628 39.8016 51.0919 39.6775 51.018 39.5504C50.7461 39.0717 50.4477 38.5339 50.4152 38.4866C50.2202 38.2059 49.9335 37.2574 50.7018 36.7639C51.6208 36.1729 53.4263 38.1438 53.4263 38.1438L53.8696 39.5504L53.973 39.8755H53.9759Z" fill="#2E9DF0"/>
<path d="M26.7043 38.1548C27.0087 37.8416 28.0813 36.8015 28.8348 36.8015C28.956 36.8015 29.0624 36.831 29.151 36.8872C29.3756 37.0319 29.5174 37.2329 29.5647 37.4841C29.6416 37.8771 29.482 38.2671 29.3904 38.3971C29.3638 38.4356 29.2545 38.6306 28.9885 39.1034L28.693 39.6264C28.7344 39.6323 28.7787 39.6353 28.8201 39.6412C28.8851 39.6471 28.9501 39.6589 29.0121 39.6737L29.2545 39.2482C29.4347 38.929 29.6179 38.601 29.6416 38.5656C29.7804 38.3646 29.9548 37.8948 29.8632 37.422C29.7982 37.091 29.6091 36.8162 29.3165 36.6301C29.1776 36.5414 29.0151 36.4941 28.8378 36.4941C28.0163 36.4941 26.9703 37.4575 26.5654 37.8623C26.6245 37.948 26.6748 38.0425 26.7073 38.1489L26.7043 38.1548Z" fill="#060101"/>
<path d="M50.8608 38.9615C50.6421 38.5714 50.5623 38.4296 50.5387 38.4C50.45 38.27 50.2905 37.877 50.3673 37.484C50.4175 37.2328 50.5564 37.0319 50.781 36.89C50.8726 36.8309 50.976 36.8043 51.0972 36.8043C51.8655 36.8043 52.9647 37.8829 53.2454 38.1754C53.2661 38.0572 53.2927 37.942 53.3252 37.8268C52.8938 37.4012 51.8921 36.5029 51.1001 36.5029C50.9199 36.5029 50.7574 36.5473 50.6214 36.6389C50.3289 36.825 50.1398 37.0998 50.0748 37.4278C49.9802 37.9006 50.1545 38.3734 50.2934 38.5744C50.3171 38.6098 50.4589 38.864 50.5978 39.1122C50.6894 39.2747 50.7899 39.4549 50.8874 39.6234L50.9465 39.7268C51.0115 39.7179 51.0794 39.712 51.1533 39.715C51.1976 39.715 51.242 39.715 51.2863 39.715L51.1504 39.4756C51.0529 39.3042 50.9524 39.124 50.8608 38.9644V38.9615Z" fill="#060101"/>
<path d="M80 39.5498H0V39.9074H80V39.5498Z" fill="#060101"/>
<path d="M53.1866 38.5243C53.1866 38.5243 53.0743 35.4186 55.0216 35.9151C55.0216 35.9151 55.255 36.0126 55.9554 36.4322C55.9554 36.4322 57.1817 35.6462 58.6355 36.5415C58.6355 36.5415 60.7483 35.9121 61.4605 36.7454C61.4605 36.7454 63.4639 35.9328 64.2234 37.038C64.9828 38.1431 64.7375 39.0562 64.7375 39.0562C64.7375 39.0562 64.2795 42.9745 63.2069 42.9922C63.2069 42.9922 62.1194 43.1075 61.9628 42.5047C61.9628 42.5047 61.0793 43.6423 60.1957 43.4059C59.3093 43.1725 59.1497 42.1914 59.1497 42.1914C59.1497 42.1914 58.7183 44.0235 57.6279 43.9585C56.5375 43.8935 56.3336 42.5342 56.3336 42.0348C56.3336 42.0348 55.9938 43.205 55.2048 43.1134C54.4188 43.0218 53.8721 41.6418 53.8721 41.5975C53.8721 41.5532 53.1836 38.5273 53.1836 38.5273L53.1866 38.5243Z" fill="#2E9DF0"/>
<path d="M53.042 38.5572C53.1277 38.9296 53.2252 39.361 53.3198 39.7836H53.63C53.5502 39.4319 53.4557 39.0123 53.3404 38.507C53.3375 38.3533 53.3257 36.9379 53.9344 36.3056C54.2003 36.0307 54.5431 35.951 54.9775 36.0603C55.0277 36.0839 55.2819 36.2051 55.8817 36.5626C55.932 36.5922 55.9911 36.5922 56.0413 36.5626C56.0472 36.5597 56.5082 36.2671 57.1967 36.2671C57.6665 36.2671 58.1245 36.4031 58.5619 36.672C58.6003 36.6956 58.6446 36.7015 58.683 36.6867C58.6919 36.6867 59.4366 36.4651 60.1694 36.4651C60.7397 36.4651 61.1357 36.5922 61.3514 36.8434C61.3927 36.8936 61.4637 36.9084 61.5228 36.8847C61.5287 36.8847 62.2142 36.607 62.9116 36.607C63.4671 36.607 63.869 36.7813 64.1054 37.1211C64.8117 38.1495 64.6018 39.0064 64.5989 39.0153C64.5989 39.0212 64.5959 39.03 64.5959 39.0359C64.5693 39.2664 64.5339 39.5206 64.4896 39.7836H64.7939C64.8501 39.4437 64.8826 39.1837 64.8944 39.0803C64.9239 38.9591 65.1071 38.0431 64.3536 36.9497C64.0581 36.5213 63.5735 36.3056 62.9116 36.3056C62.3088 36.3056 61.7326 36.4888 61.508 36.5685C61.2243 36.2996 60.7781 36.1608 60.1723 36.1608C59.5163 36.1608 58.8692 36.3203 58.6653 36.3765C58.1955 36.1017 57.702 35.9598 57.1996 35.9598C56.5939 35.9598 56.1447 36.1608 55.9645 36.2553C55.3232 35.8741 55.0987 35.7796 55.0898 35.7766C55.0839 35.7737 55.075 35.7707 55.0691 35.7677C54.5224 35.6289 54.0644 35.7412 53.7216 36.0957C52.9947 36.8493 53.042 38.4627 53.0449 38.5306C53.0449 38.5395 53.0449 38.5484 53.0479 38.5602L53.042 38.5572Z" fill="#060101"/>
<path d="M56.2774 41.506C56.1858 41.5031 56.106 41.4292 56.0971 41.3346C56.0824 41.1958 55.775 37.9512 55.8637 37.3041C55.8755 37.2006 55.9701 37.1268 56.0764 37.1415C56.1799 37.1563 56.2537 37.2509 56.239 37.3572C56.174 37.8596 56.3867 40.3713 56.4783 41.2992C56.4872 41.4026 56.4104 41.4972 56.3069 41.506C56.2981 41.506 56.2892 41.506 56.2803 41.506H56.2774Z" fill="#060101"/>
<path d="M59.1319 41.7396C59.0374 41.7367 58.9576 41.6628 58.9517 41.5653C58.9399 41.4323 58.6828 38.3148 58.7123 37.5761C58.7153 37.4697 58.8039 37.387 58.9103 37.3929C59.0167 37.3988 59.0965 37.4874 59.0935 37.5909C59.064 38.306 59.327 41.5032 59.3299 41.5328C59.3388 41.6392 59.2619 41.7308 59.1556 41.7396C59.1467 41.7396 59.1378 41.7396 59.1319 41.7396Z" fill="#060101"/>
<path d="M61.8827 42.0495C61.7882 42.0466 61.7084 41.9697 61.7025 41.8722L61.3981 37.6437C61.3893 37.5402 61.4691 37.4457 61.5754 37.4398C61.6789 37.4339 61.7705 37.5107 61.7793 37.6171L62.0837 41.8456C62.0896 41.9491 62.0128 42.0407 61.9064 42.0495C61.9005 42.0495 61.8946 42.0495 61.8857 42.0495H61.8827Z" fill="#060101"/>
<path d="M26.7449 38.5243C26.7449 38.5243 26.8572 35.4186 24.9098 35.9151C24.9098 35.9151 24.6764 36.0126 23.9761 36.4322C23.9761 36.4322 22.7497 35.6462 21.2959 36.5415C21.2959 36.5415 19.1831 35.9121 18.4709 36.7454C18.4709 36.7454 16.4675 35.9328 15.708 37.038C14.9457 38.1431 15.1939 39.0562 15.1939 39.0562C15.1939 39.0562 15.6519 42.9745 16.7275 42.9922C16.7275 42.9922 17.8149 43.1075 17.9716 42.5047C17.9716 42.5047 18.8521 43.6423 19.7386 43.4059C20.6251 43.1725 20.7847 42.1914 20.7847 42.1914C20.7847 42.1914 21.2161 44.0235 22.3095 43.9585C23.3998 43.8935 23.6037 42.5342 23.6037 42.0348C23.6037 42.0348 23.9436 43.205 24.7325 43.1134C25.5186 43.0218 26.0652 41.6418 26.0652 41.5975C26.0652 41.5532 26.7537 38.5273 26.7537 38.5273L26.7449 38.5243Z" fill="#2E9DF0"/>
<path d="M23.6538 41.506C23.7483 41.5031 23.8252 41.4292 23.834 41.3346C23.8488 41.1958 24.1561 37.9512 24.0675 37.3041C24.0527 37.2006 23.9611 37.1268 23.8547 37.1415C23.7513 37.1563 23.6774 37.2509 23.6922 37.3572C23.7602 37.8596 23.5444 40.3713 23.4528 41.2992C23.444 41.4026 23.5208 41.4972 23.6242 41.506C23.6331 41.506 23.642 41.506 23.6508 41.506H23.6538Z" fill="#060101"/>
<path d="M20.8022 41.7396C20.8968 41.7367 20.9765 41.6628 20.9824 41.5653C20.9943 41.4323 21.2513 38.3148 21.2218 37.5761C21.2188 37.4697 21.1302 37.387 21.0238 37.3929C20.9174 37.3988 20.8377 37.4874 20.8406 37.5909C20.8702 38.306 20.6072 41.5032 20.6042 41.5328C20.5953 41.6392 20.6722 41.7308 20.7786 41.7396C20.7874 41.7396 20.7933 41.7396 20.8022 41.7396Z" fill="#060101"/>
<path d="M18.0483 42.0495C18.1428 42.0466 18.2226 41.9697 18.2285 41.8722L18.5329 37.6437C18.5418 37.5402 18.462 37.4457 18.3556 37.4398C18.2522 37.4339 18.1606 37.5107 18.1517 37.6171L17.8474 41.8456C17.8385 41.9491 17.9183 42.0407 18.0247 42.0495C18.0306 42.0495 18.0365 42.0495 18.0453 42.0495H18.0483Z" fill="#060101"/>
<path d="M15.1439 39.7836H15.4482C15.4039 39.5147 15.3655 39.2546 15.3359 39.0153C15.3359 39.0064 15.1202 38.1465 15.8294 37.1211C16.0658 36.7784 16.4647 36.607 17.0232 36.607C17.7176 36.607 18.4061 36.8818 18.4121 36.8848C18.4712 36.9084 18.5421 36.8936 18.5834 36.8434C18.7992 36.5922 19.1951 36.4651 19.7625 36.4651C20.4953 36.4651 21.2429 36.6838 21.2488 36.6868C21.2902 36.6986 21.3345 36.6927 21.37 36.672C21.8073 36.4031 22.2683 36.2672 22.7352 36.2672C23.4148 36.2672 23.8847 36.5597 23.8906 36.5627C23.9379 36.5922 23.9999 36.5952 24.0501 36.5627C24.65 36.2051 24.9041 36.084 24.9544 36.0603C25.3887 35.951 25.7315 36.0308 25.9975 36.3056C26.6062 36.935 26.5944 38.3534 26.5914 38.507C26.4762 39.0123 26.3816 39.4319 26.3018 39.7836H26.6121C26.7067 39.361 26.8071 38.9296 26.8899 38.5573C26.8899 38.5484 26.8928 38.5395 26.8928 38.5277C26.8928 38.4598 26.9431 36.8463 26.2161 36.0928C25.8734 35.7382 25.4153 35.6259 24.8687 35.7648C24.8598 35.7648 24.8539 35.7707 24.848 35.7737C24.8391 35.7766 24.6145 35.8742 23.9733 36.2524C23.796 36.1578 23.3439 35.9569 22.7381 35.9569C22.2328 35.9569 21.7394 36.0958 21.2725 36.3735C21.0686 36.3174 20.4214 36.1578 19.7654 36.1578C19.1597 36.1578 18.7105 36.2938 18.4298 36.5656C18.2052 36.4858 17.626 36.3026 17.0262 36.3026C16.3643 36.3026 15.8796 36.5213 15.5841 36.9468C14.8306 38.0401 15.0168 38.9591 15.0434 39.0773C15.0552 39.1808 15.0877 39.4408 15.1439 39.7806V39.7836Z" fill="#060101"/>
</g>
<defs>
<clipPath id="clip0_4094_48389">
<rect width="80" height="43.9109" fill="white" transform="translate(0 0.0449219)"/>
</clipPath>
</defs>
</svg>
