<svg width="35" height="35" viewBox="0 0 35 35" fill="none" xmlns="http://www.w3.org/2000/svg">
<path d="M17.4993 17.5011H17.5139M22.6553 22.6571C15.8211 29.4913 7.97247 32.7231 5.1249 29.8755C2.27733 27.0279 5.50911 19.1793 12.3433 12.3451C19.1775 5.51096 27.0261 2.27918 29.8736 5.12676C32.7212 7.97433 29.4894 15.8229 22.6553 22.6571ZM22.6552 12.3449C29.4894 19.179 32.7212 27.0277 29.8736 29.8752C27.026 32.7228 19.1774 29.491 12.3432 22.6568C5.50905 15.8227 2.27727 7.97406 5.12484 5.12649C7.97242 2.27892 15.821 5.5107 22.6552 12.3449ZM18.2284 17.5011C18.2284 17.9038 17.902 18.2303 17.4993 18.2303C17.0966 18.2303 16.7701 17.9038 16.7701 17.5011C16.7701 17.0984 17.0966 16.772 17.4993 16.772C17.902 16.772 18.2284 17.0984 18.2284 17.5011Z" stroke="black" stroke-width="2" stroke-linecap="round" stroke-linejoin="round"/>
</svg>
