<svg width="35" height="35" viewBox="0 0 35 35" fill="none" xmlns="http://www.w3.org/2000/svg">
<path d="M29.1667 29.1667V18.9583M17.5 29.1667V14.5833M5.83337 29.1667L5.83337 23.3333M19.5514 7.33178L27.0888 10.1583M15.7482 7.87634L7.58371 13.9997M30.7135 9.3907C31.5678 10.245 31.5678 11.63 30.7135 12.4843C29.8592 13.3386 28.4742 13.3386 27.6199 12.4843C26.7656 11.63 26.7656 10.245 27.6199 9.3907C28.4742 8.53643 29.8592 8.53643 30.7135 9.3907ZM7.38017 13.7657C8.23444 14.62 8.23444 16.005 7.38017 16.8593C6.5259 17.7136 5.14085 17.7136 4.28658 16.8593C3.43231 16.005 3.43231 14.62 4.28658 13.7657C5.14085 12.9114 6.5259 12.9114 7.38017 13.7657ZM19.0468 5.0157C19.9011 5.86998 19.9011 7.25502 19.0468 8.1093C18.1926 8.96357 16.8075 8.96357 15.9532 8.1093C15.099 7.25502 15.099 5.86998 15.9532 5.0157C16.8075 4.16143 18.1926 4.16143 19.0468 5.0157Z" stroke="black" stroke-width="2" stroke-linecap="round" stroke-linejoin="round"/>
</svg>
