<svg width="21" height="22" viewBox="0 0 21 22" fill="none" xmlns="http://www.w3.org/2000/svg">
<path d="M20.691 10.7184C20.6335 10.7117 20.578 10.6926 20.5205 10.6859C18.9402 10.4905 17.3762 10.1878 15.7796 10.1026C15.1781 10.071 14.5795 9.98573 13.9665 9.89378C14.4732 9.5078 14.9712 9.1314 15.4779 8.76745C16.5103 8.02805 17.5687 7.32409 18.6088 6.59523C18.9162 6.37973 19.2045 6.13646 19.4976 5.89989C19.6011 5.81657 19.6968 5.71025 19.6078 5.56563C19.512 5.40951 19.3846 5.48997 19.2649 5.54169C19.2122 5.56467 19.1538 5.57617 19.1001 5.59819C17.6319 6.21308 16.1234 6.7274 14.6954 7.44669C14.2893 7.65165 13.8688 7.82883 13.4388 8.00027C13.9493 6.57129 14.4607 5.14325 14.9808 3.7181C15.1494 3.25645 15.3677 2.81301 15.5612 2.36094C15.6196 2.22398 15.6982 2.08032 15.5612 1.97496C14.2433 3.57826 12.935 5.16912 11.6171 6.77146C11.3518 5.28213 11.0865 3.7928 10.8317 2.30156C10.7484 1.81693 10.7178 1.32368 10.6613 0.835218C10.644 0.686765 10.6411 0.523944 10.4697 0.5C10.0933 2.71053 9.72073 4.90381 9.34432 7.11626C9.01294 6.74273 8.68634 6.37303 8.36549 5.9995C7.86936 5.42101 7.51212 4.73716 6.99205 4.17016C6.63288 3.77844 6.36279 3.30626 6.03237 2.88676C5.81783 2.61475 5.57359 2.36477 5.32745 2.11958C5.26232 2.05446 5.1426 2.04392 4.9884 1.98645C5.02001 2.13874 5.02479 2.21057 5.04874 2.27474C5.25562 2.81588 5.46537 3.3551 5.67608 3.89433C6.10899 5.00055 6.53807 6.10868 6.97864 7.21203C7.07442 7.45243 7.17307 7.69187 7.27267 7.93036C6.92022 7.81064 6.56967 7.68996 6.22104 7.56641C5.50272 7.31068 4.85335 6.89405 4.1197 6.66036C3.61305 6.4985 3.1447 6.22362 2.64953 6.02248C2.32868 5.89223 1.99155 5.79741 1.65728 5.70738C1.56821 5.68344 1.45998 5.73324 1.29716 5.76006C1.39965 5.8769 1.43987 5.93629 1.49255 5.98034C1.94078 6.34717 2.39093 6.71208 2.84108 7.07507C3.76629 7.82021 4.68862 8.56919 5.61957 9.30858C5.91552 9.54324 6.21434 9.77406 6.51508 10.003C6.30629 10.0374 6.09654 10.07 5.88678 10.0987C5.15505 10.2003 4.41757 10.2644 3.68871 10.3775C2.67348 10.5355 1.66112 10.7184 0.650672 10.9061C0.436132 10.9464 0.187112 10.9301 0.024292 11.1168C0.065476 11.4473 0.308749 11.4693 0.537655 11.5047C1.78084 11.6982 3.0403 11.7337 4.28636 11.9348C4.97882 12.0468 5.68086 12.0938 6.38482 12.135C6.29192 12.2087 6.19902 12.2825 6.10516 12.3543C5.52092 12.8063 4.91274 13.2268 4.3352 13.6885C3.53259 14.3302 2.74435 14.991 1.9609 15.6557C1.7952 15.7965 1.57013 15.9066 1.52224 16.149C1.72241 16.4152 1.94461 16.3137 2.16107 16.2313C3.33625 15.7821 4.44726 15.1874 5.62915 14.743C6.31108 14.4863 6.96906 14.1635 7.62513 13.8379C7.61938 13.8522 7.6146 13.8676 7.60885 13.8819C7.32343 14.6558 7.03994 15.4306 6.74015 16.1997C6.55147 16.6834 6.31874 17.1508 6.13293 17.6354C5.84273 18.392 5.57359 19.1563 5.30159 19.9197C5.26328 20.0279 5.25753 20.1467 5.23646 20.2616C5.27094 20.2798 5.30446 20.297 5.33894 20.3152C5.47782 20.1812 5.63489 20.0614 5.7527 19.9111C6.35226 19.1477 6.94607 18.3806 7.53319 17.6086C8.16435 16.7782 8.78307 15.9392 9.41137 15.1079C9.44489 15.0638 9.47841 15.0207 9.51097 14.9766C9.6374 15.7266 9.76383 16.4765 9.87588 17.2284C9.95251 17.7417 9.9822 18.2627 10.0617 18.7761C10.1852 19.5768 10.3318 20.3746 10.4735 21.1715C10.4936 21.2845 10.5482 21.3908 10.5865 21.5C10.6249 21.4981 10.6632 21.4971 10.7015 21.4952C10.7551 21.3104 10.8317 21.1284 10.8595 20.9387C11.0013 19.9791 11.1353 19.0175 11.2618 18.0559C11.3968 17.0253 11.5175 15.9919 11.6497 14.9604C12.5423 16.0589 13.3612 17.1958 14.295 18.2369C14.8036 18.8039 15.2758 19.4015 15.7843 20.0088C15.8131 19.9934 15.8744 19.9609 15.9998 19.8948C15.1321 17.7925 14.1945 15.7237 13.274 13.6176C14.6829 14.1491 16.0343 14.7755 17.4451 15.2429C18.1673 15.4823 18.8751 15.7668 19.6183 16.0417C19.6355 16.0139 19.6729 15.9555 19.7495 15.8358C17.9824 14.4652 16.1732 13.1559 14.3592 11.8093C14.8429 11.7471 15.3217 11.6877 15.8006 11.6388C17.0639 11.5095 18.332 11.4233 19.5972 11.3084C19.9717 11.2739 20.3424 11.2059 20.714 11.1456C20.8452 11.1245 20.9812 11.0795 20.9754 10.91C20.9697 10.7261 20.8193 10.7328 20.69 10.7184H20.691ZM16.8082 10.4771C16.6441 10.6603 16.4602 10.743 16.2565 10.7251C16.3644 10.4538 16.5483 10.3711 16.8082 10.4771ZM15.7652 10.3315C15.8935 10.3401 16.0209 10.3478 16.1962 10.3593C15.9529 10.6651 15.648 10.7804 15.2815 10.705C15.407 10.3152 15.4175 10.3075 15.7662 10.3315H15.7652ZM15.2585 10.3439C15.0603 10.5077 14.9837 10.7855 14.6571 10.7596C14.886 10.2529 14.8927 10.2482 15.2585 10.3439ZM14.6331 10.2395C14.3841 10.7222 14.2921 10.7855 13.8813 10.7357C14.1389 10.547 14.1083 10.0441 14.6331 10.2395ZM13.9828 10.1869C13.8161 10.5891 13.6246 10.7548 13.2453 10.7701C13.3344 10.5862 13.3957 10.4435 13.4713 10.3085C13.4857 10.2836 13.4972 10.2616 13.5097 10.2414C13.5738 10.1926 13.638 10.1438 13.7022 10.0949C13.7635 10.1016 13.8487 10.1342 13.9818 10.1878L13.9828 10.1869ZM13.7299 11.635C13.5374 11.6293 13.4464 11.5028 13.3564 11.3563C13.4838 11.4473 13.5834 11.5191 13.7386 11.6312C13.7357 11.6321 13.7328 11.634 13.729 11.635H13.7299ZM11.3461 14.2487C11.3231 14.1874 11.3135 14.129 11.3135 14.0716C11.3154 14.0725 11.3183 14.0744 11.3202 14.0754C11.4102 14.1242 11.4466 14.1434 11.4447 14.2497C11.4121 14.2497 11.3786 14.2497 11.3461 14.2497V14.2487ZM7.21808 10.1802C7.23915 10.1725 7.26118 10.1658 7.28225 10.1581C7.4307 10.1734 7.55426 10.2395 7.67015 10.3248C7.60885 10.3401 7.54851 10.3564 7.48721 10.3707C7.40293 10.3909 7.29566 10.3133 7.19988 10.2807C7.20563 10.2472 7.21233 10.2137 7.21808 10.1802ZM7.90384 8.59792C7.8617 8.59505 7.81956 8.59122 7.77646 8.58834C7.74964 8.52609 7.72282 8.46288 7.69409 8.39487C7.78508 8.44947 7.85404 8.5146 7.90384 8.59792ZM8.14616 8.55386C8.29748 8.55769 8.41625 8.58164 8.50532 8.64294C8.39039 8.63432 8.27929 8.62665 8.16914 8.61803C8.16148 8.59601 8.15382 8.57589 8.14616 8.55386ZM11.4888 7.28003C11.4907 7.28961 11.4936 7.29919 11.4955 7.30877C11.4629 7.3308 11.4313 7.35187 11.3987 7.37294C11.4141 7.33942 11.4457 7.30972 11.4888 7.27908V7.28003ZM13.3143 10.1045C13.1582 10.2376 13.0499 10.3027 12.8689 10.3018C12.9292 10.2338 12.9896 10.1667 13.0528 10.1045C13.0901 10.0671 13.1438 10.0451 13.2051 10.026C13.2396 10.0509 13.275 10.0767 13.3133 10.1045H13.3143ZM13.2606 11.7241C13.0614 11.7614 12.936 11.7653 12.7818 11.6781C12.9034 11.6024 13.0193 11.5306 13.1361 11.4578C13.1754 11.5344 13.2156 11.6216 13.2606 11.725V11.7241ZM12.0337 12.8245C12.0318 12.8456 12.0289 12.8667 12.0251 12.8878C12.005 12.8676 11.9849 12.8475 11.9657 12.8265C11.9887 12.8265 12.0117 12.8245 12.0337 12.8236V12.8245ZM10.7149 13.3073C10.7101 13.2824 10.7063 13.2565 10.7024 13.2316C10.7609 13.2402 10.8174 13.2527 10.8729 13.267C10.8729 13.2709 10.872 13.2747 10.871 13.2785C10.8605 13.3331 10.8384 13.3868 10.8049 13.4385C10.7685 13.3982 10.7388 13.3542 10.7139 13.3073H10.7149ZM10.4486 12.8083C10.4295 12.8686 10.3883 12.9242 10.3222 12.9797C10.3193 12.9826 10.3165 12.9855 10.3126 12.9874C10.2638 12.8878 10.214 12.7872 10.1661 12.6876C10.235 12.61 10.305 12.5305 10.3768 12.4491C10.4151 12.5229 10.4391 12.587 10.4515 12.6464C10.4496 12.701 10.4486 12.7546 10.4477 12.8083H10.4486ZM10.1843 13.4346C10.1565 13.4509 10.1412 13.4749 10.1144 13.4912C10.1077 13.4835 10.1 13.4758 10.0933 13.4682C10.1192 13.4528 10.1488 13.4366 10.1776 13.4203C10.1795 13.4251 10.1814 13.4299 10.1843 13.4346ZM9.94005 13.2958C9.88834 13.2383 9.83566 13.1799 9.78202 13.1215C9.84236 13.0535 9.9027 12.9855 9.964 12.9155C10.0052 13.0084 10.0425 13.0985 10.0789 13.1866C10.0339 13.2249 9.98699 13.2613 9.94005 13.2958ZM7.90097 11.9606C7.99483 11.8802 8.08294 11.8036 8.16819 11.7308C8.28599 11.7471 8.4038 11.7547 8.52256 11.7337C8.44881 11.8189 8.38272 11.8898 8.31855 11.9463C8.15861 11.9769 8.01303 11.9855 7.90097 11.9616V11.9606ZM8.07624 11.135C8.15765 11.1312 8.2496 11.1303 8.35591 11.1322C8.32717 11.2174 8.25247 11.3323 8.15095 11.4559C8.02835 11.4214 7.90193 11.3764 7.77263 11.3151C7.88277 11.2576 7.98142 11.1925 8.07624 11.135ZM7.84925 10.0221C8.13371 10.0336 8.39039 9.97902 8.5829 10.0652C8.58481 10.0652 8.58577 10.0671 8.58769 10.0671C8.39422 10.1227 8.20362 10.1782 8.01398 10.2319C7.95748 10.1667 7.90193 10.0978 7.84829 10.0221H7.84925ZM7.97567 8.77128C7.99674 8.84598 8.0092 8.93218 8.01686 9.03083C7.96131 8.9839 7.91725 8.89962 7.86553 8.84119C7.88756 8.81533 7.90959 8.78852 7.93162 8.76266C7.94598 8.76553 7.96131 8.7684 7.97567 8.77128ZM8.6691 8.90632C8.6691 8.90632 8.67101 8.91207 8.67197 8.9159C8.69687 9.02604 8.73039 9.13427 8.76679 9.24633C8.626 9.21185 8.48616 9.17737 8.34729 9.14002C8.31855 9.03562 8.28312 8.93122 8.24289 8.823C8.38464 8.84981 8.52639 8.87759 8.66814 8.90632H8.6691ZM8.84054 9.45991C8.87597 9.56048 8.91333 9.66487 8.94972 9.77789C8.63558 9.69456 8.48042 9.54994 8.40284 9.33253C8.55991 9.36509 8.70453 9.40819 8.84054 9.45991ZM9.89695 9.12948C9.89983 9.12086 9.9027 9.1132 9.90557 9.10458C10.009 9.2176 10.1086 9.33253 10.2063 9.44938C10.2063 9.70797 10.1996 9.96561 10.2207 10.2223C10.077 10.0202 9.94676 9.82195 9.82321 9.62369C9.80501 9.4714 9.82512 9.30858 9.89695 9.12948ZM9.10105 11.1168C9.32421 11.1168 9.54833 11.1331 9.7849 11.1465C9.35582 11.431 8.91524 11.5766 8.42295 11.5114C8.55512 11.3984 8.68346 11.2912 8.81468 11.1877C8.88555 11.1322 9.00432 11.1168 9.10105 11.1168ZM9.8347 10.3679C9.46979 10.2271 9.19587 10.0068 9.11637 9.57867C9.2179 9.62848 9.31559 9.68211 9.41041 9.73958C9.60962 9.85834 9.71498 10.1323 9.86343 10.3363C9.85386 10.3468 9.84428 10.3583 9.8347 10.3688V10.3679ZM8.98708 10.2932C9.00432 10.2932 9.02155 10.297 9.0388 10.2989C9.24759 10.4167 9.45255 10.5451 9.65943 10.6686C9.65464 10.6916 9.64985 10.7136 9.64506 10.7366C9.32804 10.7366 9.01198 10.7366 8.69496 10.7366C8.50149 10.6552 8.31951 10.5374 8.14999 10.3746C8.44211 10.3056 8.71699 10.2884 8.98708 10.2932ZM8.23044 10.7337C8.08869 10.7337 7.94694 10.7337 7.80423 10.7309C7.74006 10.7309 7.67589 10.6638 7.54085 10.5882C7.64524 10.5393 7.74485 10.4991 7.84446 10.4646C7.96514 10.5652 8.08677 10.6686 8.23044 10.7337ZM8.35974 12.8207C8.35303 12.7843 8.34633 12.747 8.33867 12.7106C8.46126 12.6694 8.58481 12.6272 8.70837 12.5851C8.68921 12.6656 8.66622 12.747 8.64036 12.8284C8.54746 12.8341 8.45456 12.8341 8.35974 12.8207ZM8.44881 12.4721C8.43253 12.4386 8.41625 12.4041 8.39996 12.3706C8.51969 12.2786 8.64419 12.1953 8.77158 12.1168C8.77349 12.1876 8.76679 12.2738 8.75146 12.3687C8.6509 12.4031 8.54938 12.4386 8.44881 12.4721ZM8.56087 13.0477C8.49766 13.1981 8.45264 13.2067 8.16244 13.2584C8.15957 13.2182 8.15765 13.1808 8.15574 13.1444C8.22278 13.0793 8.33005 13.0554 8.56087 13.0477ZM8.83862 12.8063C8.87597 12.702 8.91045 12.6014 8.94493 12.5047C9.13936 12.4386 9.33858 12.3715 9.54737 12.2997C9.54737 12.3016 9.54737 12.3026 9.54737 12.3045C9.41616 12.4769 9.27249 12.632 9.13266 12.7527C9.03496 12.7719 8.93727 12.791 8.83862 12.8063ZM9.51193 12.1139C9.34911 12.1656 9.18821 12.2202 9.02634 12.2748C9.07423 12.1436 9.12116 12.0162 9.17097 11.8917C9.43148 11.7557 9.69965 11.6321 9.96974 11.5047C9.9707 11.5402 9.96879 11.5727 9.96591 11.6044C9.91228 11.7289 9.84428 11.8582 9.76478 11.9884C9.69487 12.0411 9.61058 12.0832 9.51193 12.1148V12.1139ZM10.349 11.5488C10.53 11.8428 10.4611 12.0794 10.2542 12.3045C10.1948 12.3686 10.1374 12.4357 10.0789 12.5008C10.0473 12.4319 10.0167 12.3629 9.98794 12.293C9.96113 12.2279 9.99273 12.1235 10.0291 12.0516C10.0607 11.9894 10.0943 11.9281 10.1297 11.8639C10.2025 11.7586 10.2762 11.6542 10.35 11.5478L10.349 11.5488ZM9.53205 12.8427C9.59622 12.7307 9.65464 12.6272 9.7485 12.4644C9.79639 12.5564 9.83853 12.6426 9.87684 12.7249C9.80214 12.8102 9.72743 12.8945 9.65272 12.9797C9.61154 12.9347 9.57131 12.8887 9.53109 12.8437L9.53205 12.8427ZM9.53205 13.404C9.56078 13.3714 9.59047 13.3379 9.6192 13.3053C9.65751 13.3456 9.69391 13.3877 9.72839 13.4308C9.68816 13.4519 9.64793 13.472 9.60484 13.4892C9.58089 13.4605 9.55599 13.4318 9.53205 13.404ZM10.6976 8.73009C10.7206 8.82683 10.7436 8.9226 10.7656 9.01934C10.7446 9.04616 10.7235 9.07106 10.7044 9.09883C10.6651 8.94176 10.6632 8.82491 10.6976 8.73009ZM12.0883 8.72626C12.0883 8.72626 12.0931 8.72435 12.096 8.72435C12.1008 8.77798 12.1017 8.83162 12.1017 8.88334C12.0337 8.8977 11.9629 8.91207 11.8862 8.92739C11.9494 8.85748 12.0165 8.79043 12.0893 8.7253L12.0883 8.72626ZM12.8086 9.02221C12.8086 9.02221 12.8086 9.02221 12.8076 9.02317C12.8076 9.02317 12.8076 9.02317 12.8076 9.02221C12.8076 9.02221 12.8086 9.02221 12.8095 9.02221H12.8086ZM12.7492 10.5259C12.7157 10.5451 12.6764 10.5633 12.6333 10.5786C12.6515 10.5566 12.6697 10.5355 12.6879 10.5144C12.708 10.5182 12.7281 10.5221 12.7492 10.5259ZM12.5414 11.0517C12.437 11.1427 12.3383 11.1571 12.2444 11.2002C12.21 11.1647 12.1745 11.1283 12.1362 11.0881C12.2665 11.069 12.3766 11.0517 12.4724 11.0517H12.5414ZM12.1343 11.4511C12.2119 11.5229 12.2971 11.5919 12.3891 11.6666C12.3498 11.6877 12.3115 11.7087 12.2722 11.7298C12.1764 11.6599 12.0874 11.5948 11.9897 11.5229C12.0414 11.4971 12.0893 11.4731 12.1343 11.4502V11.4511ZM12.1774 9.55186C12.2655 9.52408 12.3546 9.49726 12.4427 9.46949C12.3699 9.53557 12.277 9.58921 12.1621 9.63327C12.1678 9.60549 12.1717 9.57867 12.1774 9.55186ZM12.0749 10.6868C11.8336 10.705 11.5635 10.6983 11.2972 10.6686C11.4888 10.5642 11.6755 10.4483 11.868 10.3372C11.9207 10.3458 11.9744 10.3583 12.0309 10.3784C12.1621 10.4253 12.3019 10.4493 12.4552 10.4751C12.3412 10.5633 12.2148 10.6351 12.074 10.6868H12.0749ZM12.2004 10.16C12.414 10.0556 12.64 9.96753 12.8909 9.91677C12.8277 10.0528 12.7511 10.1725 12.662 10.2778C12.5414 10.2549 12.3929 10.2156 12.2013 10.16H12.2004ZM12.6237 9.14097C12.4963 9.20993 12.3613 9.2607 12.2224 9.30571C12.2358 9.23196 12.2492 9.15917 12.2636 9.0883C12.3488 9.06244 12.435 9.03179 12.5203 9.01263C12.5586 9.00401 12.5979 8.99923 12.639 8.99827C12.6381 9.04903 12.6323 9.09692 12.6237 9.14193V9.14097ZM12.0165 9.36988C11.8451 9.4216 11.6698 9.47619 11.4955 9.55569C11.5836 9.23962 11.7263 9.13906 11.9839 9.14097C12.0165 9.14097 12.0481 9.1381 12.0807 9.13331C12.0663 9.21472 12.0452 9.29422 12.0175 9.37084L12.0165 9.36988ZM12.5423 8.66592C12.5548 8.70519 12.5672 8.74542 12.5797 8.78469C12.4944 8.80192 12.4101 8.82012 12.3201 8.83832C12.323 8.82587 12.3259 8.81342 12.3297 8.80097C12.3383 8.77032 12.3555 8.74063 12.3766 8.71285C12.436 8.70998 12.4925 8.7004 12.5423 8.66592ZM11.6813 8.65634C11.6621 8.68125 11.6382 8.70998 11.6171 8.74254C11.573 8.67742 11.529 8.6142 11.4868 8.55291C11.5252 8.51172 11.5635 8.4715 11.6018 8.43031C11.6286 8.44372 11.6545 8.45713 11.6813 8.4715C11.6774 8.53088 11.687 8.59888 11.6813 8.6573V8.65634ZM11.5299 8.08456C11.4792 8.18225 11.4179 8.27228 11.3499 8.35752C11.3135 8.30484 11.2781 8.25217 11.2436 8.19949C11.2704 8.17171 11.2972 8.14394 11.325 8.11808C11.3738 8.07402 11.4284 8.03667 11.4945 8.00985C11.507 8.03475 11.5185 8.05966 11.5299 8.08456ZM11.1727 7.80585C11.2033 7.83458 11.234 7.86236 11.2646 7.89109C11.2196 7.93132 11.1737 7.97058 11.1277 8.01177C11.1277 8.01177 11.1277 8.01177 11.1277 8.01081C11.1076 7.97729 11.0932 7.94281 11.0836 7.90833C11.121 7.88151 11.1526 7.84895 11.1737 7.80585H11.1727ZM10.9754 8.14585C10.9543 8.16405 10.9333 8.18321 10.9112 8.20236C10.9189 8.16214 10.9275 8.12095 10.939 8.07977C10.9515 8.1018 10.9629 8.12383 10.9754 8.14681V8.14585ZM10.894 8.5146C10.9036 8.50885 10.9122 8.50214 10.9227 8.4964C10.985 8.46096 11.0405 8.41307 11.0932 8.36039C11.1258 8.42073 11.1593 8.48203 11.1928 8.54237C11.1104 8.6324 11.0233 8.72147 10.938 8.81533C10.916 8.71477 10.9007 8.61516 10.8949 8.5146H10.894ZM11.0032 9.06435C11.1047 8.95996 11.2043 8.85364 11.3039 8.74733C11.3575 8.84598 11.4112 8.94463 11.4667 9.04616C11.3643 9.21281 11.2589 9.38042 11.1497 9.55186C11.1018 9.38137 11.0491 9.22047 11.0022 9.06435H11.0032ZM11.0204 10.2673C11.0654 10.1974 11.1085 10.1265 11.1516 10.0547C11.2905 9.87558 11.4715 9.76065 11.7043 9.69361C11.7636 9.67637 11.8221 9.65817 11.8805 9.64093C11.6937 9.93209 11.392 10.1706 10.984 10.3478C10.9955 10.32 11.008 10.2932 11.0204 10.2673ZM11.3499 13.1693C11.2771 13.1454 11.2033 13.1215 11.1277 13.0966C11.1392 13.0276 11.1507 12.9567 11.1622 12.8849C11.233 12.9385 11.302 12.9912 11.3719 13.0439C11.3662 13.086 11.3595 13.1282 11.3508 13.1693H11.3499ZM11.0472 12.4347C10.9486 12.3667 10.8499 12.2968 10.7551 12.2231C10.7216 12.1972 10.6996 12.1464 10.6862 12.0938C10.6871 11.9444 10.6852 11.7921 10.6708 11.635C10.9409 11.9118 11.0683 12.1608 11.0472 12.4347ZM10.6747 12.5391C10.781 12.609 10.8777 12.6761 10.9668 12.7412C10.9313 12.8303 10.916 12.927 10.9045 13.0266C10.8269 13.0017 10.7503 12.9768 10.6756 12.9519C10.6699 12.8169 10.6708 12.679 10.6756 12.5401L10.6747 12.5391ZM11.0415 13.6185C11.0568 13.5256 11.0721 13.4318 11.0875 13.337C11.1535 13.3628 11.2168 13.3906 11.28 13.4212C11.2493 13.5093 11.2139 13.5955 11.1727 13.6798C11.1258 13.6607 11.0817 13.6406 11.0415 13.6185ZM10.8222 11.4367C10.9515 11.6024 11.0549 11.7729 11.1478 11.9434C10.9936 11.8352 10.8863 11.6733 10.8222 11.4367ZM11.2263 11.6398C11.4208 11.7509 11.6114 11.8601 11.7991 11.9673C11.8115 12.0133 11.8211 12.0631 11.8269 12.1148C11.8278 12.1235 11.8297 12.133 11.8316 12.1417C11.6976 12.1311 11.5769 12.1139 11.4687 12.0861C11.3901 11.9405 11.3125 11.7911 11.2263 11.6398ZM12.0529 12.1129C12.0768 12.1263 12.1008 12.1397 12.1247 12.1541C12.1056 12.1541 12.0874 12.1541 12.0682 12.1532C12.0634 12.1397 12.0586 12.1263 12.0538 12.1139L12.0529 12.1129ZM12.4111 12.4376C12.4274 12.5037 12.4417 12.5707 12.4513 12.6378C12.3833 12.6359 12.3153 12.6349 12.2483 12.633C12.2138 12.541 12.1793 12.4472 12.1429 12.3514C12.2789 12.3706 12.3565 12.3955 12.4111 12.4376ZM11.1143 11.1255C11.4782 10.9971 11.7502 11.0421 11.9868 11.2988C11.7225 11.3812 11.4964 11.3745 11.279 11.2481C11.2235 11.2088 11.1679 11.1676 11.1143 11.1255ZM13.0499 11.3084C12.8986 11.3898 12.7521 11.4703 12.6055 11.5498C12.5385 11.4923 12.4638 11.4205 12.3757 11.3323C12.662 11.1935 12.8009 11.1398 12.9053 11.1446C12.957 11.1848 13.004 11.2394 13.0499 11.3094V11.3084ZM10.1996 9.07201C10.123 9.00114 10.0483 8.93218 9.97741 8.86226C10.01 8.73009 10.0387 8.59505 10.0904 8.46383C10.099 8.46862 10.1077 8.47437 10.1163 8.47916C10.1661 8.67646 10.19 8.87376 10.1996 9.07201ZM9.79543 8.03667C9.73509 8.00602 9.67571 7.97441 9.61729 7.94089C9.58568 7.9227 9.55791 7.90162 9.533 7.87768C9.53683 7.85565 9.54067 7.83458 9.5445 7.81159C9.65943 7.88151 9.74467 7.95334 9.79543 8.03667ZM9.49565 8.09701C9.60962 8.16693 9.72456 8.2378 9.83949 8.30868C9.8347 8.33454 9.82991 8.35944 9.82129 8.38721C9.7983 8.46479 9.77819 8.54333 9.76095 8.62378C9.64219 8.47437 9.54737 8.30963 9.49373 8.10754C9.49373 8.10371 9.49469 8.09988 9.49565 8.09605V8.09701ZM9.397 8.55482C9.49948 8.66784 9.60388 8.77894 9.70732 8.89004C9.68529 9.01072 9.6623 9.1381 9.63453 9.2741C9.61441 9.25495 9.59622 9.23484 9.57898 9.21568C9.51097 9.09787 9.44489 8.97911 9.38168 8.86035C9.36061 8.76266 9.36635 8.66305 9.39221 8.55674C9.39317 8.55578 9.39508 8.55482 9.39604 8.55386L9.397 8.55482ZM9.27824 9.37084C9.20545 9.35264 9.13457 9.3354 9.06274 9.31816C9.03209 9.20323 8.99378 9.0883 8.96696 8.96858C8.9842 8.97241 9.00144 8.97624 9.01868 8.98007C9.06849 8.99156 9.10775 9.01072 9.1384 9.03658C9.16331 9.06818 9.18821 9.10075 9.21215 9.13331C9.24663 9.20515 9.26004 9.29039 9.27824 9.37084ZM7.93257 11.6906C7.87511 11.7461 7.81573 11.8007 7.75443 11.8524C7.61907 11.9654 7.44156 11.9827 7.22191 11.9041C7.25256 11.8419 7.28034 11.7863 7.30715 11.7327C7.50828 11.6273 7.71803 11.6532 7.93257 11.6906ZM9.63836 13.7823C9.6805 13.7306 9.75042 13.677 9.85864 13.609C9.90366 13.676 9.94676 13.745 9.98794 13.8139C9.92952 13.8647 9.87014 13.9145 9.80884 13.9633C9.74467 13.902 9.68816 13.8417 9.63932 13.7823H9.63836ZM10.6967 10.2711C10.5961 9.85643 10.6402 9.5442 10.825 9.27698C10.8643 9.45512 10.8988 9.63518 10.9237 9.81524C10.9285 9.84685 10.9285 9.8775 10.9266 9.90815C10.8518 10.026 10.7752 10.1466 10.6967 10.2721V10.2711ZM11.3872 13.7517C11.4188 13.6789 11.4552 13.6061 11.4907 13.5333C11.5098 13.5438 11.529 13.5544 11.5481 13.5659C11.5644 13.5754 11.573 13.5975 11.5788 13.6262C11.5721 13.6808 11.5644 13.7363 11.5558 13.7909C11.4964 13.7794 11.4399 13.767 11.3872 13.7526V13.7517ZM11.5932 12.3083C11.7052 12.315 11.801 12.3208 11.8853 12.3265C11.9236 12.4271 11.9724 12.5267 12.0079 12.6282C11.937 12.6263 11.8671 12.6253 11.7962 12.6234C11.7225 12.5238 11.6564 12.4175 11.5932 12.3083ZM12.8287 13.1665C12.7703 13.0927 12.7358 13.0084 12.7157 12.9194C12.7521 12.9989 12.7865 13.0755 12.8287 13.1665ZM12.482 13.0228C12.4542 13.0266 12.4255 13.0305 12.3977 13.0343C12.3699 12.9615 12.3431 12.8878 12.3153 12.814C12.367 12.8121 12.4188 12.8102 12.4714 12.8083C12.4772 12.8791 12.481 12.95 12.482 13.0228ZM12.8928 10.7098C12.9905 10.636 13.0863 10.5633 13.1821 10.4905C13.1036 10.6006 13.0107 10.6744 12.9005 10.7155C12.8976 10.7136 12.8948 10.7117 12.8919 10.7088L12.8928 10.7098ZM13.343 9.80088C13.2041 9.74341 13.0662 9.63614 12.8996 9.59208C13.2712 9.32965 13.4991 9.59687 13.7529 9.74628C13.6868 9.79704 13.6255 9.82291 13.5671 9.83344C13.4934 9.82195 13.4177 9.81141 13.343 9.80088ZM14.6848 8.57015C14.9406 8.1947 15.2643 8.2991 15.6292 8.40541C15.3304 8.7866 15.022 8.74542 14.6848 8.57015ZM18.5188 6.32801C18.31 6.57607 18.1117 6.83659 17.7947 6.90842C17.7765 6.87298 17.7583 6.83755 17.7401 6.80307C17.9997 6.64503 18.2592 6.48604 18.5188 6.32801ZM16.9921 7.20629C17.1396 7.15361 17.2861 7.10093 17.4892 7.02814C17.3302 7.35953 17.3053 7.36911 16.9921 7.20629ZM17.1817 6.62971C17.1396 6.88926 17.016 6.9496 16.8197 6.97451C16.8321 6.73123 17.0093 6.73506 17.1817 6.62971ZM16.8618 7.58843C16.6837 7.84033 16.4787 7.77903 16.2517 7.67942C16.4328 7.44573 16.6348 7.48308 16.8618 7.58843ZM16.5343 6.91991C16.5486 7.2331 16.3188 7.30589 16.0918 7.39784C16.1039 7.14818 16.2514 6.98887 16.5343 6.91991ZM16.269 7.97441C16.0382 8.32879 15.769 8.21003 15.4673 8.10946C15.7096 7.85374 15.9558 7.79723 16.269 7.97441ZM15.7738 7.25992C15.7227 7.50064 15.6043 7.66378 15.4185 7.74934C15.3776 7.46009 15.4961 7.29695 15.7738 7.25992ZM14.7969 7.65165C14.9118 7.5961 15.0277 7.53863 15.1848 7.46201C15.126 7.84831 14.9185 8.09988 14.5622 8.21673C14.478 7.81638 14.4827 7.80393 14.7969 7.65165ZM14.8448 8.89483C14.7298 9.10809 14.485 9.10809 14.1102 8.89483C14.386 8.6257 14.6101 8.84598 14.8448 8.89483ZM14.363 7.91408C14.272 8.15543 14.3429 8.43414 14.047 8.57302C13.9943 8.02039 13.9972 8.01177 14.363 7.91408ZM14.3132 9.30954C14.1459 9.51387 13.8701 9.49439 13.4857 9.25112C13.5834 9.18312 13.6744 9.1199 13.7778 9.04903C13.9579 9.13714 14.1332 9.22239 14.3132 9.30954ZM13.7682 8.13436C13.7922 8.67646 13.7433 8.77702 13.3622 8.93889C13.4924 8.64677 13.2156 8.22631 13.7682 8.13436ZM13.0451 9.09979C13.094 8.96283 13.1428 8.82587 13.1917 8.68891C13.184 8.85556 13.138 8.98677 13.0451 9.09979ZM12.2866 8.45042C12.2195 8.45521 12.1515 8.46 12.0787 8.46479C12.3278 7.92078 12.821 8.20524 13.2013 7.94664C13.1831 8.00889 13.1668 8.06253 13.1524 8.11137C12.867 8.22248 12.5787 8.33358 12.2856 8.44947L12.2866 8.45042ZM12.4532 7.82021C12.686 7.5597 13.0116 7.55587 13.3306 7.49266C13.253 7.80776 13.1955 7.83075 12.4532 7.82021ZM12.754 7.3806C12.8593 6.88352 13.2281 6.9611 13.5978 6.86915C13.4541 7.38922 13.049 7.21874 12.754 7.3806ZM13.1534 6.67856C13.1888 6.29832 13.4934 6.27246 13.7682 6.19967C13.7615 6.63162 13.7089 6.67281 13.1534 6.67856ZM13.5058 6.06271C13.5662 5.73803 13.7366 5.62022 14.0316 5.62022C14.0115 5.97651 13.7328 5.95353 13.5058 6.06271ZM13.8659 5.34822C13.8535 5.32044 13.8401 5.29267 13.8276 5.26585C13.9493 5.19689 14.0709 5.12697 14.2395 5.03215C14.1826 5.21413 14.0581 5.31948 13.8659 5.34822ZM14.4645 3.75641C14.408 3.87996 14.3515 4.00351 14.2941 4.12706C14.1188 3.8905 14.3343 3.85027 14.4645 3.75641ZM14.3956 4.56093C14.4186 4.582 14.4406 4.60307 14.4636 4.62415C14.3927 4.7113 14.3218 4.7975 14.25 4.88466C14.2165 4.85305 14.183 4.82049 14.1494 4.78888C14.2318 4.71322 14.3142 4.6366 14.3956 4.56093ZM14.0824 4.29276C14.0355 4.43451 13.9895 4.5753 13.9426 4.71705C13.7252 4.46994 13.8267 4.35214 14.0824 4.29276ZM13.5748 4.75823C13.7012 4.92009 13.7635 5.0628 13.5614 5.23903C13.4608 5.06184 13.3124 4.91052 13.5748 4.75823ZM13.2405 5.17965C13.3286 5.39706 13.5183 5.59245 13.2376 5.83285C13.0735 5.55956 13.0745 5.34183 13.2405 5.17965ZM12.7731 5.68248C13.0902 6.01865 13.0959 6.19105 12.7932 6.6163C12.6917 6.43049 12.6103 6.28108 12.5097 6.09623C12.5912 5.96885 12.6802 5.82902 12.7731 5.68248ZM12.3182 6.31652C12.6505 6.80019 12.6678 6.89788 12.4743 7.15744C12.2151 6.80179 12.163 6.52148 12.3182 6.31652ZM11.9676 6.78678C12.1142 7.09135 12.4417 7.34229 12.1487 7.78382C12.0222 7.5846 11.9025 7.41699 11.8048 7.23789C11.6841 7.01665 11.6918 7.01186 11.9676 6.78583V6.78678ZM11.9858 8.18512C11.9504 8.19853 11.915 8.21194 11.8795 8.22535C11.8633 8.1449 11.8479 8.06732 11.8345 7.98974C11.8125 7.86523 11.7905 7.74168 11.7684 7.61717C11.8642 7.80585 11.9504 7.98687 11.9858 8.18417V8.18512ZM11.4236 7.00515C11.2091 7.26662 10.9936 7.5281 10.7781 7.79052C10.7427 7.81351 10.7072 7.83745 10.6708 7.86236C10.6172 7.26662 11.1871 7.26854 11.3882 6.85574C11.4016 6.91225 11.4131 6.9611 11.4236 7.00515ZM10.6747 7.11626C10.7475 6.77433 11.0281 6.6096 11.2742 6.39697C11.3633 6.7092 11.325 6.75709 10.6747 7.11626ZM10.7178 6.58565C10.5626 6.10102 10.9208 5.98609 11.1957 5.7227C11.3288 6.24564 10.893 6.29832 10.7178 6.58565ZM10.7158 5.77825C10.5578 5.43058 10.8097 5.25627 11.0118 5.05706C11.2206 5.43537 11.1947 5.49763 10.7158 5.77825ZM10.7158 5.06855C10.6076 4.75727 10.6957 4.56955 10.9524 4.42301C11.1124 4.74195 10.8586 4.86071 10.7158 5.06855ZM10.7427 3.3235C10.7724 3.3302 10.803 3.33786 10.8327 3.34457C10.8145 3.45567 10.7953 3.56581 10.7771 3.67691C10.7321 3.66542 10.6871 3.65488 10.6421 3.64339C10.6756 3.53708 10.7091 3.42981 10.7427 3.3235ZM10.8404 3.80909C10.8812 3.99489 10.8254 4.14845 10.6727 4.26977C10.6478 4.25253 10.6229 4.23433 10.599 4.21709C10.6708 4.09642 10.7417 3.97574 10.8404 3.81004V3.80909ZM10.4027 2.58985C10.4151 2.72489 10.4266 2.85994 10.4391 2.99594C10.1699 2.87718 10.3366 2.73543 10.4027 2.58985ZM10.3375 3.24592C10.3672 3.3915 10.3969 3.53804 10.4266 3.68362C10.1153 3.57731 10.145 3.42406 10.3375 3.24592ZM10.1287 3.90199C10.3193 3.97957 10.4438 4.07343 10.3557 4.32532C10.1795 4.22092 9.97645 4.16442 10.1287 3.90199ZM10.0473 4.43355C10.2322 4.57817 10.4936 4.65384 10.3691 5.00246C10.0907 4.84667 9.98347 4.65703 10.0473 4.43355ZM9.89121 5.10303C10.3337 5.23712 10.4247 5.38365 10.372 5.90372C10.191 5.79262 10.0473 5.70355 9.86822 5.59341C9.87588 5.44208 9.88355 5.27734 9.89217 5.10303H9.89121ZM9.81076 5.87882C10.3394 6.13454 10.4036 6.20925 10.3643 6.53106C9.96272 6.351 9.77819 6.13359 9.81076 5.87882ZM9.73988 6.46114C10.0186 6.6527 10.4276 6.70825 10.3921 7.23693C10.1833 7.12679 9.99656 7.04155 9.82225 6.93428C9.60771 6.80211 9.6125 6.79445 9.73892 6.46114H9.73988ZM9.61824 7.03293C9.91994 7.26279 10.235 7.40933 10.4505 7.66601C10.4266 7.6957 10.4017 7.72539 10.3778 7.75509C10.1287 7.62579 9.87971 7.49745 9.63165 7.36719C9.48224 7.28865 9.53396 7.18905 9.61824 7.03389V7.03293ZM10.4151 8.14011C10.4295 8.15256 10.4266 8.18417 10.4199 8.22439C10.4055 8.24163 10.3912 8.25887 10.3768 8.27611C10.2101 8.08839 10.0454 7.90258 9.88259 7.71965C10.0722 7.84224 10.2465 7.98782 10.4151 8.14011ZM9.0953 7.26184C9.17863 7.35761 9.2361 7.44669 9.27153 7.53576C9.23131 7.77424 9.19012 8.01273 9.1499 8.25217C9.14032 8.27132 9.12978 8.28952 9.11925 8.30963C9.01485 7.96388 9.06849 7.6459 9.0953 7.26184ZM8.68729 6.74081C8.84724 6.90842 8.89705 7.30589 8.80414 7.81543C8.63941 7.60344 8.60046 7.24523 8.68729 6.74081ZM8.22182 6.20063C8.59726 6.47264 8.35878 6.77912 8.37315 7.0473C8.13275 6.8136 8.19692 6.53297 8.22182 6.20063ZM8.53597 7.9543C8.15573 8.08168 7.83009 7.88534 7.50158 7.79435C7.4173 7.77137 7.38377 7.56449 7.32631 7.4419C7.35313 7.42083 7.37994 7.39975 7.40676 7.37868C7.79561 7.52714 8.28886 7.45626 8.53693 7.9543H8.53597ZM7.96705 5.8271C7.9728 5.97843 7.97951 6.13071 7.98717 6.32227C7.855 6.17669 7.84829 6.01163 7.96705 5.8271ZM7.4738 5.20455C7.65482 5.34247 7.66536 5.50433 7.61555 5.70451C7.47317 5.58574 7.42592 5.41909 7.4738 5.20455ZM7.14433 5.09632C7.07154 4.91052 7.03132 4.80708 6.96331 4.63372C7.22862 4.73141 7.20563 4.85976 7.14433 5.09632ZM6.17699 4.22188C6.20764 4.20656 6.23924 4.19219 6.26989 4.17687C6.32257 4.26881 6.37525 4.36076 6.42792 4.4527C6.38291 4.4709 6.33885 4.49006 6.29384 4.50826C6.25552 4.41248 6.21626 4.3167 6.17795 4.22188H6.17699ZM6.43367 4.81378C6.76889 4.83102 6.86179 5.0877 6.97385 5.34055C6.49497 5.36833 6.38578 5.25819 6.43367 4.81378ZM6.67407 5.65279C7.18647 5.63555 7.19605 5.64034 7.32535 6.0244C6.79283 6.08953 6.7459 6.06271 6.67407 5.65279ZM6.94224 6.33376C7.20946 6.351 7.51882 6.24852 7.73815 6.65557C7.42017 6.51765 7.11464 6.6345 6.94224 6.33376ZM7.07633 6.80402C7.16445 6.77912 7.19222 6.75997 7.21233 6.76571C7.66759 6.90363 7.9546 7.06805 8.07337 7.25896C7.76975 7.21874 7.50733 7.1833 7.2018 7.14307C7.15104 7.00707 7.11368 6.90459 7.07633 6.80402ZM8.65569 8.39487C8.41529 8.31442 8.17585 8.23397 7.93928 8.15447C8.19117 8.2129 8.43444 8.26079 8.65569 8.39487ZM7.50541 8.92356C7.25703 8.8214 7.04536 8.52992 6.87041 8.04912C7.09165 8.11521 7.33301 8.43606 7.50541 8.92356ZM6.74973 8.4715C6.42505 8.38817 6.34172 8.11233 6.19806 7.81159C6.65874 7.8614 6.60415 8.24642 6.74973 8.4715ZM5.79101 7.61429C5.87146 7.74264 5.95191 7.87193 6.05439 8.0338C5.86731 7.97314 5.77951 7.8333 5.79101 7.61429ZM5.42418 7.6823C5.24157 7.64973 5.1177 7.52841 5.05257 7.31834C5.27764 7.34803 5.36767 7.48308 5.42418 7.6823ZM4.71448 7.38826C4.55932 7.26279 4.47216 7.19288 4.3285 7.07699C4.60721 7.03006 4.65126 7.15265 4.71448 7.38826ZM3.68296 7.3011C3.60155 7.23693 3.5211 7.17372 3.43969 7.10955C3.45884 7.08082 3.478 7.05304 3.49811 7.02431C3.5891 7.07794 3.68105 7.13158 3.77203 7.18617C3.74234 7.22448 3.71265 7.26279 3.68296 7.3011ZM3.95688 7.49649C4.25571 7.34516 4.4645 7.52139 4.68766 7.68613C4.2854 7.94855 4.13599 7.90737 3.95688 7.49649ZM4.58231 8.10563C5.01809 7.83554 5.02958 7.83554 5.33224 8.10563C4.9022 8.42648 4.84761 8.42648 4.58231 8.10563ZM5.15313 8.56344C5.39353 8.44564 5.61191 8.20236 6.00363 8.44755C5.65884 8.4849 5.45196 8.73871 5.15313 8.56344ZM5.50272 8.90441C5.56593 8.83928 5.58126 8.80863 5.60233 8.80384C6.06589 8.69721 6.39664 8.69721 6.59457 8.80384C6.31107 8.91973 6.06589 9.01934 5.78047 9.13523C5.66937 9.04233 5.58509 8.97241 5.50272 8.90345V8.90441ZM6.0362 9.33349C6.04865 9.30188 6.06206 9.27027 6.07451 9.23867C6.48539 9.1745 6.87807 8.86897 7.34067 9.17737C7.07442 9.47619 6.69418 9.46757 6.36279 9.55281C6.27755 9.57484 6.14634 9.41202 6.03524 9.33349H6.0362ZM6.52274 9.74724C7.01695 9.66392 7.40197 9.41202 7.90767 9.53462C7.91342 9.60453 7.89618 9.65625 7.85404 9.69744C7.78987 9.72809 7.72761 9.75778 7.66632 9.78747C7.61172 9.80279 7.54947 9.81716 7.47476 9.83152C7.24969 9.87462 7.0227 9.91581 6.79666 9.95412C6.71908 9.8957 6.63193 9.82961 6.5237 9.74724H6.52274ZM7.30715 10.6083C7.36175 10.6504 7.40868 10.6878 7.4489 10.7232C7.39144 10.683 7.32918 10.6341 7.26309 10.5738C7.27746 10.5853 7.29279 10.5968 7.30715 10.6083ZM7.17115 10.8659C6.67598 10.932 6.55339 10.5968 6.36663 10.3497C6.70472 10.3707 6.93362 10.5594 7.17115 10.8659ZM6.42409 10.8477C6.018 10.9377 5.93755 10.6169 5.79484 10.3803C6.09749 10.3966 6.24595 10.6188 6.42409 10.8477ZM5.71439 10.8142C5.48133 10.8627 5.26009 10.7539 5.05065 10.4876C5.49027 10.3755 5.49889 10.3803 5.71439 10.8142ZM4.99031 10.8228C4.70777 10.8784 4.65893 10.661 4.48749 10.5594C4.8093 10.4311 4.82845 10.6935 4.99031 10.8228ZM3.44831 10.8822C3.22228 10.977 3.12458 10.9157 3.0767 10.729C3.18205 10.7721 3.28645 10.8152 3.44831 10.8822ZM2.42541 10.7979C2.53843 10.8314 2.65049 10.865 2.76351 10.8985C2.75297 10.9349 2.74243 10.9722 2.73094 11.0086C2.61793 10.9761 2.50587 10.9425 2.39285 10.91C2.40339 10.8726 2.41488 10.8353 2.42541 10.7979ZM1.32111 11.4138C1.57779 11.2174 1.77413 11.273 2.02315 11.2768C1.81723 11.5622 1.60078 11.3745 1.32111 11.4138ZM1.75593 11.0278C1.75593 10.9952 1.75498 10.9636 1.75402 10.931C1.85842 10.9282 1.96185 10.9243 2.05859 10.9215C2.07104 10.9626 2.07583 10.9761 2.07966 10.9895C1.97143 11.0019 1.86416 11.0144 1.75593 11.0278ZM2.2329 11.4578C2.3373 11.2145 2.5346 11.1858 2.76542 11.1829C2.64219 11.4141 2.46468 11.5057 2.2329 11.4578ZM2.89376 11.498C3.09681 11.2701 3.24143 11.0479 3.55558 11.1801C3.39851 11.589 3.36115 11.6101 2.89376 11.498ZM4.41087 10.8583C4.11396 10.9435 3.85919 10.9358 3.65327 10.6868C4.04308 10.4886 4.09289 10.4981 4.41087 10.8583ZM3.66476 11.5747C3.81897 11.2385 4.04787 11.0575 4.43864 11.1494C4.22219 11.6838 4.16568 11.7145 3.66476 11.5747ZM4.44056 11.6312C4.6436 11.43 4.70394 11.0795 5.1062 11.135C4.95488 11.5823 4.78727 11.7116 4.44056 11.6312ZM5.07843 11.7145C5.33894 11.204 5.4692 11.1101 5.89828 11.1609C5.76323 11.3486 5.65309 11.4961 5.54869 11.6475C5.41269 11.8448 5.25753 11.8371 5.07843 11.7145ZM5.75653 11.8457C6.05535 11.2394 6.1904 11.137 6.61181 11.1916C6.44229 11.408 6.30054 11.6225 6.12144 11.8007C6.05918 11.862 5.9069 11.8313 5.75749 11.8467L5.75653 11.8457ZM6.46719 11.8706C6.67503 11.3113 6.94799 11.1015 7.39048 11.1801C7.3129 11.2873 7.23628 11.3917 7.15966 11.4961C6.99875 11.6321 6.83689 11.7672 6.67407 11.9003C6.60607 11.8907 6.53711 11.8802 6.46719 11.8706ZM7.60214 12.383C7.20467 12.6866 6.93171 12.4558 6.64725 12.3342C6.95086 12.1848 7.24298 12.2355 7.60214 12.383ZM3.19259 14.9709C3.22419 15.0006 3.23473 15.0102 3.24431 15.0197C3.15715 15.0839 3.06999 15.149 2.98188 15.2132C2.96559 15.1854 2.94931 15.1577 2.93207 15.1299C3.02115 15.0753 3.10926 15.0207 3.19163 14.9709H3.19259ZM2.79703 15.7639C2.9225 15.4661 3.12075 15.4163 3.33817 15.2965C3.30177 15.6461 3.02019 15.5915 2.79703 15.7639ZM3.45022 14.6807C3.5642 14.6539 3.67913 14.6271 3.79311 14.6002C3.80173 14.6376 3.8113 14.675 3.81992 14.7113C3.70595 14.7391 3.59197 14.7659 3.47704 14.7937C3.46842 14.7564 3.45884 14.7181 3.45022 14.6807ZM3.61017 15.3492C3.57952 15.0868 3.7366 14.9632 3.93581 14.8454C3.94411 15.1072 3.83557 15.2752 3.61017 15.3492ZM3.97987 14.2976C4.09289 14.2832 4.20495 14.2689 4.3783 14.2459C4.22889 14.4403 4.11396 14.4355 3.97987 14.2976ZM4.20303 15.0561C4.26624 14.7583 4.28061 14.493 4.61966 14.4518C4.6867 14.8847 4.66372 14.9211 4.20303 15.0561ZM4.46067 13.9739C4.70011 13.608 4.748 13.5927 5.20294 13.7469C4.98744 13.9681 4.76237 14.0878 4.46067 13.9739ZM4.91082 14.7391C4.8773 14.3704 4.98648 14.1003 5.37151 13.9854C5.44813 14.5562 5.41461 14.6117 4.91082 14.7391ZM5.12153 13.45C5.33703 13.1789 5.48452 13.3973 5.68853 13.4289C5.47111 13.6176 5.32074 13.4528 5.12153 13.45ZM5.61191 14.4029C5.68853 14.1271 5.56593 13.7938 5.94329 13.6425C6.03428 14.106 5.95287 14.3014 5.61191 14.4029ZM5.57359 13.1071C5.89924 12.792 5.90881 12.792 6.31203 13.0611C6.13389 13.2188 5.88774 13.2342 5.57359 13.1071ZM6.58212 13.8676C6.56201 14.106 6.42313 14.1769 6.20668 14.1587C6.17986 13.586 6.24595 13.4404 6.64342 13.2709C6.61948 13.5007 6.59649 13.6837 6.58212 13.8676ZM6.16645 12.6464C6.4375 12.5104 6.67598 12.6292 6.94512 12.7393C6.63767 13.019 6.40877 12.7805 6.16645 12.6464ZM7.15487 13.7153C7.13188 13.7996 6.98343 13.8484 6.86179 13.9356C6.82061 13.2603 6.88669 13.1052 7.27842 12.9433C7.23915 13.2153 7.22191 13.472 7.15487 13.7153ZM7.49009 13.6051C7.39239 13.0161 7.52648 12.6991 7.94886 12.5478C7.92779 12.7374 7.90671 12.9222 7.8866 13.109C7.83871 13.2431 7.79178 13.3743 7.74581 13.5046C7.66153 13.5381 7.57724 13.5716 7.49104 13.6051H7.49009ZM8.19596 13.5553C8.41529 13.5132 8.63366 13.4691 8.85203 13.4251C8.86831 13.4548 8.88364 13.4835 8.89992 13.5132C8.65952 13.8513 8.24289 13.811 7.89043 13.9652C7.86074 13.8541 7.85978 13.7689 7.89043 13.7057C7.99196 13.6549 8.09348 13.6051 8.195 13.5553H8.19596ZM8.5896 14.0007C8.57332 14.0888 8.5829 14.1827 8.54076 14.2353C8.45168 14.3455 8.05996 14.4125 7.69505 14.401C7.80104 14.2331 8.09923 14.0997 8.5896 14.0007ZM8.27162 14.6491C8.09923 14.9345 8.03793 14.9642 7.54085 15.0035C7.59544 14.6606 7.63471 14.6414 8.27162 14.6491ZM7.9728 15.378C7.70463 15.4574 7.51116 15.5149 7.28512 15.582C7.40293 15.2774 7.58395 15.218 7.9728 15.378ZM7.58395 15.7955C7.47764 16.081 7.24681 16.0675 7.0476 16.1652C7.11592 15.9284 7.2947 15.8051 7.58395 15.7955ZM7.27459 16.3108C7.21776 16.5681 7.06165 16.6955 6.80624 16.693C6.82252 16.3568 7.06867 16.3798 7.27459 16.3108ZM6.92021 16.9477C6.94224 16.9784 6.96427 17.01 6.98534 17.0406C6.87328 17.1211 6.76027 17.2006 6.60319 17.3126C6.60224 17.0042 6.75261 16.9669 6.91926 16.9477H6.92021ZM6.32736 18.2934C6.20955 18.507 6.08696 18.7177 5.96628 18.9294C6.05248 18.666 6.01225 18.3327 6.3446 18.1354C6.33693 18.2216 6.3446 18.2637 6.32831 18.2934H6.32736ZM6.44899 17.8136C6.42122 17.7887 6.39249 17.7638 6.36471 17.7398C6.43463 17.6584 6.5055 17.5779 6.57542 17.4965C6.60415 17.5224 6.63384 17.5473 6.66258 17.5732C6.5917 17.6536 6.51987 17.7331 6.44899 17.8136ZM6.84742 18.1526C6.68269 17.9237 6.86275 17.8049 6.94129 17.6028C7.11368 17.8883 7.01503 18.0137 6.84742 18.1526ZM7.24969 17.6C7.09453 17.372 7.1223 17.1891 7.33397 16.9621C7.42113 17.2331 7.51499 17.4314 7.24969 17.6ZM7.66727 17.0387C7.55617 16.873 7.36079 16.7236 7.56575 16.4602C7.69505 16.648 7.75251 16.8242 7.66727 17.0387ZM7.90384 15.9335C7.95939 16.1413 8.01494 16.3501 8.08582 16.6163C7.79274 16.421 7.72857 16.2112 7.90384 15.9335ZM8.33675 16.1873C8.18255 15.8702 7.92012 15.6193 8.22757 15.2458C8.41433 15.5609 8.55608 15.8281 8.33675 16.1873ZM8.81755 15.6672C8.53724 15.1985 8.45998 14.8697 8.58577 14.6807C8.63462 15.0035 8.93057 15.2352 8.81755 15.6672ZM9.10967 15.1136C8.83671 14.9891 8.88843 14.673 8.75434 14.4681C8.7122 14.4039 8.78307 14.2669 8.82042 14.061C8.99953 14.3474 9.12212 14.537 9.23801 14.7315C9.33283 14.8914 9.25142 15.0035 9.10871 15.1136H9.10967ZM8.95547 13.8522C9.01677 13.7459 9.07136 13.6492 9.14128 13.5266C9.19778 13.6061 9.24759 13.6808 9.29643 13.7536C9.34528 14.0246 9.39221 14.2861 9.43723 14.5447C9.27919 14.3129 9.11925 14.0859 8.95451 13.8522H8.95547ZM9.73509 14.6817C9.95251 14.3991 10.1757 14.1127 10.4065 13.8158C10.4103 13.8178 10.4132 13.8197 10.417 13.8225C10.3758 14.2344 9.99369 14.4068 9.76574 14.7161C9.75425 14.7046 9.74563 14.6932 9.73509 14.6826V14.6817ZM9.81267 15.1912C9.82161 14.9933 10.0141 14.7295 10.3902 14.4001C10.4199 14.4853 10.4745 14.5619 10.464 14.628C10.441 14.7679 10.1345 15.0207 9.81267 15.1921V15.1912ZM10.4352 15.1203C10.4276 15.4536 10.3883 15.5101 9.97645 15.7908C9.85386 15.4661 9.8778 15.4297 10.4352 15.1203ZM10.0435 16.421C9.99465 16.0982 10.122 15.9564 10.5396 15.9028C10.3461 16.1049 10.2073 16.2514 10.0435 16.421ZM10.4084 16.4574C10.4572 16.7581 10.2504 16.8606 10.1259 17.0445C10.0678 16.805 10.1619 16.6093 10.4084 16.4574ZM10.396 17.0588C10.4745 17.3104 10.4023 17.4984 10.1795 17.623C10.0263 17.3232 10.2523 17.2197 10.396 17.0588ZM10.4046 17.7867C10.4391 17.803 10.4735 17.8193 10.508 17.8346C10.4505 17.9601 10.3921 18.0856 10.3117 18.2608C10.1575 17.9936 10.2695 17.8863 10.4046 17.7867ZM10.3787 18.4342C10.4161 18.4419 10.4544 18.4495 10.4917 18.4572C10.4697 18.5625 10.4477 18.6669 10.4256 18.7723C10.3892 18.7646 10.3519 18.757 10.3155 18.7503C10.3366 18.6449 10.3576 18.5395 10.3778 18.4342H10.3787ZM10.5597 19.981C10.5032 19.709 10.303 19.4398 10.4936 19.1037C10.5291 19.1822 10.5569 19.2157 10.5578 19.2492C10.5616 19.4935 10.5597 19.7368 10.5597 19.981ZM10.94 18.869C10.6833 18.7522 10.781 18.5597 10.7484 18.3451C11.0396 18.507 11.0166 18.666 10.94 18.869ZM11.0147 18.19C10.7666 18.0693 10.7005 17.8969 10.7714 17.5952C10.9821 17.7877 11.1612 17.9122 11.0147 18.19ZM10.7235 17.0426C10.9285 17.1412 11.0664 17.2667 11.099 17.4946C10.9208 17.4065 10.6766 17.373 10.7235 17.0426ZM10.7551 16.4181C10.9064 16.5713 11.0587 16.7246 11.2532 16.9209C10.9017 16.897 10.7417 16.7466 10.7551 16.4181ZM10.6948 15.6605C11.0137 15.8415 11.2694 16.0034 11.257 16.4229C10.9658 16.2246 10.6134 16.1375 10.6948 15.6605ZM10.7245 14.992C10.9266 15.2487 11.3001 15.3023 11.416 15.7333C10.9403 15.4657 10.7098 15.2186 10.7245 14.992ZM11.3939 15.1079C11.0951 15.1356 10.9831 14.8349 10.7647 14.7238C10.6967 14.6893 10.69 14.5351 10.6201 14.3378C10.917 14.4968 11.1191 14.6012 11.3154 14.7123C11.4773 14.8033 11.4619 14.9422 11.393 15.1079H11.3939ZM10.6191 14.0888V13.743C10.8011 13.9365 10.9735 14.1319 11.144 14.3311C10.9697 14.2507 10.8011 14.1712 10.6191 14.0898V14.0888ZM11.87 14.7564C11.779 14.719 11.7253 14.6759 11.6947 14.628C11.7349 14.3311 11.7771 14.0323 11.8202 13.7258C12.0433 14.0725 11.8949 14.3982 11.87 14.7564ZM12.0242 13.4825C12.3728 13.3552 12.6601 13.4375 12.935 13.5266C13.0068 13.5496 13.0384 13.698 13.1208 13.8474C12.7032 13.7641 12.3201 13.8388 12.0242 13.4816V13.4825ZM12.3153 15.4163C11.9313 15.0217 12.1266 14.6299 12.1611 14.244C12.5059 14.402 12.5174 14.7228 12.3153 15.4163ZM12.8229 15.9536C12.5663 15.7869 12.5624 15.763 12.6592 14.9556C12.9771 15.2956 12.8019 15.626 12.8229 15.9536ZM13.2271 16.5493C12.9417 16.2715 13.0423 15.9813 13.0605 15.6327C13.3986 15.9354 13.3114 16.2189 13.2271 16.5493ZM13.7002 17.1393C13.4187 16.9334 13.3727 16.7054 13.5029 16.4325C13.7079 16.6125 13.7737 16.8481 13.7002 17.1393ZM14.1293 17.5942C14.0881 17.6009 14.046 17.6076 14.0048 17.6143C13.9828 17.4621 13.9608 17.3098 13.9282 17.0866C14.1964 17.2561 14.1839 17.4199 14.1293 17.5942ZM14.8295 17.7896C14.8936 17.9074 14.9578 18.0243 15.022 18.1421C14.9932 18.1545 14.9635 18.167 14.9348 18.1785C14.8735 18.0635 14.8132 17.9496 14.7519 17.8346C14.7777 17.8193 14.8036 17.8049 14.8295 17.7896ZM14.6226 18.2982C14.5172 18.1516 14.4109 18.0061 14.3056 17.8595C14.3467 17.8356 14.3889 17.8116 14.4301 17.7877C14.5163 17.9419 14.6025 18.0971 14.6887 18.2513C14.6666 18.2666 14.6436 18.2819 14.6216 18.2972L14.6226 18.2982ZM14.5929 17.4103C14.4799 17.3021 14.408 17.2331 14.3161 17.145C14.4617 17.1157 14.5539 17.2041 14.5929 17.4103ZM14.3774 16.8031C14.0642 16.7476 13.9349 16.556 13.8334 16.3156C14.1322 16.3367 14.3135 16.4992 14.3774 16.8031ZM14.0058 15.9976C13.6619 15.9086 13.3861 15.7658 13.2865 15.3655C13.7188 15.4945 13.9585 15.7052 14.0058 15.9976ZM13.6447 15.2113C13.3679 15.0638 13.003 15.1261 12.8622 14.7257C13.4723 14.6022 13.5279 14.6357 13.6447 15.2113ZM12.4628 14.0419C13.0222 13.9729 13.2242 14.061 13.3277 14.4221C12.6745 14.5121 12.6218 14.4891 12.4628 14.0419ZM13.2089 13.0487C13.1304 12.8849 13.0806 12.7077 13.0183 12.5363C13.4235 12.7211 13.4522 13.0918 13.614 13.427C13.2597 13.4749 13.2846 13.2067 13.2099 13.0487H13.2089ZM13.6112 12.837C13.9895 12.8025 14.159 13.0755 14.3276 13.7785C13.7979 13.6272 13.773 13.1895 13.6112 12.837ZM14.3965 13.2077C14.8419 13.3456 14.8534 13.7191 15.0344 13.993C14.7289 13.9758 14.7136 13.9566 14.3965 13.2077ZM15.0813 13.5965C15.5258 13.6913 15.5899 13.9806 15.6809 14.31C15.2959 14.2104 15.2384 13.9087 15.0813 13.5965ZM15.8619 14.0706C16.1295 14.1255 16.3038 14.2976 16.3849 14.5868C16.0382 14.5476 15.8849 14.3723 15.8619 14.0706ZM17.6874 14.5897C17.8014 14.6596 17.9154 14.7295 18.0294 14.8004C18.0102 14.8253 17.991 14.8502 17.9719 14.8761C17.8617 14.8071 17.7526 14.7372 17.6424 14.6682C17.6577 14.6424 17.6721 14.6165 17.6874 14.5907V14.5897ZM17.7966 15.0619C17.7851 15.0858 17.7727 15.1107 17.7612 15.1347C17.5974 15.06 17.4327 14.9862 17.2689 14.9115C17.2928 14.8703 17.3177 14.8292 17.3417 14.788C17.493 14.879 17.6453 14.9709 17.7966 15.0619ZM17.2938 14.378C17.1415 14.3397 17.0457 14.3158 16.9222 14.2851C17.0339 14.1874 17.1578 14.2184 17.2938 14.378ZM16.9835 14.7679C16.9509 14.7947 16.9174 14.8205 16.8848 14.8474C16.79 14.7257 16.6952 14.605 16.5563 14.4269C16.8733 14.4403 16.9432 14.5897 16.9825 14.7679H16.9835ZM16.8063 13.9585C16.5075 14.0658 16.2996 13.9643 16.0928 13.8053C16.3628 13.675 16.6007 13.7261 16.8063 13.9585ZM16.0832 13.4433C15.7412 13.5371 15.43 13.5496 15.1446 13.2517C15.5839 13.1489 15.8967 13.2128 16.0832 13.4433ZM15.3792 12.9404C15.066 12.95 14.7797 13.1847 14.4588 12.9079C14.9262 12.497 14.9923 12.4999 15.3792 12.9404ZM14.7117 12.4127C14.1897 12.815 14.1322 12.8217 13.7721 12.5123C14.2232 12.1742 14.4425 12.1512 14.7117 12.4127ZM14.2471 12.0181C13.8439 12.1532 13.548 12.4089 13.1141 12.2451C13.2731 12.0574 13.4541 11.9635 13.6399 11.9041C13.7644 11.8879 13.888 11.8716 14.0115 11.8553C14.0738 11.8907 14.1504 11.9597 14.2471 12.0191V12.0181ZM13.4129 11.1006C13.4962 11.1312 13.5575 11.1839 13.6073 11.2471C13.5422 11.1983 13.4771 11.1494 13.4129 11.1006ZM13.8324 11.069C13.9512 11.0584 14.0613 11.0488 14.1868 11.0383C14.2998 11.204 14.409 11.3649 14.522 11.5306C14.2755 11.6245 14.0457 11.4706 13.8324 11.069ZM14.5517 11.069C14.9252 10.9722 15.0095 11.2749 15.1896 11.4339C14.984 11.5622 14.7714 11.4406 14.5517 11.069ZM15.2116 11.0728C15.6206 10.8736 15.8495 11.1255 16.1129 11.3984C15.6637 11.5804 15.4166 11.3917 15.2116 11.0728ZM16.1196 11.0623C16.4567 10.9607 16.699 11.0335 16.8829 11.3429C16.5065 11.5364 16.3322 11.2988 16.1196 11.0623ZM17.0141 11.0776C17.2871 10.9646 17.4442 11.0977 17.5888 11.3017C17.3091 11.432 17.1616 11.2768 17.0141 11.0776ZM17.0151 10.7539C17.1492 10.5431 17.3564 10.478 17.6367 10.5585C17.494 10.8381 17.2584 10.7864 17.0151 10.7539ZM18.3435 10.6284C18.1778 10.8333 18.0408 10.8238 17.8579 10.7481C17.9901 10.5431 18.1414 10.6341 18.3435 10.6284ZM17.8914 11.0345C18.0456 11.0623 18.1989 11.0891 18.4105 11.1264C18.1079 11.3352 18.0811 11.3314 17.8914 11.0345ZM18.7362 11.1753C18.7381 11.136 18.7391 11.0958 18.741 11.0565C19.0446 11.0479 19.3492 11.0393 19.6528 11.0306C19.3492 11.1427 19.0475 11.2701 18.7362 11.1753Z" fill="url(#paint0_linear_6144_29410)"/>
<defs>
<linearGradient id="paint0_linear_6144_29410" x1="0.0233342" y1="10.9981" x2="20.9774" y2="10.9981" gradientUnits="userSpaceOnUse">
<stop stop-color="#AF8944"/>
<stop offset="1" stop-color="#F6CA75"/>
</linearGradient>
</defs>
</svg>
