<svg width="35" height="35" viewBox="0 0 35 35" fill="none" xmlns="http://www.w3.org/2000/svg">
<path d="M24.7916 21.1451V16.7619C24.7916 16.5002 24.7916 16.3693 24.7518 16.2538C24.7165 16.1516 24.659 16.0585 24.5834 15.9813C24.4979 15.894 24.3808 15.8355 24.1467 15.7184L17.5 12.3951M5.83329 13.8534V23.7797C5.83329 24.3221 5.83329 24.5933 5.9179 24.8307C5.9927 25.0406 6.11461 25.2306 6.27426 25.386C6.45486 25.5619 6.7014 25.6749 7.19443 25.9009L16.5278 30.1786C16.8854 30.3425 17.0642 30.4245 17.2505 30.4568C17.4156 30.4855 17.5843 30.4855 17.7494 30.4568C17.9357 30.4245 18.1145 30.3425 18.4722 30.1786L27.8055 25.9009C28.2985 25.6749 28.5451 25.5619 28.7257 25.386C28.8853 25.2306 29.0072 25.0406 29.082 24.8307C29.1666 24.5933 29.1666 24.3221 29.1666 23.7797V13.8534M2.91663 12.3951L16.9782 5.36426C17.1695 5.26861 17.2652 5.22078 17.3655 5.20196C17.4544 5.18529 17.5456 5.18529 17.6344 5.20196C17.7347 5.22078 17.8304 5.26861 18.0217 5.36426L32.0833 12.3951L18.0217 19.4258C17.8304 19.5215 17.7347 19.5693 17.6344 19.5882C17.5456 19.6048 17.4544 19.6048 17.3655 19.5882C17.2652 19.5693 17.1695 19.5215 16.9782 19.4258L2.91663 12.3951Z" stroke="black" stroke-width="2" stroke-linecap="round" stroke-linejoin="round"/>
</svg>
