<svg width="35" height="35" viewBox="0 0 35 35" fill="none" xmlns="http://www.w3.org/2000/svg">
<path d="M11.6666 20.416C11.6666 20.416 13.8541 23.3327 17.5 23.3327C21.1458 23.3327 23.3333 20.416 23.3333 20.416M21.875 13.1243H21.8895M11.6666 13.1243H14.5833M32.0833 17.4993C32.0833 25.5535 25.5541 32.0827 17.5 32.0827C9.44581 32.0827 2.91663 25.5535 2.91663 17.4993C2.91663 9.4452 9.44581 2.91602 17.5 2.91602C25.5541 2.91602 32.0833 9.4452 32.0833 17.4993ZM22.6041 13.1243C22.6041 13.5271 22.2777 13.8535 21.875 13.8535C21.4723 13.8535 21.1458 13.5271 21.1458 13.1243C21.1458 12.7216 21.4723 12.3952 21.875 12.3952C22.2777 12.3952 22.6041 12.7216 22.6041 13.1243Z" stroke="black" stroke-width="2" stroke-linecap="round" stroke-linejoin="round"/>
</svg>
