<svg width="35" height="35" viewBox="0 0 35 35" fill="none" xmlns="http://www.w3.org/2000/svg">
<path d="M22.6705 14.4739C23.2159 13.505 23.6706 12.6307 23.951 11.9653C25.3127 8.73399 23.9662 5.01714 20.6747 3.50099C17.3831 1.98484 14.0778 3.55695 12.6272 6.59237C9.85329 4.68891 6.15293 4.96846 4.11229 7.93886C2.07166 10.9093 2.7121 14.7898 5.50705 16.9073C6.77553 17.8684 9.28423 19.2846 11.6461 20.545M23.7667 17.1347C23.1512 13.8273 20.3369 11.4084 16.7936 12.0658C13.2503 12.7233 10.9592 15.9201 11.4382 19.3937C11.823 22.1845 13.9473 28.7325 14.7676 31.1989C14.8796 31.5355 14.9355 31.7038 15.0464 31.8211C15.1429 31.9234 15.2712 31.9975 15.408 32.0299C15.5651 32.0672 15.7388 32.0316 16.0862 31.9602C18.6324 31.4374 25.3652 30.0031 27.9746 28.941C31.2223 27.619 32.8984 24.0387 31.643 20.6391C30.3876 17.2396 26.9388 16.014 23.7667 17.1347Z" stroke="black" stroke-width="2" stroke-linecap="round" stroke-linejoin="round"/>
</svg>
