<svg width="35" height="35" viewBox="0 0 35 35" fill="none" xmlns="http://www.w3.org/2000/svg">
<path d="M18.9583 7.29167C18.9583 8.9025 15.3672 10.2083 10.9375 10.2083C6.50768 10.2083 2.91663 8.9025 2.91663 7.29167M18.9583 7.29167C18.9583 5.68084 15.3672 4.375 10.9375 4.375C6.50768 4.375 2.91663 5.68084 2.91663 7.29167M18.9583 7.29167V13.7917C17.1769 14.3266 16.0416 15.1359 16.0416 16.0417M2.91663 7.29167V24.7917C2.91663 26.4025 6.50768 27.7083 10.9375 27.7083C12.8765 27.7083 14.6548 27.4581 16.0416 27.0417V16.0417M2.91663 13.125C2.91663 14.7358 6.50768 16.0417 10.9375 16.0417C12.8765 16.0417 14.6548 15.7915 16.0416 15.375M2.91663 18.9583C2.91663 20.5692 6.50768 21.875 10.9375 21.875C12.8765 21.875 14.6548 21.6248 16.0416 21.2083M32.0833 16.0417C32.0833 17.6525 28.4922 18.9583 24.0625 18.9583C19.6327 18.9583 16.0416 17.6525 16.0416 16.0417M32.0833 16.0417C32.0833 14.4308 28.4922 13.125 24.0625 13.125C19.6327 13.125 16.0416 14.4308 16.0416 16.0417M32.0833 16.0417V27.7083C32.0833 29.3192 28.4922 30.625 24.0625 30.625C19.6327 30.625 16.0416 29.3192 16.0416 27.7083V16.0417M32.0833 21.875C32.0833 23.4858 28.4922 24.7917 24.0625 24.7917C19.6327 24.7917 16.0416 23.4858 16.0416 21.875" stroke="black" stroke-width="2" stroke-linecap="round" stroke-linejoin="round"/>
</svg>
