<svg width="20" height="20" viewBox="0 0 20 20" fill="none" xmlns="http://www.w3.org/2000/svg">
<path d="M5.87089 18.4852C7.09798 18.5742 8.45976 18.6161 9.99988 18.6161C11.54 18.6161 12.9018 18.5742 14.1289 18.4852C15.9611 18.3524 17.394 16.9008 17.5428 15.0698C17.6148 14.1815 17.656 13.2765 17.656 12.3519C17.656 11.4273 17.615 10.5223 17.5428 9.63418C17.3941 7.80315 15.9611 6.35161 14.1289 6.21872C12.9018 6.12971 11.54 6.08789 9.99988 6.08789C8.45976 6.08789 7.09798 6.12971 5.87089 6.21872C4.03864 6.35161 2.60574 7.80315 2.45702 9.63418C2.38488 10.5223 2.34375 11.4273 2.34375 12.3519C2.34375 13.2765 2.38488 14.1815 2.45702 15.0698C2.60574 16.9008 4.03864 18.3524 5.87089 18.4852Z" fill="#BADDFD"/>
<path d="M5.87089 18.4852C7.09798 18.5742 8.45976 18.6161 9.99988 18.6161C11.54 18.6161 12.9018 18.5742 14.1289 18.4852C15.9611 18.3524 17.394 16.9008 17.5428 15.0698C17.6148 14.1815 17.656 13.2765 17.656 12.3519C17.656 11.4273 17.615 10.5223 17.5428 9.63418C17.3941 7.80315 15.9611 6.35161 14.1289 6.21872C12.9018 6.12971 11.54 6.08789 9.99988 6.08789C8.45976 6.08789 7.09798 6.12971 5.87089 6.21872C4.03864 6.35161 2.60574 7.80315 2.45702 9.63418C2.38488 10.5223 2.34375 11.4273 2.34375 12.3519C2.34375 13.2765 2.38488 14.1815 2.45702 15.0698C2.60574 16.9008 4.03864 18.3524 5.87089 18.4852Z" stroke="black" stroke-width="1.71455"/>
<path d="M2.34375 10.96H17.656" stroke="black" stroke-width="1.71455"/>
<path d="M10 18.6161V6.08789" stroke="black" stroke-width="1.71455"/>
<path d="M10 6.06147L12.173 2.56445C13.1072 1.06098 15.3349 1.1343 16.1666 2.69589C16.7739 3.83605 16.3091 5.24848 15.1407 5.81381L14.2857 6.22754" stroke="black" stroke-width="1.71455" stroke-linecap="round" stroke-linejoin="round"/>
<path d="M10.0001 6.06147L7.82713 2.56445C6.89291 1.06098 4.66516 1.1343 3.83346 2.69589C3.2262 3.83605 3.69091 5.24848 4.8593 5.81381L5.71437 6.22754" stroke="black" stroke-width="1.71455" stroke-linecap="round" stroke-linejoin="round"/>
</svg>
