<svg width="24" height="24" viewBox="0 0 24 24" fill="none" xmlns="http://www.w3.org/2000/svg">
<path fill-rule="evenodd" clip-rule="evenodd" d="M19.934 11.8366C19.934 11.224 19.8791 10.6349 19.777 10.0693H11.6396V13.4114H16.2895C16.0892 14.4914 15.4805 15.4065 14.5655 16.0192V18.187H17.3578C18.9915 16.6829 19.934 14.4679 19.934 11.8366Z" fill="#4285F4"/>
<path fill-rule="evenodd" clip-rule="evenodd" d="M11.64 20.2796C13.9728 20.2796 15.9285 19.506 17.3581 18.1864L14.5658 16.0186C13.7921 16.537 12.8024 16.8433 11.64 16.8433C9.38964 16.8433 7.48491 15.3234 6.80549 13.2812H3.91895V15.5198C5.34062 18.3435 8.26251 20.2796 11.64 20.2796Z" fill="#34A853"/>
<path fill-rule="evenodd" clip-rule="evenodd" d="M6.80553 13.2815C6.63273 12.7631 6.53455 12.2094 6.53455 11.6399C6.53455 11.0705 6.63273 10.5167 6.80553 9.99831V7.75977H3.91898C3.33382 8.92617 3 10.2457 3 11.6399C3 13.0341 3.33382 14.3537 3.91898 15.5201L6.80553 13.2815Z" fill="#FBBC05"/>
<path fill-rule="evenodd" clip-rule="evenodd" d="M11.64 6.43636C12.9085 6.43636 14.0474 6.87229 14.9428 7.72844L17.4209 5.25033C15.9246 3.85615 13.9688 3 11.64 3C8.26251 3 5.34062 4.93615 3.91895 7.75985L6.80549 9.9984C7.48491 7.95622 9.38964 6.43636 11.64 6.43636Z" fill="#EA4335"/>
</svg>
