<svg width="43" height="40" viewBox="0 0 43 40" fill="none" xmlns="http://www.w3.org/2000/svg">
<g id="_&#235;&#160;&#136;&#236;&#157;&#180;&#236;&#150;&#180;_1" clip-path="url(#clip0_3904_99770)">
<g id="Group">
<path id="Vector" d="M33.3673 25.2986C33.521 25.6687 33.3422 26.0826 32.969 26.2237L12.4124 33.9478C12.0361 34.0889 11.6064 33.9039 11.4528 33.5338L1.0882 8.69649C0.934531 8.32644 1.11328 7.91249 1.48647 7.77137L22.0463 0.0473364C22.4226 -0.0937847 22.8491 0.0912408 23.0059 0.461292L33.3673 25.2986Z" fill="#39A180"/>
<path id="Vector_2" d="M31.7554 25.0793L12.4657 32.3235L2.66248 8.82841L21.9522 1.58105L31.7554 25.0793Z" fill="#EDE2D6"/>
<path id="Vector_3" d="M15.448 1.90358L12.9047 2.86006C12.519 2.2454 11.7318 1.96316 11.0356 2.22659C10.3394 2.49001 9.96937 3.20503 10.1293 3.90436L7.58599 4.86085C7.20967 5.00197 7.03091 5.41592 7.18771 5.78597L7.67066 6.94317C7.82433 7.31322 8.25396 7.49824 8.63029 7.35712L16.4923 4.40299C16.8686 4.26187 17.0474 3.84791 16.8906 3.47786L16.4076 2.32067C16.254 1.95062 15.8243 1.76559 15.448 1.90671V1.90358Z" fill="#F9C043"/>
<g id="Group_2">
<path id="Vector_4" d="M20.5347 6.73306L11.7727 10.0227L11.6504 9.73423L20.4124 6.44141L20.5347 6.73306Z" fill="#060101"/>
<path id="Vector_5" d="M19.2333 8.1377L12.1019 10.8159L12.2242 11.1075L19.3524 8.42935L19.2333 8.1377Z" fill="#060101"/>
</g>
<g id="Group_3">
<path id="Vector_6" d="M14.6859 14.1944L14.8082 14.4829L22.5542 11.5727L22.4319 11.2842L14.6859 14.1944Z" fill="#060101"/>
<path id="Vector_7" d="M21.8518 12.7549L14.1215 15.6588L14.2438 15.9474L21.9709 13.0434L21.8518 12.7549Z" fill="#060101"/>
</g>
<g id="Group_4">
<path id="Vector_8" d="M16.4327 19.1368L16.5519 19.4284L24.5739 16.4147L24.4516 16.123L16.4327 19.1368Z" fill="#060101"/>
<path id="Vector_9" d="M25.0255 17.4997L16.2634 20.7893L16.1411 20.4977L24.9032 17.208L25.0255 17.4997Z" fill="#060101"/>
</g>
<g id="Group_5">
<path id="Vector_10" d="M26.5935 21.2565L17.8314 24.5462L17.7091 24.2577L26.4712 20.9648L26.5935 21.2565Z" fill="#060101"/>
<path id="Vector_11" d="M25.3515 22.6396L18.1606 25.3398L18.2829 25.6314L25.4707 22.9313L25.3515 22.6396Z" fill="#060101"/>
</g>
<g id="Group_6">
<path id="Vector_12" d="M10.2893 12.3689C10.443 12.739 10.2642 13.153 9.89103 13.2941L7.69581 14.1188C7.31948 14.26 6.89298 14.0749 6.73618 13.7049L5.89887 11.6947C5.7452 11.3246 5.92395 10.9107 6.29714 10.7696L8.49236 9.9448C8.86868 9.80368 9.29518 9.9887 9.45198 10.3588L10.2893 12.3689Z" fill="white"/>
<path id="Vector_13" d="M9.91924 13.3661L7.72402 14.1909C7.31007 14.3477 6.83339 14.1407 6.66405 13.733L5.82673 11.7228C5.65738 11.3151 5.85495 10.8541 6.26891 10.7005L8.46412 9.8757C8.87808 9.71889 9.35476 9.92587 9.5241 10.3336L10.3614 12.3437C10.5308 12.7514 10.3332 13.2124 9.91924 13.3661ZM6.32536 10.8416C5.9898 10.967 5.82986 11.3371 5.96785 11.6695L6.80517 13.6797C6.94315 14.009 7.32888 14.1752 7.6613 14.0497L9.85652 13.225C10.1921 13.0995 10.352 12.7295 10.214 12.3971L9.37671 10.3869C9.23872 10.0576 8.85299 9.89138 8.52057 10.0168L6.32536 10.8416Z" fill="#060101"/>
<path id="Vector_14" d="M8.38262 13.0151L7.10626 12.5917C7.04668 12.5729 7.01532 12.5102 7.03413 12.4537C7.05295 12.3973 7.11567 12.3659 7.17212 12.3847L8.21955 12.7297L8.70563 10.6066C8.71818 10.547 8.77776 10.5125 8.83735 10.5282C8.89693 10.5439 8.93456 10.6003 8.92202 10.6599L8.38262 13.0119V13.0151Z" fill="#39A180"/>
</g>
<g id="Group_7">
<path id="Vector_15" d="M12.309 17.2107C12.4626 17.5808 12.2839 17.9947 11.9107 18.1359L9.71546 18.9606C9.33914 19.1018 8.91264 18.9167 8.75584 18.5467L7.91852 16.5365C7.76485 16.1664 7.94361 15.7525 8.31679 15.6114L10.512 14.7866C10.8883 14.6455 11.3148 14.8305 11.4716 15.2005L12.309 17.2107Z" fill="white"/>
<path id="Vector_16" d="M11.9389 18.2079L9.74368 19.0327C9.32972 19.1895 8.85305 18.9825 8.6837 18.5748L7.84638 16.5646C7.67704 16.1569 7.87461 15.6959 8.28856 15.5423L10.4838 14.7175C10.8977 14.5607 11.3744 14.7677 11.5438 15.1754L12.3811 17.1855C12.5504 17.5932 12.3528 18.0542 11.9389 18.2079ZM8.34501 15.6834C8.00945 15.8088 7.84952 16.1789 7.9875 16.5113L8.82482 18.5215C8.96281 18.8508 9.34854 19.017 9.68096 18.8915L11.8762 18.0668C12.2117 17.9413 12.3717 17.5713 12.2337 17.2389L11.3964 15.2287C11.2584 14.8994 10.8726 14.7332 10.5402 14.8586L8.34501 15.6834Z" fill="#060101"/>
<path id="Vector_17" d="M10.327 17.6781L9.0506 17.2548C8.99101 17.236 8.95965 17.1732 8.97847 17.1168C8.99729 17.0603 9.06001 17.029 9.11645 17.0478L10.1639 17.3928L10.65 15.2697C10.6625 15.2101 10.7221 15.1756 10.7817 15.1913C10.8413 15.207 10.8789 15.2634 10.8664 15.323L10.327 17.675V17.6781Z" fill="#39A180"/>
</g>
<g id="Group_8">
<path id="Vector_18" d="M14.3285 22.0525C14.4821 22.4226 14.3034 22.8365 13.9302 22.9777L11.735 23.8024C11.3587 23.9436 10.9322 23.7585 10.7754 23.3885L9.93805 21.3783C9.78438 21.0082 9.96314 20.5943 10.3363 20.4532L12.5315 19.6284C12.9079 19.4873 13.3344 19.6723 13.4912 20.0423L14.3285 22.0525Z" fill="white"/>
<path id="Vector_19" d="M13.9584 23.0497L11.7632 23.8745C11.3493 24.0313 10.8726 23.8243 10.7032 23.4166L9.86591 21.4064C9.69657 20.9987 9.89414 20.5377 10.3081 20.3841L12.5033 19.5593C12.9173 19.4025 13.3939 19.6095 13.5633 20.0172L14.4006 22.0273C14.57 22.435 14.3724 22.896 13.9584 23.0497ZM10.3645 20.5252C10.029 20.6506 9.86905 21.0207 10.007 21.3531L10.8444 23.3633C10.9823 23.6926 11.3681 23.8588 11.7005 23.7333L13.8957 22.9086C14.2313 22.7831 14.3912 22.4099 14.2532 22.0807L13.4159 20.0705C13.2779 19.7412 12.8922 19.575 12.5598 19.7004L10.3645 20.5252Z" fill="#060101"/>
</g>
<g id="Group_9">
<path id="Vector_20" d="M16.3481 26.8943C16.5018 27.2644 16.323 27.6783 15.9499 27.8195L13.7546 28.6442C13.3783 28.7854 12.9518 28.6003 12.795 28.2303L11.9577 26.2201C11.804 25.85 11.9828 25.4361 12.356 25.295L14.5512 24.4702C14.9275 24.3291 15.354 24.5141 15.5108 24.8841L16.3481 26.8943Z" fill="white"/>
<path id="Vector_21" d="M15.9781 27.8886L13.7829 28.7133C13.3689 28.8701 12.8922 28.6631 12.7229 28.2555L11.8856 26.2453C11.7162 25.8376 11.9138 25.3766 12.3277 25.2229L14.523 24.3982C14.9369 24.2414 15.4136 24.4483 15.5829 24.856L16.4203 26.8662C16.5896 27.2739 16.392 27.7349 15.9781 27.8886ZM12.3842 25.3641C12.0486 25.4895 11.8887 25.8595 12.0267 26.192L12.864 28.2022C13.002 28.5314 13.3877 28.6976 13.7201 28.5722L15.9154 27.7474C16.2509 27.622 16.4108 27.2519 16.2729 26.9195L15.4355 24.9093C15.2976 24.58 14.9118 24.4138 14.5794 24.5393L12.3842 25.3641Z" fill="#060101"/>
</g>
</g>
<g id="Group_10">
<path id="Vector_22" d="M0.137947 38.2999C0.137947 38.2999 0.313564 33.5237 0.112859 31.8993C-0.0878469 30.2748 -0.0251264 26.913 0.344925 23.9087C0.711839 20.9044 1.28573 21.0141 2.08855 21.1396C2.08855 21.1396 2.145 19.8444 2.26731 19.2925C2.39275 18.7405 2.65617 18.0412 3.78514 18.405C3.78514 18.405 3.6597 17.3168 4.312 17.3732C4.96429 17.4265 5.35943 18.0192 5.4441 18.9161C5.4441 18.9161 5.46292 17.5865 6.29396 17.5739C7.12501 17.5614 7.38216 19.3395 7.42293 20.2834C7.4637 21.2305 8.01878 24.1314 8.23516 24.7115C8.45155 25.2917 8.09404 23.1184 8.81533 22.6041C9.77495 21.9205 10.1481 23.0494 10.5715 24.0467C10.9949 25.0471 11.0607 27.1952 11.3116 29.9361C11.5625 32.677 12.7981 38.7358 11.9231 39.3003C11.0482 39.8648 -0.138023 40.9279 0.141083 38.2999H0.137947Z" fill="#2E9DF0"/>
<path id="Vector_23" d="M9.50844 30.8741C9.48336 30.8835 9.45513 30.8741 9.44259 30.8522C8.83106 29.9772 8.37007 25.6182 8.35125 25.4331C8.34811 25.4018 8.37007 25.3736 8.40143 25.3704C8.43279 25.3673 8.46101 25.3892 8.46415 25.4206C8.46728 25.4645 8.93769 29.9333 9.53353 30.7863C9.55235 30.8114 9.54608 30.8491 9.52099 30.8679C9.51785 30.8679 9.51158 30.8741 9.50844 30.8741Z" fill="#060101"/>
<path id="Vector_24" d="M5.7044 26.9473C5.7044 26.9473 5.70126 26.9473 5.69812 26.9473C5.66676 26.9567 5.6354 26.9379 5.62913 26.9065C5.15559 25.1441 5.27163 19.5494 5.27476 19.493C5.27476 19.4616 5.30299 19.4365 5.33435 19.4365C5.36571 19.4365 5.39079 19.4647 5.39079 19.4961C5.39079 19.5526 5.27163 25.1315 5.74203 26.8783C5.7483 26.9065 5.73262 26.9379 5.70753 26.9473H5.7044Z" fill="#060101"/>
<path id="Vector_25" d="M3.27391 26.8506C3.27391 26.8506 3.26764 26.8506 3.2645 26.8506C3.23314 26.8569 3.20178 26.835 3.19865 26.8036C2.82232 24.7244 3.4903 18.9196 3.49657 18.86C3.49971 18.8287 3.52793 18.8067 3.55929 18.8099C3.59065 18.813 3.6126 18.8412 3.60947 18.8726C3.60319 18.9322 2.93836 24.7181 3.30841 26.7816C3.31468 26.8099 3.299 26.835 3.27078 26.8444L3.27391 26.8506Z" fill="#060101"/>
<path id="Vector_26" d="M1.77493 26.4679C1.77493 26.4679 1.76552 26.4679 1.76238 26.4679C1.73102 26.471 1.7028 26.4491 1.69653 26.4177C1.49268 24.9595 1.92546 21.9332 1.92859 21.905C1.93173 21.8736 1.96309 21.8517 1.99445 21.8548C2.02581 21.8579 2.04776 21.8893 2.04462 21.9206C2.04149 21.952 1.61185 24.9595 1.81256 26.402C1.8157 26.4303 1.80001 26.4553 1.77493 26.4647V26.4679Z" fill="#060101"/>
</g>
<g id="Group_11">
<g id="Group_12">
<path id="Vector_27" d="M41.9036 15.7107C41.9036 15.7107 38.7739 13.8542 37.4881 11.1854C36.2023 8.51669 35.5689 7.81735 33.4803 7.37517C31.3917 6.92986 28.4438 4.95103 26.4493 7.02394C24.4548 9.09685 23.0938 11.6778 24.0063 11.9036C24.9189 12.1294 25.5555 11.5586 25.5555 11.5586C25.5555 11.5586 25.4426 12.3489 26.0981 12.6688C26.0981 12.6688 25.4207 13.3023 25.7468 13.7915C26.073 14.2838 27.0169 13.9828 27.6755 13.6441C28.3372 13.3054 33.1165 14.8797 33.1165 14.8797L41.9036 15.7076V15.7107Z" fill="#2E9DF0"/>
<path id="Vector_28" d="M31.7805 11.8726C31.7805 11.8726 31.7586 11.8789 31.7492 11.8726C31.0843 11.7378 30.2627 11.0353 29.5414 10.4144C28.8985 9.86245 28.2305 9.29169 28.0392 9.50494C27.5845 10.0067 26.1012 11.1576 26.0385 11.2047C26.0134 11.2235 25.9757 11.2203 25.9569 11.1953C25.9381 11.1702 25.9412 11.1325 25.9663 11.1137C25.982 11.1012 27.5061 9.9189 27.9546 9.42654C28.2243 9.13175 28.8389 9.65861 29.6167 10.3266C30.3285 10.9381 31.1376 11.6312 31.7742 11.7597C31.8056 11.766 31.8244 11.7974 31.8182 11.8287C31.815 11.8476 31.7993 11.8632 31.7805 11.8726Z" fill="#060101"/>
<path id="Vector_29" d="M28.2933 11.3051C28.2933 11.3051 29.1557 10.8378 29.6387 10.4238" stroke="#1D1312" stroke-width="0.05" stroke-miterlimit="10"/>
<path id="Vector_30" d="M29.278 12.5467C29.2561 12.5562 29.2278 12.5467 29.2122 12.5279C29.1934 12.5028 29.1965 12.4652 29.2216 12.4464C29.2278 12.4401 29.993 11.8505 30.614 11.2108C30.6359 11.1888 30.6736 11.1888 30.6955 11.2108C30.7175 11.2328 30.7175 11.2704 30.6955 11.2923C30.0683 11.9415 29.3 12.5342 29.2906 12.5405C29.2874 12.5436 29.2812 12.5467 29.2749 12.5499L29.278 12.5467Z" fill="#060101"/>
<path id="Vector_31" d="M29.8989 12.9675C29.8739 12.9769 29.8488 12.9675 29.8331 12.9456C29.8143 12.9205 29.8205 12.8828 29.8456 12.864C29.855 12.8577 30.8523 12.1365 31.0844 11.5406C31.0969 11.5124 31.1283 11.4967 31.1596 11.5093C31.1878 11.5218 31.2035 11.5532 31.191 11.5845C30.9464 12.2117 29.9554 12.9267 29.9115 12.9581C29.9083 12.9581 29.9021 12.9644 29.8989 12.9644V12.9675Z" fill="#060101"/>
<g id="Group_13">
<path id="Vector_32" d="M20.7543 14.4505C20.7543 14.4505 21.2937 14.4254 21.8613 14.3877C22.3881 14.3532 22.9369 14.3093 23.0937 14.2686C23.1094 14.2654 23.1188 14.2623 23.1282 14.256L23.1753 14.2341L37.1965 7.38499L37.2749 7.34736L37.7014 7.14038L37.7578 7.11216L37.7798 7.10275L38.9213 6.54454C39.3289 6.34383 39.4983 5.85147 39.2976 5.44379C39.0969 5.03611 38.6045 4.86363 38.1968 5.06433L37.0553 5.62254L37.0177 5.64136L36.9769 5.66018L36.5504 5.86715L36.472 5.90479L22.4383 12.7601L22.407 12.7758L22.3693 12.7978C22.3693 12.7978 22.3662 12.7978 22.3631 12.8009C22.2658 12.8636 21.8707 13.2713 21.4944 13.6664C21.1149 14.0647 20.7574 14.4505 20.7574 14.4505H20.7543Z" fill="#F9C043"/>
<path id="Vector_33" d="M21.4912 13.666C21.1118 14.0643 20.7543 14.45 20.7543 14.45C20.7543 14.45 21.2937 14.4249 21.8613 14.3873C21.8017 14.2148 21.6857 13.9388 21.4912 13.666Z" fill="#060101"/>
<path id="Vector_34" d="M22.3599 12.8037C22.7801 13.4215 22.9933 13.9609 23.0937 14.2682C23.1094 14.2651 23.1188 14.2619 23.1282 14.2556L23.1752 14.2337C23.0749 13.9201 22.8585 13.3807 22.4383 12.7598L22.4069 12.7754L22.3693 12.7974C22.3693 12.7974 22.3661 12.7974 22.363 12.8005L22.3599 12.8037Z" fill="#060101"/>
<path id="Vector_35" d="M36.5435 5.86713L36.4674 5.9043L37.1902 7.38358L37.2663 7.34641L36.5435 5.86713Z" fill="#060101"/>
<path id="Vector_36" d="M37.0146 5.64115L37.7516 7.11509L37.7735 7.10568L38.915 6.54746C39.3227 6.34676 39.4921 5.8544 39.2914 5.44672C39.0907 5.03904 38.5983 4.86656 38.1906 5.06726L37.0491 5.62547L37.0115 5.64429L37.0146 5.64115Z" fill="#389F7F"/>
<path id="Vector_37" d="M36.9738 5.6597L37.695 7.13991L37.7734 7.10227L37.049 5.62207L36.9738 5.6597Z" fill="#060101"/>
</g>
</g>
<g id="Group_14">
<path id="Vector_38" d="M41.9036 15.7109C41.9036 15.7109 42.5936 16.0339 42.0385 16.9747C41.4866 17.9155 35.6379 26.8375 33.9131 24.5105C32.1882 22.1805 31.7178 21.3965 30.5826 19.9633C29.4474 18.5301 27.6943 16.4478 27.0577 14.7512C26.4211 13.0546 24.0879 10.7747 25.4521 10.0033C26.8162 9.23182 28.5599 11.6121 29.2372 12.4337C29.9115 13.2553 34.0416 14.6352 34.0416 14.6352L41.9036 15.714V15.7109Z" fill="#2E9DF0"/>
<path id="Vector_39" d="M33.0663 14.3377C33.0663 14.3377 33.0349 14.344 33.0192 14.3346C32.6868 14.1527 31.8401 13.7889 31.0937 13.4722C30.3693 13.1617 29.7421 12.8951 29.5696 12.7885C29.3156 12.6348 29.0898 12.3651 28.679 11.8728C28.4971 11.6564 28.2713 11.3867 27.9891 11.0668C27.0545 10.0006 26.0729 9.62738 25.4206 10.0884C24.7621 10.5588 25.2356 11.3679 25.2544 11.4024C25.2701 11.4306 25.2607 11.4651 25.2356 11.4808C25.2074 11.4965 25.1729 11.487 25.1572 11.462C25.151 11.4526 24.6084 10.5274 25.3548 9.99743C26.0573 9.49567 27.0984 9.87827 28.0769 10.9916C28.356 11.3114 28.5849 11.5843 28.7668 11.8006C29.1713 12.2805 29.394 12.547 29.6292 12.6913C29.7954 12.7916 30.4477 13.0707 31.1408 13.3655C31.9279 13.7011 32.7401 14.0492 33.0788 14.2342C33.107 14.2499 33.1165 14.2844 33.1008 14.3126C33.0945 14.3251 33.082 14.3346 33.0694 14.3377H33.0663Z" fill="#060101"/>
<path id="Vector_40" d="M26.6593 13.9484C26.6343 13.9578 26.6029 13.9484 26.5903 13.9233C26.4492 13.663 25.982 12.9292 25.9757 12.9198C25.96 12.8916 25.9663 12.8571 25.9945 12.8414C26.0196 12.8257 26.0572 12.832 26.0729 12.8602C26.0917 12.8916 26.5464 13.6066 26.6907 13.87C26.7064 13.8982 26.697 13.9327 26.6687 13.9484C26.6687 13.9484 26.6625 13.9484 26.6625 13.9516L26.6593 13.9484Z" fill="#060101"/>
</g>
</g>
</g>
<defs>
<clipPath id="clip0_3904_99770">
<rect width="42.2548" height="40" fill="white"/>
</clipPath>
</defs>
</svg>
