<svg width="38" height="40" viewBox="0 0 38 40" fill="none" xmlns="http://www.w3.org/2000/svg">
<g id="_&#235;&#160;&#136;&#236;&#157;&#180;&#236;&#150;&#180;_1" clip-path="url(#clip0_3904_99923)">
<g id="Group">
<g id="Group_2">
<path id="Vector" d="M19.2085 40.0004C19.2949 39.4302 19.7588 36.3549 19.804 36.3549C19.8478 36.3549 20.4632 39.4116 20.5801 40.0004H27.309C26.5129 36.3575 25.7208 32.8369 25.2131 30.8513C25.2131 30.8513 18.0137 29.8931 13.5601 30.9244L12.2218 40.0017H19.2085V40.0004Z" fill="#020000"/>
<path id="Vector_2" d="M19.8904 35.9412C19.8904 35.9412 19.8811 35.9412 19.8771 35.9386C19.8571 35.9306 19.8465 35.908 19.8545 35.8881L20.5549 34.034C20.5628 34.0141 20.5854 34.0035 20.6054 34.0115C20.6253 34.0194 20.6359 34.042 20.628 34.062L19.9276 35.916C19.9209 35.9319 19.9063 35.9412 19.8904 35.9412Z" fill="white"/>
</g>
<g id="Group_3">
<path id="Vector_3" d="M21.4559 16.6121L17.6536 16.5922L17.74 15.6167L17.8702 14.1162L21.3523 14.192L21.3656 14.5083L21.4559 16.6121Z" fill="#FDC826"/>
<path id="Vector_4" d="M17.6868 16.2306L15.7637 17.3045C15.7637 17.3045 16.6741 18.7292 19.5368 18.7438C22.3995 18.7585 23.5864 17.5411 23.5864 17.5411L21.44 16.2227L17.6868 16.2306Z" fill="#FDC826"/>
<path id="Vector_5" d="M21.3656 14.5079C21.1184 15.2442 20.2771 16.7952 17.74 15.6177L17.8716 14.1172L21.3536 14.1929L21.3669 14.5079H21.3656Z" fill="#020000"/>
</g>
<path id="Vector_6" d="M17.6868 16.2306L13.7755 17.1942L13.5602 30.9245L25.2132 30.8514L25.2424 17.0746L21.4414 16.2227C21.4414 16.2227 19.9728 16.8114 17.6882 16.2306H17.6868Z" fill="#FDC826"/>
<g id="Group_4">
<path id="Vector_7" d="M19.0132 10.6259C19.0132 10.6259 17.1566 10.7774 17.55 12.9065C17.9434 15.0356 18.1095 16.0231 19.8864 15.7666C21.775 15.4941 21.5145 13.9166 21.0945 12.351C20.6745 10.7854 19.9143 10.5169 19.0119 10.6259H19.0132Z" fill="#FDC826"/>
<path id="Vector_8" d="M18.9481 12.1939C18.9481 12.1939 18.7806 11.9547 18.5228 12.053C18.265 12.1514 18.0643 12.3175 18.1427 12.4358C18.2211 12.5527 18.4617 12.3946 18.6012 12.356C18.7394 12.3162 19.0199 12.3826 18.9481 12.1952V12.1939Z" fill="#004D9E"/>
<path id="Vector_9" d="M17.6336 13.0035C17.6336 13.0035 17.0568 12.9012 17.1498 13.373C17.2428 13.8448 17.607 14.2634 17.9007 14.0574L17.6349 13.0035H17.6336Z" fill="#FDC826"/>
<path id="Vector_10" d="M21.0426 12.3338C21.0426 12.3338 21.5383 12.0215 21.6314 12.4933C21.7244 12.9651 21.545 13.49 21.1954 13.4103L21.0439 12.3338H21.0426Z" fill="#FDC826"/>
<path id="Vector_11" d="M18.867 12.7438C18.8922 12.8714 18.8417 12.9897 18.754 13.007C18.6663 13.0242 18.5746 12.9339 18.5494 12.8063C18.5241 12.6787 18.5746 12.5604 18.6623 12.5431C18.75 12.5259 18.8417 12.6162 18.867 12.7438Z" fill="#020000"/>
<path id="Vector_12" d="M19.8651 11.9907C19.8651 11.9907 19.9289 11.7049 20.2053 11.6996C20.4818 11.693 20.7303 11.7714 20.7011 11.9096C20.6718 12.0478 20.3901 11.992 20.2465 12.0079C20.103 12.0239 19.8691 12.1914 19.8651 11.9893V11.9907Z" fill="#004D9E"/>
<path id="Vector_13" d="M20.1482 12.4694C20.1735 12.597 20.2652 12.6873 20.3529 12.6701C20.4406 12.6528 20.4911 12.5345 20.4659 12.4069C20.4406 12.2793 20.3489 12.1889 20.2612 12.2062C20.1735 12.2235 20.123 12.3418 20.1482 12.4694Z" fill="#020000"/>
<path id="Vector_14" d="M17.2097 13.0579C17.2097 13.0579 16.4242 11.7209 16.9452 11.3913C16.9452 11.3913 16.3617 10.3267 17.631 10.1088C17.631 10.1088 17.5778 9.05616 18.9733 9.15052C20.1282 9.2276 20.0033 9.7446 20.0033 9.7446C20.0033 9.7446 20.3502 9.66485 20.6107 9.79377C20.8698 9.92269 20.6838 10.2483 20.6838 10.2483C20.6838 10.2483 21.4852 10.2124 21.4706 12.2458C21.4706 12.2458 21.4639 12.5582 21.1968 12.5103C20.9296 12.4638 20.7037 11.4006 20.7037 11.4006C20.7037 11.4006 20.309 11.4777 20.1774 10.9593C20.1774 10.9593 19.8545 11.5853 19.0637 11.1082C19.0637 11.1082 18.8019 11.6225 18.3832 11.5228C18.3832 11.5228 17.9499 11.9707 17.7174 11.7714C17.7174 11.7714 17.611 11.7102 17.6376 12.1448C17.6642 12.5794 17.8742 13.2001 17.5805 13.2572C17.2868 13.3144 17.2083 13.0605 17.2083 13.0605L17.2097 13.0579Z" fill="#004D9E"/>
<g id="Group_5">
<path id="Vector_15" d="M17.9978 10.1807C17.9792 10.1807 17.9672 10.1807 17.9646 10.1807C17.9513 10.182 17.9393 10.1886 17.93 10.1993C17.9207 10.2099 17.9167 10.2232 17.9194 10.2365C17.922 10.2631 17.9433 10.283 17.9699 10.283C17.9725 10.283 17.9739 10.283 17.9765 10.283C17.9779 10.283 17.9845 10.283 17.9965 10.283C18.0908 10.283 18.4257 10.3176 18.7992 10.7322C18.8085 10.7428 18.8231 10.7495 18.8378 10.7495C18.851 10.7495 18.863 10.7442 18.8723 10.7362C18.8829 10.7269 18.8883 10.7149 18.8896 10.7003C18.8896 10.687 18.8856 10.6737 18.8763 10.6631C18.4749 10.2179 18.1041 10.1807 18.0005 10.1807H17.9978Z" fill="#020000"/>
<path id="Vector_16" d="M19.667 9.88665C19.6431 9.87336 19.6099 9.88399 19.5979 9.90791C19.5913 9.91988 19.5899 9.93316 19.5939 9.94646C19.5979 9.95975 19.6072 9.97038 19.6192 9.97702C20.2956 10.3399 20.176 10.6987 20.1707 10.7146C20.1614 10.7412 20.1747 10.7705 20.2013 10.7811C20.2066 10.7837 20.2132 10.7837 20.2186 10.7851C20.2398 10.7851 20.2598 10.7718 20.2664 10.7519C20.2731 10.7332 20.4272 10.296 19.6683 9.88798L19.667 9.88665Z" fill="#020000"/>
<path id="Vector_17" d="M17.3758 10.9355C17.3599 10.9355 17.3505 10.9355 17.3492 10.9369C17.3213 10.9409 17.3027 10.9674 17.3067 10.9954C17.3107 11.0233 17.3373 11.0432 17.3638 11.0392C17.3638 11.0392 17.3678 11.0392 17.3745 11.0392C17.4276 11.0392 17.6164 11.0645 17.8144 11.3794C17.8237 11.3941 17.8396 11.4034 17.8582 11.4034C17.8675 11.4034 17.8782 11.4007 17.8861 11.3954C17.8981 11.3887 17.9061 11.3768 17.9087 11.3635C17.9114 11.3502 17.9087 11.3369 17.9021 11.325C17.6828 10.9754 17.4622 10.9369 17.3771 10.9355H17.3758Z" fill="#020000"/>
</g>
<path id="Vector_18" d="M19.5089 13.8914C19.5089 13.8914 19.9595 13.8409 20.204 13.6934C20.204 13.6934 20.2904 14.2662 20.0512 14.3565C19.8119 14.4469 19.5089 13.8914 19.5089 13.8914Z" fill="white"/>
<path id="Vector_19" d="M19.7854 13.2091C19.8345 13.2105 19.8757 13.2091 19.9116 13.2052C19.9369 13.2038 19.9568 13.2025 19.9714 13.2025C20.0153 13.2025 20.0219 13.2105 20.0299 13.2464C20.0392 13.2849 20.0326 13.3221 20.0113 13.3553C19.9834 13.3992 19.9156 13.4577 19.7548 13.4869C19.7415 13.4896 19.7295 13.4975 19.7216 13.5082C19.7136 13.5201 19.7109 13.5334 19.7136 13.5467C19.7176 13.5706 19.7388 13.5879 19.7641 13.5893C19.7668 13.5893 19.7707 13.5893 19.7734 13.5893C19.9701 13.5534 20.0578 13.4723 20.0977 13.4125C20.1349 13.3553 20.1455 13.2889 20.1296 13.2224C20.1043 13.1161 20.0339 13.1015 19.9688 13.1015C19.9475 13.1015 19.9262 13.1028 19.905 13.1042H19.9023C19.8691 13.1068 19.8319 13.1095 19.7893 13.1081C19.7628 13.1081 19.7442 13.0988 19.7295 13.0829C19.691 13.0377 19.6923 12.9433 19.6963 12.9141C19.7003 12.8862 19.6804 12.8609 19.6511 12.857C19.6232 12.853 19.5966 12.8729 19.594 12.9021C19.5913 12.9181 19.5767 13.0643 19.6511 13.1507C19.6844 13.1892 19.7309 13.2105 19.7867 13.2118L19.7854 13.2091Z" fill="#020000"/>
<path id="Vector_20" d="M21.3855 13.009H21.3882C21.4161 13.009 21.4387 12.9838 21.4374 12.9559C21.4294 12.7724 21.4693 12.7273 21.4706 12.7259C21.4919 12.7086 21.4958 12.6794 21.4812 12.6568C21.4653 12.6342 21.432 12.6276 21.4095 12.6435C21.3895 12.6568 21.3244 12.7206 21.335 12.9598C21.335 12.9877 21.359 13.009 21.3855 13.009Z" fill="#020000"/>
<path id="Vector_21" d="M17.3837 13.4581C17.3837 13.4581 17.4542 13.486 17.4927 13.6787C17.498 13.7026 17.518 13.7199 17.5432 13.7199C17.5472 13.7199 17.5499 13.7199 17.5538 13.7199C17.5671 13.7172 17.5791 13.7092 17.5871 13.6986C17.595 13.6867 17.5977 13.6734 17.595 13.6601C17.5419 13.3929 17.4223 13.361 17.409 13.3584C17.3824 13.3531 17.3572 13.3703 17.3505 13.3969C17.3439 13.4235 17.3598 13.4514 17.3864 13.4594L17.3837 13.4581Z" fill="#020000"/>
</g>
<g id="Group_6">
<path id="Vector_22" d="M19.1873 17.3968L20.3754 17.2666L20.3196 18.5677L19.4318 18.6355L19.1873 17.3968Z" fill="#004D9E"/>
<path id="Vector_23" d="M19.4318 18.6353L17.7838 30.606L20.1203 32.3337L21.759 30.683L20.3183 18.5676C20.3183 18.5676 19.9342 18.2725 19.4318 18.634V18.6353Z" fill="#004D9E"/>
<path id="Vector_24" d="M19.5036 18.6739C19.4743 18.6739 19.4504 18.65 19.4491 18.6208C19.4491 18.5902 19.4717 18.5649 19.5023 18.5636L20.2332 18.5344C20.2638 18.5317 20.289 18.557 20.2904 18.5875C20.2904 18.6181 20.2678 18.6434 20.2372 18.6447L19.5062 18.6739C19.5062 18.6739 19.5049 18.6739 19.5036 18.6739Z" fill="#020000"/>
</g>
<g id="Group_7">
<path id="Vector_25" d="M17.7519 15.4753L16.4946 16.5252L19.0118 18.77L19.7428 16.8535L20.7941 18.6849L22.6082 16.488L21.4054 15.458L19.7455 16.504L17.7519 15.4753Z" fill="#FDC826"/>
<path id="Vector_26" d="M22.5962 16.4909C22.575 16.4737 22.5418 16.4763 22.5245 16.4963L20.7781 18.5589L19.7893 16.8285C19.78 16.8126 19.7627 16.8033 19.7441 16.8033H19.7401C19.7202 16.8046 19.7029 16.8179 19.6963 16.8365L18.9919 18.6825L16.5465 16.4949C16.5265 16.4763 16.492 16.479 16.4734 16.4989C16.4641 16.5096 16.4601 16.5228 16.4601 16.5361C16.4601 16.5494 16.4667 16.5627 16.4774 16.572L18.9786 18.8101C18.9879 18.8181 18.9999 18.8234 19.0132 18.8234C19.0171 18.8234 19.0211 18.8234 19.0251 18.8221C19.0411 18.8181 19.0544 18.8061 19.061 18.7902L19.7534 16.976L20.725 18.6759C20.7329 18.6905 20.7476 18.6998 20.7648 18.7011C20.7821 18.7038 20.7981 18.6958 20.8087 18.6839L22.6029 16.5654C22.6215 16.5441 22.6188 16.5109 22.5976 16.4936L22.5962 16.4909Z" fill="#020000"/>
<path id="Vector_27" d="M18.0988 15.6485L19.7136 16.6904C19.7215 16.6957 19.7308 16.6984 19.7415 16.6984C19.7521 16.6984 19.7627 16.6944 19.772 16.6891L21.3483 15.5315C21.3589 15.5235 21.3669 15.5116 21.3682 15.4983C21.3709 15.485 21.3682 15.4717 21.3589 15.4597C21.343 15.4371 21.3084 15.4332 21.2871 15.4491L19.7388 16.5854L18.1533 15.5621C18.1307 15.5475 18.0975 15.5541 18.0828 15.578C18.0749 15.59 18.0735 15.6033 18.0762 15.6166C18.0789 15.6299 18.0868 15.6418 18.0988 15.6485Z" fill="#020000"/>
</g>
<g id="Group_8">
<path id="Vector_28" d="M25.241 17.0746C25.241 17.0746 27.4897 17.4481 28.4878 20.473C29.1723 22.5463 29.8727 26.6065 28.1303 27.3614C26.388 28.1163 24.9446 25.6044 24.9446 25.6044C24.9446 25.6044 23.71 16.7596 25.2397 17.0746H25.241Z" fill="#FDC826"/>
<g id="Group_9">
<path id="Vector_29" d="M29.8302 18.527C29.8302 18.527 30.1053 17.7668 30.5359 17.3282C30.9665 16.8896 31.312 15.2575 31.7466 15.1871C32.1812 15.1167 32.1228 16.1241 32.0537 16.6956C31.9845 17.267 34.8433 16.6318 35.3603 16.5467C35.8773 16.4616 36.8422 16.5068 36.8249 17.061C36.8249 17.061 37.4176 17.2338 37.2515 17.7575C37.2515 17.7575 37.1306 18.0379 36.8169 18.0964C36.8169 18.0964 37.1997 18.1562 37.1292 18.5748C37.0588 18.9948 36.7026 19.0679 36.7026 19.0679C36.7026 19.0679 36.8754 19.5982 36.2773 19.7125C35.6793 19.8268 33.9568 20.0381 33.5741 20.1763C33.1926 20.3145 32.6677 21.0535 32.6677 21.0535C32.6677 21.0535 30.5213 19.4799 29.8275 18.5283L29.8302 18.527Z" fill="#FDC826"/>
<path id="Vector_30" d="M33.8293 17.5157C33.8386 17.5183 33.8479 17.5183 33.8559 17.5157C34.0725 17.4638 36.1245 17.2153 36.1458 17.2127C36.175 17.2087 36.1963 17.1834 36.1923 17.1542C36.1883 17.1249 36.1618 17.105 36.1338 17.1077C36.0488 17.1183 34.0552 17.3588 33.832 17.4133C33.804 17.42 33.7868 17.4492 33.7934 17.4771C33.7974 17.4957 33.812 17.5104 33.8306 17.5157H33.8293Z" fill="#020000"/>
<path id="Vector_31" d="M34.0671 18.3545C34.0671 18.3545 34.0804 18.3571 34.0884 18.3558L36.2959 18.1152C36.3251 18.1126 36.3464 18.086 36.3424 18.0568C36.3398 18.0275 36.3132 18.0063 36.2839 18.0102L34.0764 18.2508C34.0472 18.2535 34.0259 18.28 34.0299 18.3093C34.0326 18.3305 34.0472 18.3492 34.0671 18.3545Z" fill="#020000"/>
<path id="Vector_32" d="M34.4273 19.1782C34.4273 19.1782 34.4393 19.1809 34.4459 19.1809L36.3345 19.0546C36.3637 19.052 36.385 19.0267 36.3837 18.9975C36.381 18.9682 36.3571 18.947 36.3278 18.9483L34.4393 19.0759C34.41 19.0785 34.3874 19.1025 34.3901 19.133C34.3901 19.1556 34.4074 19.1742 34.4286 19.1796L34.4273 19.1782Z" fill="#020000"/>
</g>
<path id="Vector_33" d="M29.8301 18.5273L27.7462 21.4698C27.7462 21.4698 23.488 27.3495 27.7023 27.4757C27.7023 27.4757 29.4208 27.3774 31.0781 24.1213C32.6782 20.9781 32.6703 21.0525 32.6703 21.0525C32.6703 21.0525 30.7711 18.8131 29.8301 18.5273Z" fill="#FDC826"/>
<path id="Vector_34" d="M25.2941 25.688H25.2968C25.3274 25.6867 25.3513 25.6601 25.3486 25.6296L25.0975 20.6895C25.0961 20.659 25.0695 20.639 25.039 20.6377C25.0084 20.639 24.9845 20.6656 24.9871 20.6962L25.2383 25.6362C25.2397 25.6654 25.2636 25.688 25.2928 25.688H25.2941Z" fill="#020000"/>
<path id="Vector_35" d="M26.3747 23.0652C26.3907 23.0652 26.4066 23.0585 26.4173 23.0452L28.4254 20.645C28.4454 20.6211 28.4414 20.5865 28.4188 20.5666C28.3949 20.5466 28.3603 20.5506 28.3404 20.5732L26.3322 22.9735C26.3123 22.9974 26.3163 23.0319 26.3389 23.0519C26.3495 23.0599 26.3614 23.0652 26.3734 23.0652H26.3747Z" fill="#020000"/>
<path id="Vector_36" d="M32.5679 21.2596C32.5839 21.2596 32.5998 21.253 32.6118 21.2383C32.6317 21.2144 32.6277 21.1799 32.6038 21.1612L29.6919 18.8155C29.668 18.7956 29.6334 18.7996 29.6148 18.8235C29.5949 18.8474 29.5989 18.8819 29.6228 18.9019L32.5347 21.2476C32.5453 21.2556 32.5573 21.2596 32.5693 21.2596H32.5679Z" fill="#020000"/>
</g>
<path id="Vector_37" d="M13.7755 17.1938C13.7755 17.1938 11.4988 17.6829 10.4688 20.6984C9.76309 22.7638 9.02149 26.8173 10.7572 27.5895C12.4916 28.3617 13.9602 25.8657 13.9602 25.8657C13.9602 25.8657 15.3092 16.8961 13.7755 17.1938Z" fill="#FDC826"/>
<g id="Group_10">
<path id="Vector_38" d="M7.48776 19.4768C7.48776 19.4768 7.05051 18.7963 6.53351 18.464C6.01652 18.1318 5.31612 16.6167 4.87753 16.6459C4.43895 16.6738 4.71938 17.644 4.91342 18.1849C5.10746 18.7259 2.17959 18.7431 1.65595 18.775C1.13231 18.8069 0.201985 19.0661 0.341534 19.6017C0.341534 19.6017 -0.198055 19.9021 0.0797139 20.3752C0.0797139 20.3752 0.260463 20.6211 0.578102 20.6091C0.578102 20.6091 0.217934 20.7526 0.380076 21.146C0.542219 21.5394 0.905045 21.5315 0.905045 21.5315C0.905045 21.5315 0.854542 22.087 1.46191 22.0644C2.07061 22.0418 3.79703 21.8664 4.20106 21.9156C4.60375 21.9647 5.28023 22.5694 5.28023 22.5694C5.28023 22.5694 7.02393 20.5586 7.48909 19.4768H7.48776Z" fill="#FDC826"/>
<path id="Vector_39" d="M3.36376 19.3796C3.35579 19.3836 3.34649 19.3863 3.33718 19.3863C3.1139 19.3836 1.05789 19.5976 1.03795 19.6002C1.00871 19.6029 0.982131 19.5816 0.979473 19.5537C0.976815 19.5245 0.998079 19.4992 1.02599 19.4953C1.11105 19.4859 3.10859 19.2786 3.33718 19.2813C3.36642 19.2813 3.38901 19.3052 3.38901 19.3344C3.38901 19.3544 3.37838 19.3717 3.36111 19.3796H3.36376Z" fill="#020000"/>
<path id="Vector_40" d="M3.31854 20.2492C3.31854 20.2492 3.30658 20.2545 3.29861 20.2559L1.09241 20.511C1.06317 20.515 1.03659 20.4938 1.03393 20.4645C1.02994 20.4353 1.05121 20.4087 1.08044 20.406L3.28664 20.1509C3.31588 20.1469 3.34246 20.1681 3.34512 20.1974C3.34778 20.22 3.33582 20.2399 3.31854 20.2492Z" fill="#020000"/>
<path id="Vector_41" d="M3.15117 21.1331C3.15117 21.1331 3.14054 21.1384 3.1339 21.1397L1.26394 21.4361C1.2347 21.4401 1.20812 21.4201 1.20281 21.3922C1.19882 21.363 1.21743 21.3364 1.24666 21.3311L3.11662 21.0347C3.14586 21.0307 3.17244 21.0493 3.17775 21.0786C3.18174 21.1012 3.16978 21.1224 3.15117 21.1331Z" fill="#020000"/>
</g>
<path id="Vector_42" d="M7.48781 19.4775L10.1738 21.8831C10.1738 21.8831 15.6321 26.669 11.5507 27.7295C11.5507 27.7295 9.8535 28.0153 7.51439 25.2083C5.25636 22.4998 5.28028 22.5702 5.28028 22.5702C5.28028 22.5702 6.63457 19.964 7.48914 19.4775H7.48781Z" fill="#FDC826"/>
<path id="Vector_43" d="M13.6412 26.1859H13.6385C13.608 26.1859 13.5841 26.1593 13.5854 26.1287L13.7143 21.1834C13.7143 21.1528 13.7409 21.1316 13.7714 21.1289C13.802 21.1289 13.8259 21.1555 13.8259 21.1861L13.697 26.1314C13.697 26.1606 13.6731 26.1846 13.6439 26.1846L13.6412 26.1859Z" fill="#020000"/>
<path id="Vector_44" d="M12.8279 23.9113C12.8119 23.9153 12.796 23.9113 12.7814 23.902L10.2907 22.0081C10.2668 21.9895 10.2615 21.9549 10.2801 21.931C10.2987 21.9071 10.3333 21.9018 10.3572 21.9204L12.8478 23.8142C12.8717 23.8329 12.877 23.8674 12.8584 23.8913C12.8505 23.902 12.8398 23.9086 12.8265 23.9113H12.8279Z" fill="#020000"/>
<path id="Vector_45" d="M5.42639 22.7502C5.41044 22.7542 5.39317 22.7502 5.37987 22.7396C5.35595 22.721 5.35197 22.6865 5.37057 22.6625L7.68841 19.728C7.70702 19.7041 7.74157 19.7001 7.76549 19.7187C7.78942 19.7373 7.7934 19.7719 7.7748 19.7958L5.45696 22.7303C5.44898 22.7409 5.43835 22.7476 5.42639 22.7502Z" fill="#020000"/>
</g>
<g id="Group_11">
<path id="Vector_46" d="M7.48782 12.1219C7.48782 13.0562 6.73027 13.8151 5.79463 13.8151C4.85899 13.8151 4.10144 13.0575 4.10144 12.1219C4.10144 11.1863 4.85899 10.4287 5.79463 10.4287C6.73027 10.4287 7.48782 11.1863 7.48782 12.1219Z" fill="#F66897"/>
<path id="Vector_47" d="M16.201 1.69319C16.201 2.6275 15.4434 3.38638 14.5078 3.38638C13.5721 3.38638 12.8146 2.62883 12.8146 1.69319C12.8146 0.757551 13.5735 0 14.5078 0C15.4421 0 16.201 0.757551 16.201 1.69319Z" fill="#03AB87"/>
<path id="Vector_48" d="M26.8612 2.53597C26.8612 3.47028 26.1037 4.22916 25.168 4.22916C24.2324 4.22916 23.4749 3.47161 23.4749 2.53597C23.4749 1.60032 24.2324 0.842773 25.168 0.842773C26.1037 0.842773 26.8612 1.60032 26.8612 2.53597Z" fill="#F66897"/>
<path id="Vector_49" d="M34.3636 11.4032C34.3636 12.3375 33.606 13.0963 32.6704 13.0963C31.7347 13.0963 30.9772 12.3388 30.9772 11.4032C30.9772 10.4675 31.7347 9.70996 32.6704 9.70996C33.606 9.70996 34.3636 10.4675 34.3636 11.4032Z" fill="#03AB87"/>
<g id="Group_12">
<g id="Group_13">
<path id="Vector_50" d="M8.4447 6.35666C8.4354 6.35666 8.42742 6.35267 8.41945 6.34736C8.3942 6.33141 8.38622 6.29685 8.4035 6.27027C8.41413 6.25432 9.43483 4.68606 10.9034 3.67466C10.9287 3.65739 10.9632 3.66403 10.9805 3.68928C10.9978 3.71454 10.9911 3.74909 10.9659 3.76637C9.51591 4.7658 8.50584 6.31546 8.49653 6.33141C8.48457 6.34869 8.46464 6.35799 8.4447 6.35666Z" fill="#020000"/>
<path id="Vector_51" d="M8.21482 8.17904C8.20817 8.17904 8.20153 8.17638 8.19488 8.17372C8.16697 8.16043 8.15634 8.12721 8.16963 8.0993C8.98699 6.46724 10.3479 5.11029 10.3612 5.097C10.3825 5.07574 10.4184 5.07574 10.4396 5.097C10.4609 5.11827 10.4609 5.15415 10.4396 5.17542C10.4263 5.18871 9.07736 6.53236 8.26931 8.14847C8.25867 8.16974 8.23741 8.18037 8.21482 8.17904Z" fill="#020000"/>
</g>
<g id="Group_14">
<path id="Vector_52" d="M31.7654 8.57423C31.7454 8.57423 31.7268 8.5636 31.7175 8.54632C31.0158 7.27709 29.8276 6.32417 29.8157 6.31487C29.7917 6.29626 29.7878 6.26038 29.8064 6.23779C29.825 6.21386 29.8609 6.20988 29.8834 6.22848C29.8954 6.23779 31.1008 7.20532 31.8132 8.49316C31.8278 8.51974 31.8185 8.55297 31.7919 8.56891C31.784 8.57423 31.7747 8.57556 31.7654 8.57556V8.57423Z" fill="#020000"/>
<path id="Vector_53" d="M30.8085 8.31595C30.7912 8.31595 30.7752 8.30797 30.7646 8.29336C30.7553 8.28139 29.8077 7.03077 28.5797 6.19215C28.5544 6.17487 28.5478 6.14032 28.565 6.11506C28.5823 6.08981 28.6169 6.08317 28.6421 6.10045C29.8861 6.9497 30.8443 8.21361 30.8536 8.2269C30.8723 8.25083 30.8669 8.28538 30.843 8.30399C30.8337 8.31196 30.8218 8.31462 30.8098 8.31462L30.8085 8.31595Z" fill="#020000"/>
</g>
</g>
</g>
</g>
<defs>
<clipPath id="clip0_3904_99923">
<rect width="37.2821" height="40" fill="white"/>
</clipPath>
</defs>
</svg>
