<svg width="16" height="17" viewBox="0 0 16 17" fill="none" xmlns="http://www.w3.org/2000/svg">
<g id="heart 2">
<path id="Vector" d="M13.8933 3.5726C13.5528 3.23193 13.1485 2.96169 12.7036 2.77732C12.2586 2.59295 11.7817 2.49805 11.3 2.49805C10.8183 2.49805 10.3414 2.59295 9.89643 2.77732C9.45146 2.96169 9.04717 3.23193 8.70667 3.5726L8 4.27926L7.29333 3.5726C6.60554 2.8848 5.67269 2.4984 4.7 2.4984C3.72731 2.4984 2.79446 2.8848 2.10666 3.5726C1.41887 4.26039 1.03247 5.19324 1.03247 6.16593C1.03247 7.13862 1.41887 8.07147 2.10666 8.75926L2.81333 9.46593L8 14.6526L13.1867 9.46593L13.8933 8.75926C14.234 8.41876 14.5042 8.01447 14.6886 7.5695C14.873 7.12453 14.9679 6.64759 14.9679 6.16593C14.9679 5.68427 14.873 5.20733 14.6886 4.76236C14.5042 4.31739 14.234 3.9131 13.8933 3.5726Z" stroke="#9D9D9D" stroke-linecap="round" stroke-linejoin="round"/>
</g>
</svg>
