<svg width="20" height="20" viewBox="0 0 20 20" fill="none" xmlns="http://www.w3.org/2000/svg">
<g id="interface-hierarchy-2--Streamline-Flex" clip-path="url(#clip0_3904_99725)">
<path id="Vector" d="M9.99972 6.78557C11.8283 6.78557 12.8569 5.757 12.8569 3.92843C12.8569 2.09986 11.8283 1.07129 9.99972 1.07129C8.17115 1.07129 7.14258 2.09986 7.14258 3.92843C7.14258 5.757 8.17115 6.78557 9.99972 6.78557Z" fill="#BADDFD"/>
<path id="Vector_2" d="M3.21415 18.9283C4.58557 18.9283 5.357 18.1569 5.357 16.7854C5.357 15.414 4.58557 14.6426 3.21415 14.6426C1.84272 14.6426 1.07129 15.414 1.07129 16.7854C1.07129 18.1569 1.84272 18.9283 3.21415 18.9283Z" fill="#BADDFD"/>
<path id="Vector_3" d="M10.0003 18.9283C11.3717 18.9283 12.1431 18.1569 12.1431 16.7854C12.1431 15.414 11.3717 14.6426 10.0003 14.6426C8.62885 14.6426 7.85742 15.414 7.85742 16.7854C7.85742 18.1569 8.62885 18.9283 10.0003 18.9283Z" fill="#BADDFD"/>
<path id="Vector_4" d="M16.7854 18.9283C18.1569 18.9283 18.9283 18.1569 18.9283 16.7854C18.9283 15.414 18.1569 14.6426 16.7854 14.6426C15.414 14.6426 14.6426 15.414 14.6426 16.7854C14.6426 18.1569 15.414 18.9283 16.7854 18.9283Z" fill="#BADDFD"/>
<path id="Vector_5" d="M9.99972 6.78557C11.8283 6.78557 12.8569 5.757 12.8569 3.92843C12.8569 2.09986 11.8283 1.07129 9.99972 1.07129C8.17115 1.07129 7.14258 2.09986 7.14258 3.92843C7.14258 5.757 8.17115 6.78557 9.99972 6.78557Z" stroke="black" stroke-width="1.71455" stroke-linecap="round" stroke-linejoin="round"/>
<path id="Vector_6" d="M3.21415 18.9283C4.58557 18.9283 5.357 18.1569 5.357 16.7854C5.357 15.414 4.58557 14.6426 3.21415 14.6426C1.84272 14.6426 1.07129 15.414 1.07129 16.7854C1.07129 18.1569 1.84272 18.9283 3.21415 18.9283Z" stroke="black" stroke-width="1.71455" stroke-linecap="round" stroke-linejoin="round"/>
<path id="Vector_7" d="M10.0003 18.9283C11.3717 18.9283 12.1431 18.1569 12.1431 16.7854C12.1431 15.414 11.3717 14.6426 10.0003 14.6426C8.62885 14.6426 7.85742 15.414 7.85742 16.7854C7.85742 18.1569 8.62885 18.9283 10.0003 18.9283Z" stroke="black" stroke-width="1.71455" stroke-linecap="round" stroke-linejoin="round"/>
<path id="Vector_8" d="M16.7854 18.9283C18.1569 18.9283 18.9283 18.1569 18.9283 16.7854C18.9283 15.414 18.1569 14.6426 16.7854 14.6426C15.414 14.6426 14.6426 15.414 14.6426 16.7854C14.6426 18.1569 15.414 18.9283 16.7854 18.9283Z" stroke="black" stroke-width="1.71455" stroke-linecap="round" stroke-linejoin="round"/>
<path id="Vector_9" d="M2.85742 14.6431V13.2146C2.85742 11.6366 4.13661 10.3574 5.71456 10.3574H14.286C15.864 10.3574 17.1431 11.6366 17.1431 13.2146V14.6431" stroke="black" stroke-width="1.71455"/>
<path id="Vector_10" d="M10 6.78613V14.6433" stroke="black" stroke-width="1.71455"/>
</g>
<defs>
<clipPath id="clip0_3904_99725">
<rect width="20" height="20" fill="white"/>
</clipPath>
</defs>
</svg>
