<svg width="20" height="20" viewBox="0 0 20 20" fill="none" xmlns="http://www.w3.org/2000/svg">
<g clip-path="url(#clip0_3904_99691)">
<path d="M4.01054 8.2574C3.97346 8.94517 4.53115 9.4798 5.21986 9.48901C6.74712 9.50944 8.79831 9.44407 10 9.44407C11.2017 9.44407 13.2529 9.50944 14.7801 9.48901C15.4688 9.4798 16.0265 8.94517 15.9895 8.2574C15.886 6.33803 15.1981 4.15144 14.7738 2.77466C14.5908 2.181 14.0638 1.74171 13.4456 1.68088C12.3373 1.57183 11.1841 1.44531 10 1.44531C8.81591 1.44531 7.66272 1.57183 6.55446 1.68088C5.93625 1.74171 5.40915 2.181 5.22621 2.77466C4.80194 4.15144 4.11402 6.33803 4.01054 8.2574Z" fill="#BADDFD"/>
<path d="M14.7802 9.48901C15.4689 9.4798 16.0266 8.94517 15.9895 8.2574C15.8861 6.33803 15.1981 4.15144 14.7738 2.77466C14.5909 2.181 14.0638 1.74171 13.4456 1.68088C12.3373 1.57183 11.1841 1.44531 10 1.44531C8.81591 1.44531 7.66272 1.57183 6.55446 1.68088C5.93625 1.74171 5.40915 2.181 5.22621 2.77466C4.80192 4.15144 4.11402 6.33803 4.01054 8.2574C3.97346 8.94517 4.53115 9.4798 5.21986 9.48901" stroke="black" stroke-width="1.71455"/>
<path d="M1.42871 9.49219H18.5716" stroke="black" stroke-width="1.71455" stroke-linecap="round"/>
<path d="M8.37695 15.7795C9.27314 14.8834 10.7261 14.8834 11.6223 15.7795" stroke="black" stroke-width="1.71455"/>
<path d="M5.8781 18.4662C7.36138 18.4662 8.56381 17.2637 8.56381 15.7804C8.56381 14.2972 7.36138 13.0947 5.8781 13.0947C4.39482 13.0947 3.19238 14.2972 3.19238 15.7804C3.19238 17.2637 4.39482 18.4662 5.8781 18.4662Z" fill="white"/>
<path d="M14.1213 18.4662C15.6045 18.4662 16.807 17.2637 16.807 15.7804C16.807 14.2972 15.6045 13.0947 14.1213 13.0947C12.638 13.0947 11.4355 14.2972 11.4355 15.7804C11.4355 17.2637 12.638 18.4662 14.1213 18.4662Z" fill="white"/>
<path d="M5.8781 18.4662C7.36138 18.4662 8.56381 17.2637 8.56381 15.7804C8.56381 14.2972 7.36138 13.0947 5.8781 13.0947C4.39482 13.0947 3.19238 14.2972 3.19238 15.7804C3.19238 17.2637 4.39482 18.4662 5.8781 18.4662Z" stroke="black" stroke-width="1.71455"/>
<path d="M14.1213 18.4662C15.6045 18.4662 16.807 17.2637 16.807 15.7804C16.807 14.2972 15.6045 13.0947 14.1213 13.0947C12.638 13.0947 11.4355 14.2972 11.4355 15.7804C11.4355 17.2637 12.638 18.4662 14.1213 18.4662Z" stroke="black" stroke-width="1.71455"/>
</g>
<defs>
<clipPath id="clip0_3904_99691">
<rect width="20" height="20" fill="white"/>
</clipPath>
</defs>
</svg>
