<svg width="20" height="20" viewBox="0 0 20 20" fill="none" xmlns="http://www.w3.org/2000/svg">
<g clip-path="url(#clip0_3904_99619)">
<path d="M10.0002 18.7503C14.8327 18.7503 18.7505 14.8328 18.7505 10.0002C18.7505 5.16761 14.8327 1.25 10.0002 1.25C5.1676 1.25 1.25 5.16761 1.25 10.0002C1.25 14.8328 5.1676 18.7503 10.0002 18.7503Z" fill="white"/>
<path d="M6.04984 13.4017C5.85553 11.4881 6.65004 9.48461 7.73871 7.73828L12.2617 12.2615C10.5154 13.3501 8.5119 14.1447 6.59839 13.9503C6.30773 13.9207 6.07937 13.6924 6.04984 13.4017Z" fill="white"/>
<path d="M10.0002 18.7503C14.8327 18.7503 18.7505 14.8328 18.7505 10.0002C18.7505 5.16761 14.8327 1.25 10.0002 1.25C5.1676 1.25 1.25 5.16761 1.25 10.0002C1.25 14.8328 5.1676 18.7503 10.0002 18.7503Z" stroke="black" stroke-width="1.71455" stroke-linecap="round" stroke-linejoin="round"/>
<path d="M13.9511 6.59846C14.1454 8.51203 13.3509 10.5155 12.2622 12.2619L7.73926 7.73868C9.48551 6.65006 11.489 5.85544 13.4025 6.04987C13.6932 6.07941 13.9216 6.3078 13.9511 6.59846Z" fill="#BADDFD"/>
<path d="M13.9501 6.59846C14.1444 8.51203 13.3499 10.5155 12.2613 12.2619L7.73828 7.73868C9.48454 6.65006 11.4881 5.85544 13.4016 6.04987C13.6922 6.07941 13.9206 6.3078 13.9501 6.59846Z" stroke="black" stroke-width="1.71455" stroke-linecap="round" stroke-linejoin="round"/>
<path d="M6.04985 13.4017C5.85552 11.4881 6.65005 9.48461 7.73872 7.73828L12.2617 12.2615C10.5154 13.3501 8.5119 14.1447 6.59839 13.9503C6.30773 13.9207 6.07936 13.6924 6.04985 13.4017Z" stroke="black" stroke-width="1.71455" stroke-linecap="round" stroke-linejoin="round"/>
</g>
<defs>
<clipPath id="clip0_3904_99619">
<rect width="20" height="20" fill="white"/>
</clipPath>
</defs>
</svg>
