<svg width="30" height="30" viewBox="0 0 30 30" fill="none" xmlns="http://www.w3.org/2000/svg">
<g id="calendar-heart-01">
<path id="Icon" d="M26.25 10H3.75M20 2.5V6.25M10 2.5V6.25M9.75 27.5H20.25C22.3502 27.5 23.4003 27.5 24.2025 27.0913C24.9081 26.7317 25.4817 26.1581 25.8413 25.4525C26.25 24.6503 26.25 23.6002 26.25 21.5V11C26.25 8.8998 26.25 7.8497 25.8413 7.04754C25.4817 6.34193 24.9081 5.76825 24.2025 5.40873C23.4003 5 22.3502 5 20.25 5H9.75C7.6498 5 6.5997 5 5.79754 5.40873C5.09193 5.76825 4.51825 6.34193 4.15873 7.04754C3.75 7.8497 3.75 8.8998 3.75 11V21.5C3.75 23.6002 3.75 24.6503 4.15873 25.4525C4.51825 26.1581 5.09193 26.7317 5.79754 27.0913C6.5997 27.5 7.6498 27.5 9.75 27.5ZM14.9966 15.4132C13.9969 14.277 12.3299 13.9714 11.0773 15.0118C9.82482 16.0523 9.64848 17.7919 10.6321 19.0224C11.3462 19.9159 13.3241 21.6746 14.3542 22.5712C14.5775 22.7655 14.6891 22.8627 14.82 22.9012C14.9333 22.9346 15.0599 22.9346 15.1732 22.9012C15.304 22.8627 15.4157 22.7655 15.639 22.5712C16.6691 21.6746 18.6469 19.9159 19.3611 19.0224C20.3447 17.7919 20.1899 16.0413 18.9158 15.0118C17.6417 13.9823 15.9963 14.277 14.9966 15.4132Z" stroke="black" stroke-width="2" stroke-linecap="round" stroke-linejoin="round"/>
</g>
</svg>
