<svg width="30" height="30" viewBox="0 0 30 30" fill="none" xmlns="http://www.w3.org/2000/svg">
<g id="face-happy">
<path id="Icon" d="M18.75 11.25H18.7625M11.25 11.25H11.2625M27.5 15C27.5 21.9036 21.9036 27.5 15 27.5C8.09644 27.5 2.5 21.9036 2.5 15C2.5 8.09644 8.09644 2.5 15 2.5C21.9036 2.5 27.5 8.09644 27.5 15ZM19.375 11.25C19.375 11.5952 19.0952 11.875 18.75 11.875C18.4048 11.875 18.125 11.5952 18.125 11.25C18.125 10.9048 18.4048 10.625 18.75 10.625C19.0952 10.625 19.375 10.9048 19.375 11.25ZM11.875 11.25C11.875 11.5952 11.5952 11.875 11.25 11.875C10.9048 11.875 10.625 11.5952 10.625 11.25C10.625 10.9048 10.9048 10.625 11.25 10.625C11.5952 10.625 11.875 10.9048 11.875 11.25ZM15 21.875C18.1256 21.875 20.625 19.5838 20.625 17.5H9.375C9.375 19.5838 11.8744 21.875 15 21.875Z" stroke="black" stroke-width="2" stroke-linecap="round" stroke-linejoin="round"/>
</g>
</svg>
