<svg width="30" height="30" viewBox="0 0 30 30" fill="none" xmlns="http://www.w3.org/2000/svg">
<g id="graduation-hat-02">
<path id="Icon" d="M21.25 18.1254V14.3685C21.25 14.1441 21.25 14.032 21.2158 13.9329C21.1856 13.8453 21.1363 13.7656 21.0715 13.6994C20.9982 13.6246 20.8979 13.5744 20.6972 13.4741L15 10.6254M5 11.8754V20.3837C5 20.8486 5 21.0811 5.07252 21.2846C5.13664 21.4645 5.24113 21.6273 5.37797 21.7606C5.53277 21.9113 5.74409 22.0082 6.16669 22.2018L14.1667 25.8685C14.4732 26.009 14.6265 26.0793 14.7862 26.107C14.9277 26.1316 15.0723 26.1316 15.2138 26.107C15.3735 26.0793 15.5268 26.009 15.8333 25.8685L23.8333 22.2018C24.2559 22.0082 24.4672 21.9113 24.622 21.7606C24.7589 21.6273 24.8634 21.4645 24.9275 21.2846C25 21.0811 25 20.8486 25 20.3837V11.8754M2.5 10.6254L14.5528 4.59905C14.7168 4.51707 14.7988 4.47607 14.8848 4.45994C14.9609 4.44565 15.0391 4.44565 15.1152 4.45994C15.2012 4.47607 15.2832 4.51707 15.4472 4.59905L27.5 10.6254L15.4472 16.6518C15.2832 16.7338 15.2012 16.7748 15.1152 16.791C15.0391 16.8053 14.9609 16.8053 14.8848 16.791C14.7988 16.7748 14.7168 16.7338 14.5528 16.6518L2.5 10.6254Z" stroke="#0092fb" stroke-width="2.5" stroke-linecap="round" stroke-linejoin="round"/>
</g>
</svg>
