<svg width="30" height="30" viewBox="0 0 30 30" fill="none" xmlns="http://www.w3.org/2000/svg">
<g id="stars-01">
<g id="Icon">
<path d="M8.125 16.25L9.10557 18.2111C9.43743 18.8749 9.60337 19.2067 9.82504 19.4943C10.0217 19.7495 10.2505 19.9783 10.5057 20.175C10.7933 20.3966 11.1251 20.5626 11.7889 20.8944L13.75 21.875L11.7889 22.8556C11.1251 23.1874 10.7933 23.3534 10.5057 23.575C10.2505 23.7717 10.0217 24.0005 9.82504 24.2557C9.60337 24.5433 9.43743 24.8751 9.10557 25.5389L8.125 27.5L7.14443 25.5389C6.81257 24.8751 6.64663 24.5433 6.42496 24.2557C6.22826 24.0005 5.99949 23.7717 5.74431 23.575C5.45673 23.3534 5.12487 23.1874 4.46115 22.8556L2.5 21.875L4.46115 20.8944C5.12487 20.5626 5.45673 20.3966 5.74431 20.175C5.99949 19.9783 6.22826 19.7495 6.42496 19.4943C6.64663 19.2067 6.81257 18.8749 7.14443 18.2111L8.125 16.25Z" stroke="#0092fb" stroke-width="2.5" stroke-linecap="round" stroke-linejoin="round"/>
<path d="M18.75 2.5L20.2233 6.33052C20.5758 7.24706 20.752 7.70533 21.0261 8.0908C21.2691 8.43244 21.5676 8.73093 21.9092 8.97386C22.2947 9.24795 22.7529 9.42421 23.6695 9.77672L27.5 11.25L23.6695 12.7233C22.7529 13.0758 22.2947 13.252 21.9092 13.5261C21.5676 13.7691 21.2691 14.0676 21.0261 14.4092C20.7521 14.7947 20.5758 15.2529 20.2233 16.1695L18.75 20L17.2767 16.1695C16.9242 15.2529 16.748 14.7947 16.4739 14.4092C16.2309 14.0676 15.9324 13.7691 15.5908 13.5261C15.2053 13.252 14.7471 13.0758 13.8305 12.7233L10 11.25L13.8305 9.77672C14.7471 9.42421 15.2053 9.24795 15.5908 8.97386C15.9324 8.73093 16.2309 8.43244 16.4739 8.0908C16.748 7.70533 16.9242 7.24706 17.2767 6.33052L18.75 2.5Z" stroke="#0092fb" stroke-width="2.5" stroke-linecap="round" stroke-linejoin="round"/>
</g>
</g>
</svg>
