<svg width="30" height="30" viewBox="0 0 30 30" fill="none" xmlns="http://www.w3.org/2000/svg">
<g id="coins-stacked-03">
<path id="Icon" d="M16.25 6.25C16.25 7.63071 13.172 8.75 9.375 8.75C5.57804 8.75 2.5 7.63071 2.5 6.25M16.25 6.25C16.25 4.86929 13.172 3.75 9.375 3.75C5.57804 3.75 2.5 4.86929 2.5 6.25M16.25 6.25V8.125M2.5 6.25V21.25C2.5 22.6307 5.57804 23.75 9.375 23.75M9.375 13.75C9.16432 13.75 8.95585 13.7466 8.75 13.7398C5.24594 13.625 2.5 12.5541 2.5 11.25M9.375 18.75C5.57804 18.75 2.5 17.6307 2.5 16.25M27.5 14.375C27.5 15.7557 24.422 16.875 20.625 16.875C16.828 16.875 13.75 15.7557 13.75 14.375M27.5 14.375C27.5 12.9943 24.422 11.875 20.625 11.875C16.828 11.875 13.75 12.9943 13.75 14.375M27.5 14.375V23.75C27.5 25.1307 24.422 26.25 20.625 26.25C16.828 26.25 13.75 25.1307 13.75 23.75V14.375M27.5 19.0625C27.5 20.4432 24.422 21.5625 20.625 21.5625C16.828 21.5625 13.75 20.4432 13.75 19.0625" stroke="black" stroke-width="2" stroke-linecap="round" stroke-linejoin="round"/>
</g>
</svg>
