<svg width="30" height="30" viewBox="0 0 30 30" fill="none" xmlns="http://www.w3.org/2000/svg">
<g id="medical-circle">
<g id="Icon">
<path d="M15 27.5C21.9036 27.5 27.5 21.9036 27.5 15C27.5 8.09644 21.9036 2.5 15 2.5C8.09644 2.5 2.5 8.09644 2.5 15C2.5 21.9036 8.09644 27.5 15 27.5Z" stroke="#0092fb" stroke-width="2.5" stroke-linecap="round" stroke-linejoin="round"/>
<path d="M17.2917 9.125C17.2917 8.77497 17.2917 8.59995 17.2235 8.46626C17.1636 8.34865 17.068 8.25304 16.9504 8.19312C16.8167 8.125 16.6417 8.125 16.2917 8.125H13.7083C13.3583 8.125 13.1833 8.125 13.0496 8.19312C12.932 8.25304 12.8364 8.34865 12.7765 8.46626C12.7083 8.59995 12.7083 8.77497 12.7083 9.125V11.7083C12.7083 12.0584 12.7083 12.2334 12.6402 12.3671C12.5803 12.4847 12.4847 12.5803 12.3671 12.6402C12.2334 12.7083 12.0584 12.7083 11.7083 12.7083H9.125C8.77497 12.7083 8.59995 12.7083 8.46626 12.7765C8.34865 12.8364 8.25304 12.932 8.19312 13.0496C8.125 13.1833 8.125 13.3583 8.125 13.7083V16.2917C8.125 16.6417 8.125 16.8167 8.19312 16.9504C8.25304 17.068 8.34865 17.1636 8.46626 17.2235C8.59995 17.2917 8.77497 17.2917 9.125 17.2917H11.7083C12.0584 17.2917 12.2334 17.2917 12.3671 17.3598C12.4847 17.4197 12.5803 17.5153 12.6402 17.6329C12.7083 17.7666 12.7083 17.9416 12.7083 18.2917V20.875C12.7083 21.225 12.7083 21.4 12.7765 21.5337C12.8364 21.6513 12.932 21.747 13.0496 21.8069C13.1833 21.875 13.3583 21.875 13.7083 21.875H16.2917C16.6417 21.875 16.8167 21.875 16.9504 21.8069C17.068 21.747 17.1636 21.6513 17.2235 21.5337C17.2917 21.4 17.2917 21.225 17.2917 20.875V18.2917C17.2917 17.9416 17.2917 17.7666 17.3598 17.6329C17.4197 17.5153 17.5153 17.4197 17.6329 17.3598C17.7666 17.2917 17.9416 17.2917 18.2917 17.2917H20.875C21.225 17.2917 21.4 17.2917 21.5337 17.2235C21.6513 17.1636 21.747 17.068 21.8069 16.9504C21.875 16.8167 21.875 16.6417 21.875 16.2917V13.7083C21.875 13.3583 21.875 13.1833 21.8069 13.0496C21.747 12.932 21.6513 12.8364 21.5337 12.7765C21.4 12.7083 21.225 12.7083 20.875 12.7083H18.2917C17.9416 12.7083 17.7666 12.7083 17.6329 12.6402C17.5153 12.5803 17.4197 12.4847 17.3598 12.3671C17.2917 12.2334 17.2917 12.0584 17.2917 11.7083V9.125Z" stroke="#0092fb" stroke-width="2.5" stroke-linecap="round" stroke-linejoin="round"/>
</g>
</g>
</svg>
