<svg width="30" height="30" viewBox="0 0 30 30" fill="none" xmlns="http://www.w3.org/2000/svg">
<g id="umbrella">
<path id="Icon" d="M16.0908 15.8441L13.062 21.0903M21.5839 4.89112C19.0185 6.45641 13.8298 10.5506 13.5984 14.4051M22.83 5.61055C22.814 8.64776 21.9593 15.2442 18.6687 17.3324M2.25 23.9873L5.41681 22.5941C7.35187 21.7428 9.48397 21.4408 11.5793 21.7211L11.6763 21.7341C13.8039 22.0187 15.8096 22.8925 17.4668 24.2568L20 26.3422M8.33276 11.365L23.8489 20.3232C24.7265 20.8299 25.8486 20.5292 26.3553 19.6516C29.2264 14.6787 27.5226 8.3198 22.5496 5.44866L21.8642 5.05291C16.8912 2.18178 10.5323 3.88564 7.66118 8.85859C7.1545 9.73617 7.45518 10.8583 8.33276 11.365Z" stroke="#0092fb" stroke-width="2.5" stroke-linecap="round" stroke-linejoin="round"/>
</g>
</svg>
