<svg width="30" height="30" viewBox="0 0 30 30" fill="none" xmlns="http://www.w3.org/2000/svg">
<g id="luggage-01">
<g id="Group">
<path id="Vector" d="M21.75 14.0625C24.2353 14.0625 26.25 11.5441 26.25 8.4375C26.25 5.3309 24.2353 2.8125 21.75 2.8125C19.2647 2.8125 17.25 5.3309 17.25 8.4375C17.25 11.5441 19.2647 14.0625 21.75 14.0625Z" stroke="black" stroke-width="2" stroke-linecap="round" stroke-linejoin="round"/>
<path id="Vector_2" d="M21.75 14.0625V27.1875" stroke="black" stroke-width="2" stroke-linecap="round" stroke-linejoin="round"/>
<g id="Group_2">
<path id="Vector_3" d="M8.4375 2.8125V27.1875" stroke="black" stroke-width="2" stroke-linecap="round" stroke-linejoin="round"/>
<path id="Vector_4" d="M13.125 2.8125V7.5C13.125 8.11557 13.0038 8.72512 12.7682 9.29383C12.5326 9.86254 12.1873 10.3793 11.7521 10.8146C11.3168 11.2498 10.8 11.5951 10.2313 11.8307C9.66261 12.0663 9.05307 12.1875 8.4375 12.1875V12.1875C7.1943 12.1875 6.00201 11.6936 5.12294 10.8146C4.24386 9.93549 3.75 8.7432 3.75 7.5V2.8125" stroke="black" stroke-width="2" stroke-linecap="round" stroke-linejoin="round"/>
</g>
</g>
</g>
</svg>
