<svg width="30" height="30" viewBox="0 0 30 30" fill="none" xmlns="http://www.w3.org/2000/svg">
<g id="box">
<path id="Icon" d="M25.625 10V20.25C25.625 22.3502 25.625 23.4003 25.2163 24.2025C24.8567 24.9081 24.2831 25.4817 23.5775 25.8413C22.7753 26.25 21.7252 26.25 19.625 26.25H10.375C8.2748 26.25 7.2247 26.25 6.42254 25.8413C5.71693 25.4817 5.14325 24.9081 4.78373 24.2025C4.375 23.4003 4.375 22.3502 4.375 20.25V10M4.5 3.75H25.5C26.2001 3.75 26.5501 3.75 26.8175 3.88624C27.0527 4.00608 27.2439 4.19731 27.3638 4.43251C27.5 4.6999 27.5 5.04993 27.5 5.75V8C27.5 8.70007 27.5 9.0501 27.3638 9.31749C27.2439 9.55269 27.0527 9.74392 26.8175 9.86376C26.5501 10 26.2001 10 25.5 10H4.5C3.79993 10 3.4499 10 3.18251 9.86376C2.94731 9.74392 2.75608 9.55269 2.63624 9.31749C2.5 9.0501 2.5 8.70007 2.5 8V5.75C2.5 5.04993 2.5 4.6999 2.63624 4.43251C2.75608 4.19731 2.94731 4.00608 3.18251 3.88624C3.4499 3.75 3.79993 3.75 4.5 3.75ZM12 14.375H18C18.7001 14.375 19.0501 14.375 19.3175 14.5112C19.5527 14.6311 19.7439 14.8223 19.8638 15.0575C20 15.3249 20 15.6749 20 16.375V17.375C20 18.0751 20 18.4251 19.8638 18.6925C19.7439 18.9277 19.5527 19.1189 19.3175 19.2388C19.0501 19.375 18.7001 19.375 18 19.375H12C11.2999 19.375 10.9499 19.375 10.6825 19.2388C10.4473 19.1189 10.2561 18.9277 10.1362 18.6925C10 18.4251 10 18.0751 10 17.375V16.375C10 15.6749 10 15.3249 10.1362 15.0575C10.2561 14.8223 10.4473 14.6311 10.6825 14.5112C10.9499 14.375 11.2999 14.375 12 14.375Z" stroke="#0092fb" stroke-width="2.5" stroke-linecap="round" stroke-linejoin="round"/>
</g>
</svg>
