<svg width="30" height="30" viewBox="0 0 30 30" fill="none" xmlns="http://www.w3.org/2000/svg">
<g id="bus">
<path id="Icon" d="M10.625 23.75V26.5C10.625 26.85 10.625 27.025 10.5569 27.1587C10.497 27.2763 10.4013 27.372 10.2837 27.4319C10.15 27.5 9.97503 27.5 9.625 27.5H7.25C6.89997 27.5 6.72495 27.5 6.59126 27.4319C6.47365 27.372 6.37804 27.2763 6.31812 27.1587C6.25 27.025 6.25 26.85 6.25 26.5V23.75M23.75 23.75V26.5C23.75 26.85 23.75 27.025 23.6819 27.1587C23.622 27.2763 23.5263 27.372 23.4087 27.4319C23.275 27.5 23.1 27.5 22.75 27.5H20.375C20.025 27.5 19.85 27.5 19.7163 27.4319C19.5987 27.372 19.503 27.2763 19.4431 27.1587C19.375 27.025 19.375 26.85 19.375 26.5V23.75M3.75 15H26.25M3.75 6.875H26.25M8.125 19.375H10M20 19.375H21.875M9.75 23.75H20.25C22.3502 23.75 23.4003 23.75 24.2025 23.3413C24.9081 22.9817 25.4817 22.4081 25.8413 21.7025C26.25 20.9003 26.25 19.8502 26.25 17.75V8.5C26.25 6.3998 26.25 5.3497 25.8413 4.54754C25.4817 3.84193 24.9081 3.26825 24.2025 2.90873C23.4003 2.5 22.3502 2.5 20.25 2.5H9.75C7.6498 2.5 6.5997 2.5 5.79754 2.90873C5.09193 3.26825 4.51825 3.84193 4.15873 4.54754C3.75 5.3497 3.75 6.3998 3.75 8.5V17.75C3.75 19.8502 3.75 20.9003 4.15873 21.7025C4.51825 22.4081 5.09193 22.9817 5.79754 23.3413C6.5997 23.75 7.6498 23.75 9.75 23.75Z" stroke="#0092fb" stroke-width="2.5" stroke-linecap="round" stroke-linejoin="round"/>
</g>
</svg>
