<svg width="30" height="30" viewBox="0 0 30 30" fill="none" xmlns="http://www.w3.org/2000/svg">
<g id="building-03">
<path id="Icon" d="M9.375 8.75H12.8125M9.375 13.75H12.8125M9.375 18.75H12.8125M17.1875 8.75H20.625M17.1875 13.75H20.625M17.1875 18.75H20.625M25 26.25V7.75C25 6.34987 25 5.6498 24.7275 5.11502C24.4878 4.64462 24.1054 4.26217 23.635 4.02248C23.1002 3.75 22.4001 3.75 21 3.75H9C7.59987 3.75 6.8998 3.75 6.36502 4.02248C5.89462 4.26217 5.51217 4.64462 5.27248 5.11502C5 5.6498 5 6.34987 5 7.75V26.25M27.5 26.25H2.5" stroke="black" stroke-width="2" stroke-linecap="round" stroke-linejoin="round"/>
</g>
</svg>
