<svg width="30" height="30" viewBox="0 0 30 30" fill="none" xmlns="http://www.w3.org/2000/svg">
<g id="shield-plus">
<path id="Icon" d="M15 18.125V10.625M11.25 14.375H18.75M25 15C25 21.1355 18.3075 25.598 15.8725 27.0186C15.5957 27.18 15.4574 27.2607 15.2621 27.3026C15.1106 27.3351 14.8894 27.3351 14.7379 27.3026C14.5426 27.2607 14.4043 27.18 14.1275 27.0186C11.6925 25.598 5 21.1355 5 15V9.02196C5 8.02257 5 7.52288 5.16345 7.09334C5.30784 6.71389 5.54248 6.37531 5.84707 6.10687C6.19187 5.80301 6.65975 5.62755 7.59551 5.27665L14.2978 2.7633C14.5576 2.66585 14.6876 2.61713 14.8212 2.59781C14.9398 2.58068 15.0602 2.58068 15.1788 2.59781C15.3124 2.61713 15.4424 2.66585 15.7022 2.7633L22.4045 5.27665C23.3403 5.62755 23.8081 5.80301 24.1529 6.10687C24.4575 6.37531 24.6922 6.71389 24.8365 7.09334C25 7.52288 25 8.02257 25 9.02196V15Z" stroke="#0092fb" stroke-width="2.5" stroke-linecap="round" stroke-linejoin="round"/>
</g>
</svg>
