<svg width="30" height="30" viewBox="0 0 30 30" fill="none" xmlns="http://www.w3.org/2000/svg">
<g id="luggage-01">
<path id="Icon" d="M10 27.5V25M11.875 18.75V8.75M20 27.5V25M18.125 18.75V8.75M11 25H19C21.1002 25 22.1503 25 22.9525 24.5913C23.6581 24.2317 24.2317 23.6581 24.5913 22.9525C25 22.1503 25 21.1002 25 19V8.5C25 6.3998 25 5.3497 24.5913 4.54754C24.2317 3.84193 23.6581 3.26825 22.9525 2.90873C22.1503 2.5 21.1002 2.5 19 2.5H11C8.8998 2.5 7.8497 2.5 7.04754 2.90873C6.34193 3.26825 5.76825 3.84193 5.40873 4.54754C5 5.3497 5 6.3998 5 8.5V19C5 21.1002 5 22.1503 5.40873 22.9525C5.76825 23.6581 6.34193 24.2317 7.04754 24.5913C7.8497 25 8.8998 25 11 25Z" stroke="black" stroke-width="2" stroke-linecap="round" stroke-linejoin="round"/>
</g>
</svg>
