<svg width="15" height="16" viewBox="0 0 15 16" fill="none" xmlns="http://www.w3.org/2000/svg">
<path d="M12.9946 8.37987C13.1472 8.24909 13.2235 8.1837 13.2514 8.10589C13.2759 8.0376 13.2759 7.96289 13.2514 7.8946C13.2235 7.81678 13.1472 7.75139 12.9946 7.62062L7.7004 3.08273C7.43775 2.8576 7.30643 2.74504 7.19525 2.74228C7.09862 2.73989 7.00633 2.78234 6.94526 2.85726C6.875 2.94347 6.875 3.11643 6.875 3.46235V6.14689C5.54083 6.3803 4.31975 7.05634 3.41232 8.07141C2.42302 9.17806 1.87577 10.6102 1.875 12.0946V12.4771C2.53084 11.687 3.34969 11.0481 4.27547 10.6039C5.09169 10.2124 5.97401 9.98044 6.875 9.91932V12.5381C6.875 12.8841 6.875 13.057 6.94526 13.1432C7.00633 13.2182 7.09862 13.2606 7.19525 13.2582C7.30643 13.2554 7.43775 13.1429 7.7004 12.9178L12.9946 8.37987Z" stroke="white" stroke-linecap="round" stroke-linejoin="round"/>
</svg>
