<svg width="41" height="41" viewBox="0 0 41 41" fill="none" xmlns="http://www.w3.org/2000/svg">
<rect x="0.5" y="0.5" width="40" height="40" rx="20" fill="#757575"/>
<path d="M18.9999 21.251C19.322 21.6815 19.7329 22.0378 20.2048 22.2957C20.6767 22.5535 21.1985 22.7068 21.7349 22.7452C22.2713 22.7836 22.8096 22.7062 23.3134 22.5183C23.8172 22.3303 24.2747 22.0363 24.6549 21.656L26.9049 19.406C27.588 18.6987 27.966 17.7514 27.9574 16.7682C27.9489 15.785 27.5545 14.8444 26.8592 14.1491C26.1639 13.4539 25.2234 13.0595 24.2402 13.0509C23.2569 13.0424 22.3097 13.4204 21.6024 14.1035L20.3124 15.386M21.9999 19.751C21.6778 19.3204 21.2669 18.9641 20.795 18.7062C20.3231 18.4484 19.8013 18.2951 19.2649 18.2567C18.7286 18.2183 18.1902 18.2957 17.6864 18.4836C17.1826 18.6716 16.7251 18.9656 16.3449 19.346L14.0949 21.596C13.4118 22.3032 13.0338 23.2505 13.0424 24.2337C13.0509 25.2169 13.4453 26.1575 14.1406 26.8528C14.8359 27.5481 15.7764 27.9424 16.7597 27.951C17.7429 27.9595 18.6901 27.5815 19.3974 26.8985L20.6799 25.616" stroke="white" stroke-width="1.5" stroke-linecap="round" stroke-linejoin="round"/>
</svg>
