<svg width="24" height="24" viewBox="0 0 24 24" fill="none" xmlns="http://www.w3.org/2000/svg">
<path d="M18.5497 16.4199C18.6284 17.6903 17.5828 18.7397 16.3086 18.661C15.2593 18.5935 14.4085 17.7428 14.3411 16.6935C14.2624 15.423 15.308 14.3737 16.5822 14.4524C17.6315 14.5199 18.4822 15.3706 18.5497 16.4199Z" fill="#0092FB"/>
<path d="M18.3858 4.94151C18.1347 5.11015 18.0073 5.29753 17.8387 5.736L13.1542 18.5416L10.4484 18.5341L6.15736 5.70977C6.0112 5.26755 5.86504 5.08017 5.61395 4.91152L5.00684 4.51053V4.11328L11.3216 4.12827V4.52552L10.186 4.96399C9.89373 5.06892 9.72509 5.23757 9.87125 5.71726L12.1798 13.6098C12.3896 14.3031 12.6183 14.9964 12.6595 15.6035H12.7419C12.7869 14.9964 13.1017 14.1569 13.2928 13.5685L15.9311 5.72851C16.0998 5.24506 15.9124 5.08017 15.6201 4.97149L14.4883 4.52927V4.13202L19.0004 4.14326V4.54051L18.3896 4.93776L18.3858 4.94151Z" fill="white"/>
<path d="M18.3858 4.94151C18.1347 5.11015 18.0073 5.29753 17.8387 5.736L13.1542 18.5416L10.4484 18.5341L6.15736 5.70977C6.0112 5.26755 5.86504 5.08017 5.61395 4.91152L5.00684 4.51053V4.11328L11.3216 4.12827V4.52552L10.186 4.96399C9.89373 5.06892 9.72509 5.23757 9.87125 5.71726L12.1798 13.6097C12.3896 14.3031 12.6183 14.9964 12.6595 15.6035H12.7419C12.7869 14.9964 13.1017 14.1569 13.2928 13.5685L15.9311 5.72851C16.0998 5.24506 15.9124 5.08017 15.6201 4.97149L14.4883 4.52927V4.13202L19.0004 4.14326V4.54051L18.3896 4.93776L18.3858 4.94151Z" fill="white"/>
<path d="M18.5497 12.9013C18.6284 14.1718 17.5828 15.2211 16.3086 15.1424C15.2593 15.075 14.4085 14.2243 14.3411 13.1749C14.2624 11.9045 15.308 10.8551 16.5822 10.9338C17.6315 11.0013 18.4822 11.852 18.5497 12.9013Z" fill="#FF3333"/>
</svg>
