<svg width="20" height="20" viewBox="0 0 20 20" fill="none" xmlns="http://www.w3.org/2000/svg">
<g id="interface-time-stop-watch-circle--Streamline-Flex" clip-path="url(#clip0_3904_99705)">
<path id="Vector" d="M18.9199 9.89062C18.9066 11.4155 18.56 12.919 17.9043 14.2958" stroke="black" stroke-width="1.71455" stroke-linecap="round" stroke-linejoin="round"/>
<path id="Vector_2" d="M10.0001 18.8106C8.82872 18.8106 7.66879 18.5799 6.58656 18.1316C5.50433 17.6833 4.52099 17.0263 3.69269 16.1981C2.01986 14.5252 1.08008 12.2564 1.08008 9.89062" stroke="black" stroke-width="1.71455" stroke-linecap="round" stroke-linejoin="round"/>
<path id="Vector_3" d="M12.0172 12.2708L9.85447 9.56738H6.61035" stroke="black" stroke-width="1.71455" stroke-linecap="round" stroke-linejoin="round"/>
<path id="Vector_4" d="M16.8612 18.1238C17.998 18.1238 18.9196 17.2022 18.9196 16.0654C18.9196 14.9285 17.998 14.0068 16.8612 14.0068C15.7243 14.0068 14.8027 14.9285 14.8027 16.0654C14.8027 17.2022 15.7243 18.1238 16.8612 18.1238Z" fill="#BADDFD"/>
<path id="Vector_5" d="M16.8612 18.1238C17.998 18.1238 18.9196 17.2022 18.9196 16.0654C18.9196 14.9285 17.998 14.0068 16.8612 14.0068C15.7243 14.0068 14.8027 14.9285 14.8027 16.0654C14.8027 17.2022 15.7243 18.1238 16.8612 18.1238Z" stroke="black" stroke-width="1.71455" stroke-linecap="round" stroke-linejoin="round"/>
<path id="Vector_6" d="M1.65625 6.59728C1.95543 5.84964 2.35737 5.14736 2.85052 4.51074" stroke="black" stroke-width="1.71455" stroke-linecap="round" stroke-linejoin="round"/>
<path id="Vector_7" d="M5.49902 2.15036C6.27264 1.70366 7.11079 1.37951 7.98365 1.18945" stroke="black" stroke-width="1.71455" stroke-linecap="round" stroke-linejoin="round"/>
<path id="Vector_8" d="M18.3436 6.59728C18.0445 5.84964 17.6426 5.14736 17.1494 4.51074" stroke="black" stroke-width="1.71455" stroke-linecap="round" stroke-linejoin="round"/>
<path id="Vector_9" d="M14.5022 2.15036C13.7286 1.70366 12.8904 1.37951 12.0176 1.18945" stroke="black" stroke-width="1.71455" stroke-linecap="round" stroke-linejoin="round"/>
</g>
<defs>
<clipPath id="clip0_3904_99705">
<rect width="20" height="20" fill="white"/>
</clipPath>
</defs>
</svg>
