<svg width="129" height="55" viewBox="0 0 129 55" fill="none" xmlns="http://www.w3.org/2000/svg">
<g clip-path="url(#clip0_5626_73340)">
<path d="M50.4056 54.9995L49.3755 53.172C56.0405 49.8019 56.2569 44.5425 56.2757 36.9905L56.3087 21.4213C56.3087 20.3296 56.1581 19.9119 55.382 19.703L52.9597 19.0195V18.0322L63.8533 16.7031L64.2155 16.9642L64.1731 37.0665C64.1543 45.5536 61.4591 50.4427 50.4056 54.9995Z" fill="black"/>
<path d="M112.404 44.8745C108.688 44.865 104.718 44.0249 102.141 43.1325L102.211 10.4799C102.211 9.3882 102.061 8.97049 101.285 8.76163L98.8623 8.07811V7.09079L109.756 5.76172L110.118 6.02279L110.085 20.1869H110.24C112.672 18.2123 114.892 17.282 117.987 17.2867C124.695 17.3009 128.039 23.4005 128.025 29.5996C128.001 39.6484 121.901 44.8983 112.409 44.8745H112.404ZM113.227 21.8578C112.145 21.8578 110.955 22.2707 110.076 23.0492L110.038 39.9237C111.068 41.0202 112.973 41.9078 114.474 41.9126C119.168 41.9221 120.057 36.7672 120.066 32.9698C120.076 28.8022 118.335 21.872 113.227 21.8625V21.8578Z" fill="black"/>
<path d="M64.8459 5.20238L64.1686 3.10909L59.9259 4.50462V0H57.7434V4.50462L53.5007 3.11383L52.8281 5.20713L57.0708 6.59791L54.4509 10.2386L56.2147 11.5345L58.8347 7.88901L61.4593 11.5297L63.2232 10.2386L60.5985 6.59791L64.8459 5.20238Z" fill="#0092FB"/>
<path d="M33.8959 11.0076C33.275 11.4206 32.9646 11.8905 32.5506 12.9822L21.0267 44.7756L14.3711 44.7614L3.80669 12.9205C3.44921 11.824 3.08703 11.3589 2.47086 10.9364L0.975098 9.94434V8.95703L16.5112 8.99026V9.97757L13.722 11.0646C12.9976 11.3256 12.5837 11.7386 12.9459 12.9395L18.6326 32.5339C19.1453 34.2522 19.7097 35.9705 19.8085 37.4847H20.0154C20.1236 35.9752 20.8997 33.8962 21.3701 32.4342L27.8611 12.9727C28.275 11.7766 27.8141 11.3589 27.0897 11.0978L24.3052 9.99656V9.00924L35.401 9.03298V10.0203L33.9006 11.0076H33.8959Z" fill="black"/>
<path d="M47.635 44.7479L39.7188 44.7147V40.5471L39.7564 21.5413L39.7188 17.7724L47.3011 16.8184L47.6632 17.0794L47.6538 20.9337L47.6397 42.8587V44.7479L39.5918 44.7147" fill="black"/>
<path d="M83.0442 45.1221C74.3237 45.1031 69.3802 39.6776 69.399 31.1858C69.4178 23.2683 74.2814 16.4568 83.7263 16.4805C93.0159 16.4995 97.3903 22.3949 97.3715 30.3124C97.3527 39.165 91.5578 45.1411 83.0442 45.1221ZM82.5362 18.7684C78.8721 18.7589 77.8326 22.974 77.8185 28.0292C77.8091 32.1446 78.9191 42.82 84.032 42.8342C87.7479 42.8437 88.9426 38.7331 88.9567 33.6778C88.9661 29.458 87.7526 18.7827 82.5409 18.7684H82.5362Z" fill="black"/>
</g>
<defs>
<clipPath id="clip0_5626_73340">
<rect width="127.05" height="55" fill="white" transform="translate(0.975098)"/>
</clipPath>
</defs>
</svg>
