<svg width="117" height="50" viewBox="0 0 117 50" fill="none" xmlns="http://www.w3.org/2000/svg">
<g id="vijob" clip-path="url(#clip0_5712_27135)">
<path id="Vector" d="M45.4284 50.0004L44.4879 48.3391C50.5733 45.2753 50.7708 40.4941 50.788 33.6286L50.8181 19.4748C50.8181 18.4823 50.6807 18.1026 49.972 17.9127L47.7604 17.2914V16.3938L57.7065 15.1855L58.0372 15.4229L57.9986 33.6977C57.9814 41.4132 55.5206 45.8579 45.4284 50.0004Z" fill="white"/>
<path id="Vector_2" d="M102.035 40.7954C98.6421 40.7867 95.0175 40.023 92.6641 39.2117L92.7286 9.52757C92.7286 8.53508 92.5911 8.15534 91.8825 7.96547L89.6708 7.34409V6.44653L99.617 5.23828L99.9477 5.47562L99.9176 18.3521H100.059C102.28 16.557 104.307 15.7112 107.132 15.7155C113.256 15.7285 116.31 21.2735 116.297 26.9091C116.276 36.0444 110.706 40.8169 102.039 40.7954H102.035ZM102.786 19.8711C101.799 19.8711 100.712 20.2465 99.909 20.9542L99.8747 36.2946C100.815 37.2914 102.554 38.0984 103.924 38.1027C108.21 38.1113 109.022 33.425 109.031 29.9729C109.039 26.1842 107.45 19.884 102.786 19.8754V19.8711Z" fill="white"/>
<g id="Group">
<path id="Vector_3" d="M58.6126 4.72944L57.9942 2.82644L54.1206 4.09511V0H52.1279V4.09511L48.2542 2.83076L47.6401 4.73375L51.5138 5.9981L49.1217 9.30784L50.7322 10.4859L53.1242 7.17183L55.5206 10.4816L57.131 9.30784L54.7347 5.9981L58.6126 4.72944Z" fill="#0092FB"/>
<g id="Group_2">
<path id="Vector_4" d="M30.3545 10.0067C29.7876 10.3822 29.5042 10.8094 29.1263 11.8019L18.6047 40.7049L12.5279 40.692L2.88231 11.7458C2.55593 10.7489 2.22525 10.3261 1.66266 9.94201L0.296997 9.04014V8.14258L14.4819 8.17278V9.07034L11.9352 10.0585C11.2739 10.2959 10.8959 10.6713 11.2266 11.763L16.4187 29.5761C16.8868 31.1382 17.4022 32.7003 17.4924 34.0768H17.6813C17.7801 32.7046 18.4887 30.8145 18.9182 29.4855L24.8446 11.7932C25.2225 10.7058 24.8017 10.3261 24.1403 10.0887L21.5979 9.0876V8.19004L31.7288 8.21162V9.10918L30.3588 10.0067H30.3545Z" fill="white"/>
<path id="Vector_5" d="M42.8989 40.6796L35.6712 40.6494V36.8607L35.7055 19.5827L35.6712 16.1564L42.594 15.2891L42.9247 15.5264L42.9161 19.0303L42.9032 38.9621V40.6796L35.5552 40.6494" fill="white"/>
<path id="Vector_6" d="M75.2282 41.0203C67.2662 41.003 62.7526 36.0708 62.7698 28.3509C62.7869 21.1532 67.2275 14.9609 75.851 14.9825C84.3327 14.9997 88.3266 20.3592 88.3094 27.5569C88.2923 35.6047 83.0014 41.0375 75.2282 41.0203ZM74.7644 17.0624C71.419 17.0538 70.4699 20.8856 70.457 25.4813C70.4484 29.2226 71.4619 38.9274 76.1301 38.9404C79.5228 38.949 80.6136 35.212 80.6265 30.6164C80.6351 26.7802 79.5271 17.0753 74.7687 17.0624H74.7644Z" fill="white"/>
</g>
</g>
</g>
<defs>
<clipPath id="clip0_5712_27135">
<rect width="116" height="50" fill="white" transform="translate(0.296997)"/>
</clipPath>
</defs>
</svg>
