<svg width="109" height="32" viewBox="0 0 109 32" fill="none" xmlns="http://www.w3.org/2000/svg">
<path d="M28.6191 31.5985L28.0312 30.5635C31.8302 28.6521 31.9503 25.6676 31.9629 21.3876L31.9819 12.5547C31.9819 11.9324 31.8934 11.6975 31.4572 11.5768L30.0793 11.1895V10.6307L36.2865 9.875L36.4951 10.0211L36.4698 21.4194C36.4571 26.2327 34.9211 29.0077 28.6254 31.5922L28.6191 31.5985Z" fill="black"/>
<path d="M63.9409 25.8511C61.8233 25.8511 59.5604 25.3685 58.0939 24.8605L58.1319 6.34378C58.1319 5.72148 58.0434 5.48653 57.6072 5.36588L56.2292 4.97852V4.41972L62.4365 3.66406L62.6451 3.81011L62.6261 11.8429H62.7146C64.0989 10.7253 65.3631 10.1919 67.1266 10.1983C70.9508 10.2046 72.8535 13.6654 72.8471 17.1833C72.8345 22.8857 69.358 25.8575 63.9472 25.8448L63.9409 25.8511ZM64.4149 12.7954C63.7955 12.7954 63.1191 13.0304 62.6198 13.4685L62.6008 23.0381C63.1887 23.6604 64.2759 24.162 65.1292 24.1684C67.803 24.1684 68.3087 21.2537 68.315 19.0947C68.315 16.7325 67.3289 12.8018 64.4213 12.7954H64.4149Z" fill="black"/>
<path d="M36.8427 3.35316L36.4571 2.1657L34.0425 2.95311V0.400391H32.7973V2.95311L30.3827 2.1657L29.9971 3.35316L32.418 4.14057L30.9199 6.20433L31.925 6.94094L33.423 4.87082L34.9148 6.94094L35.9198 6.20433L34.4281 4.14057L36.8427 3.35316Z" fill="#2DB7EA"/>
<path d="M19.2135 6.64204C18.8595 6.87699 18.6825 7.14369 18.4486 7.766L11.8811 25.8001H8.08852L2.07093 7.73424C1.86866 7.11194 1.66007 6.84524 1.30609 6.61029L0.452759 6.04513V5.48633L9.30215 5.50538V6.06418L7.70926 6.68014C7.2984 6.82619 7.06452 7.06114 7.26679 7.74059L10.5031 18.8532C10.7939 19.8311 11.1163 20.8026 11.1732 21.6599H11.2933C11.3565 20.8026 11.7989 19.6215 12.0644 18.796L15.7622 7.75964C15.9961 7.08019 15.7369 6.84524 15.3261 6.69284L13.7395 6.07053V5.51173L20.0605 5.52443V6.08323L19.2072 6.64204H19.2135Z" fill="black"/>
<path d="M27.0388 25.7745L22.5257 25.7555V23.3932L22.5446 12.6109L22.5257 10.4773L26.8429 9.9375L27.0452 10.0836V12.268L27.0325 24.7014V25.7745L22.4435 25.7555" fill="black"/>
<path d="M47.2155 25.9915C42.2472 25.9788 39.428 22.9054 39.4407 18.0857C39.4533 13.5962 42.2219 9.73538 47.6011 9.74808C52.8917 9.76078 55.3822 13.1009 55.3759 17.5904C55.3632 22.6133 52.0637 25.9978 47.2155 25.9915ZM46.9247 11.0498C44.8388 11.0498 44.2446 13.4375 44.2383 16.3013C44.2383 18.6318 44.8641 24.6897 47.778 24.6961C49.8956 24.6961 50.5782 22.372 50.5846 19.5017C50.5846 17.1078 49.8956 11.0498 46.931 11.0435L46.9247 11.0498Z" fill="black"/>
<path d="M80.8472 26.2665L87.7307 5.73047H92.5157V10.2009H90.8596L86.3148 26.2665H80.8472ZM84.8736 21.7707L86.0367 17.9988H95.809L96.972 21.7707H84.8736ZM95.5245 26.2665L90.9608 10.2009V5.73047H94.1086L100.992 26.2665H95.5245Z" fill="#0092FB"/>
<path d="M102.945 26.2665V5.73047H108.141V26.2665H102.945Z" fill="#0092FB"/>
</svg>
